G75*
%MOIN*%
%OFA0B0*%
%FSLAX25Y25*%
%IPPOS*%
%LPD*%
%AMOC8*
5,1,8,0,0,1.08239X$1,22.5*
%
%ADD10C,0.00300*%
D10*
X0046167Y0081400D02*
X0045550Y0082018D01*
X0046167Y0081400D02*
X0047402Y0081400D01*
X0048019Y0082018D01*
X0048019Y0082635D01*
X0047402Y0083252D01*
X0046167Y0083252D01*
X0045550Y0083869D01*
X0045550Y0084486D01*
X0046167Y0085104D01*
X0047402Y0085104D01*
X0048019Y0084486D01*
X0048019Y0084535D02*
X0048019Y0083918D01*
X0047402Y0083300D01*
X0046167Y0083300D01*
X0045550Y0083918D01*
X0046167Y0085152D02*
X0047402Y0085152D01*
X0048019Y0084535D01*
X0048019Y0086386D02*
X0047402Y0087004D01*
X0046167Y0087004D01*
X0045550Y0086386D01*
X0045550Y0085769D01*
X0046167Y0085152D01*
X0029287Y0086371D02*
X0025584Y0083902D01*
X0029287Y0083902D01*
X0029287Y0086371D02*
X0025584Y0086371D01*
X0025584Y0087586D02*
X0026818Y0088820D01*
X0026818Y0088203D02*
X0026818Y0090054D01*
X0025584Y0090054D02*
X0029287Y0090054D01*
X0029287Y0088203D01*
X0028670Y0087586D01*
X0027435Y0087586D01*
X0026818Y0088203D01*
X0026201Y0091269D02*
X0027435Y0091269D01*
X0027435Y0092503D01*
X0026201Y0091269D02*
X0025584Y0091886D01*
X0025584Y0093120D01*
X0026201Y0093737D01*
X0028670Y0093737D01*
X0029287Y0093120D01*
X0029287Y0091886D01*
X0028670Y0091269D01*
X0032350Y0109350D02*
X0032350Y0111818D01*
X0032350Y0110584D02*
X0036053Y0110584D01*
X0034819Y0111818D01*
X0035436Y0113033D02*
X0032967Y0115502D01*
X0032350Y0114884D01*
X0032350Y0113650D01*
X0032967Y0113033D01*
X0035436Y0113033D01*
X0036053Y0113650D01*
X0036053Y0114884D01*
X0035436Y0115502D01*
X0032967Y0115502D01*
X0032350Y0116716D02*
X0032350Y0119185D01*
X0032350Y0117950D02*
X0036053Y0117950D01*
X0034819Y0119185D01*
X0035436Y0120399D02*
X0032967Y0122868D01*
X0032350Y0122251D01*
X0032350Y0121016D01*
X0032967Y0120399D01*
X0035436Y0120399D01*
X0036053Y0121016D01*
X0036053Y0122251D01*
X0035436Y0122868D01*
X0032967Y0122868D01*
X0032967Y0124082D02*
X0032350Y0124699D01*
X0032350Y0125934D01*
X0032967Y0126551D01*
X0035436Y0124082D01*
X0032967Y0124082D01*
X0035436Y0124082D02*
X0036053Y0124699D01*
X0036053Y0125934D01*
X0035436Y0126551D01*
X0032967Y0126551D01*
X0032350Y0127765D02*
X0032350Y0130234D01*
X0034819Y0127765D01*
X0035436Y0127765D01*
X0036053Y0128383D01*
X0036053Y0129617D01*
X0035436Y0130234D01*
X0035436Y0131449D02*
X0032967Y0131449D01*
X0032350Y0132066D01*
X0032350Y0133300D01*
X0032967Y0133917D01*
X0035436Y0131449D01*
X0036053Y0132066D01*
X0036053Y0133300D01*
X0035436Y0133917D01*
X0032967Y0133917D01*
X0032350Y0135132D02*
X0032350Y0137600D01*
X0034819Y0135132D01*
X0035436Y0135132D01*
X0036053Y0135749D01*
X0036053Y0136983D01*
X0035436Y0137600D01*
X0038150Y0136983D02*
X0038150Y0136366D01*
X0038767Y0135749D01*
X0041853Y0135749D01*
X0041853Y0136366D02*
X0041853Y0135132D01*
X0041236Y0133917D02*
X0041853Y0133300D01*
X0041853Y0132066D01*
X0041236Y0131449D01*
X0038767Y0133917D01*
X0038150Y0133300D01*
X0038150Y0132066D01*
X0038767Y0131449D01*
X0041236Y0131449D01*
X0041236Y0130234D02*
X0038767Y0130234D01*
X0041236Y0127765D01*
X0038767Y0127765D01*
X0038150Y0128383D01*
X0038150Y0129617D01*
X0038767Y0130234D01*
X0041236Y0130234D02*
X0041853Y0129617D01*
X0041853Y0128383D01*
X0041236Y0127765D01*
X0041236Y0126551D02*
X0041853Y0125934D01*
X0041853Y0124699D01*
X0041236Y0124082D01*
X0040619Y0124082D01*
X0038150Y0126551D01*
X0038150Y0124082D01*
X0038767Y0122868D02*
X0038150Y0122251D01*
X0038150Y0121016D01*
X0038767Y0120399D01*
X0039384Y0120399D01*
X0040002Y0121016D01*
X0040002Y0122868D01*
X0038767Y0122868D01*
X0040002Y0122868D02*
X0041236Y0121634D01*
X0041853Y0120399D01*
X0041236Y0119185D02*
X0041853Y0118568D01*
X0041853Y0117333D01*
X0041236Y0116716D01*
X0038767Y0119185D01*
X0038150Y0118568D01*
X0038150Y0117333D01*
X0038767Y0116716D01*
X0041236Y0116716D01*
X0041236Y0115502D02*
X0040619Y0115502D01*
X0040002Y0114884D01*
X0040002Y0113033D01*
X0041236Y0113033D02*
X0041853Y0113650D01*
X0041853Y0114884D01*
X0041236Y0115502D01*
X0038767Y0115502D02*
X0038150Y0114884D01*
X0038150Y0113650D01*
X0038767Y0113033D01*
X0041236Y0113033D01*
X0041236Y0111818D02*
X0038767Y0111818D01*
X0038150Y0111201D01*
X0038150Y0109967D01*
X0038767Y0109350D01*
X0041236Y0109350D02*
X0041853Y0109967D01*
X0041853Y0111201D01*
X0041236Y0111818D01*
X0041236Y0119185D02*
X0038767Y0119185D01*
X0024187Y0118554D02*
X0024187Y0116086D01*
X0024187Y0114871D02*
X0024187Y0113020D01*
X0023570Y0112402D01*
X0021101Y0112402D01*
X0020484Y0113020D01*
X0020484Y0114871D01*
X0024187Y0114871D01*
X0022335Y0117320D02*
X0022335Y0118554D01*
X0022335Y0119769D02*
X0021718Y0120386D01*
X0021718Y0122237D01*
X0021718Y0121003D02*
X0020484Y0119769D01*
X0020484Y0118554D02*
X0020484Y0116086D01*
X0020484Y0118554D02*
X0024187Y0118554D01*
X0023570Y0119769D02*
X0022335Y0119769D01*
X0023570Y0119769D02*
X0024187Y0120386D01*
X0024187Y0122237D01*
X0020484Y0122237D01*
X0021101Y0124702D02*
X0023570Y0124702D01*
X0024187Y0125320D01*
X0024187Y0127171D01*
X0020484Y0127171D01*
X0020484Y0125320D01*
X0021101Y0124702D01*
X0020484Y0128386D02*
X0024187Y0128386D01*
X0024187Y0130854D02*
X0020484Y0130854D01*
X0021101Y0132069D02*
X0022335Y0132069D01*
X0022335Y0133303D01*
X0021101Y0132069D02*
X0020484Y0132686D01*
X0020484Y0133920D01*
X0021101Y0134538D01*
X0023570Y0134538D01*
X0024187Y0133920D01*
X0024187Y0132686D01*
X0023570Y0132069D01*
X0024187Y0130854D02*
X0020484Y0128386D01*
X0038767Y0133917D02*
X0041236Y0133917D01*
X0038150Y0136983D02*
X0038767Y0137600D01*
X0029487Y0155502D02*
X0026401Y0155502D01*
X0025784Y0156120D01*
X0025784Y0157354D01*
X0026401Y0157971D01*
X0029487Y0157971D01*
X0025784Y0159186D02*
X0025784Y0161654D01*
X0029487Y0161654D01*
X0028870Y0162869D02*
X0028253Y0162869D01*
X0027635Y0163486D01*
X0027635Y0165338D01*
X0025784Y0165338D02*
X0025784Y0163486D01*
X0026401Y0162869D01*
X0027018Y0162869D01*
X0027635Y0163486D01*
X0028870Y0162869D02*
X0029487Y0163486D01*
X0029487Y0165338D01*
X0025784Y0165338D01*
M02*
