G75*
%MOIN*%
%OFA0B0*%
%FSLAX25Y25*%
%IPPOS*%
%LPD*%
%AMOC8*
5,1,8,0,0,1.08239X$1,22.5*
%
%ADD10C,0.01200*%
%ADD11C,0.00500*%
%ADD12C,0.00400*%
D10*
X0032300Y0088750D02*
X0032303Y0088959D01*
X0032310Y0089167D01*
X0032323Y0089375D01*
X0032341Y0089583D01*
X0032364Y0089790D01*
X0032392Y0089997D01*
X0032425Y0090203D01*
X0032463Y0090408D01*
X0032507Y0090612D01*
X0032555Y0090815D01*
X0032608Y0091017D01*
X0032666Y0091217D01*
X0032729Y0091416D01*
X0032797Y0091614D01*
X0032870Y0091809D01*
X0032947Y0092003D01*
X0033029Y0092195D01*
X0033116Y0092384D01*
X0033208Y0092572D01*
X0033304Y0092757D01*
X0033404Y0092940D01*
X0033509Y0093120D01*
X0033619Y0093297D01*
X0033733Y0093472D01*
X0033851Y0093644D01*
X0033973Y0093813D01*
X0034099Y0093979D01*
X0034229Y0094142D01*
X0034364Y0094302D01*
X0034502Y0094458D01*
X0034644Y0094611D01*
X0034790Y0094760D01*
X0034939Y0094906D01*
X0035092Y0095048D01*
X0035248Y0095186D01*
X0035408Y0095321D01*
X0035571Y0095451D01*
X0035737Y0095577D01*
X0035906Y0095699D01*
X0036078Y0095817D01*
X0036253Y0095931D01*
X0036430Y0096041D01*
X0036610Y0096146D01*
X0036793Y0096246D01*
X0036978Y0096342D01*
X0037166Y0096434D01*
X0037355Y0096521D01*
X0037547Y0096603D01*
X0037741Y0096680D01*
X0037936Y0096753D01*
X0038134Y0096821D01*
X0038333Y0096884D01*
X0038533Y0096942D01*
X0038735Y0096995D01*
X0038938Y0097043D01*
X0039142Y0097087D01*
X0039347Y0097125D01*
X0039553Y0097158D01*
X0039760Y0097186D01*
X0039967Y0097209D01*
X0040175Y0097227D01*
X0040383Y0097240D01*
X0040591Y0097247D01*
X0040800Y0097250D01*
X0041009Y0097247D01*
X0041217Y0097240D01*
X0041425Y0097227D01*
X0041633Y0097209D01*
X0041840Y0097186D01*
X0042047Y0097158D01*
X0042253Y0097125D01*
X0042458Y0097087D01*
X0042662Y0097043D01*
X0042865Y0096995D01*
X0043067Y0096942D01*
X0043267Y0096884D01*
X0043466Y0096821D01*
X0043664Y0096753D01*
X0043859Y0096680D01*
X0044053Y0096603D01*
X0044245Y0096521D01*
X0044434Y0096434D01*
X0044622Y0096342D01*
X0044807Y0096246D01*
X0044990Y0096146D01*
X0045170Y0096041D01*
X0045347Y0095931D01*
X0045522Y0095817D01*
X0045694Y0095699D01*
X0045863Y0095577D01*
X0046029Y0095451D01*
X0046192Y0095321D01*
X0046352Y0095186D01*
X0046508Y0095048D01*
X0046661Y0094906D01*
X0046810Y0094760D01*
X0046956Y0094611D01*
X0047098Y0094458D01*
X0047236Y0094302D01*
X0047371Y0094142D01*
X0047501Y0093979D01*
X0047627Y0093813D01*
X0047749Y0093644D01*
X0047867Y0093472D01*
X0047981Y0093297D01*
X0048091Y0093120D01*
X0048196Y0092940D01*
X0048296Y0092757D01*
X0048392Y0092572D01*
X0048484Y0092384D01*
X0048571Y0092195D01*
X0048653Y0092003D01*
X0048730Y0091809D01*
X0048803Y0091614D01*
X0048871Y0091416D01*
X0048934Y0091217D01*
X0048992Y0091017D01*
X0049045Y0090815D01*
X0049093Y0090612D01*
X0049137Y0090408D01*
X0049175Y0090203D01*
X0049208Y0089997D01*
X0049236Y0089790D01*
X0049259Y0089583D01*
X0049277Y0089375D01*
X0049290Y0089167D01*
X0049297Y0088959D01*
X0049300Y0088750D01*
X0049297Y0088541D01*
X0049290Y0088333D01*
X0049277Y0088125D01*
X0049259Y0087917D01*
X0049236Y0087710D01*
X0049208Y0087503D01*
X0049175Y0087297D01*
X0049137Y0087092D01*
X0049093Y0086888D01*
X0049045Y0086685D01*
X0048992Y0086483D01*
X0048934Y0086283D01*
X0048871Y0086084D01*
X0048803Y0085886D01*
X0048730Y0085691D01*
X0048653Y0085497D01*
X0048571Y0085305D01*
X0048484Y0085116D01*
X0048392Y0084928D01*
X0048296Y0084743D01*
X0048196Y0084560D01*
X0048091Y0084380D01*
X0047981Y0084203D01*
X0047867Y0084028D01*
X0047749Y0083856D01*
X0047627Y0083687D01*
X0047501Y0083521D01*
X0047371Y0083358D01*
X0047236Y0083198D01*
X0047098Y0083042D01*
X0046956Y0082889D01*
X0046810Y0082740D01*
X0046661Y0082594D01*
X0046508Y0082452D01*
X0046352Y0082314D01*
X0046192Y0082179D01*
X0046029Y0082049D01*
X0045863Y0081923D01*
X0045694Y0081801D01*
X0045522Y0081683D01*
X0045347Y0081569D01*
X0045170Y0081459D01*
X0044990Y0081354D01*
X0044807Y0081254D01*
X0044622Y0081158D01*
X0044434Y0081066D01*
X0044245Y0080979D01*
X0044053Y0080897D01*
X0043859Y0080820D01*
X0043664Y0080747D01*
X0043466Y0080679D01*
X0043267Y0080616D01*
X0043067Y0080558D01*
X0042865Y0080505D01*
X0042662Y0080457D01*
X0042458Y0080413D01*
X0042253Y0080375D01*
X0042047Y0080342D01*
X0041840Y0080314D01*
X0041633Y0080291D01*
X0041425Y0080273D01*
X0041217Y0080260D01*
X0041009Y0080253D01*
X0040800Y0080250D01*
X0040591Y0080253D01*
X0040383Y0080260D01*
X0040175Y0080273D01*
X0039967Y0080291D01*
X0039760Y0080314D01*
X0039553Y0080342D01*
X0039347Y0080375D01*
X0039142Y0080413D01*
X0038938Y0080457D01*
X0038735Y0080505D01*
X0038533Y0080558D01*
X0038333Y0080616D01*
X0038134Y0080679D01*
X0037936Y0080747D01*
X0037741Y0080820D01*
X0037547Y0080897D01*
X0037355Y0080979D01*
X0037166Y0081066D01*
X0036978Y0081158D01*
X0036793Y0081254D01*
X0036610Y0081354D01*
X0036430Y0081459D01*
X0036253Y0081569D01*
X0036078Y0081683D01*
X0035906Y0081801D01*
X0035737Y0081923D01*
X0035571Y0082049D01*
X0035408Y0082179D01*
X0035248Y0082314D01*
X0035092Y0082452D01*
X0034939Y0082594D01*
X0034790Y0082740D01*
X0034644Y0082889D01*
X0034502Y0083042D01*
X0034364Y0083198D01*
X0034229Y0083358D01*
X0034099Y0083521D01*
X0033973Y0083687D01*
X0033851Y0083856D01*
X0033733Y0084028D01*
X0033619Y0084203D01*
X0033509Y0084380D01*
X0033404Y0084560D01*
X0033304Y0084743D01*
X0033208Y0084928D01*
X0033116Y0085116D01*
X0033029Y0085305D01*
X0032947Y0085497D01*
X0032870Y0085691D01*
X0032797Y0085886D01*
X0032729Y0086084D01*
X0032666Y0086283D01*
X0032608Y0086483D01*
X0032555Y0086685D01*
X0032507Y0086888D01*
X0032463Y0087092D01*
X0032425Y0087297D01*
X0032392Y0087503D01*
X0032364Y0087710D01*
X0032341Y0087917D01*
X0032323Y0088125D01*
X0032310Y0088333D01*
X0032303Y0088541D01*
X0032300Y0088750D01*
X0027300Y0123750D02*
X0027303Y0123959D01*
X0027310Y0124167D01*
X0027323Y0124375D01*
X0027341Y0124583D01*
X0027364Y0124790D01*
X0027392Y0124997D01*
X0027425Y0125203D01*
X0027463Y0125408D01*
X0027507Y0125612D01*
X0027555Y0125815D01*
X0027608Y0126017D01*
X0027666Y0126217D01*
X0027729Y0126416D01*
X0027797Y0126614D01*
X0027870Y0126809D01*
X0027947Y0127003D01*
X0028029Y0127195D01*
X0028116Y0127384D01*
X0028208Y0127572D01*
X0028304Y0127757D01*
X0028404Y0127940D01*
X0028509Y0128120D01*
X0028619Y0128297D01*
X0028733Y0128472D01*
X0028851Y0128644D01*
X0028973Y0128813D01*
X0029099Y0128979D01*
X0029229Y0129142D01*
X0029364Y0129302D01*
X0029502Y0129458D01*
X0029644Y0129611D01*
X0029790Y0129760D01*
X0029939Y0129906D01*
X0030092Y0130048D01*
X0030248Y0130186D01*
X0030408Y0130321D01*
X0030571Y0130451D01*
X0030737Y0130577D01*
X0030906Y0130699D01*
X0031078Y0130817D01*
X0031253Y0130931D01*
X0031430Y0131041D01*
X0031610Y0131146D01*
X0031793Y0131246D01*
X0031978Y0131342D01*
X0032166Y0131434D01*
X0032355Y0131521D01*
X0032547Y0131603D01*
X0032741Y0131680D01*
X0032936Y0131753D01*
X0033134Y0131821D01*
X0033333Y0131884D01*
X0033533Y0131942D01*
X0033735Y0131995D01*
X0033938Y0132043D01*
X0034142Y0132087D01*
X0034347Y0132125D01*
X0034553Y0132158D01*
X0034760Y0132186D01*
X0034967Y0132209D01*
X0035175Y0132227D01*
X0035383Y0132240D01*
X0035591Y0132247D01*
X0035800Y0132250D01*
X0036009Y0132247D01*
X0036217Y0132240D01*
X0036425Y0132227D01*
X0036633Y0132209D01*
X0036840Y0132186D01*
X0037047Y0132158D01*
X0037253Y0132125D01*
X0037458Y0132087D01*
X0037662Y0132043D01*
X0037865Y0131995D01*
X0038067Y0131942D01*
X0038267Y0131884D01*
X0038466Y0131821D01*
X0038664Y0131753D01*
X0038859Y0131680D01*
X0039053Y0131603D01*
X0039245Y0131521D01*
X0039434Y0131434D01*
X0039622Y0131342D01*
X0039807Y0131246D01*
X0039990Y0131146D01*
X0040170Y0131041D01*
X0040347Y0130931D01*
X0040522Y0130817D01*
X0040694Y0130699D01*
X0040863Y0130577D01*
X0041029Y0130451D01*
X0041192Y0130321D01*
X0041352Y0130186D01*
X0041508Y0130048D01*
X0041661Y0129906D01*
X0041810Y0129760D01*
X0041956Y0129611D01*
X0042098Y0129458D01*
X0042236Y0129302D01*
X0042371Y0129142D01*
X0042501Y0128979D01*
X0042627Y0128813D01*
X0042749Y0128644D01*
X0042867Y0128472D01*
X0042981Y0128297D01*
X0043091Y0128120D01*
X0043196Y0127940D01*
X0043296Y0127757D01*
X0043392Y0127572D01*
X0043484Y0127384D01*
X0043571Y0127195D01*
X0043653Y0127003D01*
X0043730Y0126809D01*
X0043803Y0126614D01*
X0043871Y0126416D01*
X0043934Y0126217D01*
X0043992Y0126017D01*
X0044045Y0125815D01*
X0044093Y0125612D01*
X0044137Y0125408D01*
X0044175Y0125203D01*
X0044208Y0124997D01*
X0044236Y0124790D01*
X0044259Y0124583D01*
X0044277Y0124375D01*
X0044290Y0124167D01*
X0044297Y0123959D01*
X0044300Y0123750D01*
X0044297Y0123541D01*
X0044290Y0123333D01*
X0044277Y0123125D01*
X0044259Y0122917D01*
X0044236Y0122710D01*
X0044208Y0122503D01*
X0044175Y0122297D01*
X0044137Y0122092D01*
X0044093Y0121888D01*
X0044045Y0121685D01*
X0043992Y0121483D01*
X0043934Y0121283D01*
X0043871Y0121084D01*
X0043803Y0120886D01*
X0043730Y0120691D01*
X0043653Y0120497D01*
X0043571Y0120305D01*
X0043484Y0120116D01*
X0043392Y0119928D01*
X0043296Y0119743D01*
X0043196Y0119560D01*
X0043091Y0119380D01*
X0042981Y0119203D01*
X0042867Y0119028D01*
X0042749Y0118856D01*
X0042627Y0118687D01*
X0042501Y0118521D01*
X0042371Y0118358D01*
X0042236Y0118198D01*
X0042098Y0118042D01*
X0041956Y0117889D01*
X0041810Y0117740D01*
X0041661Y0117594D01*
X0041508Y0117452D01*
X0041352Y0117314D01*
X0041192Y0117179D01*
X0041029Y0117049D01*
X0040863Y0116923D01*
X0040694Y0116801D01*
X0040522Y0116683D01*
X0040347Y0116569D01*
X0040170Y0116459D01*
X0039990Y0116354D01*
X0039807Y0116254D01*
X0039622Y0116158D01*
X0039434Y0116066D01*
X0039245Y0115979D01*
X0039053Y0115897D01*
X0038859Y0115820D01*
X0038664Y0115747D01*
X0038466Y0115679D01*
X0038267Y0115616D01*
X0038067Y0115558D01*
X0037865Y0115505D01*
X0037662Y0115457D01*
X0037458Y0115413D01*
X0037253Y0115375D01*
X0037047Y0115342D01*
X0036840Y0115314D01*
X0036633Y0115291D01*
X0036425Y0115273D01*
X0036217Y0115260D01*
X0036009Y0115253D01*
X0035800Y0115250D01*
X0035591Y0115253D01*
X0035383Y0115260D01*
X0035175Y0115273D01*
X0034967Y0115291D01*
X0034760Y0115314D01*
X0034553Y0115342D01*
X0034347Y0115375D01*
X0034142Y0115413D01*
X0033938Y0115457D01*
X0033735Y0115505D01*
X0033533Y0115558D01*
X0033333Y0115616D01*
X0033134Y0115679D01*
X0032936Y0115747D01*
X0032741Y0115820D01*
X0032547Y0115897D01*
X0032355Y0115979D01*
X0032166Y0116066D01*
X0031978Y0116158D01*
X0031793Y0116254D01*
X0031610Y0116354D01*
X0031430Y0116459D01*
X0031253Y0116569D01*
X0031078Y0116683D01*
X0030906Y0116801D01*
X0030737Y0116923D01*
X0030571Y0117049D01*
X0030408Y0117179D01*
X0030248Y0117314D01*
X0030092Y0117452D01*
X0029939Y0117594D01*
X0029790Y0117740D01*
X0029644Y0117889D01*
X0029502Y0118042D01*
X0029364Y0118198D01*
X0029229Y0118358D01*
X0029099Y0118521D01*
X0028973Y0118687D01*
X0028851Y0118856D01*
X0028733Y0119028D01*
X0028619Y0119203D01*
X0028509Y0119380D01*
X0028404Y0119560D01*
X0028304Y0119743D01*
X0028208Y0119928D01*
X0028116Y0120116D01*
X0028029Y0120305D01*
X0027947Y0120497D01*
X0027870Y0120691D01*
X0027797Y0120886D01*
X0027729Y0121084D01*
X0027666Y0121283D01*
X0027608Y0121483D01*
X0027555Y0121685D01*
X0027507Y0121888D01*
X0027463Y0122092D01*
X0027425Y0122297D01*
X0027392Y0122503D01*
X0027364Y0122710D01*
X0027341Y0122917D01*
X0027323Y0123125D01*
X0027310Y0123333D01*
X0027303Y0123541D01*
X0027300Y0123750D01*
X0032300Y0158750D02*
X0032303Y0158959D01*
X0032310Y0159167D01*
X0032323Y0159375D01*
X0032341Y0159583D01*
X0032364Y0159790D01*
X0032392Y0159997D01*
X0032425Y0160203D01*
X0032463Y0160408D01*
X0032507Y0160612D01*
X0032555Y0160815D01*
X0032608Y0161017D01*
X0032666Y0161217D01*
X0032729Y0161416D01*
X0032797Y0161614D01*
X0032870Y0161809D01*
X0032947Y0162003D01*
X0033029Y0162195D01*
X0033116Y0162384D01*
X0033208Y0162572D01*
X0033304Y0162757D01*
X0033404Y0162940D01*
X0033509Y0163120D01*
X0033619Y0163297D01*
X0033733Y0163472D01*
X0033851Y0163644D01*
X0033973Y0163813D01*
X0034099Y0163979D01*
X0034229Y0164142D01*
X0034364Y0164302D01*
X0034502Y0164458D01*
X0034644Y0164611D01*
X0034790Y0164760D01*
X0034939Y0164906D01*
X0035092Y0165048D01*
X0035248Y0165186D01*
X0035408Y0165321D01*
X0035571Y0165451D01*
X0035737Y0165577D01*
X0035906Y0165699D01*
X0036078Y0165817D01*
X0036253Y0165931D01*
X0036430Y0166041D01*
X0036610Y0166146D01*
X0036793Y0166246D01*
X0036978Y0166342D01*
X0037166Y0166434D01*
X0037355Y0166521D01*
X0037547Y0166603D01*
X0037741Y0166680D01*
X0037936Y0166753D01*
X0038134Y0166821D01*
X0038333Y0166884D01*
X0038533Y0166942D01*
X0038735Y0166995D01*
X0038938Y0167043D01*
X0039142Y0167087D01*
X0039347Y0167125D01*
X0039553Y0167158D01*
X0039760Y0167186D01*
X0039967Y0167209D01*
X0040175Y0167227D01*
X0040383Y0167240D01*
X0040591Y0167247D01*
X0040800Y0167250D01*
X0041009Y0167247D01*
X0041217Y0167240D01*
X0041425Y0167227D01*
X0041633Y0167209D01*
X0041840Y0167186D01*
X0042047Y0167158D01*
X0042253Y0167125D01*
X0042458Y0167087D01*
X0042662Y0167043D01*
X0042865Y0166995D01*
X0043067Y0166942D01*
X0043267Y0166884D01*
X0043466Y0166821D01*
X0043664Y0166753D01*
X0043859Y0166680D01*
X0044053Y0166603D01*
X0044245Y0166521D01*
X0044434Y0166434D01*
X0044622Y0166342D01*
X0044807Y0166246D01*
X0044990Y0166146D01*
X0045170Y0166041D01*
X0045347Y0165931D01*
X0045522Y0165817D01*
X0045694Y0165699D01*
X0045863Y0165577D01*
X0046029Y0165451D01*
X0046192Y0165321D01*
X0046352Y0165186D01*
X0046508Y0165048D01*
X0046661Y0164906D01*
X0046810Y0164760D01*
X0046956Y0164611D01*
X0047098Y0164458D01*
X0047236Y0164302D01*
X0047371Y0164142D01*
X0047501Y0163979D01*
X0047627Y0163813D01*
X0047749Y0163644D01*
X0047867Y0163472D01*
X0047981Y0163297D01*
X0048091Y0163120D01*
X0048196Y0162940D01*
X0048296Y0162757D01*
X0048392Y0162572D01*
X0048484Y0162384D01*
X0048571Y0162195D01*
X0048653Y0162003D01*
X0048730Y0161809D01*
X0048803Y0161614D01*
X0048871Y0161416D01*
X0048934Y0161217D01*
X0048992Y0161017D01*
X0049045Y0160815D01*
X0049093Y0160612D01*
X0049137Y0160408D01*
X0049175Y0160203D01*
X0049208Y0159997D01*
X0049236Y0159790D01*
X0049259Y0159583D01*
X0049277Y0159375D01*
X0049290Y0159167D01*
X0049297Y0158959D01*
X0049300Y0158750D01*
X0049297Y0158541D01*
X0049290Y0158333D01*
X0049277Y0158125D01*
X0049259Y0157917D01*
X0049236Y0157710D01*
X0049208Y0157503D01*
X0049175Y0157297D01*
X0049137Y0157092D01*
X0049093Y0156888D01*
X0049045Y0156685D01*
X0048992Y0156483D01*
X0048934Y0156283D01*
X0048871Y0156084D01*
X0048803Y0155886D01*
X0048730Y0155691D01*
X0048653Y0155497D01*
X0048571Y0155305D01*
X0048484Y0155116D01*
X0048392Y0154928D01*
X0048296Y0154743D01*
X0048196Y0154560D01*
X0048091Y0154380D01*
X0047981Y0154203D01*
X0047867Y0154028D01*
X0047749Y0153856D01*
X0047627Y0153687D01*
X0047501Y0153521D01*
X0047371Y0153358D01*
X0047236Y0153198D01*
X0047098Y0153042D01*
X0046956Y0152889D01*
X0046810Y0152740D01*
X0046661Y0152594D01*
X0046508Y0152452D01*
X0046352Y0152314D01*
X0046192Y0152179D01*
X0046029Y0152049D01*
X0045863Y0151923D01*
X0045694Y0151801D01*
X0045522Y0151683D01*
X0045347Y0151569D01*
X0045170Y0151459D01*
X0044990Y0151354D01*
X0044807Y0151254D01*
X0044622Y0151158D01*
X0044434Y0151066D01*
X0044245Y0150979D01*
X0044053Y0150897D01*
X0043859Y0150820D01*
X0043664Y0150747D01*
X0043466Y0150679D01*
X0043267Y0150616D01*
X0043067Y0150558D01*
X0042865Y0150505D01*
X0042662Y0150457D01*
X0042458Y0150413D01*
X0042253Y0150375D01*
X0042047Y0150342D01*
X0041840Y0150314D01*
X0041633Y0150291D01*
X0041425Y0150273D01*
X0041217Y0150260D01*
X0041009Y0150253D01*
X0040800Y0150250D01*
X0040591Y0150253D01*
X0040383Y0150260D01*
X0040175Y0150273D01*
X0039967Y0150291D01*
X0039760Y0150314D01*
X0039553Y0150342D01*
X0039347Y0150375D01*
X0039142Y0150413D01*
X0038938Y0150457D01*
X0038735Y0150505D01*
X0038533Y0150558D01*
X0038333Y0150616D01*
X0038134Y0150679D01*
X0037936Y0150747D01*
X0037741Y0150820D01*
X0037547Y0150897D01*
X0037355Y0150979D01*
X0037166Y0151066D01*
X0036978Y0151158D01*
X0036793Y0151254D01*
X0036610Y0151354D01*
X0036430Y0151459D01*
X0036253Y0151569D01*
X0036078Y0151683D01*
X0035906Y0151801D01*
X0035737Y0151923D01*
X0035571Y0152049D01*
X0035408Y0152179D01*
X0035248Y0152314D01*
X0035092Y0152452D01*
X0034939Y0152594D01*
X0034790Y0152740D01*
X0034644Y0152889D01*
X0034502Y0153042D01*
X0034364Y0153198D01*
X0034229Y0153358D01*
X0034099Y0153521D01*
X0033973Y0153687D01*
X0033851Y0153856D01*
X0033733Y0154028D01*
X0033619Y0154203D01*
X0033509Y0154380D01*
X0033404Y0154560D01*
X0033304Y0154743D01*
X0033208Y0154928D01*
X0033116Y0155116D01*
X0033029Y0155305D01*
X0032947Y0155497D01*
X0032870Y0155691D01*
X0032797Y0155886D01*
X0032729Y0156084D01*
X0032666Y0156283D01*
X0032608Y0156483D01*
X0032555Y0156685D01*
X0032507Y0156888D01*
X0032463Y0157092D01*
X0032425Y0157297D01*
X0032392Y0157503D01*
X0032364Y0157710D01*
X0032341Y0157917D01*
X0032323Y0158125D01*
X0032310Y0158333D01*
X0032303Y0158541D01*
X0032300Y0158750D01*
D11*
X0037900Y0082350D02*
X0039100Y0082350D01*
X0039100Y0082450D02*
X0038000Y0083550D01*
X0037900Y0083450D02*
X0037900Y0082350D01*
X0039225Y0094656D02*
X0042375Y0094656D01*
X0034100Y0117350D02*
X0032900Y0117350D01*
X0032900Y0118450D01*
X0033000Y0118550D02*
X0034100Y0117450D01*
X0034225Y0129656D02*
X0037375Y0129656D01*
X0037900Y0152350D02*
X0039100Y0152350D01*
X0039100Y0152450D02*
X0038000Y0153550D01*
X0037900Y0153450D02*
X0037900Y0152350D01*
X0039225Y0164656D02*
X0042375Y0164656D01*
D12*
X0031240Y0161489D02*
X0031240Y0160288D01*
X0030640Y0159688D01*
X0030640Y0158407D02*
X0031240Y0157806D01*
X0031240Y0156005D01*
X0027637Y0156005D01*
X0027637Y0157806D01*
X0028238Y0158407D01*
X0030640Y0158407D01*
X0031240Y0161489D02*
X0030640Y0162090D01*
X0030039Y0162090D01*
X0027637Y0159688D01*
X0027637Y0162090D01*
X0022237Y0127190D02*
X0022237Y0124788D01*
X0022237Y0125989D02*
X0025840Y0125989D01*
X0024639Y0124788D01*
X0025240Y0123507D02*
X0025840Y0122906D01*
X0025840Y0121105D01*
X0022237Y0121105D01*
X0022237Y0122906D01*
X0022838Y0123507D01*
X0025240Y0123507D01*
X0028138Y0091990D02*
X0027537Y0091389D01*
X0027537Y0090188D01*
X0028138Y0089588D01*
X0028138Y0088307D02*
X0030540Y0088307D01*
X0031140Y0087706D01*
X0031140Y0085905D01*
X0027537Y0085905D01*
X0027537Y0087706D01*
X0028138Y0088307D01*
X0030540Y0089588D02*
X0031140Y0090188D01*
X0031140Y0091389D01*
X0030540Y0091990D01*
X0029939Y0091990D01*
X0029339Y0091389D01*
X0028738Y0091990D01*
X0028138Y0091990D01*
X0029339Y0091389D02*
X0029339Y0090789D01*
M02*
