%
M48
M72
T01C0.0120
T02C0.0170
T03C0.0236
T04C0.0250
T05C0.0433
T06C0.1250
T07C0.1750
%
T01
X19675Y55893
X27325Y57293
X27925Y57243
X28725Y55743
X28245Y55743
X27775Y55593
X19725Y59193
X34135Y56783
X41625Y54443
X42375Y53793
X27725Y58123
X26425Y57243
X27295Y56493
X30975Y55193
X25725Y55743
X24725Y52243
X24625Y55943
X24775Y53193
X26075Y51243
X35365Y55693
X40575Y54543
X43187Y51059
X43187Y50578
X31937Y51059
X31937Y50578
X23525Y50143
X24325Y47843
X28425Y48243
X26975Y46093
X26175Y45943
X26525Y47793
X26425Y47143
X25125Y46543
X23225Y47293
X27985Y41883
X27975Y38743
X31937Y44478
X31937Y44958
X47325Y53293
X48812Y51059
X48812Y50578
X54437Y50578
X54437Y51059
X59575Y55593
X61275Y54943
X52235Y55953
X66075Y55393
X64925Y55043
X61975Y55643
X60062Y51059
X60062Y50578
X37562Y50578
X37562Y51059
X37562Y44478
X37562Y44958
X43187Y44958
X43187Y44478
X48812Y44478
X48812Y44958
X37562Y39809
X37562Y39328
X25175Y50693
X25475Y50943
X26125Y50793
X28435Y51573
X26845Y50503
X28725Y50143
X60062Y39328
X60062Y39809
X54437Y39809
X54437Y39328
X48812Y33228
X48812Y33708
X31937Y33708
X31937Y33228
X22075Y36343
X22475Y33743
X31937Y21978
X31937Y22458
X31937Y28078
X31937Y28559
X26525Y35643
X27325Y31143
X28025Y26243
X27645Y30903
X27625Y21293
X31937Y16828
X31937Y17309
X37562Y28078
X37562Y28559
X37562Y33228
X37562Y33708
X43187Y28078
X43187Y28559
X43187Y33228
X43187Y33708
X48812Y28078
X48812Y28559
X54437Y28559
X54437Y28078
X48812Y22458
X48812Y21978
X43187Y21978
X43187Y22458
X37562Y22458
X37562Y21978
X37562Y17309
X37562Y16828
X43187Y16828
X43187Y17309
X48812Y17309
X48812Y16828
X48812Y11208
X48812Y10728
X43187Y10728
X43187Y11208
X37562Y11208
X37562Y10728
X31937Y10728
X31937Y11208
X26725Y16343
X31937Y39809
X31937Y39328
X43187Y39328
X43187Y39809
X48812Y39809
X48812Y39328
X54437Y44478
X54437Y44958
X60062Y44958
X60062Y44478
X65687Y39809
X65687Y39328
X60062Y33708
X60062Y33228
X54437Y33228
X54437Y33708
X65687Y33228
X65687Y33708
X65687Y44478
X65687Y44958
X65687Y50578
X65687Y51059
X71312Y51059
X71312Y50578
X71312Y44958
X71312Y44478
X71312Y39809
X71312Y39328
X71312Y33708
X71312Y33228
X65687Y28559
X65687Y28078
X71312Y28078
X71312Y28559
X71312Y22458
X71312Y21978
X65687Y21978
X65687Y22458
X60062Y22458
X60062Y21978
X54437Y21978
X54437Y22458
X60062Y28559
X60062Y28078
X71312Y17309
X71312Y16828
X65687Y16828
X65687Y17309
X60062Y17309
X60062Y16828
X54437Y16828
X54437Y17309
X60062Y11208
X60062Y10728
X54437Y10728
X54437Y11208
X65687Y10728
X65687Y11208
X71312Y10728
X71312Y11208
T02
X38653Y52381
X39283Y52381
X38789Y51061
X38672Y51391
X38371Y51240
X38162Y51411
X37862Y51421
X37562Y51364
X37262Y51421
X36962Y51411
X36763Y51230
X36755Y50884
X36755Y50529
X36707Y50175
X37046Y50234
X37393Y50234
X37731Y50234
X38078Y50234
X38417Y50175
X38369Y50529
X38369Y50884
X38684Y50706
X38732Y50352
X38762Y50031
X30846Y48781
X30216Y52381
X30846Y52381
X31437Y51781
X31760Y51777
X32094Y51777
X32437Y51781
X32537Y51411
X32746Y51240
X33047Y51391
X33164Y51061
X33059Y50706
X33107Y50352
X33137Y50031
X32792Y50175
X32453Y50234
X32106Y50234
X31768Y50234
X31421Y50234
X31082Y50175
X31130Y50529
X31130Y50884
X31138Y51230
X31337Y51411
X31637Y51421
X31937Y51364
X32237Y51421
X30827Y51391
X30710Y51061
X30815Y50706
X30768Y50352
X30737Y50031
X32744Y50529
X32744Y50884
X33028Y52381
X33658Y52381
X30216Y48781
X30216Y46756
X38653Y48781
X39283Y48781
X39283Y46756
X38653Y46756
X38762Y45506
X38732Y45185
X38684Y44830
X38369Y44653
X38361Y44307
X38162Y44126
X37862Y44116
X37562Y44173
X37262Y44116
X36962Y44126
X36753Y44297
X36452Y44146
X36335Y44476
X36440Y44830
X36393Y45185
X36362Y45506
X36707Y45362
X37046Y45303
X37393Y45303
X37731Y45303
X38078Y45303
X38417Y45362
X38369Y45007
X38789Y44476
X38672Y44146
X38062Y43756
X37739Y43759
X37405Y43759
X37062Y43756
X35841Y43156
X36471Y43156
X36755Y44653
X36755Y45007
X36471Y46756
X35841Y46756
X33658Y46756
X33028Y46756
X32453Y45303
X32792Y45362
X32744Y45007
X32744Y44653
X32736Y44307
X32537Y44126
X32237Y44116
X31937Y44173
X31637Y44116
X31337Y44126
X31128Y44297
X30827Y44146
X30710Y44476
X30815Y44830
X30768Y45185
X30737Y45506
X31082Y45362
X31421Y45303
X31768Y45303
X32106Y45303
X31130Y45007
X31130Y44653
X31437Y43756
X31780Y43759
X32114Y43759
X32437Y43756
X33047Y44146
X33164Y44476
X33059Y44830
X33107Y45185
X33137Y45506
X33658Y43156
X33028Y43156
X33028Y41131
X33658Y41131
X33047Y40141
X32746Y39990
X32537Y40161
X32237Y40171
X31937Y40114
X31637Y40171
X31337Y40161
X31138Y39980
X31130Y39634
X31130Y39279
X31082Y38925
X31421Y38984
X31768Y38984
X32106Y38984
X32453Y38984
X32792Y38925
X32744Y39279
X32744Y39634
X33059Y39456
X33107Y39102
X33137Y38781
X47091Y52381
X47721Y52381
X48312Y51781
X48635Y51777
X48969Y51777
X49312Y51781
X49412Y51411
X49621Y51240
X49922Y51391
X50039Y51061
X49934Y50706
X49982Y50352
X50012Y50031
X49667Y50175
X49328Y50234
X48981Y50234
X48643Y50234
X48296Y50234
X47957Y50175
X48005Y50529
X48005Y50884
X48013Y51230
X48212Y51411
X48512Y51421
X48812Y51364
X49112Y51421
X47702Y51391
X47585Y51061
X47690Y50706
X47643Y50352
X47612Y50031
X47091Y48781
X47721Y48781
X49903Y48781
X50533Y48781
X49619Y50529
X49619Y50884
X49903Y52381
X50533Y52381
X44278Y52381
X44908Y52381
X44414Y51061
X44297Y51391
X43996Y51240
X43787Y51411
X43487Y51421
X43187Y51364
X42887Y51421
X42587Y51411
X42388Y51230
X42380Y50884
X42380Y50529
X42332Y50175
X42671Y50234
X43018Y50234
X43356Y50234
X43703Y50234
X44042Y50175
X43994Y50529
X43994Y50884
X44309Y50706
X44357Y50352
X44387Y50031
X42077Y51391
X41960Y51061
X42065Y50706
X42018Y50352
X41987Y50031
X44278Y48781
X44908Y48781
X43687Y51781
X43344Y51777
X43010Y51777
X42687Y51781
X42096Y52381
X41466Y52381
X35841Y52381
X36471Y52381
X37062Y51781
X37385Y51777
X37719Y51777
X38062Y51781
X36452Y51391
X36335Y51061
X36440Y50706
X36393Y50352
X36362Y50031
X35841Y48781
X36471Y48781
X33658Y48781
X33028Y48781
X30846Y46756
X30216Y43156
X30846Y43156
X30846Y41131
X30216Y41131
X30827Y40141
X30710Y39811
X30815Y39456
X30768Y39102
X30737Y38781
X31437Y40531
X31760Y40527
X32094Y40527
X32437Y40531
X33164Y39811
X33028Y37531
X33658Y37531
X35841Y37531
X36471Y37531
X36362Y38781
X36393Y39102
X36440Y39456
X36755Y39279
X36755Y39634
X36763Y39980
X36962Y40161
X37262Y40171
X37562Y40114
X37862Y40171
X38162Y40161
X38371Y39990
X38672Y40141
X38789Y39811
X38684Y39456
X38732Y39102
X38762Y38781
X38417Y38925
X38078Y38984
X37731Y38984
X37393Y38984
X37046Y38984
X36707Y38925
X36335Y39811
X36452Y40141
X37062Y40531
X37385Y40527
X37719Y40527
X38062Y40531
X38653Y41131
X39283Y41131
X38369Y39634
X38369Y39279
X36471Y41131
X35841Y41131
X38653Y43156
X39283Y43156
X41466Y43156
X42077Y44146
X42378Y44297
X42587Y44126
X42887Y44116
X43187Y44173
X43487Y44116
X43787Y44126
X43986Y44307
X43994Y44653
X43994Y45007
X44042Y45362
X43703Y45303
X43356Y45303
X43018Y45303
X42671Y45303
X42332Y45362
X42380Y45007
X42380Y44653
X42065Y44830
X42018Y45185
X41987Y45506
X42096Y46756
X41466Y46756
X41466Y48781
X42096Y48781
X44278Y46756
X44908Y46756
X44387Y45506
X44357Y45185
X44309Y44830
X44414Y44476
X44297Y44146
X43687Y43756
X43364Y43759
X43030Y43759
X42687Y43756
X42096Y43156
X41960Y44476
X44278Y43156
X44908Y43156
X47091Y43156
X47721Y43156
X47702Y44146
X48003Y44297
X48212Y44126
X48512Y44116
X48812Y44173
X49112Y44116
X49412Y44126
X49611Y44307
X49619Y44653
X49619Y45007
X49667Y45362
X49328Y45303
X48981Y45303
X48643Y45303
X48296Y45303
X47957Y45362
X48005Y45007
X48005Y44653
X47690Y44830
X47643Y45185
X47612Y45506
X47721Y46756
X47091Y46756
X49903Y46756
X50533Y46756
X50012Y45506
X49982Y45185
X49934Y44830
X50039Y44476
X49922Y44146
X49312Y43756
X48989Y43759
X48655Y43759
X48312Y43756
X47585Y44476
X49903Y43156
X50533Y43156
X52716Y43156
X53346Y43156
X53327Y44146
X53628Y44297
X53837Y44126
X54137Y44116
X54437Y44173
X54737Y44116
X55037Y44126
X55236Y44307
X55244Y44653
X55244Y45007
X55292Y45362
X54953Y45303
X54606Y45303
X54268Y45303
X53921Y45303
X53582Y45362
X53630Y45007
X53630Y44653
X53315Y44830
X53268Y45185
X53237Y45506
X53346Y46756
X52716Y46756
X52716Y52381
X53346Y52381
X53937Y51781
X54260Y51777
X54594Y51777
X54937Y51781
X55037Y51411
X55246Y51240
X55547Y51391
X55664Y51061
X55559Y50706
X55607Y50352
X55637Y50031
X55292Y50175
X54953Y50234
X54606Y50234
X54268Y50234
X53921Y50234
X53582Y50175
X53630Y50529
X53630Y50884
X53638Y51230
X53837Y51411
X54137Y51421
X54437Y51364
X54737Y51421
X53327Y51391
X53210Y51061
X53315Y50706
X53268Y50352
X53237Y50031
X55244Y50529
X55244Y50884
X55528Y52381
X56158Y52381
X63966Y52381
X64596Y52381
X65187Y51781
X65510Y51777
X65844Y51777
X66187Y51781
X66287Y51411
X66496Y51240
X66797Y51391
X66914Y51061
X66809Y50706
X66857Y50352
X66887Y50031
X66542Y50175
X66203Y50234
X65856Y50234
X65518Y50234
X65171Y50234
X64832Y50175
X64880Y50529
X64880Y50884
X64888Y51230
X65087Y51411
X65387Y51421
X65687Y51364
X65987Y51421
X64577Y51391
X64460Y51061
X64565Y50706
X64518Y50352
X64487Y50031
X53346Y48781
X52716Y48781
X66494Y50529
X66494Y50884
X66778Y52381
X67408Y52381
X69591Y52381
X70221Y52381
X70812Y51781
X71135Y51777
X71469Y51777
X71812Y51781
X71912Y51411
X72121Y51240
X72422Y51391
X72539Y51061
X72434Y50706
X72482Y50352
X72512Y50031
X72167Y50175
X71828Y50234
X71481Y50234
X71143Y50234
X70796Y50234
X70457Y50175
X70505Y50529
X70505Y50884
X70513Y51230
X70712Y51411
X71012Y51421
X71312Y51364
X71612Y51421
X70202Y51391
X70085Y51061
X70190Y50706
X70143Y50352
X70112Y50031
X69591Y48781
X70221Y48781
X72119Y50529
X72119Y50884
X72403Y52381
X73033Y52381
X72403Y48781
X73033Y48781
X73033Y46756
X72403Y46756
X71828Y45303
X72167Y45362
X72119Y45007
X72119Y44653
X72111Y44307
X71912Y44126
X71612Y44116
X71312Y44173
X71012Y44116
X70712Y44126
X70503Y44297
X70202Y44146
X70085Y44476
X70190Y44830
X70143Y45185
X70112Y45506
X70457Y45362
X70796Y45303
X71143Y45303
X71481Y45303
X70505Y45007
X70505Y44653
X70812Y43756
X71155Y43759
X71489Y43759
X71812Y43756
X72422Y44146
X72539Y44476
X72434Y44830
X72482Y45185
X72512Y45506
X73033Y43156
X72403Y43156
X72403Y41131
X73033Y41131
X72422Y40141
X72121Y39990
X71912Y40161
X71612Y40171
X71312Y40114
X71012Y40171
X70712Y40161
X70513Y39980
X70505Y39634
X70505Y39279
X70457Y38925
X70796Y38984
X71143Y38984
X71481Y38984
X71828Y38984
X72167Y38925
X72119Y39279
X72119Y39634
X72434Y39456
X72482Y39102
X72512Y38781
X53921Y38984
X53582Y38925
X53630Y39279
X53630Y39634
X53638Y39980
X53837Y40161
X54137Y40171
X54437Y40114
X54737Y40171
X55037Y40161
X55246Y39990
X55547Y40141
X55664Y39811
X55559Y39456
X55607Y39102
X55637Y38781
X55292Y38925
X54953Y38984
X54606Y38984
X54268Y38984
X53327Y40141
X53210Y39811
X53315Y39456
X53268Y39102
X53237Y38781
X52716Y37531
X53346Y37531
X52716Y35506
X50533Y35506
X49903Y35506
X50012Y34256
X49982Y33935
X49934Y33580
X49619Y33403
X49611Y33057
X49412Y32876
X49112Y32866
X48812Y32923
X48512Y32866
X48212Y32876
X48003Y33047
X47702Y32896
X47585Y33226
X47690Y33580
X47643Y33935
X47612Y34256
X47957Y34112
X48296Y34053
X48643Y34053
X48981Y34053
X49328Y34053
X49667Y34112
X49619Y33757
X50039Y33226
X49922Y32896
X49312Y32506
X48989Y32509
X48655Y32509
X48312Y32506
X47091Y31906
X47721Y31906
X48005Y33403
X48005Y33757
X47721Y35506
X47091Y35506
X47091Y37531
X47721Y37531
X48296Y38984
X47957Y38925
X48005Y39279
X48005Y39634
X48013Y39980
X48212Y40161
X48512Y40171
X48812Y40114
X49112Y40171
X49412Y40161
X49621Y39990
X49922Y40141
X50039Y39811
X49934Y39456
X49982Y39102
X50012Y38781
X49667Y38925
X49328Y38984
X48981Y38984
X48643Y38984
X47702Y40141
X47585Y39811
X47690Y39456
X47643Y39102
X47612Y38781
X48312Y40531
X48635Y40527
X48969Y40527
X49312Y40531
X49903Y41131
X50533Y41131
X52716Y41131
X53346Y41131
X53937Y40531
X54260Y40527
X54594Y40527
X54937Y40531
X55528Y41131
X56158Y41131
X53937Y43756
X54280Y43759
X54614Y43759
X54937Y43756
X55547Y44146
X55664Y44476
X55559Y44830
X55607Y45185
X55637Y45506
X55528Y46756
X56158Y46756
X53210Y44476
X55528Y43156
X56158Y43156
X58341Y43156
X58952Y44146
X59253Y44297
X59462Y44126
X59762Y44116
X60062Y44173
X60362Y44116
X60662Y44126
X60861Y44307
X60869Y44653
X60869Y45007
X60917Y45362
X60578Y45303
X60231Y45303
X59893Y45303
X59546Y45303
X59207Y45362
X59255Y45007
X59255Y44653
X58940Y44830
X58893Y45185
X58862Y45506
X58971Y46756
X58341Y46756
X58835Y44476
X59562Y43756
X59905Y43759
X60239Y43759
X60562Y43756
X61172Y44146
X61289Y44476
X61184Y44830
X61232Y45185
X61262Y45506
X61153Y46756
X61783Y46756
X61783Y48781
X61153Y48781
X59893Y50234
X60231Y50234
X60578Y50234
X60917Y50175
X60869Y50529
X60869Y50884
X60871Y51240
X60662Y51411
X60362Y51421
X60062Y51364
X59762Y51421
X59462Y51411
X59263Y51230
X59255Y50884
X59255Y50529
X59207Y50175
X59546Y50234
X58893Y50352
X58862Y50031
X58940Y50706
X58835Y51061
X58952Y51391
X59562Y51781
X59885Y51777
X60219Y51777
X60562Y51781
X61153Y52381
X61783Y52381
X58971Y52381
X58341Y52381
X61172Y51391
X61289Y51061
X61184Y50706
X61232Y50352
X61262Y50031
X58341Y48781
X58971Y48781
X56158Y48781
X55528Y48781
X58971Y43156
X58971Y41131
X58341Y41131
X58952Y40141
X58835Y39811
X58940Y39456
X58893Y39102
X58862Y38781
X59207Y38925
X59546Y38984
X59893Y38984
X60231Y38984
X60578Y38984
X60917Y38925
X60869Y39279
X60869Y39634
X60871Y39990
X60662Y40161
X60362Y40171
X60062Y40114
X59762Y40171
X59462Y40161
X59263Y39980
X59255Y39634
X59255Y39279
X59562Y40531
X59885Y40527
X60219Y40527
X60562Y40531
X61153Y41131
X61783Y41131
X61153Y43156
X61783Y43156
X63966Y43156
X64596Y43156
X64577Y44146
X64878Y44297
X65087Y44126
X65387Y44116
X65687Y44173
X65987Y44116
X66287Y44126
X66486Y44307
X66494Y44653
X66494Y45007
X66542Y45362
X66203Y45303
X65856Y45303
X65518Y45303
X65171Y45303
X64832Y45362
X64880Y45007
X64880Y44653
X64565Y44830
X64518Y45185
X64487Y45506
X64596Y46756
X63966Y46756
X64460Y44476
X65187Y43756
X65530Y43759
X65864Y43759
X66187Y43756
X66797Y44146
X66914Y44476
X66809Y44830
X66857Y45185
X66887Y45506
X66778Y46756
X67408Y46756
X67408Y48781
X66778Y48781
X64596Y48781
X63966Y48781
X69591Y46756
X70221Y46756
X69591Y43156
X70221Y43156
X70221Y41131
X69591Y41131
X70202Y40141
X70085Y39811
X70190Y39456
X70143Y39102
X70112Y38781
X69591Y37531
X70221Y37531
X72403Y37531
X73033Y37531
X73033Y35506
X72403Y35506
X71828Y34053
X72167Y34112
X72119Y33757
X72119Y33403
X72111Y33057
X71912Y32876
X71612Y32866
X71312Y32923
X71012Y32866
X70712Y32876
X70503Y33047
X70202Y32896
X70085Y33226
X70190Y33580
X70143Y33935
X70112Y34256
X70457Y34112
X70796Y34053
X71143Y34053
X71481Y34053
X70505Y33757
X70505Y33403
X70812Y32506
X71155Y32509
X71489Y32509
X71812Y32506
X72422Y32896
X72539Y33226
X72434Y33580
X72482Y33935
X72512Y34256
X73033Y31906
X72403Y31906
X72403Y29881
X73033Y29881
X71812Y29281
X71469Y29277
X71135Y29277
X70812Y29281
X70712Y28911
X70513Y28730
X70505Y28384
X70505Y28029
X70457Y27675
X70796Y27734
X71143Y27734
X71481Y27734
X71828Y27734
X72167Y27675
X72119Y28029
X72119Y28384
X72121Y28740
X71912Y28911
X71612Y28921
X71312Y28864
X71012Y28921
X70202Y28891
X70085Y28561
X70190Y28206
X70143Y27852
X70112Y27531
X53921Y27734
X53582Y27675
X53630Y28029
X53630Y28384
X53638Y28730
X53837Y28911
X54137Y28921
X54437Y28864
X54737Y28921
X55037Y28911
X55246Y28740
X55547Y28891
X55664Y28561
X55559Y28206
X55607Y27852
X55637Y27531
X55292Y27675
X54953Y27734
X54606Y27734
X54268Y27734
X53327Y28891
X53210Y28561
X53315Y28206
X53268Y27852
X53237Y27531
X52716Y29881
X53346Y29881
X53937Y29281
X54260Y29277
X54594Y29277
X54937Y29281
X55528Y29881
X56158Y29881
X56158Y31906
X54937Y32506
X54614Y32509
X54280Y32509
X53937Y32506
X53837Y32876
X53628Y33047
X53327Y32896
X53210Y33226
X53315Y33580
X53268Y33935
X53237Y34256
X53582Y34112
X53921Y34053
X54268Y34053
X54606Y34053
X54953Y34053
X55292Y34112
X55244Y33757
X55244Y33403
X55236Y33057
X55037Y32876
X54737Y32866
X54437Y32923
X54137Y32866
X53630Y33757
X53630Y33403
X49903Y31906
X52716Y31906
X53346Y31906
X69591Y35506
X70221Y35506
X67408Y35506
X66778Y35506
X66887Y34256
X66857Y33935
X66809Y33580
X66494Y33403
X66486Y33057
X66287Y32876
X65987Y32866
X65687Y32923
X65387Y32866
X65087Y32876
X64878Y33047
X64577Y32896
X64460Y33226
X64565Y33580
X64518Y33935
X64487Y34256
X64832Y34112
X65171Y34053
X65518Y34053
X65856Y34053
X66203Y34053
X66542Y34112
X66494Y33757
X66914Y33226
X66797Y32896
X66187Y32506
X65864Y32509
X65530Y32509
X65187Y32506
X63966Y31906
X64596Y31906
X64880Y33403
X64880Y33757
X64596Y35506
X63966Y35506
X63966Y37531
X64596Y37531
X64487Y38781
X64518Y39102
X64565Y39456
X64880Y39279
X64880Y39634
X64888Y39980
X65087Y40161
X65387Y40171
X65687Y40114
X65987Y40171
X66287Y40161
X66496Y39990
X66797Y40141
X66914Y39811
X66809Y39456
X66857Y39102
X66887Y38781
X66542Y38925
X66203Y38984
X65856Y38984
X65518Y38984
X65171Y38984
X64832Y38925
X64460Y39811
X64577Y40141
X65187Y40531
X65510Y40527
X65844Y40527
X66187Y40531
X66778Y41131
X67408Y41131
X66494Y39634
X66494Y39279
X64596Y41131
X63966Y41131
X61289Y39811
X61172Y40141
X61184Y39456
X61232Y39102
X61262Y38781
X61153Y37531
X61783Y37531
X61783Y35506
X61153Y35506
X60578Y34053
X60917Y34112
X60869Y33757
X60869Y33403
X60861Y33057
X60662Y32876
X60362Y32866
X60062Y32923
X59762Y32866
X59462Y32876
X59253Y33047
X58952Y32896
X58835Y33226
X58940Y33580
X58893Y33935
X58862Y34256
X59207Y34112
X59546Y34053
X59893Y34053
X60231Y34053
X59255Y33757
X59255Y33403
X59562Y32506
X59905Y32509
X60239Y32509
X60562Y32506
X61172Y32896
X61289Y33226
X61184Y33580
X61232Y33935
X61262Y34256
X61783Y31906
X61153Y31906
X58971Y31906
X58341Y31906
X58341Y29881
X58971Y29881
X59562Y29281
X59885Y29277
X60219Y29277
X60562Y29281
X60662Y28911
X60871Y28740
X61172Y28891
X61289Y28561
X61184Y28206
X61232Y27852
X61262Y27531
X60917Y27675
X60578Y27734
X60231Y27734
X59893Y27734
X59546Y27734
X59207Y27675
X59255Y28029
X59255Y28384
X59263Y28730
X59462Y28911
X59762Y28921
X60062Y28864
X60362Y28921
X58952Y28891
X58835Y28561
X58940Y28206
X58893Y27852
X58862Y27531
X58341Y26281
X58971Y26281
X69591Y26281
X70221Y26281
X70221Y24256
X69591Y24256
X70112Y23006
X70143Y22685
X70190Y22330
X70505Y22153
X70505Y22507
X70457Y22862
X70796Y22803
X71143Y22803
X71481Y22803
X71828Y22803
X72167Y22862
X72119Y22507
X72119Y22153
X72111Y21807
X71912Y21626
X71612Y21616
X71312Y21673
X71012Y21616
X70712Y21626
X70503Y21797
X70202Y21646
X70085Y21976
X70812Y21256
X71155Y21259
X71489Y21259
X71812Y21256
X72422Y21646
X72539Y21976
X72434Y22330
X72482Y22685
X72512Y23006
X69591Y20656
X70221Y20656
X70221Y18631
X69591Y18631
X70202Y17641
X70085Y17311
X70190Y16956
X70143Y16602
X70112Y16281
X70457Y16425
X70796Y16484
X71143Y16484
X71481Y16484
X71828Y16484
X72167Y16425
X72119Y16779
X72119Y17134
X72121Y17490
X71912Y17661
X71612Y17671
X71312Y17614
X71012Y17671
X70712Y17661
X70513Y17480
X70505Y17134
X70505Y16779
X70812Y18031
X71135Y18027
X71469Y18027
X71812Y18031
X72403Y18631
X73033Y18631
X72422Y17641
X72539Y17311
X72434Y16956
X72482Y16602
X72512Y16281
X53921Y16484
X53582Y16425
X53630Y16779
X53630Y17134
X53638Y17480
X53837Y17661
X54137Y17671
X54437Y17614
X54737Y17671
X55037Y17661
X55246Y17490
X55547Y17641
X55664Y17311
X55559Y16956
X55607Y16602
X55637Y16281
X55292Y16425
X54953Y16484
X54606Y16484
X54268Y16484
X53327Y17641
X53210Y17311
X53315Y16956
X53268Y16602
X53237Y16281
X52716Y15031
X53346Y15031
X72403Y15031
X73033Y15031
X69591Y15031
X70221Y15031
X70221Y13006
X69591Y13006
X70112Y11756
X70143Y11435
X70190Y11080
X70505Y10903
X70505Y11257
X70457Y11612
X70796Y11553
X71143Y11553
X71481Y11553
X71828Y11553
X72167Y11612
X72119Y11257
X72119Y10903
X72111Y10557
X71912Y10376
X71612Y10366
X71312Y10423
X71012Y10366
X70712Y10376
X70503Y10547
X70202Y10396
X70085Y10726
X70812Y10006
X71155Y10009
X71489Y10009
X71812Y10006
X72422Y10396
X72539Y10726
X72434Y11080
X72482Y11435
X72512Y11756
X72403Y13006
X73033Y13006
X69591Y9406
X70221Y9406
X72403Y9406
X73033Y9406
X67408Y9406
X66187Y10006
X65864Y10009
X65530Y10009
X65187Y10006
X65087Y10376
X64878Y10547
X64577Y10396
X64460Y10726
X64565Y11080
X64518Y11435
X64487Y11756
X64832Y11612
X65171Y11553
X65518Y11553
X65856Y11553
X66203Y11553
X66542Y11612
X66494Y11257
X66494Y10903
X66486Y10557
X66287Y10376
X65987Y10366
X65687Y10423
X65387Y10366
X64880Y11257
X64880Y10903
X63966Y9406
X64596Y9406
X66778Y9406
X66797Y10396
X66914Y10726
X66809Y11080
X66857Y11435
X66887Y11756
X66778Y13006
X67408Y13006
X67408Y15031
X66778Y15031
X66887Y16281
X66857Y16602
X66809Y16956
X66494Y16779
X66494Y17134
X66496Y17490
X66287Y17661
X65987Y17671
X65687Y17614
X65387Y17671
X65087Y17661
X64888Y17480
X64880Y17134
X64880Y16779
X64832Y16425
X65171Y16484
X65518Y16484
X65856Y16484
X66203Y16484
X66542Y16425
X66914Y17311
X66797Y17641
X66187Y18031
X65844Y18027
X65510Y18027
X65187Y18031
X64596Y18631
X63966Y18631
X64577Y17641
X64460Y17311
X64565Y16956
X64518Y16602
X64487Y16281
X66778Y18631
X67408Y18631
X67408Y20656
X66187Y21256
X65864Y21259
X65530Y21259
X65187Y21256
X65087Y21626
X64878Y21797
X64577Y21646
X64460Y21976
X64565Y22330
X64518Y22685
X64487Y23006
X64832Y22862
X65171Y22803
X65518Y22803
X65856Y22803
X66203Y22803
X66542Y22862
X66494Y22507
X66494Y22153
X66486Y21807
X66287Y21626
X65987Y21616
X65687Y21673
X65387Y21616
X64880Y22507
X64880Y22153
X63966Y20656
X64596Y20656
X66778Y20656
X66797Y21646
X66914Y21976
X66809Y22330
X66857Y22685
X66887Y23006
X66778Y24256
X67408Y24256
X67408Y26281
X66778Y26281
X66887Y27531
X66857Y27852
X66809Y28206
X66494Y28029
X66494Y28384
X66496Y28740
X66287Y28911
X65987Y28921
X65687Y28864
X65387Y28921
X65087Y28911
X64888Y28730
X64880Y28384
X64880Y28029
X64832Y27675
X65171Y27734
X65518Y27734
X65856Y27734
X66203Y27734
X66542Y27675
X66914Y28561
X66797Y28891
X66187Y29281
X65844Y29277
X65510Y29277
X65187Y29281
X64596Y29881
X63966Y29881
X64577Y28891
X64460Y28561
X64565Y28206
X64518Y27852
X64487Y27531
X63966Y26281
X64596Y26281
X66778Y29881
X67408Y29881
X67408Y31906
X66778Y31906
X69591Y31906
X70221Y31906
X70221Y29881
X69591Y29881
X72422Y28891
X72539Y28561
X72434Y28206
X72482Y27852
X72512Y27531
X72403Y26281
X73033Y26281
X73033Y24256
X72403Y24256
X73033Y20656
X72403Y20656
X64596Y24256
X63966Y24256
X61783Y24256
X61153Y24256
X60231Y22803
X59893Y22803
X59546Y22803
X59207Y22862
X59255Y22507
X59255Y22153
X59253Y21797
X59462Y21626
X59762Y21616
X60062Y21673
X60362Y21616
X60662Y21626
X60861Y21807
X60869Y22153
X60869Y22507
X60917Y22862
X60578Y22803
X61232Y22685
X61262Y23006
X61184Y22330
X61289Y21976
X61172Y21646
X60562Y21256
X60239Y21259
X59905Y21259
X59562Y21256
X58952Y21646
X58835Y21976
X58940Y22330
X58893Y22685
X58862Y23006
X58971Y24256
X58341Y24256
X56158Y24256
X55528Y24256
X56158Y26281
X55528Y26281
X53346Y26281
X52716Y26281
X50533Y26281
X50012Y27531
X49982Y27852
X49934Y28206
X49619Y28029
X49619Y28384
X49621Y28740
X49412Y28911
X49112Y28921
X48812Y28864
X48512Y28921
X48212Y28911
X48013Y28730
X48005Y28384
X48005Y28029
X47957Y27675
X48296Y27734
X48643Y27734
X48981Y27734
X49328Y27734
X49667Y27675
X30846Y26281
X30216Y26281
X49328Y22803
X49667Y22862
X49619Y22507
X49619Y22153
X49611Y21807
X49412Y21626
X49112Y21616
X48812Y21673
X48512Y21616
X48212Y21626
X48003Y21797
X47702Y21646
X47585Y21976
X47690Y22330
X47643Y22685
X47612Y23006
X47957Y22862
X48296Y22803
X48643Y22803
X48981Y22803
X48005Y22507
X48005Y22153
X48312Y21256
X48655Y21259
X48989Y21259
X49312Y21256
X49922Y21646
X50039Y21976
X49934Y22330
X49982Y22685
X50012Y23006
X52716Y24256
X53346Y24256
X54953Y22803
X55292Y22862
X55244Y22507
X55244Y22153
X55236Y21807
X55037Y21626
X54737Y21616
X54437Y21673
X54137Y21616
X53837Y21626
X53628Y21797
X53327Y21646
X53210Y21976
X53315Y22330
X53268Y22685
X53237Y23006
X53582Y22862
X53921Y22803
X54268Y22803
X54606Y22803
X53630Y22507
X53630Y22153
X53937Y21256
X54280Y21259
X54614Y21259
X54937Y21256
X55547Y21646
X55664Y21976
X55559Y22330
X55607Y22685
X55637Y23006
X56158Y20656
X55528Y20656
X55528Y18631
X56158Y18631
X54937Y18031
X54594Y18027
X54260Y18027
X53937Y18031
X53346Y18631
X52716Y18631
X50533Y15031
X49903Y15031
X31421Y16484
X31082Y16425
X31130Y16779
X31130Y17134
X31138Y17480
X31337Y17661
X31637Y17671
X31937Y17614
X32237Y17671
X32537Y17661
X32746Y17490
X33047Y17641
X33164Y17311
X33059Y16956
X33107Y16602
X33137Y16281
X32792Y16425
X32453Y16484
X32106Y16484
X31768Y16484
X30827Y17641
X30710Y17311
X30815Y16956
X30768Y16602
X30737Y16281
X30216Y15031
X30846Y15031
X49328Y11553
X49667Y11612
X49619Y11257
X49619Y10903
X49611Y10557
X49412Y10376
X49112Y10366
X48812Y10423
X48512Y10366
X48212Y10376
X48003Y10547
X47702Y10396
X47585Y10726
X47690Y11080
X47643Y11435
X47612Y11756
X47957Y11612
X48296Y11553
X48643Y11553
X48981Y11553
X48005Y11257
X48005Y10903
X48312Y10006
X48655Y10009
X48989Y10009
X49312Y10006
X49922Y10396
X50039Y10726
X49934Y11080
X49982Y11435
X50012Y11756
X49903Y13006
X50533Y13006
X52716Y13006
X53346Y13006
X55528Y13006
X56158Y13006
X55637Y11756
X55607Y11435
X55559Y11080
X55244Y10903
X55236Y10557
X55037Y10376
X54737Y10366
X54437Y10423
X54137Y10366
X53837Y10376
X53628Y10547
X53327Y10396
X53210Y10726
X53315Y11080
X53268Y11435
X53237Y11756
X53582Y11612
X53921Y11553
X54268Y11553
X54606Y11553
X54953Y11553
X55292Y11612
X55244Y11257
X55664Y10726
X55547Y10396
X54937Y10006
X54614Y10009
X54280Y10009
X53937Y10006
X52716Y9406
X53346Y9406
X50533Y9406
X49903Y9406
X47721Y9406
X47091Y9406
X44908Y9406
X43687Y10006
X43364Y10009
X43030Y10009
X42687Y10006
X42587Y10376
X42378Y10547
X42077Y10396
X41960Y10726
X42065Y11080
X42018Y11435
X41987Y11756
X42332Y11612
X42671Y11553
X43018Y11553
X43356Y11553
X43703Y11553
X44042Y11612
X43994Y11257
X43994Y10903
X43986Y10557
X43787Y10376
X43487Y10366
X43187Y10423
X42887Y10366
X42380Y11257
X42380Y10903
X41466Y9406
X42096Y9406
X44278Y9406
X44297Y10396
X44414Y10726
X44309Y11080
X44357Y11435
X44387Y11756
X44278Y13006
X44908Y13006
X44908Y15031
X44278Y15031
X44387Y16281
X44357Y16602
X44309Y16956
X43994Y16779
X43994Y17134
X43996Y17490
X43787Y17661
X43487Y17671
X43187Y17614
X42887Y17671
X42587Y17661
X42388Y17480
X42380Y17134
X42380Y16779
X42332Y16425
X42671Y16484
X43018Y16484
X43356Y16484
X43703Y16484
X44042Y16425
X44414Y17311
X44297Y17641
X43687Y18031
X43344Y18027
X43010Y18027
X42687Y18031
X42096Y18631
X41466Y18631
X44278Y18631
X44908Y18631
X44908Y20656
X43687Y21256
X43364Y21259
X43030Y21259
X42687Y21256
X42587Y21626
X42378Y21797
X42077Y21646
X41960Y21976
X42065Y22330
X42018Y22685
X41987Y23006
X42332Y22862
X42671Y22803
X43018Y22803
X43356Y22803
X43703Y22803
X44042Y22862
X43994Y22507
X43994Y22153
X43986Y21807
X43787Y21626
X43487Y21616
X43187Y21673
X42887Y21616
X42380Y22507
X42380Y22153
X41466Y20656
X42096Y20656
X44278Y20656
X44297Y21646
X44414Y21976
X44309Y22330
X44357Y22685
X44387Y23006
X44278Y24256
X44908Y24256
X44908Y26281
X44278Y26281
X44387Y27531
X44357Y27852
X44309Y28206
X43994Y28029
X43994Y28384
X43996Y28740
X43787Y28911
X43487Y28921
X43187Y28864
X42887Y28921
X42587Y28911
X42388Y28730
X42380Y28384
X42380Y28029
X42332Y27675
X42671Y27734
X43018Y27734
X43356Y27734
X43703Y27734
X44042Y27675
X44414Y28561
X44297Y28891
X43687Y29281
X43344Y29277
X43010Y29277
X42687Y29281
X42096Y29881
X41466Y29881
X42077Y28891
X41960Y28561
X42065Y28206
X42018Y27852
X41987Y27531
X44278Y29881
X44908Y29881
X44908Y31906
X43687Y32506
X43364Y32509
X43030Y32509
X42687Y32506
X42587Y32876
X42378Y33047
X42077Y32896
X41960Y33226
X42065Y33580
X42018Y33935
X41987Y34256
X42332Y34112
X42671Y34053
X43018Y34053
X43356Y34053
X43703Y34053
X44042Y34112
X43994Y33757
X43994Y33403
X43986Y33057
X43787Y32876
X43487Y32866
X43187Y32923
X42887Y32866
X42380Y33757
X42380Y33403
X41466Y31906
X42096Y31906
X44278Y31906
X44297Y32896
X44414Y33226
X44309Y33580
X44357Y33935
X44387Y34256
X44278Y35506
X44908Y35506
X44908Y37531
X44278Y37531
X44387Y38781
X44357Y39102
X44309Y39456
X43994Y39279
X43994Y39634
X43996Y39990
X43787Y40161
X43487Y40171
X43187Y40114
X42887Y40171
X42587Y40161
X42388Y39980
X42380Y39634
X42380Y39279
X42332Y38925
X42671Y38984
X43018Y38984
X43356Y38984
X43703Y38984
X44042Y38925
X44414Y39811
X44297Y40141
X43687Y40531
X43344Y40527
X43010Y40527
X42687Y40531
X42096Y41131
X41466Y41131
X42077Y40141
X41960Y39811
X42065Y39456
X42018Y39102
X41987Y38781
X41466Y37531
X42096Y37531
X42096Y35506
X41466Y35506
X39283Y35506
X38653Y35506
X38078Y34053
X38417Y34112
X38369Y33757
X38369Y33403
X38361Y33057
X38162Y32876
X37862Y32866
X37562Y32923
X37262Y32866
X36962Y32876
X36753Y33047
X36452Y32896
X36335Y33226
X36440Y33580
X36393Y33935
X36362Y34256
X36707Y34112
X37046Y34053
X37393Y34053
X37731Y34053
X36755Y33757
X36755Y33403
X37062Y32506
X37405Y32509
X37739Y32509
X38062Y32506
X38672Y32896
X38789Y33226
X38684Y33580
X38732Y33935
X38762Y34256
X39283Y31906
X38653Y31906
X38653Y29881
X39283Y29881
X38672Y28891
X38371Y28740
X38162Y28911
X37862Y28921
X37562Y28864
X37262Y28921
X36962Y28911
X36763Y28730
X36755Y28384
X36755Y28029
X36707Y27675
X37046Y27734
X37393Y27734
X37731Y27734
X38078Y27734
X38417Y27675
X38369Y28029
X38369Y28384
X38684Y28206
X38732Y27852
X38762Y27531
X38653Y26281
X39283Y26281
X36452Y28891
X36335Y28561
X36440Y28206
X36393Y27852
X36362Y27531
X35841Y26281
X36471Y26281
X36471Y24256
X35841Y24256
X36362Y23006
X36393Y22685
X36440Y22330
X36755Y22153
X36755Y22507
X36707Y22862
X37046Y22803
X37393Y22803
X37731Y22803
X38078Y22803
X38417Y22862
X38369Y22507
X38369Y22153
X38361Y21807
X38162Y21626
X37862Y21616
X37562Y21673
X37262Y21616
X36962Y21626
X36753Y21797
X36452Y21646
X36335Y21976
X37062Y21256
X37405Y21259
X37739Y21259
X38062Y21256
X38672Y21646
X38789Y21976
X38684Y22330
X38732Y22685
X38762Y23006
X35841Y20656
X36471Y20656
X36471Y18631
X35841Y18631
X36452Y17641
X36335Y17311
X36440Y16956
X36393Y16602
X36362Y16281
X36707Y16425
X37046Y16484
X37393Y16484
X37731Y16484
X38078Y16484
X38417Y16425
X38369Y16779
X38369Y17134
X38371Y17490
X38162Y17661
X37862Y17671
X37562Y17614
X37262Y17671
X36962Y17661
X36763Y17480
X36755Y17134
X36755Y16779
X37062Y18031
X37385Y18027
X37719Y18027
X38062Y18031
X38653Y18631
X39283Y18631
X38672Y17641
X38789Y17311
X38684Y16956
X38732Y16602
X38762Y16281
X38653Y15031
X39283Y15031
X41466Y15031
X42096Y15031
X41987Y16281
X42018Y16602
X42065Y16956
X41960Y17311
X42077Y17641
X39283Y20656
X38653Y20656
X38653Y24256
X39283Y24256
X41466Y24256
X42096Y24256
X42096Y26281
X41466Y26281
X38789Y28561
X38062Y29281
X37719Y29277
X37385Y29277
X37062Y29281
X36471Y29881
X35841Y29881
X35841Y31906
X36471Y31906
X33658Y31906
X32437Y32506
X32114Y32509
X31780Y32509
X31437Y32506
X31337Y32876
X31128Y33047
X30827Y32896
X30710Y33226
X30815Y33580
X30768Y33935
X30737Y34256
X31082Y34112
X31421Y34053
X31768Y34053
X32106Y34053
X32453Y34053
X32792Y34112
X32744Y33757
X32744Y33403
X32736Y33057
X32537Y32876
X32237Y32866
X31937Y32923
X31637Y32866
X31130Y33757
X31130Y33403
X30216Y31906
X30846Y31906
X30216Y20656
X30827Y21646
X31128Y21797
X31337Y21626
X31637Y21616
X31937Y21673
X32237Y21616
X32537Y21626
X32736Y21807
X32744Y22153
X32744Y22507
X32792Y22862
X32453Y22803
X32106Y22803
X31768Y22803
X31421Y22803
X31082Y22862
X31130Y22507
X31130Y22153
X30815Y22330
X30768Y22685
X30737Y23006
X30710Y21976
X31437Y21256
X31780Y21259
X32114Y21259
X32437Y21256
X33047Y21646
X33164Y21976
X33059Y22330
X33107Y22685
X33137Y23006
X33028Y24256
X33658Y24256
X33658Y26281
X33028Y26281
X33137Y27531
X33107Y27852
X33059Y28206
X32744Y28029
X32744Y28384
X32746Y28740
X32537Y28911
X32237Y28921
X31937Y28864
X31637Y28921
X31337Y28911
X31138Y28730
X31130Y28384
X31130Y28029
X31082Y27675
X31421Y27734
X31768Y27734
X32106Y27734
X32453Y27734
X32792Y27675
X33164Y28561
X33047Y28891
X32437Y29281
X32094Y29277
X31760Y29277
X31437Y29281
X30846Y29881
X30216Y29881
X30827Y28891
X30710Y28561
X30815Y28206
X30768Y27852
X30737Y27531
X33028Y29881
X33658Y29881
X33028Y31906
X33047Y32896
X33164Y33226
X33059Y33580
X33107Y33935
X33137Y34256
X30846Y35506
X30216Y35506
X30216Y37531
X30846Y37531
X33028Y35506
X33658Y35506
X35841Y35506
X36471Y35506
X38653Y37531
X39283Y37531
X44278Y41131
X44908Y41131
X47091Y41131
X47721Y41131
X49619Y39634
X49619Y39279
X49903Y37531
X50533Y37531
X53346Y35506
X55528Y35506
X56158Y35506
X55637Y34256
X55607Y33935
X55559Y33580
X55664Y33226
X55547Y32896
X55528Y31906
X58341Y35506
X58971Y35506
X58971Y37531
X58341Y37531
X56158Y37531
X55528Y37531
X55244Y39279
X55244Y39634
X50039Y28561
X49922Y28891
X49312Y29281
X48969Y29277
X48635Y29277
X48312Y29281
X47721Y29881
X47091Y29881
X47702Y28891
X47585Y28561
X47690Y28206
X47643Y27852
X47612Y27531
X47091Y26281
X47721Y26281
X49903Y26281
X49903Y29881
X50533Y24256
X49903Y24256
X47721Y24256
X47091Y24256
X47091Y20656
X47721Y20656
X49903Y20656
X50533Y20656
X52716Y20656
X53346Y20656
X49903Y18631
X50533Y18631
X49312Y18031
X48969Y18027
X48635Y18027
X48312Y18031
X48212Y17661
X48013Y17480
X48005Y17134
X48005Y16779
X47957Y16425
X48296Y16484
X48643Y16484
X48981Y16484
X49328Y16484
X49667Y16425
X49619Y16779
X49619Y17134
X49621Y17490
X49412Y17661
X49112Y17671
X48812Y17614
X48512Y17671
X47702Y17641
X47585Y17311
X47690Y16956
X47643Y16602
X47612Y16281
X47091Y15031
X47721Y15031
X50012Y16281
X49982Y16602
X49934Y16956
X50039Y17311
X49922Y17641
X47721Y18631
X47091Y18631
X55244Y28029
X55244Y28384
X60869Y28384
X60869Y28029
X61153Y26281
X61783Y26281
X61783Y29881
X61153Y29881
X66778Y37531
X67408Y37531
X70812Y40531
X71135Y40527
X71469Y40527
X71812Y40531
X72539Y39811
X67408Y43156
X66778Y43156
X30216Y24256
X30846Y24256
X30846Y20656
X30846Y18631
X30216Y18631
X31437Y18031
X31760Y18027
X32094Y18027
X32437Y18031
X33028Y18631
X33658Y18631
X32744Y17134
X32744Y16779
X33028Y15031
X33658Y15031
X35841Y15031
X36471Y15031
X36471Y13006
X35841Y13006
X36362Y11756
X36393Y11435
X36440Y11080
X36755Y10903
X36755Y11257
X36707Y11612
X37046Y11553
X37393Y11553
X37731Y11553
X38078Y11553
X38417Y11612
X38369Y11257
X38369Y10903
X38361Y10557
X38162Y10376
X37862Y10366
X37562Y10423
X37262Y10366
X36962Y10376
X36753Y10547
X36452Y10396
X36335Y10726
X37062Y10006
X37405Y10009
X37739Y10009
X38062Y10006
X38672Y10396
X38789Y10726
X38684Y11080
X38732Y11435
X38762Y11756
X38653Y13006
X39283Y13006
X41466Y13006
X42096Y13006
X39283Y9406
X38653Y9406
X35841Y9406
X36471Y9406
X33658Y9406
X32437Y10006
X32114Y10009
X31780Y10009
X31437Y10006
X31337Y10376
X31128Y10547
X30827Y10396
X30710Y10726
X30815Y11080
X30768Y11435
X30737Y11756
X31082Y11612
X31421Y11553
X31768Y11553
X32106Y11553
X32453Y11553
X32792Y11612
X32744Y11257
X32744Y10903
X32736Y10557
X32537Y10376
X32237Y10366
X31937Y10423
X31637Y10366
X31130Y11257
X31130Y10903
X33028Y13006
X33658Y13006
X33137Y11756
X33107Y11435
X33059Y11080
X33164Y10726
X33047Y10396
X33028Y9406
X30846Y9406
X30216Y9406
X30216Y13006
X30846Y13006
X33028Y20656
X33658Y20656
X47091Y13006
X47721Y13006
X53630Y11257
X53630Y10903
X55528Y15031
X56158Y15031
X55244Y16779
X55244Y17134
X58341Y18631
X58971Y18631
X59562Y18031
X59885Y18027
X60219Y18027
X60562Y18031
X60662Y17661
X60871Y17490
X61172Y17641
X61289Y17311
X61184Y16956
X61232Y16602
X61262Y16281
X60917Y16425
X60578Y16484
X60231Y16484
X59893Y16484
X59546Y16484
X59207Y16425
X59255Y16779
X59255Y17134
X59263Y17480
X59462Y17661
X59762Y17671
X60062Y17614
X60362Y17671
X58952Y17641
X58835Y17311
X58940Y16956
X58893Y16602
X58862Y16281
X58341Y15031
X58971Y15031
X61153Y15031
X61783Y15031
X60869Y16779
X60869Y17134
X61153Y18631
X61783Y18631
X61783Y20656
X61153Y20656
X58971Y20656
X58341Y20656
X63966Y15031
X64596Y15031
X64596Y13006
X63966Y13006
X61783Y13006
X61153Y13006
X60578Y11553
X60917Y11612
X60869Y11257
X60869Y10903
X60861Y10557
X60662Y10376
X60362Y10366
X60062Y10423
X59762Y10366
X59462Y10376
X59253Y10547
X58952Y10396
X58835Y10726
X58940Y11080
X58893Y11435
X58862Y11756
X59207Y11612
X59546Y11553
X59893Y11553
X60231Y11553
X59255Y11257
X59255Y10903
X59562Y10006
X59905Y10009
X60239Y10009
X60562Y10006
X61172Y10396
X61289Y10726
X61184Y11080
X61232Y11435
X61262Y11756
X61783Y9406
X61153Y9406
X58971Y9406
X58341Y9406
X56158Y9406
X55528Y9406
X58341Y13006
X58971Y13006
T03
X28975Y14493
T04
X19875Y50343
X22075Y58993
X21025Y60293
X27825Y61743
X28325Y61743
X35125Y57043
X35725Y56743
X35125Y59543
X35125Y58943
X35725Y59843
X36425Y59843
X37075Y59843
X37725Y59843
X39775Y58393
X38825Y58043
X37725Y56743
X37075Y56743
X36375Y56743
X32125Y53743
X28825Y61743
X27325Y61743
X27325Y62293
X28825Y62293
X28325Y62293
X27825Y62293
X24925Y55443
X26575Y51943
X26075Y51943
X25475Y49043
X23675Y49143
X30875Y53743
X31525Y53743
X32775Y53743
X33425Y53693
X33975Y53693
X34525Y53693
X30075Y47393
X29725Y47093
X40095Y52123
X40565Y52123
X37536Y62531
X38086Y62531
X41313Y62531
X40763Y62531
X44175Y58793
X59675Y58643
X47975Y59593
X47975Y58993
X47225Y58843
X47225Y58343
X45155Y57353
X46675Y55743
X45725Y54443
X46675Y54443
X44675Y54493
X43625Y58743
X47975Y57093
X47975Y57693
X49275Y59893
X48575Y59893
X49925Y59893
X50575Y59893
X52675Y58593
X51775Y58193
X51725Y56243
X50736Y62581
X51286Y62581
X53963Y62581
X54513Y62581
X55175Y59593
X55175Y58993
X55775Y59893
X56475Y59893
X57125Y59893
X57775Y59893
X58875Y58193
X60625Y54993
X57765Y54513
X57125Y54493
X56375Y54513
X55805Y54493
X57336Y62581
X57886Y62581
X69886Y62581
X70436Y62581
X72075Y59943
X73663Y62581
X73113Y62581
X68175Y59743
X67575Y59443
X67575Y58843
X66925Y58793
X65025Y57343
X64075Y58743
X68875Y59743
X69525Y59743
X70175Y59743
X66925Y58193
X65575Y54993
X70175Y56643
X69525Y56643
X67575Y57543
X67575Y56943
X68175Y56643
X68825Y56643
X63775Y54643
X63425Y54293
X61325Y53643
X60725Y53643
X60125Y53643
X52625Y47693
X50575Y56793
X49925Y56793
X49225Y56793
X48575Y56793
X53125Y47693
X54125Y46943
X54125Y46443
X52475Y43993
X52825Y36793
X53425Y36793
X52675Y38543
X54125Y35693
X54125Y35193
X63575Y58593
X61113Y62581
X60563Y62581
X55175Y57693
X55175Y57093
X55775Y56793
X56425Y56793
X57125Y56793
X57775Y56793
X45875Y51143
X45875Y51743
X40325Y51693
X25675Y43843
X25675Y43193
X22575Y42543
X22575Y41843
X22875Y41243
X23475Y41243
X24555Y40543
X25005Y40543
X28435Y42393
X24575Y38493
X23225Y38343
X23275Y37693
X19937Y47082
X19937Y46532
X29675Y49593
X29675Y48843
X27075Y51943
X22725Y46843
X24025Y45543
X25675Y42493
X25675Y41843
X25375Y41243
X24775Y41243
X19937Y43305
X19937Y43855
X20475Y50343
X21075Y50343
X22665Y49173
X28425Y44513
X28425Y45233
X29625Y43293
X29725Y42693
X28475Y39293
X22375Y30643
X22375Y31293
X22375Y31943
X19987Y34182
X19987Y33632
X19987Y30955
X19987Y30405
X20000Y27463
X20000Y28013
X22375Y24393
X22375Y25043
X22375Y23743
X22375Y23043
X22675Y22443
X23275Y22443
X24575Y22443
X25175Y22443
X25475Y23043
X25475Y23693
X23275Y29343
X22675Y29343
X22375Y29943
X24575Y29343
X25175Y29343
X25475Y29943
X25475Y30593
X25475Y31293
X29575Y36143
X30175Y36143
X29725Y37993
X29675Y38743
X29725Y37293
X28475Y37493
X25475Y31943
X26695Y32663
X28675Y33493
X45875Y50643
X61825Y42493
X61825Y41693
X52025Y32593
X51585Y32603
X29675Y32843
X29675Y31893
X50945Y32773
X52275Y33343
X29675Y27043
X29675Y26293
X27475Y27363
X23725Y27043
X28875Y26143
X28775Y24893
X25475Y24393
X25475Y25043
X29675Y24393
X51075Y25343
X51825Y25543
X51825Y24943
X54125Y24293
X54125Y23843
X50675Y19843
X51175Y19793
X42605Y19583
X42125Y19583
X41605Y19583
X43095Y19593
X29625Y25043
X24625Y21143
X24625Y21743
X20000Y24236
X20000Y24786
X28625Y18593
X29675Y21493
X29675Y20643
X28575Y20393
X27575Y20143
X23225Y18843
X24575Y18993
X25175Y18993
X23175Y18293
X23575Y13993
X19968Y14651
X19968Y14101
X22375Y11643
X22375Y10993
X22375Y10343
X22375Y9643
X22675Y9043
X23275Y9043
X24575Y9043
X25175Y9043
X25475Y9643
X25475Y10293
X25475Y10993
X25475Y11643
X19968Y10873
X19968Y11423
X29775Y13543
X29725Y13993
X29625Y15543
X29625Y15043
X29675Y9993
X29725Y9343
X51025Y14043
X50475Y14043
X54125Y13043
X54125Y12593
X51925Y9043
X51425Y9043
X51075Y24693
X39725Y55043
X35125Y57643
X22575Y43193
X22575Y43843
X26625Y38693
T05
X26247Y62043
X34002Y62043
T06
X43125Y61393
X29125Y53393
X34750Y47768
X49625Y61393
X56125Y61393
X62625Y61393
X69125Y61393
X46000Y47768
X57250Y47768
X57250Y36518
X68500Y47768
X62875Y42143
X68500Y36518
X62875Y30893
X21125Y42393
X21125Y29393
X21125Y22893
X21125Y35893
X46000Y36518
X40375Y42143
X34750Y36518
X40375Y30893
X46000Y25268
X34750Y25268
X21125Y16393
X21125Y9893
X34750Y14018
X40375Y19643
X68500Y25268
X57250Y25268
X62875Y19643
X68500Y14018
X57250Y14018
X46000Y14018
X36625Y61393
T07
X51625Y30893
M30
