G75*
G70*
%OFA0B0*%
%FSLAX24Y24*%
%IPPOS*%
%LPD*%
%AMOC8*
5,1,8,0,0,1.08239X$1,22.5*
%
%ADD10R,5.5000X5.5000*%
%ADD11C,0.1830*%
%ADD12C,0.1330*%
%ADD13C,0.0530*%
%ADD14R,0.0867X0.4380*%
%ADD15R,0.3680X0.3080*%
%ADD16R,0.4380X0.0867*%
%ADD17R,0.3080X0.3680*%
%ADD18C,0.0513*%
%ADD19C,0.0490*%
%ADD20C,0.0360*%
%ADD21C,0.0476*%
%ADD22C,0.2080*%
D10*
X046625Y035893D03*
D11*
X051625Y030893D03*
D12*
X057250Y036518D03*
X062875Y030893D03*
X068500Y036518D03*
X062875Y042143D03*
X068500Y047768D03*
X057250Y047768D03*
X046000Y047768D03*
X040375Y042143D03*
X046000Y036518D03*
X040375Y030893D03*
X034750Y036518D03*
X034750Y025268D03*
X040375Y019643D03*
X046000Y014018D03*
X057250Y014018D03*
X062875Y019643D03*
X068500Y014018D03*
X068500Y025268D03*
X057250Y025268D03*
X046000Y025268D03*
X034750Y014018D03*
X021125Y016393D03*
X021125Y022893D03*
X021125Y029393D03*
X021125Y035893D03*
X021125Y042393D03*
X034750Y047768D03*
X036625Y061393D03*
X043125Y061393D03*
X049625Y061393D03*
X056125Y061393D03*
X062625Y061393D03*
X069125Y061393D03*
X021125Y009893D03*
D13*
X019968Y010873D03*
X019968Y011423D03*
X022375Y011643D03*
X022375Y010993D03*
X022375Y010343D03*
X022375Y009643D03*
X022675Y009043D03*
X023275Y009043D03*
X024575Y009043D03*
X025175Y009043D03*
X025475Y009643D03*
X025475Y010293D03*
X025475Y010993D03*
X025475Y011643D03*
X019968Y014101D03*
X019968Y014651D03*
X022675Y022443D03*
X023275Y022443D03*
X022375Y023043D03*
X022375Y023743D03*
X022375Y024393D03*
X022375Y025043D03*
X020000Y024786D03*
X020000Y024236D03*
X020000Y027463D03*
X020000Y028013D03*
X019987Y030405D03*
X019987Y030955D03*
X022375Y030643D03*
X022375Y031293D03*
X022375Y031943D03*
X022375Y029943D03*
X022675Y029343D03*
X023275Y029343D03*
X024575Y029343D03*
X025175Y029343D03*
X025475Y029943D03*
X025475Y030593D03*
X025475Y031293D03*
X025475Y031943D03*
X019987Y033632D03*
X019987Y034182D03*
X022875Y041243D03*
X023475Y041243D03*
X022575Y041843D03*
X022575Y042543D03*
X022575Y043193D03*
X022575Y043843D03*
X019937Y043855D03*
X019937Y043305D03*
X019937Y046532D03*
X019937Y047082D03*
X025675Y043843D03*
X025675Y043193D03*
X025675Y042493D03*
X025675Y041843D03*
X025375Y041243D03*
X024775Y041243D03*
X035725Y056743D03*
X036375Y056743D03*
X037075Y056743D03*
X037725Y056743D03*
X035125Y057043D03*
X035125Y057643D03*
X035125Y058943D03*
X035125Y059543D03*
X035725Y059843D03*
X036425Y059843D03*
X037075Y059843D03*
X037725Y059843D03*
X037536Y062531D03*
X038086Y062531D03*
X040763Y062531D03*
X041313Y062531D03*
X047975Y059593D03*
X047975Y058993D03*
X048575Y059893D03*
X049275Y059893D03*
X049925Y059893D03*
X050575Y059893D03*
X047975Y057693D03*
X047975Y057093D03*
X048575Y056793D03*
X049225Y056793D03*
X049925Y056793D03*
X050575Y056793D03*
X055175Y057093D03*
X055175Y057693D03*
X055175Y058993D03*
X055175Y059593D03*
X055775Y059893D03*
X056475Y059893D03*
X057125Y059893D03*
X057775Y059893D03*
X057886Y062581D03*
X057336Y062581D03*
X054513Y062581D03*
X053963Y062581D03*
X051286Y062581D03*
X050736Y062581D03*
X055775Y056793D03*
X056425Y056793D03*
X057125Y056793D03*
X057775Y056793D03*
X060563Y062581D03*
X061113Y062581D03*
X067575Y059443D03*
X067575Y058843D03*
X068175Y059743D03*
X068875Y059743D03*
X069525Y059743D03*
X070175Y059743D03*
X070436Y062581D03*
X069886Y062581D03*
X073113Y062581D03*
X073663Y062581D03*
X070175Y056643D03*
X069525Y056643D03*
X068825Y056643D03*
X068175Y056643D03*
X067575Y056943D03*
X067575Y057543D03*
X025475Y025043D03*
X025475Y024393D03*
X025475Y023693D03*
X025475Y023043D03*
X025175Y022443D03*
X024575Y022443D03*
D14*
X020000Y026125D03*
X019987Y032293D03*
X019937Y045193D03*
X019968Y012762D03*
D15*
X023925Y010459D03*
X023925Y023859D03*
X023925Y030759D03*
X024125Y042659D03*
D16*
X039425Y062531D03*
X052625Y062581D03*
X059225Y062581D03*
X071775Y062581D03*
D17*
X068990Y058193D03*
X056590Y058343D03*
X049390Y058343D03*
X036540Y058293D03*
D18*
X034002Y062043D03*
X026247Y062043D03*
D19*
X027325Y062293D03*
X027825Y062293D03*
X028325Y062293D03*
X028825Y062293D03*
X028825Y061743D03*
X028325Y061743D03*
X027825Y061743D03*
X027325Y061743D03*
X022075Y058993D03*
X021025Y060293D03*
X024925Y055443D03*
X026075Y051943D03*
X026575Y051943D03*
X027075Y051943D03*
X029675Y049593D03*
X029675Y048843D03*
X030075Y047393D03*
X029725Y047093D03*
X028425Y045233D03*
X028425Y044513D03*
X029625Y043293D03*
X029725Y042693D03*
X028435Y042393D03*
X028475Y039293D03*
X029675Y038743D03*
X029725Y037993D03*
X029725Y037293D03*
X029575Y036143D03*
X030175Y036143D03*
X028475Y037493D03*
X026625Y038693D03*
X025005Y040543D03*
X024555Y040543D03*
X024575Y038493D03*
X023225Y038343D03*
X023275Y037693D03*
X026695Y032663D03*
X028675Y033493D03*
X029675Y032843D03*
X029675Y031893D03*
X029675Y027043D03*
X029675Y026293D03*
X028875Y026143D03*
X028775Y024893D03*
X029625Y025043D03*
X029675Y024393D03*
X029675Y021493D03*
X029675Y020643D03*
X028575Y020393D03*
X027575Y020143D03*
X028625Y018593D03*
X029625Y015543D03*
X029625Y015043D03*
X029725Y013993D03*
X029775Y013543D03*
X029675Y009993D03*
X029725Y009343D03*
X023575Y013993D03*
X023175Y018293D03*
X023225Y018843D03*
X024575Y018993D03*
X025175Y018993D03*
X024625Y021143D03*
X024625Y021743D03*
X023725Y027043D03*
X027475Y027363D03*
X041605Y019583D03*
X042125Y019583D03*
X042605Y019583D03*
X043095Y019593D03*
X050675Y019843D03*
X051175Y019793D03*
X054125Y023843D03*
X054125Y024293D03*
X051825Y024943D03*
X051825Y025543D03*
X051075Y025343D03*
X051075Y024693D03*
X051585Y032603D03*
X052025Y032593D03*
X052275Y033343D03*
X050945Y032773D03*
X054125Y035193D03*
X054125Y035693D03*
X053425Y036793D03*
X052825Y036793D03*
X052675Y038543D03*
X052475Y043993D03*
X054125Y046443D03*
X054125Y046943D03*
X053125Y047693D03*
X052625Y047693D03*
X055805Y054493D03*
X056375Y054513D03*
X057125Y054493D03*
X057765Y054513D03*
X060125Y053643D03*
X060725Y053643D03*
X061325Y053643D03*
X060625Y054993D03*
X063425Y054293D03*
X063775Y054643D03*
X065575Y054993D03*
X065025Y057343D03*
X064075Y058743D03*
X063575Y058593D03*
X059675Y058643D03*
X058875Y058193D03*
X052675Y058593D03*
X051775Y058193D03*
X051725Y056243D03*
X047225Y058343D03*
X047225Y058843D03*
X045155Y057353D03*
X044175Y058793D03*
X043625Y058743D03*
X039775Y058393D03*
X038825Y058043D03*
X039725Y055043D03*
X040095Y052123D03*
X040565Y052123D03*
X040325Y051693D03*
X044675Y054493D03*
X045725Y054443D03*
X046675Y054443D03*
X046675Y055743D03*
X045875Y051743D03*
X045875Y051143D03*
X045875Y050643D03*
X034525Y053693D03*
X033975Y053693D03*
X033425Y053693D03*
X032775Y053743D03*
X032125Y053743D03*
X031525Y053743D03*
X030875Y053743D03*
X025475Y049043D03*
X023675Y049143D03*
X022665Y049173D03*
X021075Y050343D03*
X020475Y050343D03*
X019875Y050343D03*
X022725Y046843D03*
X024025Y045543D03*
X050475Y014043D03*
X051025Y014043D03*
X054125Y013043D03*
X054125Y012593D03*
X051925Y009043D03*
X051425Y009043D03*
X061825Y041693D03*
X061825Y042493D03*
X066925Y058193D03*
X066925Y058793D03*
X072075Y059943D03*
D20*
X066075Y055393D03*
X064925Y055043D03*
X061975Y055643D03*
X061275Y054943D03*
X059575Y055593D03*
X052235Y055953D03*
X047325Y053293D03*
X042375Y053793D03*
X041625Y054443D03*
X040575Y054543D03*
X035365Y055693D03*
X034135Y056783D03*
X030975Y055193D03*
X028725Y055743D03*
X028245Y055743D03*
X027775Y055593D03*
X027295Y056493D03*
X027325Y057293D03*
X027925Y057243D03*
X027725Y058123D03*
X026425Y057243D03*
X025725Y055743D03*
X024625Y055943D03*
X024775Y053193D03*
X024725Y052243D03*
X025475Y050943D03*
X025175Y050693D03*
X026125Y050793D03*
X026075Y051243D03*
X026845Y050503D03*
X028435Y051573D03*
X028725Y050143D03*
X028425Y048243D03*
X026525Y047793D03*
X026425Y047143D03*
X026975Y046093D03*
X026175Y045943D03*
X025125Y046543D03*
X024325Y047843D03*
X023225Y047293D03*
X023525Y050143D03*
X019675Y055893D03*
X019725Y059193D03*
X027985Y041883D03*
X027975Y038743D03*
X026525Y035643D03*
X022475Y033743D03*
X022075Y036343D03*
X027325Y031143D03*
X027645Y030903D03*
X028025Y026243D03*
X027625Y021293D03*
X026725Y016343D03*
D21*
X028975Y014493D03*
D22*
X029125Y053393D03*
M02*
