%
M48
M72
T01C0.0236
T02C0.0250
T03C0.0315
T04C0.0354
T05C0.0400
T06C0.0866
T07C0.1250
T08C0.1340
%
T01
X16255Y11330
X16055Y12480
X19005Y10780
X20155Y12380
X19255Y14180
X18205Y8430
X17105Y7380
T02
X16155Y7380
X13455Y7830
X17705Y4680
X20155Y4680
X22505Y3330
X23605Y2030
X24655Y2030
X26605Y2080
X25155Y7330
X25255Y8180
X23855Y8430
X23155Y7480
X21085Y7510
X25255Y9630
X25525Y11270
X23705Y11630
X24005Y12480
X22855Y11330
X21505Y12630
X19255Y14730
X19905Y15180
X20555Y15430
X21655Y15380
X23505Y16580
X22255Y16980
X21705Y16980
X22105Y18680
X21355Y20230
X22305Y21730
X23755Y20780
X24755Y23280
X25755Y23280
X27855Y22080
X28005Y20230
X25255Y18030
X25055Y17280
X24855Y16330
X26105Y15430
X25105Y13990
X24205Y14430
X27155Y12780
X29015Y13920
X27755Y9830
X29205Y8730
X18655Y16330
X17955Y16880
X19105Y17430
X16805Y18180
X14455Y14930
X15055Y14680
X14405Y13480
X19105Y22180
X13405Y3280
X15655Y1880
T03
X13405Y14180
X13405Y15180
T04
X11705Y9619
X11705Y8241
T05
X29855Y10880
X29955Y11880
X29855Y12880
X29955Y13880
X30105Y9780
X30005Y8780
X30105Y7780
X30005Y6780
X30105Y5780
T06
X11405Y13180
X11405Y17180
T07
X10655Y2680
X30655Y2680
X30655Y22680
X10655Y22680
T08
X31085Y17930
X31085Y15830
M30
