G75*
%MOIN*%
%OFA0B0*%
%FSLAX24Y24*%
%IPPOS*%
%LPD*%
%AMOC8*
5,1,8,0,0,1.08239X$1,22.5*
%
%ADD10C,0.0000*%
%ADD11C,0.0820*%
%ADD12C,0.0434*%
%ADD13C,0.1420*%
%ADD14R,0.0820X0.0820*%
%ADD15C,0.0595*%
%ADD16C,0.1346*%
%ADD17C,0.2580*%
D10*
X009155Y001180D02*
X009155Y026180D01*
X032155Y026180D01*
X032155Y001180D01*
X009155Y001180D01*
X011528Y008241D02*
X011530Y008267D01*
X011536Y008293D01*
X011546Y008318D01*
X011559Y008341D01*
X011575Y008361D01*
X011595Y008379D01*
X011617Y008394D01*
X011640Y008406D01*
X011666Y008414D01*
X011692Y008418D01*
X011718Y008418D01*
X011744Y008414D01*
X011770Y008406D01*
X011794Y008394D01*
X011815Y008379D01*
X011835Y008361D01*
X011851Y008341D01*
X011864Y008318D01*
X011874Y008293D01*
X011880Y008267D01*
X011882Y008241D01*
X011880Y008215D01*
X011874Y008189D01*
X011864Y008164D01*
X011851Y008141D01*
X011835Y008121D01*
X011815Y008103D01*
X011793Y008088D01*
X011770Y008076D01*
X011744Y008068D01*
X011718Y008064D01*
X011692Y008064D01*
X011666Y008068D01*
X011640Y008076D01*
X011616Y008088D01*
X011595Y008103D01*
X011575Y008121D01*
X011559Y008141D01*
X011546Y008164D01*
X011536Y008189D01*
X011530Y008215D01*
X011528Y008241D01*
X011528Y009619D02*
X011530Y009645D01*
X011536Y009671D01*
X011546Y009696D01*
X011559Y009719D01*
X011575Y009739D01*
X011595Y009757D01*
X011617Y009772D01*
X011640Y009784D01*
X011666Y009792D01*
X011692Y009796D01*
X011718Y009796D01*
X011744Y009792D01*
X011770Y009784D01*
X011794Y009772D01*
X011815Y009757D01*
X011835Y009739D01*
X011851Y009719D01*
X011864Y009696D01*
X011874Y009671D01*
X011880Y009645D01*
X011882Y009619D01*
X011880Y009593D01*
X011874Y009567D01*
X011864Y009542D01*
X011851Y009519D01*
X011835Y009499D01*
X011815Y009481D01*
X011793Y009466D01*
X011770Y009454D01*
X011744Y009446D01*
X011718Y009442D01*
X011692Y009442D01*
X011666Y009446D01*
X011640Y009454D01*
X011616Y009466D01*
X011595Y009481D01*
X011575Y009499D01*
X011559Y009519D01*
X011546Y009542D01*
X011536Y009567D01*
X011530Y009593D01*
X011528Y009619D01*
X030415Y015830D02*
X030417Y015881D01*
X030423Y015932D01*
X030433Y015983D01*
X030446Y016032D01*
X030464Y016080D01*
X030485Y016127D01*
X030509Y016172D01*
X030537Y016215D01*
X030568Y016256D01*
X030602Y016295D01*
X030639Y016330D01*
X030679Y016363D01*
X030721Y016392D01*
X030765Y016419D01*
X030811Y016441D01*
X030859Y016461D01*
X030907Y016476D01*
X030957Y016488D01*
X031008Y016496D01*
X031059Y016500D01*
X031111Y016500D01*
X031162Y016496D01*
X031213Y016488D01*
X031263Y016476D01*
X031311Y016461D01*
X031359Y016441D01*
X031405Y016419D01*
X031449Y016392D01*
X031491Y016363D01*
X031531Y016330D01*
X031568Y016295D01*
X031602Y016256D01*
X031633Y016215D01*
X031661Y016172D01*
X031685Y016127D01*
X031706Y016080D01*
X031724Y016032D01*
X031737Y015983D01*
X031747Y015932D01*
X031753Y015881D01*
X031755Y015830D01*
X031753Y015779D01*
X031747Y015728D01*
X031737Y015677D01*
X031724Y015628D01*
X031706Y015580D01*
X031685Y015533D01*
X031661Y015488D01*
X031633Y015445D01*
X031602Y015404D01*
X031568Y015365D01*
X031531Y015330D01*
X031491Y015297D01*
X031449Y015268D01*
X031405Y015241D01*
X031359Y015219D01*
X031311Y015199D01*
X031263Y015184D01*
X031213Y015172D01*
X031162Y015164D01*
X031111Y015160D01*
X031059Y015160D01*
X031008Y015164D01*
X030957Y015172D01*
X030907Y015184D01*
X030859Y015199D01*
X030811Y015219D01*
X030765Y015241D01*
X030721Y015268D01*
X030679Y015297D01*
X030639Y015330D01*
X030602Y015365D01*
X030568Y015404D01*
X030537Y015445D01*
X030509Y015488D01*
X030485Y015533D01*
X030464Y015580D01*
X030446Y015628D01*
X030433Y015677D01*
X030423Y015728D01*
X030417Y015779D01*
X030415Y015830D01*
X030415Y017930D02*
X030417Y017981D01*
X030423Y018032D01*
X030433Y018083D01*
X030446Y018132D01*
X030464Y018180D01*
X030485Y018227D01*
X030509Y018272D01*
X030537Y018315D01*
X030568Y018356D01*
X030602Y018395D01*
X030639Y018430D01*
X030679Y018463D01*
X030721Y018492D01*
X030765Y018519D01*
X030811Y018541D01*
X030859Y018561D01*
X030907Y018576D01*
X030957Y018588D01*
X031008Y018596D01*
X031059Y018600D01*
X031111Y018600D01*
X031162Y018596D01*
X031213Y018588D01*
X031263Y018576D01*
X031311Y018561D01*
X031359Y018541D01*
X031405Y018519D01*
X031449Y018492D01*
X031491Y018463D01*
X031531Y018430D01*
X031568Y018395D01*
X031602Y018356D01*
X031633Y018315D01*
X031661Y018272D01*
X031685Y018227D01*
X031706Y018180D01*
X031724Y018132D01*
X031737Y018083D01*
X031747Y018032D01*
X031753Y017981D01*
X031755Y017930D01*
X031753Y017879D01*
X031747Y017828D01*
X031737Y017777D01*
X031724Y017728D01*
X031706Y017680D01*
X031685Y017633D01*
X031661Y017588D01*
X031633Y017545D01*
X031602Y017504D01*
X031568Y017465D01*
X031531Y017430D01*
X031491Y017397D01*
X031449Y017368D01*
X031405Y017341D01*
X031359Y017319D01*
X031311Y017299D01*
X031263Y017284D01*
X031213Y017272D01*
X031162Y017264D01*
X031111Y017260D01*
X031059Y017260D01*
X031008Y017264D01*
X030957Y017272D01*
X030907Y017284D01*
X030859Y017299D01*
X030811Y017319D01*
X030765Y017341D01*
X030721Y017368D01*
X030679Y017397D01*
X030639Y017430D01*
X030602Y017465D01*
X030568Y017504D01*
X030537Y017545D01*
X030509Y017588D01*
X030485Y017633D01*
X030464Y017680D01*
X030446Y017728D01*
X030433Y017777D01*
X030423Y017828D01*
X030417Y017879D01*
X030415Y017930D01*
D11*
X029955Y013880D03*
X029855Y012880D03*
X029955Y011880D03*
X030105Y009780D03*
X030005Y008780D03*
X030105Y007780D03*
X030005Y006780D03*
X030105Y005780D03*
D12*
X011705Y008241D03*
X011705Y009619D03*
D13*
X031085Y015830D03*
X031085Y017930D03*
D14*
X029855Y010880D03*
D15*
X013662Y014180D02*
X013148Y014180D01*
X013148Y015180D02*
X013662Y015180D01*
D16*
X011405Y017180D03*
X011405Y013180D03*
D17*
X010655Y022680D03*
X030655Y022680D03*
X030655Y002680D03*
X010655Y002680D03*
M02*
