G75*
%MOIN*%
%OFA0B0*%
%FSLAX24Y24*%
%IPPOS*%
%LPD*%
%AMOC8*
5,1,8,0,0,1.08239X$1,22.5*
%
%ADD10C,0.0000*%
%ADD11C,0.0250*%
%ADD12R,0.0600X0.0400*%
%ADD13R,0.0650X0.0400*%
%ADD14R,0.0400X0.0600*%
%ADD15R,0.0748X0.0551*%
%ADD16R,0.0472X0.0472*%
%ADD17R,0.0591X0.0197*%
%ADD18R,0.0197X0.0591*%
%ADD19R,0.0394X0.0098*%
%ADD20R,0.0394X0.0551*%
%ADD21R,0.0300X0.0600*%
%ADD22C,0.0740*%
%ADD23C,0.0394*%
%ADD24R,0.0866X0.0984*%
%ADD25R,0.0787X0.0197*%
%ADD26R,0.2100X0.0650*%
%ADD27R,0.0740X0.0740*%
%ADD28C,0.0515*%
%ADD29C,0.1266*%
%ADD30C,0.0120*%
%ADD31C,0.0410*%
%ADD32C,0.0100*%
%ADD33C,0.0160*%
%ADD34C,0.0396*%
%ADD35C,0.0240*%
%ADD36C,0.2500*%
D10*
X009155Y001180D02*
X009155Y026180D01*
X032155Y026180D01*
X032155Y001180D01*
X009155Y001180D01*
X011528Y008241D02*
X011530Y008267D01*
X011536Y008293D01*
X011546Y008318D01*
X011559Y008341D01*
X011575Y008361D01*
X011595Y008379D01*
X011617Y008394D01*
X011640Y008406D01*
X011666Y008414D01*
X011692Y008418D01*
X011718Y008418D01*
X011744Y008414D01*
X011770Y008406D01*
X011794Y008394D01*
X011815Y008379D01*
X011835Y008361D01*
X011851Y008341D01*
X011864Y008318D01*
X011874Y008293D01*
X011880Y008267D01*
X011882Y008241D01*
X011880Y008215D01*
X011874Y008189D01*
X011864Y008164D01*
X011851Y008141D01*
X011835Y008121D01*
X011815Y008103D01*
X011793Y008088D01*
X011770Y008076D01*
X011744Y008068D01*
X011718Y008064D01*
X011692Y008064D01*
X011666Y008068D01*
X011640Y008076D01*
X011616Y008088D01*
X011595Y008103D01*
X011575Y008121D01*
X011559Y008141D01*
X011546Y008164D01*
X011536Y008189D01*
X011530Y008215D01*
X011528Y008241D01*
X011528Y009619D02*
X011530Y009645D01*
X011536Y009671D01*
X011546Y009696D01*
X011559Y009719D01*
X011575Y009739D01*
X011595Y009757D01*
X011617Y009772D01*
X011640Y009784D01*
X011666Y009792D01*
X011692Y009796D01*
X011718Y009796D01*
X011744Y009792D01*
X011770Y009784D01*
X011794Y009772D01*
X011815Y009757D01*
X011835Y009739D01*
X011851Y009719D01*
X011864Y009696D01*
X011874Y009671D01*
X011880Y009645D01*
X011882Y009619D01*
X011880Y009593D01*
X011874Y009567D01*
X011864Y009542D01*
X011851Y009519D01*
X011835Y009499D01*
X011815Y009481D01*
X011793Y009466D01*
X011770Y009454D01*
X011744Y009446D01*
X011718Y009442D01*
X011692Y009442D01*
X011666Y009446D01*
X011640Y009454D01*
X011616Y009466D01*
X011595Y009481D01*
X011575Y009499D01*
X011559Y009519D01*
X011546Y009542D01*
X011536Y009567D01*
X011530Y009593D01*
X011528Y009619D01*
X030415Y015830D02*
X030417Y015881D01*
X030423Y015932D01*
X030433Y015983D01*
X030446Y016032D01*
X030464Y016080D01*
X030485Y016127D01*
X030509Y016172D01*
X030537Y016215D01*
X030568Y016256D01*
X030602Y016295D01*
X030639Y016330D01*
X030679Y016363D01*
X030721Y016392D01*
X030765Y016419D01*
X030811Y016441D01*
X030859Y016461D01*
X030907Y016476D01*
X030957Y016488D01*
X031008Y016496D01*
X031059Y016500D01*
X031111Y016500D01*
X031162Y016496D01*
X031213Y016488D01*
X031263Y016476D01*
X031311Y016461D01*
X031359Y016441D01*
X031405Y016419D01*
X031449Y016392D01*
X031491Y016363D01*
X031531Y016330D01*
X031568Y016295D01*
X031602Y016256D01*
X031633Y016215D01*
X031661Y016172D01*
X031685Y016127D01*
X031706Y016080D01*
X031724Y016032D01*
X031737Y015983D01*
X031747Y015932D01*
X031753Y015881D01*
X031755Y015830D01*
X031753Y015779D01*
X031747Y015728D01*
X031737Y015677D01*
X031724Y015628D01*
X031706Y015580D01*
X031685Y015533D01*
X031661Y015488D01*
X031633Y015445D01*
X031602Y015404D01*
X031568Y015365D01*
X031531Y015330D01*
X031491Y015297D01*
X031449Y015268D01*
X031405Y015241D01*
X031359Y015219D01*
X031311Y015199D01*
X031263Y015184D01*
X031213Y015172D01*
X031162Y015164D01*
X031111Y015160D01*
X031059Y015160D01*
X031008Y015164D01*
X030957Y015172D01*
X030907Y015184D01*
X030859Y015199D01*
X030811Y015219D01*
X030765Y015241D01*
X030721Y015268D01*
X030679Y015297D01*
X030639Y015330D01*
X030602Y015365D01*
X030568Y015404D01*
X030537Y015445D01*
X030509Y015488D01*
X030485Y015533D01*
X030464Y015580D01*
X030446Y015628D01*
X030433Y015677D01*
X030423Y015728D01*
X030417Y015779D01*
X030415Y015830D01*
X030415Y017930D02*
X030417Y017981D01*
X030423Y018032D01*
X030433Y018083D01*
X030446Y018132D01*
X030464Y018180D01*
X030485Y018227D01*
X030509Y018272D01*
X030537Y018315D01*
X030568Y018356D01*
X030602Y018395D01*
X030639Y018430D01*
X030679Y018463D01*
X030721Y018492D01*
X030765Y018519D01*
X030811Y018541D01*
X030859Y018561D01*
X030907Y018576D01*
X030957Y018588D01*
X031008Y018596D01*
X031059Y018600D01*
X031111Y018600D01*
X031162Y018596D01*
X031213Y018588D01*
X031263Y018576D01*
X031311Y018561D01*
X031359Y018541D01*
X031405Y018519D01*
X031449Y018492D01*
X031491Y018463D01*
X031531Y018430D01*
X031568Y018395D01*
X031602Y018356D01*
X031633Y018315D01*
X031661Y018272D01*
X031685Y018227D01*
X031706Y018180D01*
X031724Y018132D01*
X031737Y018083D01*
X031747Y018032D01*
X031753Y017981D01*
X031755Y017930D01*
X031753Y017879D01*
X031747Y017828D01*
X031737Y017777D01*
X031724Y017728D01*
X031706Y017680D01*
X031685Y017633D01*
X031661Y017588D01*
X031633Y017545D01*
X031602Y017504D01*
X031568Y017465D01*
X031531Y017430D01*
X031491Y017397D01*
X031449Y017368D01*
X031405Y017341D01*
X031359Y017319D01*
X031311Y017299D01*
X031263Y017284D01*
X031213Y017272D01*
X031162Y017264D01*
X031111Y017260D01*
X031059Y017260D01*
X031008Y017264D01*
X030957Y017272D01*
X030907Y017284D01*
X030859Y017299D01*
X030811Y017319D01*
X030765Y017341D01*
X030721Y017368D01*
X030679Y017397D01*
X030639Y017430D01*
X030602Y017465D01*
X030568Y017504D01*
X030537Y017545D01*
X030509Y017588D01*
X030485Y017633D01*
X030464Y017680D01*
X030446Y017728D01*
X030433Y017777D01*
X030423Y017828D01*
X030417Y017879D01*
X030415Y017930D01*
D11*
X027391Y018505D02*
X027391Y020255D01*
X027391Y018505D02*
X027141Y018505D01*
X027141Y020255D01*
X027391Y020255D01*
X027391Y018754D02*
X027141Y018754D01*
X027141Y019003D02*
X027391Y019003D01*
X027391Y019252D02*
X027141Y019252D01*
X027141Y019501D02*
X027391Y019501D01*
X027391Y019750D02*
X027141Y019750D01*
X027141Y019999D02*
X027391Y019999D01*
X027391Y020248D02*
X027141Y020248D01*
X026391Y020255D02*
X026391Y018505D01*
X026141Y018505D01*
X026141Y020255D01*
X026391Y020255D01*
X026391Y018754D02*
X026141Y018754D01*
X026141Y019003D02*
X026391Y019003D01*
X026391Y019252D02*
X026141Y019252D01*
X026141Y019501D02*
X026391Y019501D01*
X026391Y019750D02*
X026141Y019750D01*
X026141Y019999D02*
X026391Y019999D01*
X026391Y020248D02*
X026141Y020248D01*
X025391Y020255D02*
X025391Y018505D01*
X025141Y018505D01*
X025141Y020255D01*
X025391Y020255D01*
X025391Y018754D02*
X025141Y018754D01*
X025141Y019003D02*
X025391Y019003D01*
X025391Y019252D02*
X025141Y019252D01*
X025141Y019501D02*
X025391Y019501D01*
X025391Y019750D02*
X025141Y019750D01*
X025141Y019999D02*
X025391Y019999D01*
X025391Y020248D02*
X025141Y020248D01*
X024391Y020255D02*
X024391Y018505D01*
X024141Y018505D01*
X024141Y020255D01*
X024391Y020255D01*
X024391Y018754D02*
X024141Y018754D01*
X024141Y019003D02*
X024391Y019003D01*
X024391Y019252D02*
X024141Y019252D01*
X024141Y019501D02*
X024391Y019501D01*
X024391Y019750D02*
X024141Y019750D01*
X024141Y019999D02*
X024391Y019999D01*
X024391Y020248D02*
X024141Y020248D01*
X023391Y020255D02*
X023391Y018505D01*
X023141Y018505D01*
X023141Y020255D01*
X023391Y020255D01*
X023391Y018754D02*
X023141Y018754D01*
X023141Y019003D02*
X023391Y019003D01*
X023391Y019252D02*
X023141Y019252D01*
X023141Y019501D02*
X023391Y019501D01*
X023391Y019750D02*
X023141Y019750D01*
X023141Y019999D02*
X023391Y019999D01*
X023391Y020248D02*
X023141Y020248D01*
X023391Y021205D02*
X023391Y022955D01*
X023391Y021205D02*
X023141Y021205D01*
X023141Y022955D01*
X023391Y022955D01*
X023391Y021454D02*
X023141Y021454D01*
X023141Y021703D02*
X023391Y021703D01*
X023391Y021952D02*
X023141Y021952D01*
X023141Y022201D02*
X023391Y022201D01*
X023391Y022450D02*
X023141Y022450D01*
X023141Y022699D02*
X023391Y022699D01*
X023391Y022948D02*
X023141Y022948D01*
X024391Y022955D02*
X024391Y021205D01*
X024141Y021205D01*
X024141Y022955D01*
X024391Y022955D01*
X024391Y021454D02*
X024141Y021454D01*
X024141Y021703D02*
X024391Y021703D01*
X024391Y021952D02*
X024141Y021952D01*
X024141Y022201D02*
X024391Y022201D01*
X024391Y022450D02*
X024141Y022450D01*
X024141Y022699D02*
X024391Y022699D01*
X024391Y022948D02*
X024141Y022948D01*
X025391Y022955D02*
X025391Y021205D01*
X025141Y021205D01*
X025141Y022955D01*
X025391Y022955D01*
X025391Y021454D02*
X025141Y021454D01*
X025141Y021703D02*
X025391Y021703D01*
X025391Y021952D02*
X025141Y021952D01*
X025141Y022201D02*
X025391Y022201D01*
X025391Y022450D02*
X025141Y022450D01*
X025141Y022699D02*
X025391Y022699D01*
X025391Y022948D02*
X025141Y022948D01*
X026391Y022955D02*
X026391Y021205D01*
X026141Y021205D01*
X026141Y022955D01*
X026391Y022955D01*
X026391Y021454D02*
X026141Y021454D01*
X026141Y021703D02*
X026391Y021703D01*
X026391Y021952D02*
X026141Y021952D01*
X026141Y022201D02*
X026391Y022201D01*
X026391Y022450D02*
X026141Y022450D01*
X026141Y022699D02*
X026391Y022699D01*
X026391Y022948D02*
X026141Y022948D01*
X027391Y022955D02*
X027391Y021205D01*
X027141Y021205D01*
X027141Y022955D01*
X027391Y022955D01*
X027391Y021454D02*
X027141Y021454D01*
X027141Y021703D02*
X027391Y021703D01*
X027391Y021952D02*
X027141Y021952D01*
X027141Y022201D02*
X027391Y022201D01*
X027391Y022450D02*
X027141Y022450D01*
X027141Y022699D02*
X027391Y022699D01*
X027391Y022948D02*
X027141Y022948D01*
X018452Y022955D02*
X018452Y021205D01*
X018202Y021205D01*
X018202Y022955D01*
X018452Y022955D01*
X018452Y021454D02*
X018202Y021454D01*
X018202Y021703D02*
X018452Y021703D01*
X018452Y021952D02*
X018202Y021952D01*
X018202Y022201D02*
X018452Y022201D01*
X018452Y022450D02*
X018202Y022450D01*
X018202Y022699D02*
X018452Y022699D01*
X018452Y022948D02*
X018202Y022948D01*
X017452Y022955D02*
X017452Y021205D01*
X017202Y021205D01*
X017202Y022955D01*
X017452Y022955D01*
X017452Y021454D02*
X017202Y021454D01*
X017202Y021703D02*
X017452Y021703D01*
X017452Y021952D02*
X017202Y021952D01*
X017202Y022201D02*
X017452Y022201D01*
X017452Y022450D02*
X017202Y022450D01*
X017202Y022699D02*
X017452Y022699D01*
X017452Y022948D02*
X017202Y022948D01*
X016452Y022955D02*
X016452Y021205D01*
X016202Y021205D01*
X016202Y022955D01*
X016452Y022955D01*
X016452Y021454D02*
X016202Y021454D01*
X016202Y021703D02*
X016452Y021703D01*
X016452Y021952D02*
X016202Y021952D01*
X016202Y022201D02*
X016452Y022201D01*
X016452Y022450D02*
X016202Y022450D01*
X016202Y022699D02*
X016452Y022699D01*
X016452Y022948D02*
X016202Y022948D01*
X015452Y022955D02*
X015452Y021205D01*
X015202Y021205D01*
X015202Y022955D01*
X015452Y022955D01*
X015452Y021454D02*
X015202Y021454D01*
X015202Y021703D02*
X015452Y021703D01*
X015452Y021952D02*
X015202Y021952D01*
X015202Y022201D02*
X015452Y022201D01*
X015452Y022450D02*
X015202Y022450D01*
X015202Y022699D02*
X015452Y022699D01*
X015452Y022948D02*
X015202Y022948D01*
X014452Y022955D02*
X014452Y021205D01*
X014202Y021205D01*
X014202Y022955D01*
X014452Y022955D01*
X014452Y021454D02*
X014202Y021454D01*
X014202Y021703D02*
X014452Y021703D01*
X014452Y021952D02*
X014202Y021952D01*
X014202Y022201D02*
X014452Y022201D01*
X014452Y022450D02*
X014202Y022450D01*
X014202Y022699D02*
X014452Y022699D01*
X014452Y022948D02*
X014202Y022948D01*
X014452Y020255D02*
X014452Y018505D01*
X014202Y018505D01*
X014202Y020255D01*
X014452Y020255D01*
X014452Y018754D02*
X014202Y018754D01*
X014202Y019003D02*
X014452Y019003D01*
X014452Y019252D02*
X014202Y019252D01*
X014202Y019501D02*
X014452Y019501D01*
X014452Y019750D02*
X014202Y019750D01*
X014202Y019999D02*
X014452Y019999D01*
X014452Y020248D02*
X014202Y020248D01*
X015452Y020255D02*
X015452Y018505D01*
X015202Y018505D01*
X015202Y020255D01*
X015452Y020255D01*
X015452Y018754D02*
X015202Y018754D01*
X015202Y019003D02*
X015452Y019003D01*
X015452Y019252D02*
X015202Y019252D01*
X015202Y019501D02*
X015452Y019501D01*
X015452Y019750D02*
X015202Y019750D01*
X015202Y019999D02*
X015452Y019999D01*
X015452Y020248D02*
X015202Y020248D01*
X016452Y020255D02*
X016452Y018505D01*
X016202Y018505D01*
X016202Y020255D01*
X016452Y020255D01*
X016452Y018754D02*
X016202Y018754D01*
X016202Y019003D02*
X016452Y019003D01*
X016452Y019252D02*
X016202Y019252D01*
X016202Y019501D02*
X016452Y019501D01*
X016452Y019750D02*
X016202Y019750D01*
X016202Y019999D02*
X016452Y019999D01*
X016452Y020248D02*
X016202Y020248D01*
X017452Y020255D02*
X017452Y018505D01*
X017202Y018505D01*
X017202Y020255D01*
X017452Y020255D01*
X017452Y018754D02*
X017202Y018754D01*
X017202Y019003D02*
X017452Y019003D01*
X017452Y019252D02*
X017202Y019252D01*
X017202Y019501D02*
X017452Y019501D01*
X017452Y019750D02*
X017202Y019750D01*
X017202Y019999D02*
X017452Y019999D01*
X017452Y020248D02*
X017202Y020248D01*
X018452Y020255D02*
X018452Y018505D01*
X018202Y018505D01*
X018202Y020255D01*
X018452Y020255D01*
X018452Y018754D02*
X018202Y018754D01*
X018202Y019003D02*
X018452Y019003D01*
X018452Y019252D02*
X018202Y019252D01*
X018202Y019501D02*
X018452Y019501D01*
X018452Y019750D02*
X018202Y019750D01*
X018202Y019999D02*
X018452Y019999D01*
X018452Y020248D02*
X018202Y020248D01*
X018030Y006905D02*
X018030Y005155D01*
X018030Y006905D02*
X018280Y006905D01*
X018280Y005155D01*
X018030Y005155D01*
X018030Y005404D02*
X018280Y005404D01*
X018280Y005653D02*
X018030Y005653D01*
X018030Y005902D02*
X018280Y005902D01*
X018280Y006151D02*
X018030Y006151D01*
X018030Y006400D02*
X018280Y006400D01*
X018280Y006649D02*
X018030Y006649D01*
X018030Y006898D02*
X018280Y006898D01*
X017030Y006905D02*
X017030Y005155D01*
X017030Y006905D02*
X017280Y006905D01*
X017280Y005155D01*
X017030Y005155D01*
X017030Y005404D02*
X017280Y005404D01*
X017280Y005653D02*
X017030Y005653D01*
X017030Y005902D02*
X017280Y005902D01*
X017280Y006151D02*
X017030Y006151D01*
X017030Y006400D02*
X017280Y006400D01*
X017280Y006649D02*
X017030Y006649D01*
X017030Y006898D02*
X017280Y006898D01*
X016030Y006905D02*
X016030Y005155D01*
X016030Y006905D02*
X016280Y006905D01*
X016280Y005155D01*
X016030Y005155D01*
X016030Y005404D02*
X016280Y005404D01*
X016280Y005653D02*
X016030Y005653D01*
X016030Y005902D02*
X016280Y005902D01*
X016280Y006151D02*
X016030Y006151D01*
X016030Y006400D02*
X016280Y006400D01*
X016280Y006649D02*
X016030Y006649D01*
X016030Y006898D02*
X016280Y006898D01*
X015030Y006905D02*
X015030Y005155D01*
X015030Y006905D02*
X015280Y006905D01*
X015280Y005155D01*
X015030Y005155D01*
X015030Y005404D02*
X015280Y005404D01*
X015280Y005653D02*
X015030Y005653D01*
X015030Y005902D02*
X015280Y005902D01*
X015280Y006151D02*
X015030Y006151D01*
X015030Y006400D02*
X015280Y006400D01*
X015280Y006649D02*
X015030Y006649D01*
X015030Y006898D02*
X015280Y006898D01*
X014030Y006905D02*
X014030Y005155D01*
X014030Y006905D02*
X014280Y006905D01*
X014280Y005155D01*
X014030Y005155D01*
X014030Y005404D02*
X014280Y005404D01*
X014280Y005653D02*
X014030Y005653D01*
X014030Y005902D02*
X014280Y005902D01*
X014280Y006151D02*
X014030Y006151D01*
X014030Y006400D02*
X014280Y006400D01*
X014280Y006649D02*
X014030Y006649D01*
X014030Y006898D02*
X014280Y006898D01*
X014030Y004205D02*
X014030Y002455D01*
X014030Y004205D02*
X014280Y004205D01*
X014280Y002455D01*
X014030Y002455D01*
X014030Y002704D02*
X014280Y002704D01*
X014280Y002953D02*
X014030Y002953D01*
X014030Y003202D02*
X014280Y003202D01*
X014280Y003451D02*
X014030Y003451D01*
X014030Y003700D02*
X014280Y003700D01*
X014280Y003949D02*
X014030Y003949D01*
X014030Y004198D02*
X014280Y004198D01*
X015030Y004205D02*
X015030Y002455D01*
X015030Y004205D02*
X015280Y004205D01*
X015280Y002455D01*
X015030Y002455D01*
X015030Y002704D02*
X015280Y002704D01*
X015280Y002953D02*
X015030Y002953D01*
X015030Y003202D02*
X015280Y003202D01*
X015280Y003451D02*
X015030Y003451D01*
X015030Y003700D02*
X015280Y003700D01*
X015280Y003949D02*
X015030Y003949D01*
X015030Y004198D02*
X015280Y004198D01*
X016030Y004205D02*
X016030Y002455D01*
X016030Y004205D02*
X016280Y004205D01*
X016280Y002455D01*
X016030Y002455D01*
X016030Y002704D02*
X016280Y002704D01*
X016280Y002953D02*
X016030Y002953D01*
X016030Y003202D02*
X016280Y003202D01*
X016280Y003451D02*
X016030Y003451D01*
X016030Y003700D02*
X016280Y003700D01*
X016280Y003949D02*
X016030Y003949D01*
X016030Y004198D02*
X016280Y004198D01*
X017030Y004205D02*
X017030Y002455D01*
X017030Y004205D02*
X017280Y004205D01*
X017280Y002455D01*
X017030Y002455D01*
X017030Y002704D02*
X017280Y002704D01*
X017280Y002953D02*
X017030Y002953D01*
X017030Y003202D02*
X017280Y003202D01*
X017280Y003451D02*
X017030Y003451D01*
X017030Y003700D02*
X017280Y003700D01*
X017280Y003949D02*
X017030Y003949D01*
X017030Y004198D02*
X017280Y004198D01*
X018030Y004205D02*
X018030Y002455D01*
X018030Y004205D02*
X018280Y004205D01*
X018280Y002455D01*
X018030Y002455D01*
X018030Y002704D02*
X018280Y002704D01*
X018280Y002953D02*
X018030Y002953D01*
X018030Y003202D02*
X018280Y003202D01*
X018280Y003451D02*
X018030Y003451D01*
X018030Y003700D02*
X018280Y003700D01*
X018280Y003949D02*
X018030Y003949D01*
X018030Y004198D02*
X018280Y004198D01*
X023030Y004205D02*
X023030Y002455D01*
X023030Y004205D02*
X023280Y004205D01*
X023280Y002455D01*
X023030Y002455D01*
X023030Y002704D02*
X023280Y002704D01*
X023280Y002953D02*
X023030Y002953D01*
X023030Y003202D02*
X023280Y003202D01*
X023280Y003451D02*
X023030Y003451D01*
X023030Y003700D02*
X023280Y003700D01*
X023280Y003949D02*
X023030Y003949D01*
X023030Y004198D02*
X023280Y004198D01*
X024030Y004205D02*
X024030Y002455D01*
X024030Y004205D02*
X024280Y004205D01*
X024280Y002455D01*
X024030Y002455D01*
X024030Y002704D02*
X024280Y002704D01*
X024280Y002953D02*
X024030Y002953D01*
X024030Y003202D02*
X024280Y003202D01*
X024280Y003451D02*
X024030Y003451D01*
X024030Y003700D02*
X024280Y003700D01*
X024280Y003949D02*
X024030Y003949D01*
X024030Y004198D02*
X024280Y004198D01*
X025030Y004205D02*
X025030Y002455D01*
X025030Y004205D02*
X025280Y004205D01*
X025280Y002455D01*
X025030Y002455D01*
X025030Y002704D02*
X025280Y002704D01*
X025280Y002953D02*
X025030Y002953D01*
X025030Y003202D02*
X025280Y003202D01*
X025280Y003451D02*
X025030Y003451D01*
X025030Y003700D02*
X025280Y003700D01*
X025280Y003949D02*
X025030Y003949D01*
X025030Y004198D02*
X025280Y004198D01*
X026030Y004205D02*
X026030Y002455D01*
X026030Y004205D02*
X026280Y004205D01*
X026280Y002455D01*
X026030Y002455D01*
X026030Y002704D02*
X026280Y002704D01*
X026280Y002953D02*
X026030Y002953D01*
X026030Y003202D02*
X026280Y003202D01*
X026280Y003451D02*
X026030Y003451D01*
X026030Y003700D02*
X026280Y003700D01*
X026280Y003949D02*
X026030Y003949D01*
X026030Y004198D02*
X026280Y004198D01*
X027030Y004205D02*
X027030Y002455D01*
X027030Y004205D02*
X027280Y004205D01*
X027280Y002455D01*
X027030Y002455D01*
X027030Y002704D02*
X027280Y002704D01*
X027280Y002953D02*
X027030Y002953D01*
X027030Y003202D02*
X027280Y003202D01*
X027280Y003451D02*
X027030Y003451D01*
X027030Y003700D02*
X027280Y003700D01*
X027280Y003949D02*
X027030Y003949D01*
X027030Y004198D02*
X027280Y004198D01*
X027030Y005155D02*
X027030Y006905D01*
X027280Y006905D01*
X027280Y005155D01*
X027030Y005155D01*
X027030Y005404D02*
X027280Y005404D01*
X027280Y005653D02*
X027030Y005653D01*
X027030Y005902D02*
X027280Y005902D01*
X027280Y006151D02*
X027030Y006151D01*
X027030Y006400D02*
X027280Y006400D01*
X027280Y006649D02*
X027030Y006649D01*
X027030Y006898D02*
X027280Y006898D01*
X026030Y006905D02*
X026030Y005155D01*
X026030Y006905D02*
X026280Y006905D01*
X026280Y005155D01*
X026030Y005155D01*
X026030Y005404D02*
X026280Y005404D01*
X026280Y005653D02*
X026030Y005653D01*
X026030Y005902D02*
X026280Y005902D01*
X026280Y006151D02*
X026030Y006151D01*
X026030Y006400D02*
X026280Y006400D01*
X026280Y006649D02*
X026030Y006649D01*
X026030Y006898D02*
X026280Y006898D01*
X025030Y006905D02*
X025030Y005155D01*
X025030Y006905D02*
X025280Y006905D01*
X025280Y005155D01*
X025030Y005155D01*
X025030Y005404D02*
X025280Y005404D01*
X025280Y005653D02*
X025030Y005653D01*
X025030Y005902D02*
X025280Y005902D01*
X025280Y006151D02*
X025030Y006151D01*
X025030Y006400D02*
X025280Y006400D01*
X025280Y006649D02*
X025030Y006649D01*
X025030Y006898D02*
X025280Y006898D01*
X024030Y006905D02*
X024030Y005155D01*
X024030Y006905D02*
X024280Y006905D01*
X024280Y005155D01*
X024030Y005155D01*
X024030Y005404D02*
X024280Y005404D01*
X024280Y005653D02*
X024030Y005653D01*
X024030Y005902D02*
X024280Y005902D01*
X024280Y006151D02*
X024030Y006151D01*
X024030Y006400D02*
X024280Y006400D01*
X024280Y006649D02*
X024030Y006649D01*
X024030Y006898D02*
X024280Y006898D01*
X023030Y006905D02*
X023030Y005155D01*
X023030Y006905D02*
X023280Y006905D01*
X023280Y005155D01*
X023030Y005155D01*
X023030Y005404D02*
X023280Y005404D01*
X023280Y005653D02*
X023030Y005653D01*
X023030Y005902D02*
X023280Y005902D01*
X023280Y006151D02*
X023030Y006151D01*
X023030Y006400D02*
X023280Y006400D01*
X023280Y006649D02*
X023030Y006649D01*
X023030Y006898D02*
X023280Y006898D01*
D12*
X024855Y012530D03*
X024855Y013230D03*
X024155Y015830D03*
X024155Y016530D03*
X016955Y015530D03*
X016955Y014830D03*
D13*
X015755Y014680D03*
X015755Y015880D03*
D14*
X015405Y016630D03*
X016105Y016630D03*
X019255Y018280D03*
X019955Y018280D03*
X023605Y017330D03*
X024305Y017330D03*
X027715Y013930D03*
X028415Y013930D03*
X028455Y012730D03*
X027755Y012730D03*
X027805Y011230D03*
X028505Y011230D03*
X028245Y009480D03*
X028945Y009480D03*
X026055Y008880D03*
X025355Y008880D03*
X022455Y008230D03*
X021755Y008230D03*
X020905Y008230D03*
X020205Y008230D03*
X024255Y011480D03*
X024955Y011480D03*
X016755Y013180D03*
X016055Y013180D03*
X014355Y010380D03*
X013655Y010380D03*
X013655Y008630D03*
X014355Y008630D03*
D15*
X019939Y009158D03*
X019939Y010102D03*
X021671Y010102D03*
X021671Y009158D03*
D16*
X025812Y013980D03*
X026638Y013980D03*
D17*
X023088Y013880D03*
X023088Y013565D03*
X023088Y013250D03*
X023088Y012935D03*
X023088Y012620D03*
X023088Y012305D03*
X023088Y014195D03*
X023088Y014510D03*
X023088Y014825D03*
X023088Y015140D03*
X023088Y015455D03*
X018522Y015455D03*
X018522Y015140D03*
X018522Y014825D03*
X018522Y014510D03*
X018522Y014195D03*
X018522Y013880D03*
X018522Y013565D03*
X018522Y013250D03*
X018522Y012935D03*
X018522Y012620D03*
X018522Y012305D03*
D18*
X019230Y011597D03*
X019545Y011597D03*
X019860Y011597D03*
X020175Y011597D03*
X020490Y011597D03*
X020805Y011597D03*
X021120Y011597D03*
X021435Y011597D03*
X021750Y011597D03*
X022065Y011597D03*
X022380Y011597D03*
X022380Y016163D03*
X022065Y016163D03*
X021750Y016163D03*
X021435Y016163D03*
X021120Y016163D03*
X020805Y016163D03*
X020490Y016163D03*
X020175Y016163D03*
X019860Y016163D03*
X019545Y016163D03*
X019230Y016163D03*
D19*
X025473Y010824D03*
X025473Y010627D03*
X025473Y010430D03*
X025473Y010233D03*
X025473Y010036D03*
X027137Y010036D03*
X027137Y010233D03*
X027137Y010430D03*
X027137Y010627D03*
X027137Y010824D03*
D20*
X026979Y011997D03*
X026231Y011997D03*
X026605Y012863D03*
D21*
X016805Y010530D03*
X015305Y010530D03*
X015305Y008530D03*
X016805Y008530D03*
D22*
X029855Y012880D03*
X029955Y011880D03*
X029955Y013880D03*
X030105Y009780D03*
X030005Y008780D03*
X030105Y007780D03*
X030005Y006780D03*
X030105Y005780D03*
D23*
X028655Y002180D03*
X012655Y002180D03*
X012655Y023180D03*
X028655Y023180D03*
D24*
X012492Y010584D03*
X010406Y010584D03*
X010406Y007276D03*
X012492Y007276D03*
D25*
X012591Y008300D03*
X012591Y008615D03*
X012591Y008930D03*
X012591Y009245D03*
X012591Y009560D03*
D26*
X026505Y016380D03*
X026505Y017380D03*
D27*
X029855Y010880D03*
D28*
X013662Y014180D02*
X013148Y014180D01*
X013148Y015180D02*
X013662Y015180D01*
D29*
X011405Y017180D03*
X011405Y013180D03*
D30*
X013405Y015180D02*
X013355Y015330D01*
X013355Y015680D02*
X014305Y016630D01*
X015405Y016630D01*
X016105Y016630D02*
X016155Y016680D01*
X016855Y016680D01*
X018080Y015455D01*
X018522Y015455D01*
X018427Y015140D02*
X018945Y015140D01*
X019030Y015055D01*
X019255Y014730D01*
X019455Y015130D02*
X020405Y014180D01*
X023074Y014180D01*
X023088Y014195D01*
X023088Y014510D02*
X020575Y014510D01*
X019905Y015180D01*
X019455Y015130D02*
X019455Y015280D01*
X019255Y015480D01*
X018805Y015880D01*
X018255Y015880D01*
X017005Y017130D01*
X014655Y017130D01*
X013605Y018130D01*
X013605Y023180D01*
X014055Y023630D01*
X015055Y023630D01*
X015305Y023380D01*
X015305Y022102D01*
X015327Y022080D01*
X014327Y022080D02*
X014327Y021058D01*
X014655Y020730D01*
X020855Y020730D01*
X021355Y020230D01*
X022205Y019380D02*
X020155Y017330D01*
X020155Y016184D01*
X020175Y016163D01*
X020490Y016163D02*
X020490Y017065D01*
X021905Y018480D01*
X022105Y018680D01*
X021855Y018130D02*
X020805Y017080D01*
X020805Y016163D01*
X021120Y016163D02*
X021155Y016199D01*
X021155Y016980D01*
X022005Y017880D01*
X024455Y017880D01*
X024805Y018230D01*
X024805Y020830D01*
X024266Y021369D01*
X024266Y022080D01*
X025255Y022091D02*
X025266Y022080D01*
X025255Y022091D02*
X025255Y023430D01*
X025055Y023630D01*
X027205Y023630D01*
X028805Y022030D01*
X028855Y016880D01*
X027655Y015680D01*
X026355Y015680D01*
X026105Y015430D01*
X026535Y015000D01*
X026685Y014850D01*
X030375Y014850D01*
X031515Y013710D01*
X031505Y004980D01*
X030865Y004340D01*
X029865Y004340D01*
X028075Y002540D01*
X027235Y001700D01*
X027205Y001680D01*
X025055Y001680D01*
X025155Y001780D01*
X025155Y002580D01*
X025155Y003330D01*
X026155Y003330D02*
X026155Y004330D01*
X026405Y004580D01*
X030455Y004580D01*
X030655Y004580D01*
X031255Y005180D01*
X031265Y013650D01*
X030295Y014620D01*
X025405Y014620D01*
X025255Y014780D01*
X025245Y014790D01*
X024895Y015140D01*
X023088Y015140D01*
X023088Y015455D02*
X024080Y015455D01*
X024155Y015830D01*
X023305Y016180D02*
X023288Y016163D01*
X022380Y016163D01*
X022065Y016163D02*
X022065Y015790D01*
X021655Y015380D01*
X021750Y016163D02*
X021755Y016169D01*
X021755Y016530D01*
X022205Y016980D01*
X022255Y016980D01*
X021705Y016980D02*
X021705Y017080D01*
X021455Y016830D01*
X021455Y016184D01*
X021435Y016163D01*
X020755Y015280D02*
X020555Y015430D01*
X020455Y015580D01*
X019455Y015580D01*
X019230Y015805D01*
X019230Y016163D01*
X018655Y016330D02*
X018655Y016930D01*
X017855Y017730D01*
X015605Y017730D01*
X015255Y018080D01*
X015255Y019080D01*
X015355Y019180D01*
X015355Y019352D01*
X015327Y019380D01*
X014327Y019380D02*
X014277Y018408D01*
X015205Y017480D01*
X017355Y017480D01*
X017955Y016880D01*
X019105Y017430D02*
X019255Y017580D01*
X019255Y018080D01*
X021855Y018130D02*
X023905Y018130D01*
X024266Y018491D01*
X024266Y019380D01*
X023266Y019380D02*
X022205Y019380D01*
X022305Y021730D02*
X022916Y021730D01*
X023266Y022080D01*
X024755Y023280D02*
X017455Y023280D01*
X017327Y023152D01*
X017327Y022080D01*
X016327Y022080D02*
X016327Y023302D01*
X016655Y023630D01*
X025055Y023630D01*
X025755Y023280D02*
X025905Y023280D01*
X026305Y022880D01*
X026305Y022119D01*
X026266Y022080D01*
X024155Y016530D02*
X023405Y016680D01*
X023505Y016580D01*
X023088Y014825D02*
X024800Y014825D01*
X025045Y014580D01*
X025225Y014400D01*
X029105Y014400D01*
X030165Y014400D01*
X030805Y013760D01*
X030805Y013020D01*
X030825Y005260D01*
X030395Y004830D01*
X026255Y004830D01*
X026155Y004930D01*
X026155Y006030D01*
X027155Y006030D02*
X027155Y007280D01*
X026905Y007530D01*
X025955Y007530D01*
X025305Y008180D01*
X025255Y008180D01*
X024655Y008630D02*
X024655Y002230D01*
X024655Y002030D01*
X024505Y001680D02*
X025055Y001680D01*
X024505Y001680D02*
X024355Y001680D01*
X024205Y001680D01*
X016855Y001680D01*
X016155Y002380D01*
X016155Y003330D01*
X023855Y008430D02*
X023855Y008480D01*
X023855Y008980D01*
X021955Y010830D01*
X021750Y011035D01*
X021750Y011597D01*
X022065Y011597D02*
X022065Y011220D01*
X024655Y008630D01*
X025255Y009630D02*
X025473Y009848D01*
X025473Y010036D01*
X025405Y009968D01*
X026055Y008880D01*
X028235Y010430D02*
X029225Y010430D01*
X029335Y010320D01*
X030395Y010320D01*
X030585Y010130D01*
X030605Y010130D01*
X029015Y013920D02*
X028415Y013930D01*
X027715Y013930D02*
X026855Y013930D01*
X026805Y013980D01*
X026638Y013980D01*
X025812Y013980D02*
X025105Y013990D01*
X024715Y013970D01*
X025105Y013990D01*
X024715Y013970D02*
X023975Y013250D01*
X023088Y013250D01*
X023088Y013565D02*
X023890Y013565D01*
X024205Y013930D01*
X024205Y014430D01*
X024255Y013230D02*
X024855Y013230D01*
X024255Y013230D02*
X023645Y012620D01*
X023088Y012620D01*
X023088Y012305D02*
X023830Y012305D01*
X024005Y012480D01*
X024055Y012530D01*
X024855Y012530D01*
X023705Y011630D02*
X023705Y011530D01*
X018522Y014825D02*
X017850Y014825D01*
X017255Y014230D01*
X015555Y014230D01*
X015155Y013830D01*
X015155Y013030D01*
X015605Y012330D02*
X015605Y013780D01*
X015055Y014680D02*
X014555Y014180D01*
X027155Y003330D02*
X027155Y002630D01*
X026605Y002080D01*
D31*
X026605Y002080D03*
X024655Y002030D03*
X023605Y002030D03*
X022505Y003330D03*
X020155Y004680D03*
X017705Y004680D03*
X016155Y007380D03*
X013455Y007830D03*
X013405Y003280D03*
X015655Y001880D03*
X021085Y007510D03*
X023155Y007480D03*
X023855Y008430D03*
X025255Y008180D03*
X025155Y007330D03*
X025255Y009630D03*
X025525Y011270D03*
X023705Y011630D03*
X024005Y012480D03*
X022855Y011330D03*
X021505Y012630D03*
X019255Y014730D03*
X019905Y015180D03*
X020555Y015430D03*
X021655Y015380D03*
X023505Y016580D03*
X022255Y016980D03*
X021705Y016980D03*
X022105Y018680D03*
X021355Y020230D03*
X022305Y021730D03*
X023755Y020780D03*
X024755Y023280D03*
X025755Y023280D03*
X027855Y022080D03*
X028005Y020230D03*
X025255Y018030D03*
X025055Y017280D03*
X024855Y016330D03*
X026105Y015430D03*
X025105Y013990D03*
X024205Y014430D03*
X027155Y012780D03*
X029015Y013920D03*
X027755Y009830D03*
X029205Y008730D03*
X018655Y016330D03*
X017955Y016880D03*
X019105Y017430D03*
X016805Y018180D03*
X014455Y014930D03*
X015055Y014680D03*
X014405Y013480D03*
X019105Y022180D03*
D32*
X019005Y022080D01*
X018327Y022080D01*
X016593Y023940D02*
X016479Y023893D01*
X016392Y023806D01*
X016064Y023478D01*
X016017Y023364D01*
X016017Y023284D01*
X015990Y023273D01*
X015884Y023167D01*
X015827Y023030D01*
X015770Y023167D01*
X015664Y023273D01*
X015615Y023293D01*
X015615Y023442D01*
X015568Y023556D01*
X015481Y023643D01*
X015231Y023893D01*
X015117Y023940D01*
X013993Y023940D01*
X013879Y023893D01*
X013792Y023806D01*
X013342Y023356D01*
X013295Y023242D01*
X013295Y018188D01*
X013294Y018184D01*
X013295Y018126D01*
X013295Y018068D01*
X013297Y018065D01*
X013297Y018061D01*
X013320Y018008D01*
X013342Y017954D01*
X013345Y017952D01*
X013347Y017948D01*
X013388Y017908D01*
X013429Y017867D01*
X013433Y017866D01*
X014405Y016940D01*
X014243Y016940D01*
X014129Y016893D01*
X013287Y016050D01*
X013281Y016050D01*
X013145Y015994D01*
X013041Y015890D01*
X012985Y015754D01*
X012985Y015662D01*
X012860Y015610D01*
X012717Y015467D01*
X012640Y015281D01*
X012640Y015079D01*
X012717Y014893D01*
X012860Y014750D01*
X013029Y014680D01*
X012860Y014610D01*
X012717Y014467D01*
X012640Y014281D01*
X012640Y014079D01*
X012717Y013893D01*
X012860Y013750D01*
X013047Y013673D01*
X013763Y013673D01*
X013950Y013750D01*
X014010Y013810D01*
X014629Y013810D01*
X014765Y013866D01*
X014869Y013970D01*
X014925Y014106D01*
X014925Y014112D01*
X015038Y014225D01*
X015112Y014225D01*
X014979Y014093D01*
X014892Y014006D01*
X014845Y013892D01*
X014845Y013144D01*
X014825Y013096D01*
X014825Y012567D01*
X014075Y011817D01*
X014025Y011696D01*
X014025Y010897D01*
X014013Y010892D01*
X014005Y010884D01*
X013997Y010892D01*
X013905Y010930D01*
X013405Y010930D01*
X013313Y010892D01*
X013243Y010822D01*
X013205Y010730D01*
X013205Y010030D01*
X013243Y009938D01*
X013313Y009868D01*
X013325Y009863D01*
X013325Y009630D01*
X013299Y009590D01*
X013283Y009575D01*
X013135Y009575D01*
X013135Y009678D01*
X013124Y009716D01*
X013105Y009750D01*
X013325Y009750D01*
X013325Y009848D02*
X012991Y009848D01*
X012975Y009841D02*
X013067Y009879D01*
X013137Y009950D01*
X013175Y010042D01*
X013175Y011125D01*
X013137Y011217D01*
X013067Y011288D01*
X012975Y011326D01*
X012010Y011326D01*
X011918Y011288D01*
X011847Y011217D01*
X011809Y011125D01*
X011809Y010246D01*
X011778Y010246D01*
X011778Y010495D01*
X011740Y010587D01*
X011669Y010658D01*
X011578Y010696D01*
X011089Y010696D01*
X011089Y011125D01*
X011051Y011217D01*
X010980Y011288D01*
X010889Y011326D01*
X012009Y011326D01*
X011857Y011227D02*
X011041Y011227D01*
X011088Y011129D02*
X011811Y011129D01*
X011809Y011030D02*
X011089Y011030D01*
X011089Y010932D02*
X011809Y010932D01*
X011809Y010833D02*
X011089Y010833D01*
X011089Y010735D02*
X011809Y010735D01*
X011809Y010636D02*
X011691Y010636D01*
X011760Y010538D02*
X011809Y010538D01*
X011809Y010439D02*
X011778Y010439D01*
X011778Y010341D02*
X011809Y010341D01*
X012358Y009841D02*
X012975Y009841D01*
X013004Y009808D02*
X012591Y009808D01*
X012591Y009593D01*
X012591Y009593D01*
X012591Y009808D01*
X012391Y009808D01*
X012358Y009841D01*
X012591Y009750D02*
X012591Y009750D01*
X012591Y009651D02*
X012591Y009651D01*
X013004Y009808D02*
X013042Y009798D01*
X013077Y009778D01*
X013105Y009750D01*
X013135Y009651D02*
X013325Y009651D01*
X013240Y009947D02*
X013134Y009947D01*
X013175Y010045D02*
X013205Y010045D01*
X013205Y010144D02*
X013175Y010144D01*
X013175Y010242D02*
X013205Y010242D01*
X013205Y010341D02*
X013175Y010341D01*
X013175Y010439D02*
X013205Y010439D01*
X013205Y010538D02*
X013175Y010538D01*
X013175Y010636D02*
X013205Y010636D01*
X013207Y010735D02*
X013175Y010735D01*
X013175Y010833D02*
X013254Y010833D01*
X013175Y010932D02*
X014025Y010932D01*
X014025Y011030D02*
X013175Y011030D01*
X013174Y011129D02*
X014025Y011129D01*
X014025Y011227D02*
X013128Y011227D01*
X012976Y011326D02*
X014025Y011326D01*
X014025Y011424D02*
X009605Y011424D01*
X009605Y011326D02*
X009923Y011326D01*
X009831Y011288D01*
X009761Y011217D01*
X009723Y011125D01*
X009723Y010696D01*
X009605Y010696D01*
X009605Y021609D01*
X009734Y021480D01*
X010076Y021282D01*
X010458Y021180D01*
X010852Y021180D01*
X011234Y021282D01*
X011576Y021480D01*
X011855Y021759D01*
X012053Y022101D01*
X012155Y022483D01*
X012155Y022877D01*
X012053Y023259D01*
X011855Y023601D01*
X011576Y023880D01*
X011234Y024078D01*
X010852Y024180D01*
X010458Y024180D01*
X010076Y024078D01*
X009734Y023880D01*
X009605Y023751D01*
X009605Y025730D01*
X031705Y025730D01*
X031705Y023751D01*
X031576Y023880D01*
X031234Y024078D01*
X030852Y024180D01*
X030458Y024180D01*
X030076Y024078D01*
X029734Y023880D01*
X029455Y023601D01*
X029257Y023259D01*
X029155Y022877D01*
X029155Y022483D01*
X029257Y022101D01*
X029455Y021759D01*
X029734Y021480D01*
X030076Y021282D01*
X030458Y021180D01*
X030852Y021180D01*
X031234Y021282D01*
X031576Y021480D01*
X031705Y021609D01*
X031705Y018865D01*
X031517Y018974D01*
X031232Y019050D01*
X030938Y019050D01*
X030653Y018974D01*
X030397Y018826D01*
X030189Y018618D01*
X030041Y018362D01*
X029965Y018077D01*
X029965Y017783D01*
X030041Y017498D01*
X030189Y017242D01*
X030397Y017034D01*
X030653Y016886D01*
X030676Y016880D01*
X030653Y016874D01*
X030397Y016726D01*
X030189Y016518D01*
X030041Y016262D01*
X029965Y015977D01*
X029965Y015683D01*
X030041Y015398D01*
X030179Y015160D01*
X026813Y015160D01*
X026798Y015176D01*
X026603Y015370D01*
X027717Y015370D01*
X027831Y015417D01*
X027918Y015504D01*
X029032Y016618D01*
X029033Y016619D01*
X029075Y016662D01*
X029118Y016704D01*
X029118Y016706D01*
X029119Y016707D01*
X029142Y016763D01*
X029165Y016818D01*
X029165Y016820D01*
X029166Y016821D01*
X029165Y016882D01*
X029165Y016942D01*
X029164Y016943D01*
X029115Y022032D01*
X029115Y022092D01*
X029114Y022093D01*
X029114Y022095D01*
X029091Y022150D01*
X029068Y022206D01*
X029067Y022207D01*
X029066Y022208D01*
X029023Y022250D01*
X028522Y022751D01*
X028566Y022733D01*
X028744Y022733D01*
X028908Y022801D01*
X029034Y022927D01*
X029102Y023091D01*
X029102Y023269D01*
X029034Y023433D01*
X028908Y023559D01*
X028744Y023627D01*
X028566Y023627D01*
X028402Y023559D01*
X028276Y023433D01*
X028208Y023269D01*
X028208Y023091D01*
X028226Y023047D01*
X028226Y023047D01*
X027381Y023893D01*
X027267Y023940D01*
X016593Y023940D01*
X016578Y023934D02*
X015132Y023934D01*
X015288Y023835D02*
X016422Y023835D01*
X016323Y023737D02*
X015387Y023737D01*
X015485Y023638D02*
X016225Y023638D01*
X016126Y023540D02*
X015574Y023540D01*
X015615Y023441D02*
X016049Y023441D01*
X016017Y023343D02*
X015615Y023343D01*
X015693Y023244D02*
X015961Y023244D01*
X015875Y023146D02*
X015779Y023146D01*
X015820Y023047D02*
X015834Y023047D01*
X015827Y023030D02*
X015827Y021130D01*
X015827Y023030D01*
X015827Y022949D02*
X015827Y022949D01*
X015827Y022850D02*
X015827Y022850D01*
X015827Y022752D02*
X015827Y022752D01*
X015827Y022653D02*
X015827Y022653D01*
X015827Y022555D02*
X015827Y022555D01*
X015827Y022456D02*
X015827Y022456D01*
X015827Y022358D02*
X015827Y022358D01*
X015827Y022259D02*
X015827Y022259D01*
X015827Y022161D02*
X015827Y022161D01*
X015827Y022062D02*
X015827Y022062D01*
X015827Y021964D02*
X015827Y021964D01*
X015827Y021865D02*
X015827Y021865D01*
X015827Y021767D02*
X015827Y021767D01*
X015827Y021668D02*
X015827Y021668D01*
X015827Y021570D02*
X015827Y021570D01*
X015827Y021471D02*
X015827Y021471D01*
X015827Y021373D02*
X015827Y021373D01*
X015827Y021274D02*
X015827Y021274D01*
X015827Y021176D02*
X015827Y021176D01*
X015827Y021130D02*
X015790Y021040D01*
X015864Y021040D01*
X015827Y021130D01*
X015805Y021077D02*
X015849Y021077D01*
X016327Y019380D02*
X016327Y018508D01*
X016805Y018180D01*
X018327Y019380D02*
X021355Y019380D01*
X022705Y020730D01*
X023705Y020730D01*
X023755Y020780D01*
X025266Y019380D02*
X025266Y018319D01*
X025255Y018030D01*
X023555Y017380D02*
X023555Y017280D01*
X023255Y017280D01*
X023255Y017010D01*
X023265Y016973D01*
X023247Y016966D01*
X023192Y016911D01*
X023182Y016904D01*
X023175Y016893D01*
X023119Y016838D01*
X023050Y016671D01*
X023050Y016489D01*
X023119Y016322D01*
X023247Y016194D01*
X023414Y016125D01*
X023596Y016125D01*
X023630Y016139D01*
X023605Y016080D01*
X023605Y015765D01*
X023526Y015765D01*
X023525Y015765D01*
X023433Y015803D01*
X022743Y015803D01*
X022652Y015765D01*
X022581Y015695D01*
X022543Y015603D01*
X022543Y015307D01*
X022547Y015297D01*
X022543Y015288D01*
X022543Y014992D01*
X022547Y014982D01*
X022543Y014973D01*
X022543Y014820D01*
X020703Y014820D01*
X020360Y015163D01*
X020360Y015271D01*
X020291Y015438D01*
X020163Y015566D01*
X020036Y015618D01*
X020323Y015618D01*
X020333Y015622D01*
X020342Y015618D01*
X020638Y015618D01*
X020648Y015622D01*
X020657Y015618D01*
X020953Y015618D01*
X020962Y015622D01*
X020972Y015618D01*
X021261Y015618D01*
X021200Y015471D01*
X021200Y015289D01*
X021269Y015122D01*
X021397Y014994D01*
X021564Y014925D01*
X021746Y014925D01*
X021913Y014994D01*
X022041Y015122D01*
X022110Y015289D01*
X022110Y015397D01*
X022328Y015614D01*
X022371Y015718D01*
X022380Y015718D01*
X022498Y015718D01*
X022536Y015728D01*
X022570Y015748D01*
X022598Y015776D01*
X022618Y015810D01*
X022628Y015848D01*
X022628Y016163D01*
X022413Y016163D01*
X022413Y016163D01*
X022628Y016163D01*
X022628Y016478D01*
X022618Y016517D01*
X022598Y016551D01*
X022570Y016579D01*
X022536Y016599D01*
X022521Y016603D01*
X022641Y016722D01*
X022710Y016889D01*
X022710Y017071D01*
X022641Y017238D01*
X022513Y017366D01*
X022346Y017435D01*
X022164Y017435D01*
X021997Y017366D01*
X021980Y017348D01*
X021963Y017366D01*
X021950Y017371D01*
X022139Y017570D01*
X023255Y017570D01*
X023255Y017380D01*
X023555Y017380D01*
X023555Y017334D02*
X022544Y017334D01*
X022642Y017236D02*
X023255Y017236D01*
X023255Y017137D02*
X022682Y017137D01*
X022710Y017039D02*
X023255Y017039D01*
X023222Y016940D02*
X022710Y016940D01*
X022690Y016842D02*
X023123Y016842D01*
X023080Y016743D02*
X022649Y016743D01*
X022563Y016645D02*
X023050Y016645D01*
X023050Y016546D02*
X022601Y016546D01*
X022628Y016448D02*
X023067Y016448D01*
X023108Y016349D02*
X022628Y016349D01*
X022628Y016251D02*
X023191Y016251D01*
X023349Y016152D02*
X022628Y016152D01*
X022628Y016054D02*
X023605Y016054D01*
X023605Y015955D02*
X022628Y015955D01*
X022628Y015857D02*
X023605Y015857D01*
X022644Y015758D02*
X022580Y015758D01*
X022567Y015660D02*
X022346Y015660D01*
X022380Y015718D02*
X022380Y015738D01*
X022380Y015718D01*
X022380Y015738D02*
X022380Y015738D01*
X022274Y015561D02*
X022543Y015561D01*
X022543Y015463D02*
X022176Y015463D01*
X022110Y015364D02*
X022543Y015364D01*
X022543Y015266D02*
X022100Y015266D01*
X022059Y015167D02*
X022543Y015167D01*
X022543Y015069D02*
X021987Y015069D01*
X021854Y014970D02*
X022543Y014970D01*
X022543Y014872D02*
X020652Y014872D01*
X020553Y014970D02*
X021456Y014970D01*
X021323Y015069D02*
X020455Y015069D01*
X020360Y015167D02*
X021251Y015167D01*
X021210Y015266D02*
X020360Y015266D01*
X020321Y015364D02*
X021200Y015364D01*
X021200Y015463D02*
X020266Y015463D01*
X020167Y015561D02*
X021238Y015561D01*
X019866Y014281D02*
X019698Y014281D01*
X019703Y014269D02*
X019635Y014434D01*
X019509Y014560D01*
X019344Y014628D01*
X019166Y014628D01*
X019067Y014587D01*
X019067Y014658D01*
X019063Y014667D01*
X019067Y014677D01*
X019067Y014973D01*
X019029Y015065D01*
X018967Y015127D01*
X018967Y015140D01*
X018967Y015153D01*
X019029Y015215D01*
X019044Y015252D01*
X019145Y015152D01*
X019145Y015068D01*
X019192Y014954D01*
X020142Y014004D01*
X020229Y013917D01*
X020343Y013870D01*
X022543Y013870D01*
X022543Y013732D01*
X022547Y013723D01*
X022543Y013713D01*
X022543Y013417D01*
X022547Y013408D01*
X022543Y013398D01*
X022543Y013102D01*
X022547Y013093D01*
X022543Y013083D01*
X022543Y012787D01*
X022581Y012695D01*
X022643Y012633D01*
X022643Y012620D01*
X022643Y012607D01*
X022581Y012545D01*
X022573Y012526D01*
X022565Y012530D01*
X021956Y012530D01*
X021960Y012539D01*
X021960Y012721D01*
X021891Y012888D01*
X021763Y013016D01*
X021596Y013085D01*
X021414Y013085D01*
X021247Y013016D01*
X021119Y012888D01*
X021050Y012721D01*
X021050Y012599D01*
X020866Y012415D01*
X020820Y012305D01*
X020820Y012142D01*
X020657Y012142D01*
X020648Y012138D01*
X020638Y012142D01*
X020541Y012142D01*
X020603Y012291D01*
X020603Y012469D01*
X020535Y012634D01*
X020409Y012760D01*
X020244Y012828D01*
X020066Y012828D01*
X019901Y012760D01*
X019775Y012634D01*
X019707Y012469D01*
X019707Y012291D01*
X019775Y012126D01*
X019825Y012076D01*
X019825Y012064D01*
X019785Y012104D01*
X019693Y012142D01*
X019397Y012142D01*
X019388Y012138D01*
X019378Y012142D01*
X019082Y012142D01*
X019056Y012131D01*
X019067Y012157D01*
X019067Y012453D01*
X019063Y012463D01*
X019067Y012472D01*
X019067Y012768D01*
X019063Y012778D01*
X019067Y012787D01*
X019067Y013083D01*
X019063Y013093D01*
X019067Y013102D01*
X019067Y013398D01*
X019029Y013490D01*
X018967Y013552D01*
X018967Y013565D01*
X018947Y013565D01*
X018947Y013565D01*
X018947Y013565D01*
X018967Y013565D01*
X018967Y013578D01*
X019029Y013640D01*
X019067Y013732D01*
X019067Y013773D01*
X019166Y013732D01*
X019344Y013732D01*
X019509Y013800D01*
X019635Y013926D01*
X019703Y014091D01*
X019703Y014269D01*
X019703Y014182D02*
X019965Y014182D01*
X020063Y014084D02*
X019700Y014084D01*
X019659Y013985D02*
X020162Y013985D01*
X020303Y013887D02*
X019595Y013887D01*
X019480Y013788D02*
X022543Y013788D01*
X022543Y013690D02*
X019049Y013690D01*
X018980Y013591D02*
X022543Y013591D01*
X022543Y013493D02*
X019026Y013493D01*
X019067Y013394D02*
X022543Y013394D01*
X022543Y013296D02*
X019067Y013296D01*
X019067Y013197D02*
X022543Y013197D01*
X022545Y013099D02*
X019065Y013099D01*
X019067Y013000D02*
X021232Y013000D01*
X021133Y012902D02*
X019067Y012902D01*
X019067Y012803D02*
X020005Y012803D01*
X019846Y012705D02*
X019067Y012705D01*
X019067Y012606D02*
X019764Y012606D01*
X019723Y012508D02*
X019067Y012508D01*
X019067Y012409D02*
X019707Y012409D01*
X019707Y012311D02*
X019067Y012311D01*
X019067Y012212D02*
X019740Y012212D01*
X019762Y012114D02*
X019788Y012114D01*
X020570Y012212D02*
X020820Y012212D01*
X020822Y012311D02*
X020603Y012311D01*
X020603Y012409D02*
X020863Y012409D01*
X020958Y012508D02*
X020587Y012508D01*
X020546Y012606D02*
X021050Y012606D01*
X021050Y012705D02*
X020464Y012705D01*
X020305Y012803D02*
X021084Y012803D01*
X021505Y012630D02*
X021120Y012245D01*
X021120Y011597D01*
X021435Y011597D02*
X021435Y012110D01*
X021555Y012230D01*
X022505Y012230D01*
X022805Y011930D01*
X024355Y010430D01*
X024505Y010430D01*
X024755Y010680D01*
X024755Y010930D01*
X024955Y011130D01*
X024955Y011180D01*
X024955Y011480D01*
X025405Y011713D02*
X025405Y011830D01*
X025367Y011922D01*
X025297Y011992D01*
X025205Y012030D01*
X024705Y012030D01*
X024613Y011992D01*
X024543Y011922D01*
X024537Y011906D01*
X024513Y011920D01*
X024475Y011930D01*
X024305Y011930D01*
X024305Y011530D01*
X024205Y011530D01*
X024205Y011930D01*
X024035Y011930D01*
X023997Y011920D01*
X023963Y011900D01*
X023935Y011872D01*
X023915Y011838D01*
X023905Y011800D01*
X023905Y011530D01*
X024205Y011530D01*
X024205Y011430D01*
X024305Y011430D01*
X024305Y011030D01*
X024472Y011030D01*
X024455Y010990D01*
X024455Y010804D01*
X024428Y010777D01*
X024166Y011030D01*
X024205Y011030D01*
X024205Y011430D01*
X023905Y011430D01*
X023905Y011283D01*
X023209Y011957D01*
X023433Y011957D01*
X023525Y011995D01*
X023526Y011995D01*
X023892Y011995D01*
X023964Y012025D01*
X024096Y012025D01*
X024263Y012094D01*
X024350Y012181D01*
X024413Y012118D01*
X024505Y012080D01*
X025205Y012080D01*
X025297Y012118D01*
X025367Y012188D01*
X025405Y012280D01*
X025405Y012780D01*
X025367Y012872D01*
X025297Y012942D01*
X025281Y012948D01*
X025295Y012972D01*
X025305Y013010D01*
X025305Y013180D01*
X024905Y013180D01*
X024905Y013280D01*
X025305Y013280D01*
X025305Y013450D01*
X025295Y013488D01*
X025275Y013522D01*
X025247Y013550D01*
X025241Y013554D01*
X025363Y013604D01*
X025363Y013602D01*
X025434Y013532D01*
X025526Y013494D01*
X026098Y013494D01*
X026189Y013532D01*
X026225Y013567D01*
X026261Y013532D01*
X026352Y013494D01*
X026924Y013494D01*
X027016Y013532D01*
X027087Y013602D01*
X027094Y013620D01*
X027265Y013620D01*
X027265Y013580D01*
X027303Y013488D01*
X027373Y013418D01*
X027465Y013380D01*
X027965Y013380D01*
X028057Y013418D01*
X028065Y013426D01*
X028073Y013418D01*
X028165Y013380D01*
X028665Y013380D01*
X028757Y013418D01*
X028827Y013488D01*
X028833Y013503D01*
X028924Y013465D01*
X029106Y013465D01*
X029273Y013534D01*
X029382Y013643D01*
X029429Y013529D01*
X029538Y013420D01*
X029504Y013406D01*
X029329Y013231D01*
X029235Y013003D01*
X029235Y012757D01*
X029329Y012529D01*
X029504Y012354D01*
X029538Y012340D01*
X029429Y012231D01*
X029335Y012003D01*
X029335Y011757D01*
X029416Y011560D01*
X028955Y011560D01*
X028955Y011580D01*
X028917Y011672D01*
X028847Y011742D01*
X028755Y011780D01*
X028255Y011780D01*
X028163Y011742D01*
X028155Y011734D01*
X028147Y011742D01*
X028055Y011780D01*
X027555Y011780D01*
X027463Y011742D01*
X027437Y011715D01*
X027437Y011899D01*
X027426Y011925D01*
X027426Y012213D01*
X027505Y012180D01*
X028005Y012180D01*
X028097Y012218D01*
X028167Y012288D01*
X028173Y012304D01*
X028197Y012290D01*
X028235Y012280D01*
X028405Y012280D01*
X028405Y012680D01*
X028505Y012680D01*
X028505Y012780D01*
X028405Y012780D01*
X028405Y013180D01*
X028235Y013180D01*
X028197Y013170D01*
X028173Y013156D01*
X028167Y013172D01*
X028097Y013242D01*
X028005Y013280D01*
X027505Y013280D01*
X027413Y013242D01*
X027359Y013188D01*
X027246Y013235D01*
X027064Y013235D01*
X027037Y013224D01*
X027014Y013280D01*
X026943Y013351D01*
X026852Y013389D01*
X026358Y013389D01*
X026267Y013351D01*
X026196Y013280D01*
X026158Y013188D01*
X026158Y012538D01*
X026196Y012446D01*
X026267Y012376D01*
X026279Y012370D01*
X026279Y012045D01*
X026183Y012045D01*
X026183Y011949D01*
X026183Y011948D02*
X026279Y011948D01*
X026279Y011571D01*
X026448Y011571D01*
X026486Y011582D01*
X026520Y011601D01*
X026548Y011629D01*
X026549Y011631D01*
X026570Y011580D01*
X026641Y011509D01*
X026732Y011471D01*
X026837Y011471D01*
X026837Y011101D01*
X026798Y011085D01*
X026728Y011015D01*
X026693Y010930D01*
X026595Y010930D01*
X026485Y010884D01*
X026401Y010800D01*
X026386Y010785D01*
X026359Y010850D01*
X026209Y011000D01*
X026125Y011084D01*
X026015Y011130D01*
X025959Y011130D01*
X025980Y011179D01*
X025980Y011361D01*
X025911Y011528D01*
X025783Y011656D01*
X025616Y011725D01*
X025434Y011725D01*
X025405Y011713D01*
X025405Y011720D02*
X025421Y011720D01*
X025405Y011818D02*
X025884Y011818D01*
X025884Y011720D02*
X025629Y011720D01*
X025817Y011621D02*
X025922Y011621D01*
X025914Y011629D02*
X025942Y011601D01*
X025976Y011582D01*
X026014Y011571D01*
X026183Y011571D01*
X026183Y011948D01*
X026183Y011949D02*
X025884Y011949D01*
X025884Y011702D01*
X025894Y011663D01*
X025914Y011629D01*
X025913Y011523D02*
X026627Y011523D01*
X026553Y011621D02*
X026540Y011621D01*
X026279Y011621D02*
X026183Y011621D01*
X026183Y011720D02*
X026279Y011720D01*
X026279Y011818D02*
X026183Y011818D01*
X026183Y011917D02*
X026279Y011917D01*
X026183Y012015D02*
X025241Y012015D01*
X025286Y012114D02*
X025884Y012114D01*
X025884Y012045D02*
X026183Y012045D01*
X026183Y012423D01*
X026014Y012423D01*
X025976Y012412D01*
X025942Y012393D01*
X025914Y012365D01*
X025894Y012330D01*
X025884Y012292D01*
X025884Y012045D01*
X025884Y011917D02*
X025369Y011917D01*
X025377Y012212D02*
X025884Y012212D01*
X025889Y012311D02*
X025405Y012311D01*
X025405Y012409D02*
X025971Y012409D01*
X026183Y012409D02*
X026233Y012409D01*
X026279Y012311D02*
X026183Y012311D01*
X026183Y012212D02*
X026279Y012212D01*
X026279Y012114D02*
X026183Y012114D01*
X026171Y012508D02*
X025405Y012508D01*
X025405Y012606D02*
X026158Y012606D01*
X026158Y012705D02*
X025405Y012705D01*
X025395Y012803D02*
X026158Y012803D01*
X026158Y012902D02*
X025337Y012902D01*
X025302Y013000D02*
X026158Y013000D01*
X026158Y013099D02*
X025305Y013099D01*
X025305Y013296D02*
X026211Y013296D01*
X026162Y013197D02*
X024905Y013197D01*
X024805Y013197D02*
X024365Y013197D01*
X024405Y013180D02*
X024405Y013010D01*
X024415Y012972D01*
X024429Y012948D01*
X024413Y012942D01*
X024343Y012872D01*
X024330Y012840D01*
X024288Y012840D01*
X024263Y012866D01*
X024096Y012935D01*
X023914Y012935D01*
X023747Y012866D01*
X023619Y012738D01*
X023569Y012615D01*
X023534Y012615D01*
X023534Y012620D01*
X023514Y012620D01*
X023514Y012620D01*
X023514Y012620D01*
X023534Y012620D01*
X023534Y012633D01*
X023596Y012695D01*
X023634Y012787D01*
X023634Y012940D01*
X023973Y012940D01*
X024032Y012939D01*
X024035Y012940D01*
X024037Y012940D01*
X024092Y012963D01*
X024147Y012985D01*
X024149Y012986D01*
X024151Y012987D01*
X024193Y013029D01*
X024450Y013280D01*
X024805Y013280D01*
X024805Y013180D01*
X024405Y013180D01*
X024405Y013099D02*
X024264Y013099D01*
X024163Y013000D02*
X024408Y013000D01*
X024373Y012902D02*
X024176Y012902D01*
X023834Y012902D02*
X023634Y012902D01*
X023634Y012803D02*
X023685Y012803D01*
X023606Y012705D02*
X023600Y012705D01*
X022663Y012620D02*
X022663Y012620D01*
X022663Y012620D01*
X022643Y012620D01*
X022663Y012620D01*
X022642Y012606D02*
X021960Y012606D01*
X021960Y012705D02*
X022577Y012705D01*
X022543Y012803D02*
X021926Y012803D01*
X021877Y012902D02*
X022543Y012902D01*
X022543Y013000D02*
X021778Y013000D01*
X023250Y011917D02*
X023991Y011917D01*
X023940Y012015D02*
X024669Y012015D01*
X024541Y011917D02*
X024519Y011917D01*
X024305Y011917D02*
X024205Y011917D01*
X024205Y011818D02*
X024305Y011818D01*
X024305Y011720D02*
X024205Y011720D01*
X024205Y011621D02*
X024305Y011621D01*
X024205Y011523D02*
X023657Y011523D01*
X023556Y011621D02*
X023905Y011621D01*
X023905Y011720D02*
X023454Y011720D01*
X023352Y011818D02*
X023910Y011818D01*
X023905Y011424D02*
X023759Y011424D01*
X023861Y011326D02*
X023905Y011326D01*
X024205Y011326D02*
X024305Y011326D01*
X024305Y011424D02*
X024205Y011424D01*
X024205Y011227D02*
X024305Y011227D01*
X024305Y011129D02*
X024205Y011129D01*
X024205Y011030D02*
X024305Y011030D01*
X024268Y010932D02*
X024455Y010932D01*
X024455Y010833D02*
X024370Y010833D01*
X024355Y010430D02*
X025473Y010430D01*
X025473Y010627D02*
X025158Y010627D01*
X025105Y010680D01*
X025105Y010930D01*
X025525Y011270D01*
X025479Y010830D02*
X025473Y010824D01*
X025479Y010830D02*
X025955Y010830D01*
X026105Y010680D01*
X026105Y010130D01*
X026755Y009480D01*
X027255Y008980D01*
X028405Y007830D01*
X028905Y007830D01*
X029955Y006780D01*
X030005Y006780D01*
X029385Y006795D02*
X027655Y006795D01*
X027655Y006893D02*
X029385Y006893D01*
X029385Y006903D02*
X029385Y006657D01*
X029479Y006429D01*
X029654Y006254D01*
X029688Y006240D01*
X029579Y006131D01*
X029485Y005903D01*
X029485Y005657D01*
X029579Y005429D01*
X029754Y005254D01*
X029982Y005160D01*
X030228Y005160D01*
X030328Y005201D01*
X030267Y005140D01*
X027655Y005140D01*
X027655Y006980D01*
X027598Y007117D01*
X027492Y007223D01*
X027465Y007234D01*
X027465Y007342D01*
X027418Y007456D01*
X027331Y007543D01*
X027081Y007793D01*
X026967Y007840D01*
X026083Y007840D01*
X025710Y008213D01*
X025710Y008271D01*
X025674Y008359D01*
X025697Y008368D01*
X025767Y008438D01*
X025773Y008454D01*
X025797Y008440D01*
X025835Y008430D01*
X026005Y008430D01*
X026005Y008830D01*
X026105Y008830D01*
X026105Y008930D01*
X026005Y008930D01*
X026005Y009330D01*
X025835Y009330D01*
X025797Y009320D01*
X025773Y009306D01*
X025767Y009322D01*
X025697Y009392D01*
X025605Y009430D01*
X025222Y009430D01*
X024722Y009930D01*
X025136Y009930D01*
X025136Y009929D01*
X025156Y009895D01*
X025184Y009867D01*
X025218Y009847D01*
X025256Y009837D01*
X025473Y009837D01*
X025473Y009930D01*
X025473Y009930D01*
X025473Y009837D01*
X025690Y009837D01*
X025728Y009847D01*
X025762Y009867D01*
X025790Y009895D01*
X025810Y009929D01*
X025820Y009967D01*
X025820Y009980D01*
X025836Y009996D01*
X025851Y009960D01*
X025935Y009876D01*
X025935Y009876D01*
X026585Y009226D01*
X026585Y009226D01*
X027001Y008810D01*
X028235Y007576D01*
X028345Y007530D01*
X028781Y007530D01*
X029392Y006919D01*
X029385Y006903D01*
X029319Y006992D02*
X027650Y006992D01*
X027609Y007090D02*
X029221Y007090D01*
X029122Y007189D02*
X027527Y007189D01*
X027465Y007287D02*
X029024Y007287D01*
X028925Y007386D02*
X027447Y007386D01*
X027389Y007484D02*
X028827Y007484D01*
X028228Y007583D02*
X027291Y007583D01*
X027192Y007681D02*
X028130Y007681D01*
X028031Y007780D02*
X027094Y007780D01*
X027539Y008272D02*
X025709Y008272D01*
X025699Y008371D02*
X027440Y008371D01*
X027342Y008469D02*
X026356Y008469D01*
X026347Y008460D02*
X026375Y008488D01*
X026395Y008522D01*
X026405Y008560D01*
X026405Y008830D01*
X026105Y008830D01*
X026105Y008430D01*
X026275Y008430D01*
X026313Y008440D01*
X026347Y008460D01*
X026405Y008568D02*
X027243Y008568D01*
X027145Y008666D02*
X026405Y008666D01*
X026405Y008765D02*
X027046Y008765D01*
X027001Y008810D02*
X027001Y008810D01*
X026948Y008863D02*
X026105Y008863D01*
X026105Y008930D02*
X026405Y008930D01*
X026405Y009200D01*
X026395Y009238D01*
X026375Y009272D01*
X026347Y009300D01*
X026313Y009320D01*
X026275Y009330D01*
X026105Y009330D01*
X026105Y008930D01*
X026105Y008962D02*
X026005Y008962D01*
X026005Y009060D02*
X026105Y009060D01*
X026105Y009159D02*
X026005Y009159D01*
X026005Y009257D02*
X026105Y009257D01*
X026384Y009257D02*
X026554Y009257D01*
X026652Y009159D02*
X026405Y009159D01*
X026405Y009060D02*
X026751Y009060D01*
X026849Y008962D02*
X026405Y008962D01*
X026105Y008765D02*
X026005Y008765D01*
X026005Y008666D02*
X026105Y008666D01*
X026105Y008568D02*
X026005Y008568D01*
X026005Y008469D02*
X026105Y008469D01*
X025750Y008174D02*
X027637Y008174D01*
X027736Y008075D02*
X025848Y008075D01*
X025947Y007977D02*
X027834Y007977D01*
X027933Y007878D02*
X026045Y007878D01*
X025155Y007330D02*
X025155Y006030D01*
X023155Y006030D02*
X023105Y007180D01*
X023155Y007480D01*
X023155Y006030D02*
X021805Y004680D01*
X020155Y004680D01*
X017705Y004680D02*
X017655Y004630D01*
X014655Y004630D01*
X014155Y005130D01*
X014155Y006030D01*
X016155Y006030D02*
X016155Y007380D01*
X015155Y003330D02*
X015155Y002380D01*
X015655Y001880D01*
X014155Y003330D02*
X013455Y003330D01*
X013405Y003280D01*
X009723Y010735D02*
X009605Y010735D01*
X009605Y010833D02*
X009723Y010833D01*
X009723Y010932D02*
X009605Y010932D01*
X009605Y011030D02*
X009723Y011030D01*
X009724Y011129D02*
X009605Y011129D01*
X009605Y011227D02*
X009771Y011227D01*
X009923Y011326D02*
X010889Y011326D01*
X011229Y012297D02*
X011581Y012297D01*
X011905Y012431D01*
X012154Y012680D01*
X012288Y013004D01*
X012288Y013356D01*
X012154Y013680D01*
X011905Y013929D01*
X011581Y014063D01*
X011229Y014063D01*
X010905Y013929D01*
X010656Y013680D01*
X010522Y013356D01*
X010522Y013004D01*
X010656Y012680D01*
X010905Y012431D01*
X011229Y012297D01*
X011197Y012311D02*
X009605Y012311D01*
X009605Y012409D02*
X010959Y012409D01*
X010829Y012508D02*
X009605Y012508D01*
X009605Y012606D02*
X010730Y012606D01*
X010646Y012705D02*
X009605Y012705D01*
X009605Y012803D02*
X010605Y012803D01*
X010565Y012902D02*
X009605Y012902D01*
X009605Y013000D02*
X010524Y013000D01*
X010522Y013099D02*
X009605Y013099D01*
X009605Y013197D02*
X010522Y013197D01*
X010522Y013296D02*
X009605Y013296D01*
X009605Y013394D02*
X010538Y013394D01*
X010579Y013493D02*
X009605Y013493D01*
X009605Y013591D02*
X010619Y013591D01*
X010666Y013690D02*
X009605Y013690D01*
X009605Y013788D02*
X010764Y013788D01*
X010863Y013887D02*
X009605Y013887D01*
X009605Y013985D02*
X011041Y013985D01*
X011769Y013985D02*
X012679Y013985D01*
X012640Y014084D02*
X009605Y014084D01*
X009605Y014182D02*
X012640Y014182D01*
X012640Y014281D02*
X009605Y014281D01*
X009605Y014379D02*
X012681Y014379D01*
X012727Y014478D02*
X009605Y014478D01*
X009605Y014576D02*
X012826Y014576D01*
X012837Y014773D02*
X009605Y014773D01*
X009605Y014675D02*
X013015Y014675D01*
X012738Y014872D02*
X009605Y014872D01*
X009605Y014970D02*
X012685Y014970D01*
X012644Y015069D02*
X009605Y015069D01*
X009605Y015167D02*
X012640Y015167D01*
X012640Y015266D02*
X009605Y015266D01*
X009605Y015364D02*
X012674Y015364D01*
X012715Y015463D02*
X009605Y015463D01*
X009605Y015561D02*
X012811Y015561D01*
X012979Y015660D02*
X009605Y015660D01*
X009605Y015758D02*
X012987Y015758D01*
X013028Y015857D02*
X009605Y015857D01*
X009605Y015955D02*
X013107Y015955D01*
X013290Y016054D02*
X009605Y016054D01*
X009605Y016152D02*
X013389Y016152D01*
X013487Y016251D02*
X009605Y016251D01*
X009605Y016349D02*
X011104Y016349D01*
X011229Y016297D02*
X011581Y016297D01*
X011905Y016431D01*
X012154Y016680D01*
X012288Y017004D01*
X012288Y017356D01*
X012154Y017680D01*
X011905Y017929D01*
X011581Y018063D01*
X011229Y018063D01*
X010905Y017929D01*
X010656Y017680D01*
X010522Y017356D01*
X010522Y017004D01*
X010656Y016680D01*
X010905Y016431D01*
X011229Y016297D01*
X010889Y016448D02*
X009605Y016448D01*
X009605Y016546D02*
X010790Y016546D01*
X010692Y016645D02*
X009605Y016645D01*
X009605Y016743D02*
X010630Y016743D01*
X010589Y016842D02*
X009605Y016842D01*
X009605Y016940D02*
X010549Y016940D01*
X010522Y017039D02*
X009605Y017039D01*
X009605Y017137D02*
X010522Y017137D01*
X010522Y017236D02*
X009605Y017236D01*
X009605Y017334D02*
X010522Y017334D01*
X010554Y017433D02*
X009605Y017433D01*
X009605Y017531D02*
X010595Y017531D01*
X010635Y017630D02*
X009605Y017630D01*
X009605Y017728D02*
X010704Y017728D01*
X010803Y017827D02*
X009605Y017827D01*
X009605Y017925D02*
X010901Y017925D01*
X011134Y018024D02*
X009605Y018024D01*
X009605Y018122D02*
X013295Y018122D01*
X013295Y018221D02*
X009605Y018221D01*
X009605Y018319D02*
X013295Y018319D01*
X013295Y018418D02*
X009605Y018418D01*
X009605Y018516D02*
X013295Y018516D01*
X013295Y018615D02*
X009605Y018615D01*
X009605Y018713D02*
X013295Y018713D01*
X013295Y018812D02*
X009605Y018812D01*
X009605Y018910D02*
X013295Y018910D01*
X013295Y019009D02*
X009605Y019009D01*
X009605Y019107D02*
X013295Y019107D01*
X013295Y019206D02*
X009605Y019206D01*
X009605Y019304D02*
X013295Y019304D01*
X013295Y019403D02*
X009605Y019403D01*
X009605Y019501D02*
X013295Y019501D01*
X013295Y019600D02*
X009605Y019600D01*
X009605Y019698D02*
X013295Y019698D01*
X013295Y019797D02*
X009605Y019797D01*
X009605Y019895D02*
X013295Y019895D01*
X013295Y019994D02*
X009605Y019994D01*
X009605Y020092D02*
X013295Y020092D01*
X013295Y020191D02*
X009605Y020191D01*
X009605Y020289D02*
X013295Y020289D01*
X013295Y020388D02*
X009605Y020388D01*
X009605Y020486D02*
X013295Y020486D01*
X013295Y020585D02*
X009605Y020585D01*
X009605Y020683D02*
X013295Y020683D01*
X013295Y020782D02*
X009605Y020782D01*
X009605Y020880D02*
X013295Y020880D01*
X013295Y020979D02*
X009605Y020979D01*
X009605Y021077D02*
X013295Y021077D01*
X013295Y021176D02*
X009605Y021176D01*
X009605Y021274D02*
X010107Y021274D01*
X009920Y021373D02*
X009605Y021373D01*
X009605Y021471D02*
X009749Y021471D01*
X009644Y021570D02*
X009605Y021570D01*
X011203Y021274D02*
X013295Y021274D01*
X013295Y021373D02*
X011390Y021373D01*
X011561Y021471D02*
X013295Y021471D01*
X013295Y021570D02*
X011666Y021570D01*
X011764Y021668D02*
X013295Y021668D01*
X013295Y021767D02*
X011860Y021767D01*
X011917Y021865D02*
X013295Y021865D01*
X013295Y021964D02*
X011973Y021964D01*
X012030Y022062D02*
X013295Y022062D01*
X013295Y022161D02*
X012069Y022161D01*
X012095Y022259D02*
X013295Y022259D01*
X013295Y022358D02*
X012122Y022358D01*
X012148Y022456D02*
X013295Y022456D01*
X013295Y022555D02*
X012155Y022555D01*
X012155Y022653D02*
X013295Y022653D01*
X013295Y022752D02*
X012788Y022752D01*
X012744Y022733D02*
X012908Y022801D01*
X013034Y022927D01*
X013102Y023091D01*
X013102Y023269D01*
X013034Y023433D01*
X012908Y023559D01*
X012744Y023627D01*
X012566Y023627D01*
X012402Y023559D01*
X012276Y023433D01*
X012208Y023269D01*
X012208Y023091D01*
X012276Y022927D01*
X012402Y022801D01*
X012566Y022733D01*
X012744Y022733D01*
X012522Y022752D02*
X012155Y022752D01*
X012155Y022850D02*
X012353Y022850D01*
X012267Y022949D02*
X012136Y022949D01*
X012110Y023047D02*
X012226Y023047D01*
X012208Y023146D02*
X012083Y023146D01*
X012057Y023244D02*
X012208Y023244D01*
X012239Y023343D02*
X012005Y023343D01*
X011948Y023441D02*
X012284Y023441D01*
X012383Y023540D02*
X011891Y023540D01*
X011818Y023638D02*
X013625Y023638D01*
X013723Y023737D02*
X011720Y023737D01*
X011621Y023835D02*
X013822Y023835D01*
X013978Y023934D02*
X011484Y023934D01*
X011313Y024032D02*
X029997Y024032D01*
X029826Y023934D02*
X027282Y023934D01*
X027438Y023835D02*
X029689Y023835D01*
X029590Y023737D02*
X027537Y023737D01*
X027635Y023638D02*
X029492Y023638D01*
X029419Y023540D02*
X028927Y023540D01*
X029026Y023441D02*
X029362Y023441D01*
X029305Y023343D02*
X029071Y023343D01*
X029102Y023244D02*
X029253Y023244D01*
X029227Y023146D02*
X029102Y023146D01*
X029084Y023047D02*
X029200Y023047D01*
X029174Y022949D02*
X029043Y022949D01*
X028957Y022850D02*
X029155Y022850D01*
X029155Y022752D02*
X028788Y022752D01*
X028620Y022653D02*
X029155Y022653D01*
X029155Y022555D02*
X028719Y022555D01*
X028817Y022456D02*
X029162Y022456D01*
X029188Y022358D02*
X028916Y022358D01*
X029014Y022259D02*
X029215Y022259D01*
X029241Y022161D02*
X029086Y022161D01*
X029115Y022062D02*
X029280Y022062D01*
X029337Y021964D02*
X029116Y021964D01*
X029117Y021865D02*
X029393Y021865D01*
X029450Y021767D02*
X029118Y021767D01*
X029119Y021668D02*
X029546Y021668D01*
X029644Y021570D02*
X029119Y021570D01*
X029120Y021471D02*
X029749Y021471D01*
X029920Y021373D02*
X029121Y021373D01*
X029122Y021274D02*
X030107Y021274D01*
X029123Y021176D02*
X031705Y021176D01*
X031705Y021274D02*
X031203Y021274D01*
X031390Y021373D02*
X031705Y021373D01*
X031705Y021471D02*
X031561Y021471D01*
X031666Y021570D02*
X031705Y021570D01*
X031705Y021077D02*
X029124Y021077D01*
X029125Y020979D02*
X031705Y020979D01*
X031705Y020880D02*
X029126Y020880D01*
X029127Y020782D02*
X031705Y020782D01*
X031705Y020683D02*
X029128Y020683D01*
X029129Y020585D02*
X031705Y020585D01*
X031705Y020486D02*
X029130Y020486D01*
X029131Y020388D02*
X031705Y020388D01*
X031705Y020289D02*
X029132Y020289D01*
X029133Y020191D02*
X031705Y020191D01*
X031705Y020092D02*
X029134Y020092D01*
X029135Y019994D02*
X031705Y019994D01*
X031705Y019895D02*
X029136Y019895D01*
X029137Y019797D02*
X031705Y019797D01*
X031705Y019698D02*
X029138Y019698D01*
X029139Y019600D02*
X031705Y019600D01*
X031705Y019501D02*
X029140Y019501D01*
X029141Y019403D02*
X031705Y019403D01*
X031705Y019304D02*
X029141Y019304D01*
X029142Y019206D02*
X031705Y019206D01*
X031705Y019107D02*
X029143Y019107D01*
X029144Y019009D02*
X030783Y019009D01*
X030542Y018910D02*
X029145Y018910D01*
X029146Y018812D02*
X030383Y018812D01*
X030284Y018713D02*
X029147Y018713D01*
X029148Y018615D02*
X030187Y018615D01*
X030130Y018516D02*
X029149Y018516D01*
X029150Y018418D02*
X030073Y018418D01*
X030030Y018319D02*
X029151Y018319D01*
X029152Y018221D02*
X030003Y018221D01*
X029977Y018122D02*
X029153Y018122D01*
X029154Y018024D02*
X029965Y018024D01*
X029965Y017925D02*
X029155Y017925D01*
X029156Y017827D02*
X029965Y017827D01*
X029980Y017728D02*
X029157Y017728D01*
X029158Y017630D02*
X030006Y017630D01*
X030032Y017531D02*
X029159Y017531D01*
X029160Y017433D02*
X030079Y017433D01*
X030136Y017334D02*
X029161Y017334D01*
X029162Y017236D02*
X030196Y017236D01*
X030294Y017137D02*
X029163Y017137D01*
X029163Y017039D02*
X030393Y017039D01*
X030560Y016940D02*
X029165Y016940D01*
X029165Y016842D02*
X030597Y016842D01*
X030426Y016743D02*
X029134Y016743D01*
X029058Y016645D02*
X030316Y016645D01*
X030217Y016546D02*
X028959Y016546D01*
X028861Y016448D02*
X030148Y016448D01*
X030091Y016349D02*
X028762Y016349D01*
X028664Y016251D02*
X030038Y016251D01*
X030012Y016152D02*
X028565Y016152D01*
X028467Y016054D02*
X029985Y016054D01*
X029965Y015955D02*
X028368Y015955D01*
X028270Y015857D02*
X029965Y015857D01*
X029965Y015758D02*
X028171Y015758D01*
X028073Y015660D02*
X029971Y015660D01*
X029998Y015561D02*
X027974Y015561D01*
X027876Y015463D02*
X030024Y015463D01*
X030061Y015364D02*
X026609Y015364D01*
X026708Y015266D02*
X030118Y015266D01*
X030174Y015167D02*
X026806Y015167D01*
X026798Y015176D02*
X026798Y015176D01*
X027075Y013591D02*
X027265Y013591D01*
X027301Y013493D02*
X025292Y013493D01*
X025305Y013394D02*
X027431Y013394D01*
X027368Y013197D02*
X027337Y013197D01*
X026999Y013296D02*
X029394Y013296D01*
X029315Y013197D02*
X028142Y013197D01*
X028131Y013394D02*
X027999Y013394D01*
X028405Y013099D02*
X028505Y013099D01*
X028505Y013180D02*
X028505Y012780D01*
X028805Y012780D01*
X028805Y013050D01*
X028795Y013088D01*
X028775Y013122D01*
X028747Y013150D01*
X028713Y013170D01*
X028675Y013180D01*
X028505Y013180D01*
X028505Y013000D02*
X028405Y013000D01*
X028405Y012902D02*
X028505Y012902D01*
X028505Y012803D02*
X028405Y012803D01*
X028505Y012705D02*
X029257Y012705D01*
X029235Y012803D02*
X028805Y012803D01*
X028805Y012902D02*
X029235Y012902D01*
X029235Y013000D02*
X028805Y013000D01*
X028789Y013099D02*
X029274Y013099D01*
X029492Y013394D02*
X028699Y013394D01*
X028829Y013493D02*
X028858Y013493D01*
X029172Y013493D02*
X029466Y013493D01*
X029404Y013591D02*
X029329Y013591D01*
X028805Y012680D02*
X028505Y012680D01*
X028505Y012280D01*
X028675Y012280D01*
X028713Y012290D01*
X028747Y012310D01*
X028775Y012338D01*
X028795Y012372D01*
X028805Y012410D01*
X028805Y012680D01*
X028805Y012606D02*
X029297Y012606D01*
X029351Y012508D02*
X028805Y012508D01*
X028805Y012409D02*
X029449Y012409D01*
X029509Y012311D02*
X028748Y012311D01*
X028505Y012311D02*
X028405Y012311D01*
X028405Y012409D02*
X028505Y012409D01*
X028505Y012508D02*
X028405Y012508D01*
X028405Y012606D02*
X028505Y012606D01*
X028082Y012212D02*
X029421Y012212D01*
X029381Y012114D02*
X027426Y012114D01*
X027426Y012212D02*
X027428Y012212D01*
X027426Y012015D02*
X029340Y012015D01*
X029335Y011917D02*
X027430Y011917D01*
X027437Y011818D02*
X029335Y011818D01*
X029350Y011720D02*
X028869Y011720D01*
X028938Y011621D02*
X029391Y011621D01*
X027805Y011230D02*
X027399Y010824D01*
X027137Y010824D01*
X027137Y011839D01*
X026979Y011997D01*
X027437Y011720D02*
X027441Y011720D01*
X026837Y011424D02*
X025954Y011424D01*
X025980Y011326D02*
X026837Y011326D01*
X026837Y011227D02*
X025980Y011227D01*
X026018Y011129D02*
X026837Y011129D01*
X026744Y011030D02*
X026179Y011030D01*
X026278Y010932D02*
X026694Y010932D01*
X026434Y010833D02*
X026366Y010833D01*
X026655Y010630D02*
X026555Y010530D01*
X026555Y009980D01*
X026855Y009680D01*
X027555Y008980D01*
X028505Y008030D01*
X029705Y008030D01*
X029955Y007780D01*
X030105Y007780D01*
X028982Y008330D02*
X028629Y008330D01*
X027809Y009150D01*
X027122Y009837D01*
X027137Y009837D01*
X027354Y009837D01*
X027392Y009847D01*
X027426Y009867D01*
X027454Y009895D01*
X027474Y009929D01*
X027475Y009933D01*
X027855Y009933D01*
X027922Y009867D01*
X027905Y009838D01*
X027895Y009800D01*
X027895Y009530D01*
X028195Y009530D01*
X028195Y009430D01*
X028295Y009430D01*
X028295Y009030D01*
X028465Y009030D01*
X028503Y009040D01*
X028527Y009054D01*
X028533Y009038D01*
X028603Y008968D01*
X028645Y008951D01*
X028645Y008920D01*
X028646Y008918D01*
X028646Y008914D01*
X028669Y008862D01*
X028691Y008810D01*
X028693Y008808D01*
X028694Y008805D01*
X028735Y008766D01*
X028750Y008751D01*
X028750Y008639D01*
X028819Y008472D01*
X028947Y008344D01*
X028982Y008330D01*
X028921Y008371D02*
X028589Y008371D01*
X028490Y008469D02*
X028823Y008469D01*
X028780Y008568D02*
X028392Y008568D01*
X028293Y008666D02*
X028750Y008666D01*
X028736Y008765D02*
X028195Y008765D01*
X028096Y008863D02*
X028669Y008863D01*
X028619Y008962D02*
X027998Y008962D01*
X028025Y009030D02*
X028195Y009030D01*
X028195Y009430D01*
X027895Y009430D01*
X027895Y009160D01*
X027905Y009122D01*
X027925Y009088D01*
X027953Y009060D01*
X027987Y009040D01*
X028025Y009030D01*
X027953Y009060D02*
X027899Y009060D01*
X027895Y009159D02*
X027801Y009159D01*
X027895Y009257D02*
X027702Y009257D01*
X027604Y009356D02*
X027895Y009356D01*
X027895Y009553D02*
X027407Y009553D01*
X027308Y009651D02*
X027895Y009651D01*
X027895Y009750D02*
X027210Y009750D01*
X027137Y009837D02*
X027137Y009933D01*
X027137Y009933D01*
X027137Y009837D01*
X027137Y009848D02*
X027137Y009848D01*
X027137Y010036D02*
X027549Y010036D01*
X027755Y009830D01*
X028245Y009480D01*
X028195Y009454D02*
X027505Y009454D01*
X027393Y009848D02*
X027911Y009848D01*
X028115Y010140D02*
X028022Y010233D01*
X027137Y010233D01*
X027137Y010430D02*
X028235Y010430D01*
X027137Y010627D02*
X027134Y010630D01*
X026655Y010630D01*
X025963Y009848D02*
X025729Y009848D01*
X025814Y009947D02*
X025864Y009947D01*
X026061Y009750D02*
X024902Y009750D01*
X024804Y009848D02*
X025217Y009848D01*
X025473Y009848D02*
X025473Y009848D01*
X025470Y010230D02*
X025473Y010233D01*
X025470Y010230D02*
X024555Y010230D01*
X024305Y009980D01*
X024205Y009980D01*
X023955Y010230D01*
X022855Y011330D01*
X024282Y012114D02*
X024424Y012114D01*
X025331Y013591D02*
X025375Y013591D01*
X026605Y012863D02*
X027072Y012863D01*
X027155Y012780D01*
X027205Y012730D01*
X027755Y012730D01*
X030605Y010130D02*
X030605Y009380D01*
X030005Y008780D01*
X029205Y008730D02*
X028945Y008980D01*
X028945Y009480D01*
X028295Y009356D02*
X028195Y009356D01*
X028195Y009257D02*
X028295Y009257D01*
X028295Y009159D02*
X028195Y009159D01*
X028195Y009060D02*
X028295Y009060D01*
X026455Y009356D02*
X025733Y009356D01*
X026160Y009651D02*
X025001Y009651D01*
X025099Y009553D02*
X026258Y009553D01*
X026357Y009454D02*
X025198Y009454D01*
X027655Y006696D02*
X029385Y006696D01*
X029410Y006598D02*
X027655Y006598D01*
X027655Y006499D02*
X029450Y006499D01*
X029508Y006401D02*
X027655Y006401D01*
X027655Y006302D02*
X029606Y006302D01*
X029652Y006204D02*
X027655Y006204D01*
X027655Y006105D02*
X029569Y006105D01*
X029528Y006007D02*
X027655Y006007D01*
X027655Y005908D02*
X029487Y005908D01*
X029485Y005810D02*
X027655Y005810D01*
X027655Y005711D02*
X029485Y005711D01*
X029503Y005613D02*
X027655Y005613D01*
X027655Y005514D02*
X029544Y005514D01*
X029593Y005416D02*
X027655Y005416D01*
X027655Y005317D02*
X029691Y005317D01*
X029840Y005219D02*
X027655Y005219D01*
X024205Y003280D02*
X024205Y002580D01*
X023655Y002030D01*
X023605Y002030D01*
X023155Y003330D02*
X022505Y003330D01*
X024155Y003330D02*
X024205Y003280D01*
X014025Y011523D02*
X009605Y011523D01*
X009605Y011621D02*
X014025Y011621D01*
X014035Y011720D02*
X009605Y011720D01*
X009605Y011818D02*
X014076Y011818D01*
X014175Y011917D02*
X009605Y011917D01*
X009605Y012015D02*
X014273Y012015D01*
X014372Y012114D02*
X009605Y012114D01*
X009605Y012212D02*
X014470Y012212D01*
X014569Y012311D02*
X011613Y012311D01*
X011851Y012409D02*
X014667Y012409D01*
X014766Y012508D02*
X011981Y012508D01*
X012080Y012606D02*
X014825Y012606D01*
X014825Y012705D02*
X012164Y012705D01*
X012205Y012803D02*
X014825Y012803D01*
X014825Y012902D02*
X012245Y012902D01*
X012286Y013000D02*
X014825Y013000D01*
X014826Y013099D02*
X012288Y013099D01*
X012288Y013197D02*
X014845Y013197D01*
X014845Y013296D02*
X012288Y013296D01*
X012272Y013394D02*
X014845Y013394D01*
X014845Y013493D02*
X012231Y013493D01*
X012191Y013591D02*
X014845Y013591D01*
X014845Y013690D02*
X013804Y013690D01*
X013988Y013788D02*
X014845Y013788D01*
X014845Y013887D02*
X014785Y013887D01*
X014875Y013985D02*
X014884Y013985D01*
X014916Y014084D02*
X014970Y014084D01*
X014995Y014182D02*
X015069Y014182D01*
X014600Y014663D02*
X014487Y014550D01*
X014010Y014550D01*
X013950Y014610D01*
X013781Y014680D01*
X013950Y014750D01*
X014093Y014893D01*
X014170Y015079D01*
X014170Y015281D01*
X014093Y015467D01*
X013950Y015610D01*
X013790Y015677D01*
X014433Y016320D01*
X014955Y016320D01*
X014955Y016280D01*
X014993Y016188D01*
X015063Y016118D01*
X015155Y016080D01*
X015280Y016080D01*
X015280Y015930D01*
X015705Y015930D01*
X015705Y015830D01*
X015805Y015830D01*
X015805Y015930D01*
X016230Y015930D01*
X016230Y016080D01*
X016355Y016080D01*
X016447Y016118D01*
X016517Y016188D01*
X016555Y016280D01*
X016555Y016370D01*
X016727Y016370D01*
X017217Y015880D01*
X017005Y015880D01*
X017005Y015580D01*
X016905Y015580D01*
X016905Y015880D01*
X016635Y015880D01*
X016597Y015870D01*
X016563Y015850D01*
X016535Y015822D01*
X016515Y015788D01*
X016505Y015750D01*
X016505Y015580D01*
X016905Y015580D01*
X016905Y015480D01*
X016505Y015480D01*
X016505Y015310D01*
X016515Y015272D01*
X016529Y015248D01*
X016513Y015242D01*
X016443Y015172D01*
X016405Y015080D01*
X016405Y015010D01*
X016297Y015010D01*
X016292Y015022D01*
X016222Y015092D01*
X016130Y015130D01*
X015380Y015130D01*
X015288Y015092D01*
X015277Y015081D01*
X015146Y015135D01*
X014964Y015135D01*
X014797Y015066D01*
X014669Y014938D01*
X014600Y014771D01*
X014600Y014663D01*
X014600Y014675D02*
X013795Y014675D01*
X013973Y014773D02*
X014601Y014773D01*
X014642Y014872D02*
X014072Y014872D01*
X014125Y014970D02*
X014702Y014970D01*
X014804Y015069D02*
X014166Y015069D01*
X014170Y015167D02*
X016441Y015167D01*
X016405Y015069D02*
X016245Y015069D01*
X016519Y015266D02*
X014170Y015266D01*
X014136Y015364D02*
X016505Y015364D01*
X016505Y015463D02*
X014095Y015463D01*
X013999Y015561D02*
X015337Y015561D01*
X015338Y015560D02*
X015372Y015540D01*
X015410Y015530D01*
X015705Y015530D01*
X015705Y015830D01*
X015280Y015830D01*
X015280Y015660D01*
X015290Y015622D01*
X015310Y015588D01*
X015338Y015560D01*
X015280Y015660D02*
X013831Y015660D01*
X013871Y015758D02*
X015280Y015758D01*
X015280Y015955D02*
X014068Y015955D01*
X013970Y015857D02*
X015705Y015857D01*
X015705Y015758D02*
X015805Y015758D01*
X015805Y015830D02*
X015805Y015530D01*
X016100Y015530D01*
X016138Y015540D01*
X016172Y015560D01*
X016200Y015588D01*
X016220Y015622D01*
X016230Y015660D01*
X016230Y015830D01*
X015805Y015830D01*
X015805Y015857D02*
X016574Y015857D01*
X016507Y015758D02*
X016230Y015758D01*
X016230Y015660D02*
X016505Y015660D01*
X016173Y015561D02*
X016905Y015561D01*
X016905Y015660D02*
X017005Y015660D01*
X017005Y015580D02*
X017405Y015580D01*
X017405Y015692D01*
X017905Y015192D01*
X018019Y015145D01*
X018076Y015145D01*
X018076Y015140D01*
X018096Y015140D01*
X018096Y015140D01*
X018096Y015140D01*
X018076Y015140D01*
X018076Y015135D01*
X017788Y015135D01*
X017674Y015088D01*
X017505Y014918D01*
X017505Y015080D01*
X017467Y015172D01*
X017397Y015242D01*
X017381Y015248D01*
X017395Y015272D01*
X017405Y015310D01*
X017405Y015480D01*
X017005Y015480D01*
X017005Y015580D01*
X017005Y015561D02*
X017536Y015561D01*
X017634Y015463D02*
X017405Y015463D01*
X017405Y015364D02*
X017733Y015364D01*
X017831Y015266D02*
X017391Y015266D01*
X017469Y015167D02*
X017965Y015167D01*
X017655Y015069D02*
X017505Y015069D01*
X017505Y014970D02*
X017557Y014970D01*
X017437Y015660D02*
X017405Y015660D01*
X017142Y015955D02*
X016230Y015955D01*
X016230Y016054D02*
X017043Y016054D01*
X016945Y016152D02*
X016481Y016152D01*
X016543Y016251D02*
X016846Y016251D01*
X016748Y016349D02*
X016555Y016349D01*
X016905Y015857D02*
X017005Y015857D01*
X017005Y015758D02*
X016905Y015758D01*
X015805Y015660D02*
X015705Y015660D01*
X015705Y015561D02*
X015805Y015561D01*
X015280Y016054D02*
X014167Y016054D01*
X014265Y016152D02*
X015029Y016152D01*
X014967Y016251D02*
X014364Y016251D01*
X013881Y016645D02*
X012118Y016645D01*
X012180Y016743D02*
X013980Y016743D01*
X014078Y016842D02*
X012221Y016842D01*
X012261Y016940D02*
X014405Y016940D01*
X014302Y017039D02*
X012288Y017039D01*
X012288Y017137D02*
X014198Y017137D01*
X014095Y017236D02*
X012288Y017236D01*
X012288Y017334D02*
X013991Y017334D01*
X013888Y017433D02*
X012256Y017433D01*
X012215Y017531D02*
X013784Y017531D01*
X013681Y017630D02*
X012175Y017630D01*
X012106Y017728D02*
X013578Y017728D01*
X013474Y017827D02*
X012007Y017827D01*
X011909Y017925D02*
X013371Y017925D01*
X013313Y018024D02*
X011676Y018024D01*
X012020Y016546D02*
X013783Y016546D01*
X013684Y016448D02*
X011921Y016448D01*
X011706Y016349D02*
X013586Y016349D01*
X013984Y014576D02*
X014513Y014576D01*
X013006Y013690D02*
X012144Y013690D01*
X012046Y013788D02*
X012822Y013788D01*
X012723Y013887D02*
X011947Y013887D01*
X018947Y015140D02*
X018947Y015140D01*
X018947Y015140D01*
X018967Y015140D01*
X018947Y015140D01*
X018981Y015167D02*
X019130Y015167D01*
X019145Y015069D02*
X019025Y015069D01*
X019067Y014970D02*
X019186Y014970D01*
X019275Y014872D02*
X019067Y014872D01*
X019067Y014773D02*
X019374Y014773D01*
X019472Y014675D02*
X019066Y014675D01*
X019470Y014576D02*
X019571Y014576D01*
X019591Y014478D02*
X019669Y014478D01*
X019658Y014379D02*
X019768Y014379D01*
X022009Y017433D02*
X022159Y017433D01*
X022102Y017531D02*
X023255Y017531D01*
X023255Y017433D02*
X022351Y017433D01*
X027266Y019380D02*
X028005Y020119D01*
X027855Y022080D02*
X027266Y022080D01*
X028128Y023146D02*
X028208Y023146D01*
X028208Y023244D02*
X028029Y023244D01*
X027931Y023343D02*
X028239Y023343D01*
X028284Y023441D02*
X027832Y023441D01*
X027734Y023540D02*
X028383Y023540D01*
X030273Y024131D02*
X011037Y024131D01*
X010273Y024131D02*
X009605Y024131D01*
X009605Y024229D02*
X031705Y024229D01*
X031705Y024131D02*
X031037Y024131D01*
X031313Y024032D02*
X031705Y024032D01*
X031705Y023934D02*
X031484Y023934D01*
X031621Y023835D02*
X031705Y023835D01*
X031705Y024328D02*
X009605Y024328D01*
X009605Y024426D02*
X031705Y024426D01*
X031705Y024525D02*
X009605Y024525D01*
X009605Y024623D02*
X031705Y024623D01*
X031705Y024722D02*
X009605Y024722D01*
X009605Y024820D02*
X031705Y024820D01*
X031705Y024919D02*
X009605Y024919D01*
X009605Y025017D02*
X031705Y025017D01*
X031705Y025116D02*
X009605Y025116D01*
X009605Y025214D02*
X031705Y025214D01*
X031705Y025313D02*
X009605Y025313D01*
X009605Y025411D02*
X031705Y025411D01*
X031705Y025510D02*
X009605Y025510D01*
X009605Y025608D02*
X031705Y025608D01*
X031705Y025707D02*
X009605Y025707D01*
X009605Y024032D02*
X009997Y024032D01*
X009826Y023934D02*
X009605Y023934D01*
X009605Y023835D02*
X009689Y023835D01*
X012927Y023540D02*
X013526Y023540D01*
X013428Y023441D02*
X013026Y023441D01*
X013071Y023343D02*
X013337Y023343D01*
X013296Y023244D02*
X013102Y023244D01*
X013102Y023146D02*
X013295Y023146D01*
X013295Y023047D02*
X013084Y023047D01*
X013043Y022949D02*
X013295Y022949D01*
X013295Y022850D02*
X012957Y022850D01*
X031387Y019009D02*
X031705Y019009D01*
X031705Y018910D02*
X031628Y018910D01*
D33*
X028005Y020119D02*
X028005Y020230D01*
X026505Y017380D02*
X025105Y017380D01*
X025055Y017330D01*
X025055Y017280D01*
X025005Y017330D01*
X024305Y017330D01*
X023605Y017330D02*
X023505Y017330D01*
X022955Y016780D01*
X024855Y016330D02*
X025405Y016330D01*
X026505Y016380D01*
X022765Y012620D02*
X022205Y013180D01*
X022765Y012620D02*
X023088Y012620D01*
X020805Y011597D02*
X020805Y010669D01*
X021671Y010102D01*
X021533Y010202D01*
X022105Y010230D01*
X022455Y009880D01*
X022455Y008230D01*
X021755Y008230D02*
X021105Y008230D01*
X020905Y008230D01*
X021085Y007510D01*
X020205Y008230D02*
X019939Y008546D01*
X019939Y009158D01*
X019611Y009180D01*
X019455Y009280D01*
X019205Y009530D01*
X019205Y010430D01*
X019455Y010680D01*
X020155Y010680D01*
X020490Y011015D01*
X020490Y011597D01*
X020175Y011597D02*
X020155Y011617D01*
X020155Y012380D01*
X019855Y012002D02*
X019655Y012202D01*
X019655Y012480D01*
X019655Y013580D01*
X019320Y013565D01*
X018522Y013565D01*
X018522Y013250D02*
X017775Y013250D01*
X017255Y012730D01*
X017255Y008130D01*
X018155Y007230D01*
X018155Y006579D01*
X018155Y006030D01*
X017155Y006030D02*
X017105Y006331D01*
X017105Y007380D01*
X017555Y008380D02*
X018655Y007280D01*
X018855Y007080D01*
X018855Y004081D01*
X018155Y003330D01*
X017155Y003330D02*
X017204Y002331D01*
X017555Y001980D01*
X019155Y001980D01*
X019205Y002480D01*
X019205Y007280D01*
X019205Y008880D01*
X018455Y009630D01*
X018455Y012130D01*
X018480Y012305D01*
X018522Y012305D01*
X018522Y012620D02*
X018095Y012620D01*
X017905Y012430D01*
X017905Y008780D01*
X018205Y008430D01*
X017555Y008380D02*
X017555Y012580D01*
X017910Y012935D01*
X018522Y012935D01*
X018522Y013880D02*
X017855Y013880D01*
X017155Y013180D01*
X016705Y013180D01*
X016755Y013180D01*
X016055Y013180D02*
X016055Y012480D01*
X016805Y011730D01*
X016805Y010530D01*
X016805Y008530D01*
X015305Y008530D02*
X015305Y010530D01*
X015355Y010580D01*
X015905Y010580D01*
X016255Y010930D01*
X016255Y011330D01*
X015605Y012330D02*
X014805Y011530D01*
X014805Y009580D01*
X014805Y008980D01*
X014355Y008630D01*
X013655Y008630D02*
X013255Y008930D01*
X012591Y008930D01*
X012591Y009245D02*
X013420Y009245D01*
X013555Y009380D01*
X013655Y009530D01*
X013655Y010380D01*
X014355Y010380D02*
X014355Y011630D01*
X015155Y012430D01*
X015155Y013030D01*
X014405Y013480D02*
X013205Y012280D01*
X013205Y009730D01*
X013035Y009560D01*
X012591Y009560D01*
X012591Y008300D02*
X012985Y008300D01*
X013455Y007830D01*
X019005Y010780D02*
X019005Y010830D01*
X019255Y011030D01*
X019455Y011030D01*
X019555Y011130D01*
X019555Y011587D01*
X019545Y011597D01*
X019860Y011597D02*
X019855Y012002D01*
X017405Y013880D02*
X015705Y013880D01*
X015605Y013780D01*
X015755Y014680D02*
X015055Y014680D01*
X014455Y014930D02*
X014455Y015180D01*
X015105Y015830D01*
X015705Y015830D01*
X015755Y015880D01*
X016305Y015880D01*
X016955Y015530D01*
X017405Y015530D01*
X017795Y015140D01*
X018427Y015140D01*
X018522Y015140D01*
X018522Y014510D02*
X018035Y014510D01*
X017405Y013880D01*
X016955Y014830D02*
X016505Y014680D01*
X015755Y014680D01*
X018522Y014195D02*
X019290Y014195D01*
X019255Y014180D01*
X019545Y016163D02*
X019555Y016173D01*
X019555Y017430D01*
X019255Y017730D01*
X019255Y018080D01*
X019255Y018280D01*
X019855Y017630D02*
X019855Y016169D01*
X019860Y016163D01*
X019855Y017630D02*
X019955Y017730D01*
X019955Y018280D01*
X028505Y011230D02*
X029655Y011230D01*
X029855Y010880D01*
X029145Y010140D02*
X029505Y009780D01*
X030105Y009780D01*
X029145Y010140D02*
X028115Y010140D01*
X027755Y009830D02*
X027755Y009580D01*
X027655Y009480D01*
X025355Y008880D02*
X025205Y008980D01*
X024205Y009980D01*
D34*
X020155Y012380D03*
X019005Y010780D03*
X018205Y008430D03*
X017105Y007380D03*
X016255Y011330D03*
X016055Y012480D03*
X019255Y014180D03*
D35*
X019255Y014730D02*
X019030Y015055D01*
X014555Y014180D02*
X013405Y014180D01*
X013355Y015330D02*
X013355Y015680D01*
D36*
X010655Y022680D03*
X030655Y022680D03*
X030655Y002680D03*
X010655Y002680D03*
M02*
