G75*
%MOIN*%
%OFA0B0*%
%FSLAX24Y24*%
%IPPOS*%
%LPD*%
%AMOC8*
5,1,8,0,0,1.08239X$1,22.5*
%
%ADD10C,0.0000*%
%ADD11C,0.0740*%
%ADD12R,0.0740X0.0740*%
%ADD13C,0.0515*%
%ADD14C,0.1266*%
%ADD15C,0.0410*%
%ADD16C,0.0120*%
%ADD17C,0.0100*%
%ADD18C,0.0160*%
%ADD19C,0.0396*%
%ADD20C,0.0240*%
%ADD21C,0.2500*%
D10*
X009155Y001180D02*
X009155Y026180D01*
X032155Y026180D01*
X032155Y001180D01*
X009155Y001180D01*
X011528Y008241D02*
X011530Y008267D01*
X011536Y008293D01*
X011546Y008318D01*
X011559Y008341D01*
X011575Y008361D01*
X011595Y008379D01*
X011617Y008394D01*
X011640Y008406D01*
X011666Y008414D01*
X011692Y008418D01*
X011718Y008418D01*
X011744Y008414D01*
X011770Y008406D01*
X011794Y008394D01*
X011815Y008379D01*
X011835Y008361D01*
X011851Y008341D01*
X011864Y008318D01*
X011874Y008293D01*
X011880Y008267D01*
X011882Y008241D01*
X011880Y008215D01*
X011874Y008189D01*
X011864Y008164D01*
X011851Y008141D01*
X011835Y008121D01*
X011815Y008103D01*
X011793Y008088D01*
X011770Y008076D01*
X011744Y008068D01*
X011718Y008064D01*
X011692Y008064D01*
X011666Y008068D01*
X011640Y008076D01*
X011616Y008088D01*
X011595Y008103D01*
X011575Y008121D01*
X011559Y008141D01*
X011546Y008164D01*
X011536Y008189D01*
X011530Y008215D01*
X011528Y008241D01*
X011528Y009619D02*
X011530Y009645D01*
X011536Y009671D01*
X011546Y009696D01*
X011559Y009719D01*
X011575Y009739D01*
X011595Y009757D01*
X011617Y009772D01*
X011640Y009784D01*
X011666Y009792D01*
X011692Y009796D01*
X011718Y009796D01*
X011744Y009792D01*
X011770Y009784D01*
X011794Y009772D01*
X011815Y009757D01*
X011835Y009739D01*
X011851Y009719D01*
X011864Y009696D01*
X011874Y009671D01*
X011880Y009645D01*
X011882Y009619D01*
X011880Y009593D01*
X011874Y009567D01*
X011864Y009542D01*
X011851Y009519D01*
X011835Y009499D01*
X011815Y009481D01*
X011793Y009466D01*
X011770Y009454D01*
X011744Y009446D01*
X011718Y009442D01*
X011692Y009442D01*
X011666Y009446D01*
X011640Y009454D01*
X011616Y009466D01*
X011595Y009481D01*
X011575Y009499D01*
X011559Y009519D01*
X011546Y009542D01*
X011536Y009567D01*
X011530Y009593D01*
X011528Y009619D01*
X030415Y015830D02*
X030417Y015881D01*
X030423Y015932D01*
X030433Y015983D01*
X030446Y016032D01*
X030464Y016080D01*
X030485Y016127D01*
X030509Y016172D01*
X030537Y016215D01*
X030568Y016256D01*
X030602Y016295D01*
X030639Y016330D01*
X030679Y016363D01*
X030721Y016392D01*
X030765Y016419D01*
X030811Y016441D01*
X030859Y016461D01*
X030907Y016476D01*
X030957Y016488D01*
X031008Y016496D01*
X031059Y016500D01*
X031111Y016500D01*
X031162Y016496D01*
X031213Y016488D01*
X031263Y016476D01*
X031311Y016461D01*
X031359Y016441D01*
X031405Y016419D01*
X031449Y016392D01*
X031491Y016363D01*
X031531Y016330D01*
X031568Y016295D01*
X031602Y016256D01*
X031633Y016215D01*
X031661Y016172D01*
X031685Y016127D01*
X031706Y016080D01*
X031724Y016032D01*
X031737Y015983D01*
X031747Y015932D01*
X031753Y015881D01*
X031755Y015830D01*
X031753Y015779D01*
X031747Y015728D01*
X031737Y015677D01*
X031724Y015628D01*
X031706Y015580D01*
X031685Y015533D01*
X031661Y015488D01*
X031633Y015445D01*
X031602Y015404D01*
X031568Y015365D01*
X031531Y015330D01*
X031491Y015297D01*
X031449Y015268D01*
X031405Y015241D01*
X031359Y015219D01*
X031311Y015199D01*
X031263Y015184D01*
X031213Y015172D01*
X031162Y015164D01*
X031111Y015160D01*
X031059Y015160D01*
X031008Y015164D01*
X030957Y015172D01*
X030907Y015184D01*
X030859Y015199D01*
X030811Y015219D01*
X030765Y015241D01*
X030721Y015268D01*
X030679Y015297D01*
X030639Y015330D01*
X030602Y015365D01*
X030568Y015404D01*
X030537Y015445D01*
X030509Y015488D01*
X030485Y015533D01*
X030464Y015580D01*
X030446Y015628D01*
X030433Y015677D01*
X030423Y015728D01*
X030417Y015779D01*
X030415Y015830D01*
X030415Y017930D02*
X030417Y017981D01*
X030423Y018032D01*
X030433Y018083D01*
X030446Y018132D01*
X030464Y018180D01*
X030485Y018227D01*
X030509Y018272D01*
X030537Y018315D01*
X030568Y018356D01*
X030602Y018395D01*
X030639Y018430D01*
X030679Y018463D01*
X030721Y018492D01*
X030765Y018519D01*
X030811Y018541D01*
X030859Y018561D01*
X030907Y018576D01*
X030957Y018588D01*
X031008Y018596D01*
X031059Y018600D01*
X031111Y018600D01*
X031162Y018596D01*
X031213Y018588D01*
X031263Y018576D01*
X031311Y018561D01*
X031359Y018541D01*
X031405Y018519D01*
X031449Y018492D01*
X031491Y018463D01*
X031531Y018430D01*
X031568Y018395D01*
X031602Y018356D01*
X031633Y018315D01*
X031661Y018272D01*
X031685Y018227D01*
X031706Y018180D01*
X031724Y018132D01*
X031737Y018083D01*
X031747Y018032D01*
X031753Y017981D01*
X031755Y017930D01*
X031753Y017879D01*
X031747Y017828D01*
X031737Y017777D01*
X031724Y017728D01*
X031706Y017680D01*
X031685Y017633D01*
X031661Y017588D01*
X031633Y017545D01*
X031602Y017504D01*
X031568Y017465D01*
X031531Y017430D01*
X031491Y017397D01*
X031449Y017368D01*
X031405Y017341D01*
X031359Y017319D01*
X031311Y017299D01*
X031263Y017284D01*
X031213Y017272D01*
X031162Y017264D01*
X031111Y017260D01*
X031059Y017260D01*
X031008Y017264D01*
X030957Y017272D01*
X030907Y017284D01*
X030859Y017299D01*
X030811Y017319D01*
X030765Y017341D01*
X030721Y017368D01*
X030679Y017397D01*
X030639Y017430D01*
X030602Y017465D01*
X030568Y017504D01*
X030537Y017545D01*
X030509Y017588D01*
X030485Y017633D01*
X030464Y017680D01*
X030446Y017728D01*
X030433Y017777D01*
X030423Y017828D01*
X030417Y017879D01*
X030415Y017930D01*
D11*
X029955Y013880D03*
X029855Y012880D03*
X029955Y011880D03*
X030105Y009780D03*
X030005Y008780D03*
X030105Y007780D03*
X030005Y006780D03*
X030105Y005780D03*
D12*
X029855Y010880D03*
D13*
X013662Y014180D02*
X013148Y014180D01*
X013148Y015180D02*
X013662Y015180D01*
D14*
X011405Y017180D03*
X011405Y013180D03*
D15*
X014405Y013480D03*
X015055Y014680D03*
X014455Y014930D03*
X017955Y016880D03*
X018655Y016330D03*
X019105Y017430D03*
X016805Y018180D03*
X019905Y015180D03*
X020555Y015430D03*
X021655Y015380D03*
X023505Y016580D03*
X022255Y016980D03*
X021705Y016980D03*
X022105Y018680D03*
X021355Y020230D03*
X022305Y021730D03*
X023755Y020780D03*
X024755Y023280D03*
X025755Y023280D03*
X027855Y022080D03*
X028005Y020230D03*
X025255Y018030D03*
X025055Y017280D03*
X024855Y016330D03*
X026105Y015430D03*
X025105Y013990D03*
X024205Y014430D03*
X024005Y012480D03*
X023705Y011630D03*
X022855Y011330D03*
X021505Y012630D03*
X019255Y014730D03*
X025525Y011270D03*
X025255Y009630D03*
X023855Y008430D03*
X023155Y007480D03*
X025155Y007330D03*
X025255Y008180D03*
X027755Y009830D03*
X029205Y008730D03*
X027155Y012780D03*
X029015Y013920D03*
X021085Y007510D03*
X020155Y004680D03*
X017705Y004680D03*
X016155Y007380D03*
X013455Y007830D03*
X013405Y003280D03*
X015655Y001880D03*
X022505Y003330D03*
X023605Y002030D03*
X024655Y002030D03*
X026605Y002080D03*
X019105Y022180D03*
D16*
X021355Y020230D02*
X021355Y017880D01*
X022255Y016980D01*
X021705Y016980D02*
X021555Y016880D01*
X017955Y016880D01*
X018655Y016330D02*
X018755Y016330D01*
X019605Y015480D01*
X019905Y015180D01*
X021405Y015080D02*
X021655Y015330D01*
X021655Y015380D01*
X023505Y016580D02*
X023555Y016630D01*
X022105Y018680D02*
X022105Y021530D01*
X022305Y021730D01*
X024755Y023280D02*
X025755Y023280D01*
X027505Y023280D01*
X029905Y020880D01*
X029905Y015330D01*
X030105Y015130D01*
X031005Y014230D01*
X031005Y010680D01*
X030905Y010580D01*
X030105Y009780D01*
X029015Y013920D02*
X029055Y014130D01*
X026105Y015380D02*
X026105Y015430D01*
X026105Y015380D02*
X025105Y014380D01*
X025105Y013990D01*
X024105Y012480D02*
X024005Y012480D01*
X023705Y011630D02*
X025255Y010080D01*
X025255Y009630D01*
X025005Y008430D02*
X023855Y008430D01*
X025005Y008430D02*
X025255Y008180D01*
X024655Y002030D02*
X026555Y002030D01*
X026605Y002080D01*
X019055Y017380D02*
X019105Y017430D01*
D17*
X016805Y018180D02*
X016805Y018230D01*
X016705Y018130D01*
X019155Y022130D02*
X019105Y022180D01*
X023755Y020780D02*
X027505Y020780D01*
X028005Y020280D01*
X028005Y020230D02*
X028105Y020230D01*
X029655Y018630D01*
X029655Y015180D01*
X030655Y014180D01*
X030635Y010620D01*
X030345Y010330D01*
X029645Y010320D01*
X029555Y010230D01*
X029555Y009230D01*
X030005Y008780D01*
X029105Y007830D01*
X023905Y007830D01*
X023555Y007830D01*
X023155Y007480D01*
X020155Y004680D02*
X017705Y004680D01*
X016155Y007380D02*
X015805Y007380D01*
X015705Y007480D01*
X013405Y003280D02*
X013405Y003130D01*
X015655Y001880D02*
X016005Y002030D01*
X023605Y002030D01*
X024655Y003080D01*
X028755Y003080D01*
X030905Y005230D01*
X030905Y010580D01*
X029205Y008730D02*
X029105Y008730D01*
X025455Y011130D02*
X025405Y011180D01*
X025525Y011270D01*
X027005Y012780D02*
X027155Y012780D01*
X022855Y011880D02*
X022855Y011330D01*
X022855Y011880D02*
X022105Y012630D01*
X021505Y012630D01*
X022505Y003330D02*
X022505Y003280D01*
X022405Y003180D01*
X027855Y022080D02*
X027905Y022080D01*
D18*
X028044Y022261D02*
X012127Y022261D01*
X012169Y022419D02*
X027885Y022419D01*
X027727Y022578D02*
X012185Y022578D01*
X012185Y022479D02*
X012185Y022881D01*
X012081Y023271D01*
X011879Y023619D01*
X011594Y023904D01*
X011246Y024106D01*
X010856Y024210D01*
X010454Y024210D01*
X010064Y024106D01*
X009716Y023904D01*
X009635Y023824D01*
X009635Y025700D01*
X031675Y025700D01*
X031675Y023824D01*
X031594Y023904D01*
X031246Y024106D01*
X030856Y024210D01*
X030454Y024210D01*
X030064Y024106D01*
X029716Y023904D01*
X029431Y023619D01*
X029229Y023271D01*
X029125Y022881D01*
X029125Y022479D01*
X029229Y022089D01*
X029302Y021964D01*
X027698Y023568D01*
X027573Y023620D01*
X026101Y023620D01*
X026030Y023691D01*
X025851Y023765D01*
X025659Y023765D01*
X025480Y023691D01*
X025409Y023620D01*
X025101Y023620D01*
X025030Y023691D01*
X024851Y023765D01*
X024659Y023765D01*
X024480Y023691D01*
X024344Y023555D01*
X024270Y023376D01*
X024270Y023184D01*
X024344Y023005D01*
X024480Y022869D01*
X024659Y022795D01*
X024851Y022795D01*
X025030Y022869D01*
X025101Y022940D01*
X025409Y022940D01*
X025480Y022869D01*
X025659Y022795D01*
X025851Y022795D01*
X026030Y022869D01*
X026101Y022940D01*
X027364Y022940D01*
X029565Y020739D01*
X029565Y019197D01*
X028490Y020307D01*
X028490Y020326D01*
X028416Y020505D01*
X028280Y020641D01*
X028101Y020715D01*
X028037Y020715D01*
X027692Y021060D01*
X027571Y021110D01*
X024111Y021110D01*
X024030Y021191D01*
X023851Y021265D01*
X023659Y021265D01*
X023480Y021191D01*
X023344Y021055D01*
X023270Y020876D01*
X023270Y020684D01*
X023344Y020505D01*
X023480Y020369D01*
X023659Y020295D01*
X023851Y020295D01*
X024030Y020369D01*
X024111Y020450D01*
X027368Y020450D01*
X027520Y020298D01*
X027520Y020134D01*
X027594Y019955D01*
X027730Y019819D01*
X027909Y019745D01*
X028101Y019745D01*
X028111Y019749D01*
X029325Y018496D01*
X029325Y015114D01*
X029375Y014993D01*
X029975Y014393D01*
X029975Y013900D01*
X029935Y013900D01*
X029935Y014430D01*
X029912Y014430D01*
X029826Y014416D01*
X029744Y014390D01*
X029667Y014350D01*
X029597Y014300D01*
X029535Y014238D01*
X029485Y014168D01*
X029445Y014091D01*
X029419Y014009D01*
X029405Y013923D01*
X029405Y013900D01*
X029935Y013900D01*
X029935Y013860D01*
X029405Y013860D01*
X029405Y013837D01*
X029419Y013751D01*
X029445Y013669D01*
X029485Y013592D01*
X029535Y013522D01*
X029597Y013460D01*
X029667Y013410D01*
X029682Y013402D01*
X029644Y013390D01*
X029567Y013350D01*
X029497Y013300D01*
X029435Y013238D01*
X029385Y013168D01*
X029345Y013091D01*
X029319Y013009D01*
X029305Y012923D01*
X029305Y012900D01*
X029835Y012900D01*
X029835Y012860D01*
X029305Y012860D01*
X029305Y012837D01*
X029319Y012751D01*
X029345Y012669D01*
X029385Y012592D01*
X029435Y012522D01*
X029497Y012460D01*
X029567Y012410D01*
X029644Y012370D01*
X029682Y012358D01*
X029667Y012350D01*
X029597Y012300D01*
X029535Y012238D01*
X029485Y012168D01*
X029445Y012091D01*
X029419Y012009D01*
X029405Y011923D01*
X029405Y011900D01*
X029935Y011900D01*
X029935Y011860D01*
X029405Y011860D01*
X029405Y011837D01*
X029419Y011751D01*
X029445Y011669D01*
X029485Y011592D01*
X029535Y011522D01*
X029597Y011460D01*
X029639Y011430D01*
X029461Y011430D01*
X029416Y011418D01*
X029374Y011394D01*
X029341Y011361D01*
X029317Y011319D01*
X029305Y011274D01*
X029305Y010900D01*
X029835Y010900D01*
X029835Y010860D01*
X029305Y010860D01*
X029305Y010486D01*
X029313Y010455D01*
X029275Y010417D01*
X029225Y010296D01*
X029225Y009164D01*
X029275Y009043D01*
X029371Y008947D01*
X029355Y008909D01*
X029355Y008651D01*
X029377Y008597D01*
X028963Y008160D01*
X025740Y008160D01*
X025740Y008276D01*
X025666Y008455D01*
X025530Y008591D01*
X025351Y008665D01*
X025251Y008665D01*
X025198Y008718D01*
X025073Y008770D01*
X024201Y008770D01*
X024130Y008841D01*
X023951Y008915D01*
X023759Y008915D01*
X023580Y008841D01*
X023444Y008705D01*
X023370Y008526D01*
X023370Y008334D01*
X023444Y008155D01*
X023454Y008145D01*
X023439Y008139D01*
X023387Y008122D01*
X023379Y008114D01*
X023368Y008110D01*
X023329Y008071D01*
X023208Y007965D01*
X023059Y007965D01*
X022880Y007891D01*
X022744Y007755D01*
X022670Y007576D01*
X022670Y007384D01*
X022744Y007205D01*
X022880Y007069D01*
X023059Y006995D01*
X023251Y006995D01*
X023430Y007069D01*
X023566Y007205D01*
X023640Y007384D01*
X023640Y007466D01*
X023679Y007500D01*
X029044Y007500D01*
X029048Y007498D01*
X029109Y007500D01*
X029171Y007500D01*
X029175Y007502D01*
X029180Y007502D01*
X029235Y007527D01*
X029292Y007550D01*
X029295Y007554D01*
X029299Y007555D01*
X029342Y007600D01*
X029385Y007643D01*
X029387Y007647D01*
X029455Y007720D01*
X029455Y007651D01*
X029554Y007412D01*
X029636Y007330D01*
X029454Y007148D01*
X029355Y006909D01*
X029355Y006651D01*
X029454Y006412D01*
X029637Y006229D01*
X029735Y006188D01*
X029685Y006138D01*
X029635Y006068D01*
X029595Y005991D01*
X029569Y005909D01*
X029555Y005823D01*
X029555Y005800D01*
X030085Y005800D01*
X030085Y005760D01*
X030125Y005760D01*
X030125Y005230D01*
X030148Y005230D01*
X030234Y005244D01*
X030316Y005270D01*
X030393Y005310D01*
X030463Y005360D01*
X030525Y005422D01*
X030575Y005491D01*
X030575Y005367D01*
X028618Y003410D01*
X024589Y003410D01*
X024468Y003360D01*
X023623Y002515D01*
X023509Y002515D01*
X023330Y002441D01*
X023249Y002360D01*
X016069Y002360D01*
X016067Y002361D01*
X016003Y002360D01*
X015939Y002360D01*
X015937Y002359D01*
X015935Y002359D01*
X015877Y002334D01*
X015851Y002324D01*
X015751Y002365D01*
X015559Y002365D01*
X015380Y002291D01*
X015244Y002155D01*
X015170Y001976D01*
X015170Y001784D01*
X015221Y001660D01*
X011799Y001660D01*
X011879Y001741D01*
X012081Y002089D01*
X012185Y002479D01*
X012185Y002881D01*
X012081Y003271D01*
X011879Y003619D01*
X011594Y003904D01*
X011246Y004106D01*
X010856Y004210D01*
X010454Y004210D01*
X010064Y004106D01*
X009716Y003904D01*
X009635Y003824D01*
X009635Y021536D01*
X009716Y021456D01*
X010064Y021254D01*
X010454Y021150D01*
X010856Y021150D01*
X011246Y021254D01*
X011594Y021456D01*
X011879Y021741D01*
X012081Y022089D01*
X012185Y022479D01*
X012185Y022736D02*
X027568Y022736D01*
X027410Y022895D02*
X026055Y022895D01*
X025455Y022895D02*
X025055Y022895D01*
X024455Y022895D02*
X012181Y022895D01*
X012139Y023053D02*
X024324Y023053D01*
X024270Y023212D02*
X012097Y023212D01*
X012023Y023370D02*
X024270Y023370D01*
X024333Y023529D02*
X011932Y023529D01*
X011812Y023687D02*
X024476Y023687D01*
X025034Y023687D02*
X025476Y023687D01*
X026034Y023687D02*
X029498Y023687D01*
X029378Y023529D02*
X027737Y023529D01*
X027896Y023370D02*
X029287Y023370D01*
X029213Y023212D02*
X028054Y023212D01*
X028213Y023053D02*
X029171Y023053D01*
X029129Y022895D02*
X028371Y022895D01*
X028530Y022736D02*
X029125Y022736D01*
X029125Y022578D02*
X028688Y022578D01*
X028847Y022419D02*
X029141Y022419D01*
X029183Y022261D02*
X029005Y022261D01*
X029164Y022102D02*
X029226Y022102D01*
X028678Y021627D02*
X022787Y021627D01*
X022790Y021634D02*
X022790Y021826D01*
X022716Y022005D01*
X022580Y022141D01*
X022401Y022215D01*
X022209Y022215D01*
X022030Y022141D01*
X021894Y022005D01*
X021820Y021826D01*
X021820Y021726D01*
X021817Y021723D01*
X021765Y021598D01*
X021765Y020506D01*
X021630Y020641D01*
X021451Y020715D01*
X021259Y020715D01*
X021080Y020641D01*
X020944Y020505D01*
X020870Y020326D01*
X020870Y020134D01*
X020944Y019955D01*
X021015Y019884D01*
X021015Y017812D01*
X021067Y017687D01*
X021397Y017358D01*
X021294Y017255D01*
X021279Y017220D01*
X018301Y017220D01*
X018230Y017291D01*
X018051Y017365D01*
X017859Y017365D01*
X017680Y017291D01*
X017544Y017155D01*
X017470Y016976D01*
X017470Y016784D01*
X017544Y016605D01*
X017680Y016469D01*
X017859Y016395D01*
X018051Y016395D01*
X018179Y016448D01*
X018170Y016426D01*
X018170Y016234D01*
X018244Y016055D01*
X018380Y015919D01*
X018559Y015845D01*
X018751Y015845D01*
X018757Y015847D01*
X019412Y015192D01*
X019412Y015192D01*
X019416Y015188D01*
X019351Y015215D01*
X019159Y015215D01*
X018980Y015141D01*
X018844Y015005D01*
X018770Y014826D01*
X018770Y014634D01*
X018844Y014455D01*
X018980Y014319D01*
X019159Y014245D01*
X019331Y014245D01*
X019347Y014237D01*
X019362Y014236D01*
X019375Y014230D01*
X019441Y014230D01*
X019506Y014225D01*
X019520Y014230D01*
X020044Y014230D01*
X020113Y014226D01*
X020124Y014230D01*
X020135Y014230D01*
X020198Y014256D01*
X020263Y014279D01*
X020272Y014287D01*
X020282Y014291D01*
X020330Y014340D01*
X020772Y014737D01*
X020782Y014741D01*
X020830Y014790D01*
X020882Y014836D01*
X020886Y014846D01*
X020894Y014853D01*
X020921Y014917D01*
X020950Y014980D01*
X020951Y014990D01*
X020955Y015000D01*
X020955Y015069D01*
X020959Y015138D01*
X020956Y015145D01*
X020966Y015155D01*
X021040Y015334D01*
X021040Y015526D01*
X020966Y015705D01*
X020830Y015841D01*
X020651Y015915D01*
X020459Y015915D01*
X020280Y015841D01*
X020144Y015705D01*
X020109Y015620D01*
X020001Y015665D01*
X019901Y015665D01*
X019893Y015673D01*
X019140Y016426D01*
X019140Y016426D01*
X019093Y016540D01*
X021500Y016540D01*
X021609Y016495D01*
X021801Y016495D01*
X021980Y016569D01*
X021980Y016569D01*
X021980Y016569D01*
X022159Y016495D01*
X022351Y016495D01*
X022530Y016569D01*
X022666Y016705D01*
X022740Y016884D01*
X022740Y017076D01*
X022666Y017255D01*
X022530Y017391D01*
X022351Y017465D01*
X022251Y017465D01*
X021695Y018021D01*
X021695Y018404D01*
X021830Y018269D01*
X022009Y018195D01*
X022201Y018195D01*
X022380Y018269D01*
X022516Y018405D01*
X022590Y018584D01*
X022590Y018776D01*
X022516Y018955D01*
X022445Y019026D01*
X022445Y021263D01*
X022580Y021319D01*
X022716Y021455D01*
X022790Y021634D01*
X022790Y021785D02*
X028519Y021785D01*
X028361Y021944D02*
X022742Y021944D01*
X022619Y022102D02*
X028202Y022102D01*
X028836Y021468D02*
X022721Y021468D01*
X022557Y021310D02*
X028995Y021310D01*
X029153Y021151D02*
X024070Y021151D01*
X023440Y021151D02*
X022445Y021151D01*
X022445Y020993D02*
X023318Y020993D01*
X023270Y020834D02*
X022445Y020834D01*
X022445Y020676D02*
X023273Y020676D01*
X023339Y020517D02*
X022445Y020517D01*
X022445Y020359D02*
X023505Y020359D01*
X024005Y020359D02*
X027460Y020359D01*
X027520Y020200D02*
X022445Y020200D01*
X022445Y020042D02*
X027558Y020042D01*
X027666Y019883D02*
X022445Y019883D01*
X022445Y019725D02*
X028135Y019725D01*
X028289Y019566D02*
X022445Y019566D01*
X022445Y019408D02*
X028442Y019408D01*
X028596Y019249D02*
X022445Y019249D01*
X022445Y019091D02*
X028749Y019091D01*
X028903Y018932D02*
X022526Y018932D01*
X022590Y018774D02*
X029057Y018774D01*
X029210Y018615D02*
X022590Y018615D01*
X022537Y018457D02*
X029325Y018457D01*
X029325Y018298D02*
X022409Y018298D01*
X021801Y018298D02*
X021695Y018298D01*
X021695Y018140D02*
X029325Y018140D01*
X029325Y017981D02*
X021735Y017981D01*
X021893Y017823D02*
X029325Y017823D01*
X029325Y017664D02*
X025357Y017664D01*
X025330Y017691D02*
X025151Y017765D01*
X024959Y017765D01*
X024780Y017691D01*
X024644Y017555D01*
X024570Y017376D01*
X024570Y017184D01*
X024644Y017005D01*
X024780Y016869D01*
X024959Y016795D01*
X024995Y016795D01*
X024995Y015729D01*
X024181Y014915D01*
X024109Y014915D01*
X023930Y014841D01*
X023794Y014705D01*
X023720Y014526D01*
X023720Y014334D01*
X023794Y014155D01*
X023930Y014019D01*
X024109Y013945D01*
X024301Y013945D01*
X024480Y014019D01*
X024616Y014155D01*
X024690Y014334D01*
X024690Y014406D01*
X024789Y014504D01*
X024765Y014448D01*
X024765Y014336D01*
X024694Y014265D01*
X024620Y014086D01*
X024620Y013894D01*
X024694Y013715D01*
X024830Y013579D01*
X025009Y013505D01*
X025201Y013505D01*
X025380Y013579D01*
X025516Y013715D01*
X025590Y013894D01*
X025590Y014086D01*
X025516Y014265D01*
X025493Y014288D01*
X026151Y014945D01*
X026201Y014945D01*
X026380Y015019D01*
X026516Y015155D01*
X026590Y015334D01*
X026590Y015526D01*
X026516Y015705D01*
X026380Y015841D01*
X026201Y015915D01*
X026009Y015915D01*
X025830Y015841D01*
X025715Y015726D01*
X025715Y017052D01*
X025660Y017184D01*
X025540Y017304D01*
X025540Y017376D01*
X025466Y017555D01*
X025330Y017691D01*
X025487Y017506D02*
X029325Y017506D01*
X029325Y017347D02*
X025540Y017347D01*
X025656Y017189D02*
X029325Y017189D01*
X029325Y017030D02*
X025715Y017030D01*
X025715Y016872D02*
X029325Y016872D01*
X029325Y016713D02*
X025715Y016713D01*
X025715Y016555D02*
X029325Y016555D01*
X029325Y016396D02*
X025715Y016396D01*
X025715Y016238D02*
X029325Y016238D01*
X029325Y016079D02*
X025715Y016079D01*
X025715Y015921D02*
X029325Y015921D01*
X029325Y015762D02*
X026459Y015762D01*
X026558Y015604D02*
X029325Y015604D01*
X029325Y015445D02*
X026590Y015445D01*
X026571Y015287D02*
X029325Y015287D01*
X029325Y015128D02*
X026489Y015128D01*
X026261Y014970D02*
X029399Y014970D01*
X029557Y014811D02*
X026017Y014811D01*
X025858Y014653D02*
X029716Y014653D01*
X029874Y014494D02*
X025700Y014494D01*
X025541Y014336D02*
X029646Y014336D01*
X029491Y014177D02*
X025552Y014177D01*
X025590Y014019D02*
X029422Y014019D01*
X029435Y013702D02*
X025502Y013702D01*
X025576Y013860D02*
X029935Y013860D01*
X029935Y014019D02*
X029975Y014019D01*
X029975Y014177D02*
X029935Y014177D01*
X029935Y014336D02*
X029975Y014336D01*
X029520Y013543D02*
X025293Y013543D01*
X024917Y013543D02*
X014890Y013543D01*
X014890Y013576D02*
X014816Y013755D01*
X014765Y013806D01*
X014765Y014554D01*
X014866Y014655D01*
X014940Y014834D01*
X014940Y015026D01*
X014866Y015205D01*
X014730Y015341D01*
X014551Y015415D01*
X014359Y015415D01*
X014180Y015341D01*
X014178Y015339D01*
X014118Y015484D01*
X013967Y015636D01*
X013769Y015717D01*
X013041Y015717D01*
X012843Y015636D01*
X012692Y015484D01*
X012610Y015287D01*
X012610Y015073D01*
X012692Y014876D01*
X012843Y014724D01*
X013041Y014643D01*
X013769Y014643D01*
X013967Y014724D01*
X014001Y014758D01*
X014044Y014655D01*
X014045Y014654D01*
X014045Y014393D01*
X014037Y014409D01*
X013996Y014465D01*
X013947Y014514D01*
X013892Y014554D01*
X013830Y014585D01*
X013765Y014607D01*
X013697Y014617D01*
X013405Y014617D01*
X013113Y014617D01*
X013045Y014607D01*
X012980Y014585D01*
X012918Y014554D01*
X012863Y014514D01*
X012814Y014465D01*
X012773Y014409D01*
X012742Y014348D01*
X012721Y014282D01*
X012710Y014214D01*
X012710Y014180D01*
X013405Y014180D01*
X013405Y014180D01*
X013405Y014617D01*
X013405Y014180D01*
X013405Y013743D01*
X013697Y013743D01*
X013765Y013753D01*
X013830Y013775D01*
X013892Y013806D01*
X013947Y013846D01*
X013996Y013895D01*
X014037Y013951D01*
X014045Y013967D01*
X014045Y013806D01*
X013994Y013755D01*
X013920Y013576D01*
X013920Y013384D01*
X013994Y013205D01*
X014130Y013069D01*
X014309Y012995D01*
X014501Y012995D01*
X014680Y013069D01*
X014816Y013205D01*
X014890Y013384D01*
X014890Y013576D01*
X014838Y013702D02*
X024708Y013702D01*
X024634Y013860D02*
X014765Y013860D01*
X014765Y014019D02*
X023931Y014019D01*
X023785Y014177D02*
X014765Y014177D01*
X014765Y014336D02*
X018964Y014336D01*
X018828Y014494D02*
X014765Y014494D01*
X014705Y014630D02*
X015055Y014680D01*
X014931Y014811D02*
X018770Y014811D01*
X018770Y014653D02*
X014863Y014653D01*
X014940Y014970D02*
X018829Y014970D01*
X018967Y015128D02*
X014898Y015128D01*
X014784Y015287D02*
X019318Y015287D01*
X019159Y015445D02*
X014134Y015445D01*
X013999Y015604D02*
X019001Y015604D01*
X018842Y015762D02*
X009635Y015762D01*
X009635Y015604D02*
X012811Y015604D01*
X012676Y015445D02*
X009635Y015445D01*
X009635Y015287D02*
X012610Y015287D01*
X012610Y015128D02*
X009635Y015128D01*
X009635Y014970D02*
X012653Y014970D01*
X012756Y014811D02*
X009635Y014811D01*
X009635Y014653D02*
X013016Y014653D01*
X012843Y014494D02*
X009635Y014494D01*
X009635Y014336D02*
X012738Y014336D01*
X012710Y014180D02*
X012710Y014146D01*
X012721Y014078D01*
X012742Y014012D01*
X012773Y013951D01*
X012814Y013895D01*
X012863Y013846D01*
X012918Y013806D01*
X012980Y013775D01*
X013045Y013753D01*
X013113Y013743D01*
X013405Y013743D01*
X013405Y014180D01*
X013405Y014180D01*
X013405Y014180D01*
X012710Y014180D01*
X012710Y014177D02*
X009635Y014177D01*
X009635Y014019D02*
X011043Y014019D01*
X010888Y013954D02*
X011223Y014093D01*
X011587Y014093D01*
X011922Y013954D01*
X012179Y013697D01*
X012318Y013362D01*
X012318Y012998D01*
X012179Y012663D01*
X011922Y012406D01*
X011587Y012267D01*
X011223Y012267D01*
X010888Y012406D01*
X010631Y012663D01*
X010492Y012998D01*
X010492Y013362D01*
X010631Y013697D01*
X010888Y013954D01*
X010794Y013860D02*
X009635Y013860D01*
X009635Y013702D02*
X010635Y013702D01*
X010567Y013543D02*
X009635Y013543D01*
X009635Y013385D02*
X010501Y013385D01*
X010492Y013226D02*
X009635Y013226D01*
X009635Y013068D02*
X010492Y013068D01*
X010529Y012909D02*
X009635Y012909D01*
X009635Y012751D02*
X010595Y012751D01*
X010702Y012592D02*
X009635Y012592D01*
X009635Y012434D02*
X010860Y012434D01*
X011204Y012275D02*
X009635Y012275D01*
X009635Y012117D02*
X022152Y012117D01*
X021993Y012275D02*
X021836Y012275D01*
X021861Y012300D02*
X021968Y012300D01*
X022525Y011743D01*
X022525Y011686D01*
X022444Y011605D01*
X022370Y011426D01*
X022370Y011234D01*
X022444Y011055D01*
X022580Y010919D01*
X022759Y010845D01*
X022951Y010845D01*
X023130Y010919D01*
X023266Y011055D01*
X023340Y011234D01*
X023340Y011309D01*
X023430Y011219D01*
X023609Y011145D01*
X023709Y011145D01*
X024897Y009958D01*
X024844Y009905D01*
X024770Y009726D01*
X024770Y009534D01*
X024844Y009355D01*
X024980Y009219D01*
X025159Y009145D01*
X025351Y009145D01*
X025530Y009219D01*
X025581Y009270D01*
X027627Y009270D01*
X027759Y009325D01*
X027779Y009345D01*
X027851Y009345D01*
X028030Y009419D01*
X028166Y009555D01*
X028240Y009734D01*
X028240Y009926D01*
X028166Y010105D01*
X028030Y010241D01*
X027851Y010315D01*
X027659Y010315D01*
X027480Y010241D01*
X027344Y010105D01*
X027296Y009990D01*
X025595Y009990D01*
X025595Y010012D01*
X025595Y010148D01*
X025543Y010273D01*
X024190Y011626D01*
X024190Y011726D01*
X024116Y011905D01*
X023980Y012041D01*
X023801Y012115D01*
X023609Y012115D01*
X023430Y012041D01*
X023294Y011905D01*
X023220Y011726D01*
X023220Y011651D01*
X023185Y011686D01*
X023185Y011946D01*
X023135Y012067D01*
X023042Y012160D01*
X022292Y012910D01*
X022171Y012960D01*
X021861Y012960D01*
X021780Y013041D01*
X021601Y013115D01*
X021409Y013115D01*
X021230Y013041D01*
X021094Y012905D01*
X021020Y012726D01*
X021020Y012534D01*
X021094Y012355D01*
X021230Y012219D01*
X021409Y012145D01*
X021601Y012145D01*
X021780Y012219D01*
X021861Y012300D01*
X022310Y011958D02*
X009635Y011958D01*
X009635Y011800D02*
X016139Y011800D01*
X016160Y011808D02*
X015984Y011735D01*
X015850Y011601D01*
X015777Y011425D01*
X015777Y011235D01*
X015850Y011059D01*
X015984Y010925D01*
X016160Y010852D01*
X016350Y010852D01*
X016526Y010925D01*
X016571Y010970D01*
X018265Y010970D01*
X018527Y010730D01*
X018527Y010685D01*
X018600Y010509D01*
X018734Y010375D01*
X018910Y010302D01*
X019100Y010302D01*
X019276Y010375D01*
X019410Y010509D01*
X019483Y010685D01*
X019483Y010875D01*
X019410Y011051D01*
X019276Y011185D01*
X019100Y011258D01*
X019016Y011258D01*
X018654Y011590D01*
X018609Y011635D01*
X018601Y011638D01*
X018595Y011644D01*
X018536Y011666D01*
X018477Y011690D01*
X018469Y011690D01*
X018461Y011693D01*
X018397Y011690D01*
X016571Y011690D01*
X016526Y011735D01*
X016350Y011808D01*
X016160Y011808D01*
X016371Y011800D02*
X022469Y011800D01*
X022480Y011641D02*
X018598Y011641D01*
X018771Y011483D02*
X022393Y011483D01*
X022370Y011324D02*
X018944Y011324D01*
X018405Y011330D02*
X016255Y011330D01*
X015777Y011324D02*
X009635Y011324D01*
X009635Y011166D02*
X015806Y011166D01*
X015902Y011007D02*
X009635Y011007D01*
X009635Y010849D02*
X018397Y010849D01*
X018527Y010690D02*
X009635Y010690D01*
X009635Y010532D02*
X018590Y010532D01*
X018738Y010373D02*
X009635Y010373D01*
X009635Y010215D02*
X011426Y010215D01*
X011333Y010176D02*
X011148Y009991D01*
X011048Y009750D01*
X011048Y009488D01*
X011148Y009247D01*
X011333Y009062D01*
X011574Y008962D01*
X011836Y008962D01*
X012077Y009062D01*
X012262Y009247D01*
X012362Y009488D01*
X012362Y009750D01*
X012262Y009991D01*
X012077Y010176D01*
X011836Y010276D01*
X011574Y010276D01*
X011333Y010176D01*
X011213Y010056D02*
X009635Y010056D01*
X009635Y009898D02*
X011109Y009898D01*
X011048Y009739D02*
X009635Y009739D01*
X009635Y009581D02*
X011048Y009581D01*
X011075Y009422D02*
X009635Y009422D01*
X009635Y009264D02*
X011141Y009264D01*
X011290Y009105D02*
X009635Y009105D01*
X009635Y008947D02*
X029370Y008947D01*
X029355Y008788D02*
X024183Y008788D01*
X023527Y008788D02*
X018523Y008788D01*
X018476Y008835D02*
X018300Y008908D01*
X018110Y008908D01*
X017934Y008835D01*
X017800Y008701D01*
X017727Y008525D01*
X017727Y008471D01*
X017084Y007858D01*
X017010Y007858D01*
X016834Y007785D01*
X016700Y007651D01*
X016627Y007475D01*
X016627Y007285D01*
X016700Y007109D01*
X016834Y006975D01*
X017010Y006902D01*
X017200Y006902D01*
X017376Y006975D01*
X017510Y007109D01*
X017583Y007285D01*
X017583Y007339D01*
X018226Y007952D01*
X018300Y007952D01*
X018476Y008025D01*
X018610Y008159D01*
X018683Y008335D01*
X018683Y008525D01*
X018610Y008701D01*
X018476Y008835D01*
X018640Y008630D02*
X023413Y008630D01*
X023370Y008471D02*
X018683Y008471D01*
X018674Y008313D02*
X023379Y008313D01*
X023445Y008154D02*
X018605Y008154D01*
X018405Y007996D02*
X023243Y007996D01*
X022826Y007837D02*
X018105Y007837D01*
X017939Y007679D02*
X022712Y007679D01*
X022670Y007520D02*
X017773Y007520D01*
X017607Y007362D02*
X022679Y007362D01*
X022746Y007203D02*
X017549Y007203D01*
X017446Y007045D02*
X022939Y007045D01*
X023371Y007045D02*
X029411Y007045D01*
X029355Y006886D02*
X009635Y006886D01*
X009635Y006728D02*
X029355Y006728D01*
X029389Y006569D02*
X009635Y006569D01*
X009635Y006411D02*
X029455Y006411D01*
X029614Y006252D02*
X009635Y006252D01*
X009635Y006094D02*
X029653Y006094D01*
X029577Y005935D02*
X009635Y005935D01*
X009635Y005777D02*
X030085Y005777D01*
X030085Y005760D02*
X029555Y005760D01*
X029555Y005737D01*
X029569Y005651D01*
X029595Y005569D01*
X029635Y005492D01*
X029685Y005422D01*
X029747Y005360D01*
X029817Y005310D01*
X029894Y005270D01*
X029976Y005244D01*
X030062Y005230D01*
X030085Y005230D01*
X030085Y005760D01*
X030085Y005618D02*
X030125Y005618D01*
X030125Y005460D02*
X030085Y005460D01*
X030085Y005301D02*
X030125Y005301D01*
X030376Y005301D02*
X030509Y005301D01*
X030552Y005460D02*
X030575Y005460D01*
X030351Y005143D02*
X020306Y005143D01*
X020251Y005165D02*
X020430Y005091D01*
X020566Y004955D01*
X020640Y004776D01*
X020640Y004584D01*
X020566Y004405D01*
X020430Y004269D01*
X020251Y004195D01*
X020059Y004195D01*
X019880Y004269D01*
X019799Y004350D01*
X018061Y004350D01*
X017980Y004269D01*
X017801Y004195D01*
X017609Y004195D01*
X017430Y004269D01*
X017294Y004405D01*
X017220Y004584D01*
X017220Y004776D01*
X017294Y004955D01*
X017430Y005091D01*
X017609Y005165D01*
X017801Y005165D01*
X017980Y005091D01*
X018061Y005010D01*
X019799Y005010D01*
X019880Y005091D01*
X020059Y005165D01*
X020251Y005165D01*
X020004Y005143D02*
X017856Y005143D01*
X017554Y005143D02*
X009635Y005143D01*
X009635Y005301D02*
X029834Y005301D01*
X029658Y005460D02*
X009635Y005460D01*
X009635Y005618D02*
X029579Y005618D01*
X030192Y004984D02*
X020537Y004984D01*
X020620Y004826D02*
X030034Y004826D01*
X029875Y004667D02*
X020640Y004667D01*
X020609Y004509D02*
X029717Y004509D01*
X029558Y004350D02*
X020511Y004350D01*
X017349Y004350D02*
X009635Y004350D01*
X009635Y004192D02*
X010385Y004192D01*
X010925Y004192D02*
X029400Y004192D01*
X029241Y004033D02*
X011372Y004033D01*
X011624Y003875D02*
X029083Y003875D01*
X028924Y003716D02*
X011783Y003716D01*
X011915Y003558D02*
X028766Y003558D01*
X029509Y007203D02*
X023564Y007203D01*
X023631Y007362D02*
X029604Y007362D01*
X029509Y007520D02*
X029220Y007520D01*
X029416Y007679D02*
X029455Y007679D01*
X029108Y008313D02*
X025725Y008313D01*
X025650Y008471D02*
X029258Y008471D01*
X029364Y008630D02*
X025437Y008630D01*
X025574Y009264D02*
X029225Y009264D01*
X029225Y009422D02*
X028033Y009422D01*
X028177Y009581D02*
X029225Y009581D01*
X029225Y009739D02*
X028240Y009739D01*
X028240Y009898D02*
X029225Y009898D01*
X029225Y010056D02*
X028186Y010056D01*
X028056Y010215D02*
X029225Y010215D01*
X029257Y010373D02*
X025443Y010373D01*
X025567Y010215D02*
X027454Y010215D01*
X027324Y010056D02*
X025595Y010056D01*
X025255Y009630D02*
X027555Y009630D01*
X027755Y009830D01*
X029250Y009105D02*
X012120Y009105D01*
X012269Y009264D02*
X024936Y009264D01*
X024816Y009422D02*
X012335Y009422D01*
X012362Y009581D02*
X024770Y009581D01*
X024775Y009739D02*
X012362Y009739D01*
X012301Y009898D02*
X024841Y009898D01*
X024798Y010056D02*
X012197Y010056D01*
X011984Y010215D02*
X024640Y010215D01*
X024481Y010373D02*
X019272Y010373D01*
X019420Y010532D02*
X024323Y010532D01*
X024164Y010690D02*
X019483Y010690D01*
X019483Y010849D02*
X022750Y010849D01*
X022960Y010849D02*
X024006Y010849D01*
X023847Y011007D02*
X023218Y011007D01*
X023312Y011166D02*
X023559Y011166D01*
X023250Y011800D02*
X023185Y011800D01*
X023180Y011958D02*
X023347Y011958D01*
X023085Y012117D02*
X029458Y012117D01*
X029411Y011958D02*
X024063Y011958D01*
X024160Y011800D02*
X029411Y011800D01*
X029459Y011641D02*
X024190Y011641D01*
X024333Y011483D02*
X029575Y011483D01*
X029320Y011324D02*
X024492Y011324D01*
X024650Y011166D02*
X029305Y011166D01*
X029305Y011007D02*
X024809Y011007D01*
X024967Y010849D02*
X029305Y010849D01*
X029305Y010690D02*
X025126Y010690D01*
X025284Y010532D02*
X029305Y010532D01*
X029572Y012275D02*
X022927Y012275D01*
X022768Y012434D02*
X029534Y012434D01*
X029384Y012592D02*
X022610Y012592D01*
X022451Y012751D02*
X029319Y012751D01*
X029305Y012909D02*
X022293Y012909D01*
X021716Y013068D02*
X029338Y013068D01*
X029427Y013226D02*
X014825Y013226D01*
X014890Y013385D02*
X029634Y013385D01*
X025751Y015762D02*
X025715Y015762D01*
X025355Y015580D02*
X025355Y016980D01*
X025055Y017280D01*
X024623Y017506D02*
X022210Y017506D01*
X022052Y017664D02*
X024753Y017664D01*
X024570Y017347D02*
X022574Y017347D01*
X022694Y017189D02*
X024570Y017189D01*
X024634Y017030D02*
X022740Y017030D01*
X022735Y016872D02*
X024778Y016872D01*
X024995Y016713D02*
X022669Y016713D01*
X022495Y016555D02*
X024995Y016555D01*
X024995Y016396D02*
X019170Y016396D01*
X019328Y016238D02*
X024995Y016238D01*
X024995Y016079D02*
X019487Y016079D01*
X019645Y015921D02*
X024995Y015921D01*
X024995Y015762D02*
X020909Y015762D01*
X021008Y015604D02*
X024869Y015604D01*
X024955Y015680D02*
X024905Y015730D01*
X024855Y016330D01*
X024711Y015445D02*
X021040Y015445D01*
X021021Y015287D02*
X024552Y015287D01*
X024394Y015128D02*
X020958Y015128D01*
X020945Y014970D02*
X024235Y014970D01*
X023900Y014811D02*
X020854Y014811D01*
X020678Y014653D02*
X023772Y014653D01*
X023720Y014494D02*
X020502Y014494D01*
X020326Y014336D02*
X023720Y014336D01*
X024205Y014430D02*
X024255Y014480D01*
X025355Y015580D01*
X024784Y014494D02*
X024778Y014494D01*
X024765Y014336D02*
X024690Y014336D01*
X024658Y014177D02*
X024625Y014177D01*
X024620Y014019D02*
X024479Y014019D01*
X021294Y013068D02*
X014677Y013068D01*
X014405Y013480D02*
X014405Y014880D01*
X014455Y014930D01*
X014045Y014653D02*
X013794Y014653D01*
X013967Y014494D02*
X014045Y014494D01*
X014045Y013860D02*
X013961Y013860D01*
X013972Y013702D02*
X012175Y013702D01*
X012243Y013543D02*
X013920Y013543D01*
X013920Y013385D02*
X012309Y013385D01*
X012318Y013226D02*
X013985Y013226D01*
X014133Y013068D02*
X012318Y013068D01*
X012281Y012909D02*
X021098Y012909D01*
X021030Y012751D02*
X012215Y012751D01*
X012108Y012592D02*
X021020Y012592D01*
X021061Y012434D02*
X011950Y012434D01*
X011606Y012275D02*
X021174Y012275D01*
X020155Y012380D02*
X020155Y012480D01*
X020105Y012480D01*
X019296Y011166D02*
X022398Y011166D01*
X022492Y011007D02*
X019428Y011007D01*
X019005Y010780D02*
X018405Y011330D01*
X016105Y012480D02*
X015955Y012330D01*
X016055Y012480D02*
X016105Y012480D01*
X015890Y011641D02*
X009635Y011641D01*
X009635Y011483D02*
X015801Y011483D01*
X013405Y013860D02*
X013405Y013860D01*
X013405Y014019D02*
X013405Y014019D01*
X013405Y014177D02*
X013405Y014177D01*
X013405Y014336D02*
X013405Y014336D01*
X013405Y014494D02*
X013405Y014494D01*
X012740Y014019D02*
X011767Y014019D01*
X012016Y013860D02*
X012849Y013860D01*
X011898Y016396D02*
X017856Y016396D01*
X018054Y016396D02*
X018170Y016396D01*
X018170Y016238D02*
X009635Y016238D01*
X009635Y016396D02*
X010912Y016396D01*
X010888Y016406D02*
X011223Y016267D01*
X011587Y016267D01*
X011922Y016406D01*
X012179Y016663D01*
X012318Y016998D01*
X012318Y017362D01*
X012179Y017697D01*
X011922Y017954D01*
X011587Y018093D01*
X011223Y018093D01*
X010888Y017954D01*
X010631Y017697D01*
X010492Y017362D01*
X010492Y016998D01*
X010631Y016663D01*
X010888Y016406D01*
X010739Y016555D02*
X009635Y016555D01*
X009635Y016713D02*
X010610Y016713D01*
X010544Y016872D02*
X009635Y016872D01*
X009635Y017030D02*
X010492Y017030D01*
X010492Y017189D02*
X009635Y017189D01*
X009635Y017347D02*
X010492Y017347D01*
X010552Y017506D02*
X009635Y017506D01*
X009635Y017664D02*
X010617Y017664D01*
X010756Y017823D02*
X009635Y017823D01*
X009635Y017981D02*
X010953Y017981D01*
X011857Y017981D02*
X021015Y017981D01*
X021015Y017823D02*
X012054Y017823D01*
X012193Y017664D02*
X021090Y017664D01*
X021249Y017506D02*
X012258Y017506D01*
X012318Y017347D02*
X017815Y017347D01*
X018095Y017347D02*
X021386Y017347D01*
X021015Y018140D02*
X009635Y018140D01*
X009635Y018298D02*
X021015Y018298D01*
X021015Y018457D02*
X009635Y018457D01*
X009635Y018615D02*
X021015Y018615D01*
X021015Y018774D02*
X009635Y018774D01*
X009635Y018932D02*
X021015Y018932D01*
X021015Y019091D02*
X009635Y019091D01*
X009635Y019249D02*
X021015Y019249D01*
X021015Y019408D02*
X009635Y019408D01*
X009635Y019566D02*
X021015Y019566D01*
X021015Y019725D02*
X009635Y019725D01*
X009635Y019883D02*
X021015Y019883D01*
X020908Y020042D02*
X009635Y020042D01*
X009635Y020200D02*
X020870Y020200D01*
X020883Y020359D02*
X009635Y020359D01*
X009635Y020517D02*
X020956Y020517D01*
X021163Y020676D02*
X009635Y020676D01*
X009635Y020834D02*
X021765Y020834D01*
X021765Y020676D02*
X021547Y020676D01*
X021754Y020517D02*
X021765Y020517D01*
X021765Y020993D02*
X009635Y020993D01*
X009635Y021151D02*
X010450Y021151D01*
X010860Y021151D02*
X021765Y021151D01*
X021765Y021310D02*
X011341Y021310D01*
X011607Y021468D02*
X021765Y021468D01*
X021777Y021627D02*
X011765Y021627D01*
X011905Y021785D02*
X021820Y021785D01*
X021868Y021944D02*
X011996Y021944D01*
X012084Y022102D02*
X021991Y022102D01*
X027759Y020993D02*
X029312Y020993D01*
X029470Y020834D02*
X027918Y020834D01*
X028197Y020676D02*
X029565Y020676D01*
X029565Y020517D02*
X028404Y020517D01*
X028477Y020359D02*
X029565Y020359D01*
X029565Y020200D02*
X028593Y020200D01*
X028747Y020042D02*
X029565Y020042D01*
X029565Y019883D02*
X028901Y019883D01*
X029054Y019725D02*
X029565Y019725D01*
X029565Y019566D02*
X029208Y019566D01*
X029361Y019408D02*
X029565Y019408D01*
X029565Y019249D02*
X029515Y019249D01*
X028005Y020230D02*
X028005Y020280D01*
X029657Y023846D02*
X011653Y023846D01*
X011422Y024004D02*
X029888Y024004D01*
X030276Y024163D02*
X011034Y024163D01*
X010276Y024163D02*
X009635Y024163D01*
X009635Y024321D02*
X031675Y024321D01*
X031675Y024163D02*
X031034Y024163D01*
X031422Y024004D02*
X031675Y024004D01*
X031675Y023846D02*
X031653Y023846D01*
X031675Y024480D02*
X009635Y024480D01*
X009635Y024638D02*
X031675Y024638D01*
X031675Y024797D02*
X009635Y024797D01*
X009635Y024955D02*
X031675Y024955D01*
X031675Y025114D02*
X009635Y025114D01*
X009635Y025272D02*
X031675Y025272D01*
X031675Y025431D02*
X009635Y025431D01*
X009635Y025589D02*
X031675Y025589D01*
X022015Y016555D02*
X021945Y016555D01*
X020201Y015762D02*
X019804Y015762D01*
X019893Y015673D02*
X019893Y015673D01*
X018379Y015921D02*
X009635Y015921D01*
X009635Y016079D02*
X018234Y016079D01*
X017595Y016555D02*
X012071Y016555D01*
X012200Y016713D02*
X017499Y016713D01*
X017470Y016872D02*
X012266Y016872D01*
X012318Y017030D02*
X017492Y017030D01*
X017578Y017189D02*
X012318Y017189D01*
X009969Y021310D02*
X009635Y021310D01*
X009635Y021468D02*
X009703Y021468D01*
X009635Y023846D02*
X009657Y023846D01*
X009635Y024004D02*
X009888Y024004D01*
X019255Y014180D02*
X019455Y013980D01*
X019505Y013930D01*
X017887Y008788D02*
X012087Y008788D01*
X012077Y008798D02*
X011836Y008898D01*
X011574Y008898D01*
X011333Y008798D01*
X011148Y008613D01*
X011048Y008372D01*
X011048Y008110D01*
X011148Y007869D01*
X011333Y007684D01*
X011574Y007584D01*
X011836Y007584D01*
X012077Y007684D01*
X012262Y007869D01*
X012362Y008110D01*
X012362Y008372D01*
X012262Y008613D01*
X012077Y008798D01*
X012246Y008630D02*
X017770Y008630D01*
X017727Y008471D02*
X012321Y008471D01*
X012362Y008313D02*
X017561Y008313D01*
X017394Y008154D02*
X012362Y008154D01*
X012315Y007996D02*
X017228Y007996D01*
X016959Y007837D02*
X012230Y007837D01*
X012064Y007679D02*
X016727Y007679D01*
X016645Y007520D02*
X009635Y007520D01*
X009635Y007362D02*
X016627Y007362D01*
X016661Y007203D02*
X009635Y007203D01*
X009635Y007045D02*
X016764Y007045D01*
X017105Y007380D02*
X018205Y008430D01*
X016305Y008030D02*
X015655Y008130D01*
X013455Y007830D02*
X013255Y007930D01*
X013405Y007730D01*
X011346Y007679D02*
X009635Y007679D01*
X009635Y007837D02*
X011180Y007837D01*
X011095Y007996D02*
X009635Y007996D01*
X009635Y008154D02*
X011048Y008154D01*
X011048Y008313D02*
X009635Y008313D01*
X009635Y008471D02*
X011089Y008471D01*
X011164Y008630D02*
X009635Y008630D01*
X009635Y008788D02*
X011323Y008788D01*
X009635Y004984D02*
X017323Y004984D01*
X017240Y004826D02*
X009635Y004826D01*
X009635Y004667D02*
X017220Y004667D01*
X017251Y004509D02*
X009635Y004509D01*
X009635Y004033D02*
X009938Y004033D01*
X009686Y003875D02*
X009635Y003875D01*
X012007Y003399D02*
X024563Y003399D01*
X024349Y003241D02*
X012089Y003241D01*
X012131Y003082D02*
X024190Y003082D01*
X024032Y002924D02*
X012174Y002924D01*
X012185Y002765D02*
X023873Y002765D01*
X023715Y002607D02*
X012185Y002607D01*
X012177Y002448D02*
X023347Y002448D01*
X020615Y007370D02*
X020205Y007130D01*
X020615Y007370D02*
X021085Y007510D01*
X015379Y002290D02*
X012134Y002290D01*
X012092Y002131D02*
X015234Y002131D01*
X015170Y001973D02*
X012013Y001973D01*
X011922Y001814D02*
X015170Y001814D01*
D19*
X017105Y007380D03*
X018205Y008430D03*
X019005Y010780D03*
X020155Y012380D03*
X019255Y014180D03*
X016055Y012480D03*
X016255Y011330D03*
D20*
X019255Y014730D02*
X019455Y014630D01*
X020055Y014630D01*
X020555Y015080D01*
X020555Y015430D01*
D21*
X010655Y022680D03*
X030655Y022680D03*
X030655Y002680D03*
X010655Y002680D03*
M02*
