G75*
%MOIN*%
%OFA0B0*%
%FSLAX24Y24*%
%IPPOS*%
%LPD*%
%AMOC8*
5,1,8,0,0,1.08239X$1,22.5*
%
%ADD10C,0.0150*%
%ADD11C,0.0080*%
%ADD12C,0.0060*%
%ADD13C,0.0040*%
%ADD14C,0.0143*%
%ADD15R,0.0118X0.0059*%
%ADD16R,0.0118X0.0118*%
%ADD17C,0.0100*%
%ADD18C,0.0050*%
%ADD19C,0.0030*%
%ADD20R,0.0020X0.0010*%
%ADD21R,0.0240X0.0010*%
%ADD22R,0.0280X0.0010*%
%ADD23R,0.0300X0.0010*%
%ADD24R,0.0320X0.0010*%
%ADD25R,0.0340X0.0010*%
%ADD26R,0.0350X0.0010*%
%ADD27R,0.0360X0.0010*%
%ADD28R,0.0370X0.0010*%
%ADD29R,0.0380X0.0010*%
%ADD30R,0.0390X0.0010*%
%ADD31R,0.0400X0.0010*%
%ADD32R,0.0410X0.0010*%
%ADD33R,0.0330X0.0010*%
%ADD34R,0.0080X0.0010*%
%ADD35R,0.0100X0.0010*%
%ADD36R,0.0090X0.0010*%
%ADD37R,0.0310X0.0010*%
%ADD38R,0.0210X0.0010*%
%ADD39R,0.0250X0.0010*%
%ADD40R,0.0220X0.0010*%
%ADD41R,0.0290X0.0010*%
%ADD42R,0.0430X0.0010*%
%ADD43R,0.0480X0.0010*%
%ADD44R,0.0420X0.0010*%
%ADD45R,0.0510X0.0010*%
%ADD46R,0.0450X0.0010*%
%ADD47R,0.0540X0.0010*%
%ADD48R,0.0470X0.0010*%
%ADD49R,0.0580X0.0010*%
%ADD50R,0.0490X0.0010*%
%ADD51R,0.0600X0.0010*%
%ADD52R,0.0790X0.0010*%
%ADD53R,0.0620X0.0010*%
%ADD54R,0.0780X0.0010*%
%ADD55R,0.0650X0.0010*%
%ADD56R,0.0800X0.0010*%
%ADD57R,0.0670X0.0010*%
%ADD58R,0.0680X0.0010*%
%ADD59R,0.0810X0.0010*%
%ADD60R,0.0700X0.0010*%
%ADD61R,0.0710X0.0010*%
%ADD62R,0.0730X0.0010*%
%ADD63R,0.0740X0.0010*%
%ADD64R,0.0270X0.0010*%
%ADD65R,0.0460X0.0010*%
%ADD66R,0.0850X0.0010*%
%ADD67R,0.0770X0.0010*%
%ADD68R,0.0760X0.0010*%
%ADD69R,0.0750X0.0010*%
%ADD70R,0.0720X0.0010*%
%ADD71R,0.0840X0.0010*%
%ADD72R,0.0690X0.0010*%
%ADD73R,0.0660X0.0010*%
%ADD74R,0.0630X0.0010*%
%ADD75R,0.0830X0.0010*%
%ADD76R,0.0570X0.0010*%
%ADD77R,0.0820X0.0010*%
%ADD78R,0.1220X0.0010*%
%ADD79R,0.1210X0.0010*%
%ADD80R,0.1200X0.0010*%
%ADD81R,0.0640X0.0010*%
%ADD82R,0.1190X0.0010*%
%ADD83R,0.0520X0.0010*%
%ADD84R,0.0610X0.0010*%
%ADD85R,0.0500X0.0010*%
%ADD86R,0.0260X0.0010*%
%ADD87R,0.0440X0.0010*%
%ADD88R,0.0230X0.0010*%
%ADD89R,0.0140X0.0010*%
%ADD90R,0.0130X0.0010*%
%ADD91R,0.0160X0.0010*%
%ADD92R,0.0200X0.0010*%
%ADD93R,0.0180X0.0010*%
%ADD94R,0.0170X0.0010*%
%ADD95R,0.0150X0.0010*%
%ADD96R,0.0110X0.0010*%
%ADD97R,0.0030X0.0010*%
%ADD98R,0.0190X0.0010*%
%ADD99R,0.0120X0.0010*%
%ADD100R,0.1090X0.0010*%
%ADD101R,0.1130X0.0010*%
%ADD102R,0.1160X0.0010*%
%ADD103R,0.0060X0.0010*%
%ADD104R,0.0050X0.0010*%
%ADD105R,0.0070X0.0010*%
%ADD106R,0.1010X0.0010*%
%ADD107R,0.1030X0.0010*%
%ADD108R,0.1060X0.0010*%
%ADD109R,0.1070X0.0010*%
%ADD110C,0.0010*%
D10*
X013130Y001647D02*
X013272Y001505D01*
X013555Y001505D01*
X013697Y001647D01*
X013697Y001789D01*
X013555Y001930D01*
X013414Y001930D01*
X013555Y001930D02*
X013697Y002072D01*
X013697Y002214D01*
X013555Y002356D01*
X013272Y002356D01*
X013130Y002214D01*
X021880Y001930D02*
X022447Y001930D01*
X022305Y001505D02*
X022305Y002356D01*
X021880Y001930D01*
X022014Y022905D02*
X022014Y023756D01*
X021730Y023472D01*
X021730Y022905D02*
X022297Y022905D01*
X013797Y023005D02*
X013230Y023005D01*
X013797Y023572D01*
X013797Y023714D01*
X013655Y023856D01*
X013372Y023856D01*
X013230Y023714D01*
D11*
X013183Y024130D02*
X012989Y024130D01*
X012893Y024227D01*
X013280Y024614D01*
X013280Y024227D01*
X013183Y024130D01*
X012893Y024227D02*
X012893Y024614D01*
X012989Y024710D01*
X013183Y024710D01*
X013280Y024614D01*
X013500Y024614D02*
X013597Y024710D01*
X013791Y024710D01*
X013887Y024614D01*
X013500Y024227D01*
X013597Y024130D01*
X013791Y024130D01*
X013887Y024227D01*
X013887Y024614D01*
X014108Y024614D02*
X014205Y024710D01*
X014398Y024710D01*
X014495Y024614D01*
X014495Y024517D01*
X014108Y024130D01*
X014495Y024130D01*
X014716Y024227D02*
X014813Y024130D01*
X015006Y024130D01*
X015103Y024227D01*
X015103Y024614D01*
X015006Y024710D01*
X014813Y024710D01*
X014716Y024614D01*
X014716Y024517D01*
X014813Y024420D01*
X015103Y024420D01*
X015324Y024420D02*
X015614Y024710D01*
X015614Y024130D01*
X015711Y024420D02*
X015324Y024420D01*
X015931Y024614D02*
X016028Y024710D01*
X016222Y024710D01*
X016318Y024614D01*
X016318Y024517D01*
X015931Y024130D01*
X016318Y024130D01*
X016539Y024130D02*
X016539Y024710D01*
X016829Y024710D01*
X016926Y024614D01*
X016926Y024420D01*
X016829Y024323D01*
X016539Y024323D01*
X016733Y024323D02*
X016926Y024130D01*
X017147Y024130D02*
X017534Y024130D01*
X017754Y024323D02*
X017948Y024130D01*
X018141Y024323D01*
X018141Y024710D01*
X018362Y024710D02*
X018652Y024710D01*
X018749Y024614D01*
X018749Y024517D01*
X018652Y024420D01*
X018362Y024420D01*
X018362Y024130D02*
X018652Y024130D01*
X018749Y024227D01*
X018749Y024323D01*
X018652Y024420D01*
X018362Y024130D02*
X018362Y024710D01*
X017754Y024710D02*
X017754Y024323D01*
X017340Y024420D02*
X017147Y024420D01*
X017147Y024710D02*
X017147Y024130D01*
X017147Y024710D02*
X017534Y024710D01*
X017638Y025060D02*
X017831Y025060D01*
X017734Y025060D02*
X017734Y025640D01*
X017638Y025640D01*
X017417Y025350D02*
X017320Y025447D01*
X017127Y025447D01*
X017030Y025350D01*
X017030Y025157D01*
X017127Y025060D01*
X017320Y025060D01*
X017417Y025157D01*
X017417Y025350D01*
X016814Y025447D02*
X016717Y025447D01*
X016523Y025253D01*
X016523Y025060D02*
X016523Y025447D01*
X016312Y025447D02*
X016118Y025447D01*
X016215Y025544D02*
X016215Y025157D01*
X016312Y025060D01*
X015898Y025060D02*
X015898Y025350D01*
X015801Y025447D01*
X015511Y025447D01*
X015511Y025060D01*
X015290Y025157D02*
X015290Y025350D01*
X015193Y025447D01*
X015000Y025447D01*
X014903Y025350D01*
X014903Y025157D01*
X015000Y025060D01*
X015193Y025060D01*
X015290Y025157D01*
X014682Y025157D02*
X014585Y025060D01*
X014392Y025060D01*
X014295Y025157D01*
X014295Y025544D01*
X014392Y025640D01*
X014585Y025640D01*
X014682Y025544D01*
X013471Y025447D02*
X013375Y025447D01*
X013181Y025253D01*
X013181Y025060D02*
X013181Y025447D01*
X012960Y025350D02*
X012960Y025060D01*
X012960Y025350D02*
X012864Y025447D01*
X012670Y025447D01*
X012573Y025350D01*
X012573Y025640D02*
X012573Y025060D01*
X012353Y025157D02*
X012256Y025060D01*
X012062Y025060D01*
X011966Y025157D01*
X011966Y025544D01*
X012062Y025640D01*
X012256Y025640D01*
X012353Y025544D01*
X011745Y025640D02*
X011358Y025060D01*
X011137Y025060D02*
X010944Y025253D01*
X011040Y025253D02*
X010750Y025253D01*
X010750Y025060D02*
X010750Y025640D01*
X011040Y025640D01*
X011137Y025544D01*
X011137Y025350D01*
X011040Y025253D01*
X010538Y025060D02*
X010345Y025060D01*
X010442Y025060D02*
X010442Y025640D01*
X010538Y025640D02*
X010345Y025640D01*
X012478Y024710D02*
X012672Y024710D01*
X012575Y024710D02*
X012575Y024227D01*
X012478Y024130D01*
X012382Y024130D01*
X012285Y024227D01*
X013500Y024227D02*
X013500Y024614D01*
X012351Y022502D02*
X020303Y022502D01*
X020303Y018958D01*
X017193Y018958D01*
X017193Y019549D01*
X015461Y019549D01*
X015461Y018958D01*
X012351Y018958D01*
X012351Y022462D01*
X014077Y019637D02*
X014577Y019637D01*
X015461Y018958D02*
X017193Y018958D01*
X019073Y015770D02*
X022537Y015770D01*
X022695Y015612D01*
X022695Y012148D01*
X022537Y011990D01*
X019073Y011990D01*
X018915Y012148D01*
X018915Y015612D01*
X019073Y015770D01*
X021290Y018958D02*
X021290Y022462D01*
X021290Y022502D02*
X029243Y022502D01*
X029243Y018958D01*
X026133Y018958D01*
X026133Y019549D01*
X024400Y019549D01*
X024400Y018958D01*
X021290Y018958D01*
X023016Y019637D02*
X023516Y019637D01*
X024400Y018958D02*
X026133Y018958D01*
X031195Y018980D02*
X031335Y018980D01*
X031195Y018770D02*
X031475Y018770D01*
X031655Y018770D02*
X031655Y019190D01*
X031936Y018770D01*
X031936Y019190D01*
X031475Y019190D02*
X031195Y019190D01*
X031195Y018770D01*
X030155Y014380D02*
X029655Y014380D01*
X029405Y014130D01*
X029405Y013630D01*
X029655Y013380D01*
X029405Y013130D01*
X029405Y012630D01*
X029655Y012380D01*
X029405Y012130D01*
X029405Y011630D01*
X029655Y011380D01*
X029405Y011130D01*
X029405Y010630D01*
X029655Y010380D01*
X030155Y010380D01*
X030405Y010630D01*
X030405Y011130D01*
X030155Y011380D01*
X030405Y011630D01*
X030405Y012130D01*
X030155Y012380D01*
X030405Y012630D01*
X030405Y013130D01*
X030155Y013380D01*
X030405Y013630D01*
X030405Y014130D01*
X030155Y014380D01*
X030795Y013870D02*
X030795Y013660D01*
X031215Y013660D01*
X031215Y013870D01*
X031145Y013940D01*
X030865Y013940D01*
X030795Y013870D01*
X030795Y013479D02*
X031215Y013479D01*
X030795Y013199D01*
X031215Y013199D01*
X031145Y013019D02*
X031005Y013019D01*
X031005Y012879D01*
X031145Y013019D02*
X031215Y012949D01*
X031215Y012809D01*
X031145Y012739D01*
X030865Y012739D01*
X030795Y012809D01*
X030795Y012949D01*
X030865Y013019D01*
X030305Y010280D02*
X029805Y010280D01*
X029555Y010030D01*
X029555Y009530D01*
X029805Y009280D01*
X029555Y009030D01*
X029555Y008530D01*
X029805Y008280D01*
X029555Y008030D01*
X029555Y007530D01*
X029805Y007280D01*
X029555Y007030D01*
X029555Y006530D01*
X029805Y006280D01*
X029555Y006030D01*
X029555Y005530D01*
X029805Y005280D01*
X030305Y005280D01*
X030555Y005530D01*
X030555Y006030D01*
X030305Y006280D01*
X030555Y006530D01*
X030555Y007030D01*
X030305Y007280D01*
X030555Y007530D01*
X030555Y008030D01*
X030305Y008280D01*
X030555Y008530D01*
X030555Y009030D01*
X030305Y009280D01*
X030555Y009530D01*
X030555Y010030D01*
X030305Y010280D01*
X030745Y009920D02*
X030815Y009990D01*
X030955Y009990D01*
X031025Y009920D01*
X031205Y009990D02*
X031205Y009570D01*
X031025Y009640D02*
X030955Y009570D01*
X030815Y009570D01*
X030745Y009640D01*
X030745Y009920D01*
X031205Y009780D02*
X031486Y009780D01*
X031666Y009710D02*
X031876Y009710D01*
X031946Y009780D01*
X031946Y009920D01*
X031876Y009990D01*
X031666Y009990D01*
X031666Y009570D01*
X031486Y009570D02*
X031486Y009990D01*
X031806Y009710D02*
X031946Y009570D01*
X031362Y008940D02*
X031432Y008870D01*
X031432Y008730D01*
X031362Y008660D01*
X031152Y008660D01*
X031152Y008520D02*
X031152Y008940D01*
X031362Y008940D01*
X031292Y008660D02*
X031432Y008520D01*
X030985Y008520D02*
X030845Y008520D01*
X030915Y008520D02*
X030915Y008940D01*
X030845Y008940D02*
X030985Y008940D01*
X030915Y007990D02*
X030845Y007920D01*
X030845Y007640D01*
X030915Y007570D01*
X031055Y007570D01*
X031125Y007640D01*
X031125Y007920D02*
X031055Y007990D01*
X030915Y007990D01*
X030895Y007040D02*
X031105Y007040D01*
X031175Y006970D01*
X031175Y006690D01*
X031105Y006620D01*
X030895Y006620D01*
X030895Y007040D01*
X030965Y006040D02*
X030895Y005970D01*
X030895Y005690D01*
X030965Y005620D01*
X031105Y005620D01*
X031175Y005690D01*
X031175Y005830D01*
X031035Y005830D01*
X031175Y005970D02*
X031105Y006040D01*
X030965Y006040D01*
X031355Y006040D02*
X031636Y005620D01*
X031636Y006040D01*
X031816Y006040D02*
X032026Y006040D01*
X032096Y005970D01*
X032096Y005690D01*
X032026Y005620D01*
X031816Y005620D01*
X031816Y006040D01*
X031355Y006040D02*
X031355Y005620D01*
X029131Y006452D02*
X029131Y002948D01*
X029131Y002908D02*
X021179Y002908D01*
X021179Y006452D01*
X024289Y006452D01*
X024289Y005861D01*
X026021Y005861D01*
X026021Y006452D01*
X029131Y006452D01*
X027405Y005773D02*
X026905Y005773D01*
X026021Y006452D02*
X024289Y006452D01*
X021218Y008980D02*
X020392Y008980D01*
X019663Y009512D02*
X019663Y009748D01*
X020392Y010280D02*
X021218Y010280D01*
X021947Y009748D02*
X021947Y009512D01*
X020131Y006452D02*
X020131Y002948D01*
X020131Y002908D02*
X012179Y002908D01*
X012179Y006452D01*
X015289Y006452D01*
X015289Y005861D01*
X017021Y005861D01*
X017021Y006452D01*
X020131Y006452D01*
X018405Y005773D02*
X017905Y005773D01*
X017021Y006452D02*
X015289Y006452D01*
X015567Y008530D02*
X016543Y008530D01*
X017055Y008924D02*
X017055Y010136D01*
X016555Y010530D02*
X015567Y010530D01*
X015055Y010136D02*
X015055Y008924D01*
X015555Y009530D02*
X015557Y009574D01*
X015563Y009618D01*
X015573Y009661D01*
X015586Y009703D01*
X015603Y009744D01*
X015624Y009783D01*
X015648Y009820D01*
X015675Y009855D01*
X015705Y009887D01*
X015738Y009917D01*
X015774Y009943D01*
X015811Y009967D01*
X015851Y009986D01*
X015892Y010003D01*
X015935Y010015D01*
X015978Y010024D01*
X016022Y010029D01*
X016066Y010030D01*
X016110Y010027D01*
X016154Y010020D01*
X016197Y010009D01*
X016239Y009995D01*
X016279Y009977D01*
X016318Y009955D01*
X016354Y009931D01*
X016388Y009903D01*
X016420Y009872D01*
X016449Y009838D01*
X016475Y009802D01*
X016497Y009764D01*
X016516Y009724D01*
X016531Y009682D01*
X016543Y009640D01*
X016551Y009596D01*
X016555Y009552D01*
X016555Y009508D01*
X016551Y009464D01*
X016543Y009420D01*
X016531Y009378D01*
X016516Y009336D01*
X016497Y009296D01*
X016475Y009258D01*
X016449Y009222D01*
X016420Y009188D01*
X016388Y009157D01*
X016354Y009129D01*
X016318Y009105D01*
X016279Y009083D01*
X016239Y009065D01*
X016197Y009051D01*
X016154Y009040D01*
X016110Y009033D01*
X016066Y009030D01*
X016022Y009031D01*
X015978Y009036D01*
X015935Y009045D01*
X015892Y009057D01*
X015851Y009074D01*
X015811Y009093D01*
X015774Y009117D01*
X015738Y009143D01*
X015705Y009173D01*
X015675Y009205D01*
X015648Y009240D01*
X015624Y009277D01*
X015603Y009316D01*
X015586Y009357D01*
X015573Y009399D01*
X015563Y009442D01*
X015557Y009486D01*
X015555Y009530D01*
X025754Y009879D02*
X026856Y009879D01*
X026856Y010981D01*
X025754Y010981D01*
X025754Y009879D01*
X026502Y010115D02*
X026738Y010115D01*
X026736Y010095D01*
X026731Y010075D01*
X026722Y010056D01*
X026710Y010039D01*
X026696Y010025D01*
X026679Y010013D01*
X026660Y010004D01*
X026640Y009999D01*
X026620Y009997D01*
X026600Y009999D01*
X026580Y010004D01*
X026561Y010013D01*
X026544Y010025D01*
X026530Y010039D01*
X026518Y010056D01*
X026509Y010075D01*
X026504Y010095D01*
X026502Y010115D01*
X031184Y024710D02*
X031087Y024807D01*
X031184Y024710D02*
X031378Y024710D01*
X031474Y024807D01*
X031474Y024903D01*
X031378Y025000D01*
X031184Y025000D01*
X031087Y025097D01*
X031087Y025194D01*
X031184Y025290D01*
X031378Y025290D01*
X031474Y025194D01*
X031474Y025203D02*
X031474Y025107D01*
X031378Y025010D01*
X031184Y025010D01*
X031087Y025107D01*
X031184Y025300D02*
X031378Y025300D01*
X031474Y025203D01*
X031474Y025494D02*
X031378Y025590D01*
X031184Y025590D01*
X031087Y025494D01*
X031087Y025397D01*
X031184Y025300D01*
D12*
X024235Y017730D02*
X023675Y017730D01*
X023675Y016930D02*
X024235Y016930D01*
X024555Y016460D02*
X024555Y015900D01*
X024885Y015894D02*
X024885Y015467D01*
X024992Y015360D01*
X025205Y015360D01*
X025312Y015467D01*
X025312Y015680D01*
X025099Y015680D01*
X025312Y015894D02*
X025205Y016001D01*
X024992Y016001D01*
X024885Y015894D01*
X023755Y015900D02*
X023755Y016460D01*
X019885Y017880D02*
X019325Y017880D01*
X019325Y018680D02*
X019885Y018680D01*
X016035Y017030D02*
X015475Y017030D01*
X015475Y016230D02*
X016035Y016230D01*
X016155Y015560D02*
X016155Y015000D01*
X016555Y014900D02*
X016555Y015460D01*
X017355Y015460D02*
X017355Y014900D01*
X016685Y013580D02*
X016125Y013580D01*
X016125Y012780D02*
X016685Y012780D01*
X015355Y015000D02*
X015355Y015560D01*
X014285Y010780D02*
X013725Y010780D01*
X013725Y009980D02*
X014285Y009980D01*
X014285Y009030D02*
X013725Y009030D01*
X013725Y008230D02*
X014285Y008230D01*
X014249Y008051D02*
X014035Y008051D01*
X014142Y008051D02*
X014142Y007410D01*
X014035Y007410D02*
X014249Y007410D01*
X014985Y007517D02*
X015092Y007410D01*
X015305Y007410D01*
X015412Y007517D01*
X015412Y007730D01*
X015305Y007837D01*
X015199Y007837D01*
X014985Y007730D01*
X014985Y008051D01*
X015412Y008051D01*
X015985Y008244D02*
X016092Y008351D01*
X016305Y008351D01*
X016412Y008244D01*
X016412Y008030D02*
X016199Y008030D01*
X016412Y008030D02*
X016412Y007817D01*
X016305Y007710D01*
X016092Y007710D01*
X015985Y007817D01*
X015985Y008244D01*
X016685Y008351D02*
X016685Y007710D01*
X017112Y007710D01*
X017330Y007710D02*
X017330Y008351D01*
X017650Y008351D01*
X017757Y008244D01*
X017757Y008030D01*
X017650Y007924D01*
X017330Y007924D01*
X017543Y007924D02*
X017757Y007710D01*
X018355Y008011D02*
X018355Y007370D01*
X018782Y007370D01*
X019000Y007370D02*
X019427Y007370D01*
X019000Y007370D02*
X019000Y008011D01*
X020275Y007830D02*
X020835Y007830D01*
X020835Y008630D02*
X020275Y008630D01*
X021825Y008630D02*
X022385Y008630D01*
X022385Y007830D02*
X021825Y007830D01*
X025425Y008480D02*
X025985Y008480D01*
X025985Y009280D02*
X025425Y009280D01*
X024885Y011080D02*
X024325Y011080D01*
X024325Y011880D02*
X024885Y011880D01*
X025255Y012600D02*
X025255Y013160D01*
X024455Y013160D02*
X024455Y012600D01*
X027825Y012330D02*
X028385Y012330D01*
X028435Y011630D02*
X027875Y011630D01*
X027875Y010830D02*
X028435Y010830D01*
X028315Y009880D02*
X028875Y009880D01*
X028875Y009080D02*
X028315Y009080D01*
X028385Y013130D02*
X027825Y013130D01*
X027785Y013530D02*
X028345Y013530D01*
X028345Y014330D02*
X027785Y014330D01*
X019181Y023340D02*
X018888Y023340D01*
X019035Y023340D02*
X019035Y023780D01*
X018888Y023634D01*
X018721Y023634D02*
X018721Y023707D01*
X018648Y023780D01*
X018501Y023780D01*
X018427Y023707D01*
X018261Y023560D02*
X017967Y023560D01*
X018187Y023780D01*
X018187Y023340D01*
X018427Y023340D02*
X018721Y023634D01*
X018721Y023340D02*
X018427Y023340D01*
X017800Y023413D02*
X017800Y023707D01*
X017507Y023413D01*
X017580Y023340D01*
X017727Y023340D01*
X017800Y023413D01*
X017507Y023413D02*
X017507Y023707D01*
X017580Y023780D01*
X017727Y023780D01*
X017800Y023707D01*
X017340Y023780D02*
X017046Y023780D01*
X017046Y023560D01*
X017193Y023634D01*
X017266Y023634D01*
X017340Y023560D01*
X017340Y023413D01*
X017266Y023340D01*
X017120Y023340D01*
X017046Y023413D01*
X016879Y023340D02*
X016586Y023340D01*
X016733Y023340D02*
X016733Y023780D01*
X016586Y023634D01*
X016419Y023707D02*
X016125Y023413D01*
X016199Y023340D01*
X016346Y023340D01*
X016419Y023413D01*
X016419Y023707D01*
X016346Y023780D01*
X016199Y023780D01*
X016125Y023707D01*
X016125Y023413D01*
X015959Y023340D02*
X015665Y023340D01*
X015959Y023634D01*
X015959Y023707D01*
X015885Y023780D01*
X015738Y023780D01*
X015665Y023707D01*
X015935Y002201D02*
X016149Y001987D01*
X016362Y002201D01*
X016362Y001560D01*
X016935Y001617D02*
X017042Y001510D01*
X017255Y001510D01*
X017362Y001617D01*
X017362Y002151D01*
X017580Y002151D02*
X017900Y002151D01*
X018007Y002044D01*
X018007Y001830D01*
X017900Y001724D01*
X017580Y001724D01*
X017793Y001724D02*
X018007Y001510D01*
X018495Y001667D02*
X018602Y001560D01*
X018815Y001560D01*
X018922Y001667D01*
X018922Y002201D01*
X019140Y002201D02*
X019140Y001560D01*
X019567Y001560D01*
X018495Y001667D02*
X018495Y002201D01*
X017580Y002151D02*
X017580Y001510D01*
X016935Y001617D02*
X016935Y002151D01*
X015935Y002201D02*
X015935Y001560D01*
X015312Y001617D02*
X015205Y001510D01*
X014992Y001510D01*
X014885Y001617D01*
X014885Y002044D01*
X014992Y002151D01*
X015205Y002151D01*
X015312Y002044D01*
X014362Y002044D02*
X014255Y002151D01*
X014042Y002151D01*
X013935Y002044D01*
X013935Y001617D01*
X014042Y001510D01*
X014255Y001510D01*
X014362Y001617D01*
X014362Y001830D01*
X014149Y001830D01*
D13*
X009913Y004420D02*
X009683Y004420D01*
X009683Y004880D01*
X009913Y004880D01*
X009990Y004804D01*
X009990Y004497D01*
X009913Y004420D01*
X010143Y004420D02*
X010450Y004727D01*
X010450Y004804D01*
X010374Y004880D01*
X010220Y004880D01*
X010143Y004804D01*
X010143Y004420D02*
X010450Y004420D01*
X010604Y004497D02*
X010681Y004420D01*
X010834Y004420D01*
X010911Y004497D01*
X010911Y004650D01*
X010834Y004727D01*
X010757Y004727D01*
X010604Y004650D01*
X010604Y004880D01*
X010911Y004880D01*
X011064Y004727D02*
X011218Y004880D01*
X011218Y004420D01*
X011371Y004420D02*
X011064Y004420D01*
X011525Y004497D02*
X011525Y004804D01*
X011601Y004880D01*
X011755Y004880D01*
X011832Y004804D01*
X011525Y004497D01*
X011601Y004420D01*
X011755Y004420D01*
X011832Y004497D01*
X011832Y004804D01*
X012649Y007001D02*
X012649Y007001D01*
X012649Y007000D02*
X012662Y007001D01*
X012675Y007006D01*
X012687Y007013D01*
X012697Y007023D01*
X012704Y007035D01*
X012709Y007048D01*
X012710Y007061D01*
X012709Y007062D02*
X012709Y007431D01*
X010629Y007431D01*
X010629Y007062D01*
X010629Y007061D02*
X010628Y007048D01*
X010623Y007035D01*
X010616Y007023D01*
X010606Y007013D01*
X010594Y007006D01*
X010581Y007001D01*
X010568Y007000D01*
X010568Y007001D02*
X010568Y007001D01*
X010553Y007003D01*
X010539Y007008D01*
X010527Y007015D01*
X010516Y007026D01*
X010509Y007038D01*
X010504Y007052D01*
X010502Y007067D01*
X010502Y007128D01*
X010501Y007128D02*
X010499Y007145D01*
X010494Y007162D01*
X010486Y007177D01*
X010475Y007190D01*
X010462Y007201D01*
X010447Y007209D01*
X010430Y007214D01*
X010413Y007216D01*
X010402Y007216D01*
X010385Y007214D01*
X010368Y007209D01*
X010353Y007201D01*
X010340Y007190D01*
X010329Y007177D01*
X010321Y007162D01*
X010316Y007145D01*
X010314Y007128D01*
X010314Y007062D01*
X010312Y007048D01*
X010308Y007036D01*
X010301Y007024D01*
X010291Y007014D01*
X010279Y007007D01*
X010267Y007003D01*
X010253Y007001D01*
X010238Y007003D01*
X010224Y007008D01*
X010212Y007015D01*
X010201Y007026D01*
X010194Y007038D01*
X010189Y007052D01*
X010187Y007067D01*
X010187Y007409D01*
X009674Y007453D02*
X009674Y008061D01*
X009676Y008083D01*
X009681Y008104D01*
X009689Y008124D01*
X009700Y008142D01*
X009714Y008159D01*
X009731Y008173D01*
X009749Y008184D01*
X009769Y008192D01*
X009790Y008197D01*
X009812Y008199D01*
X009828Y008199D01*
X011274Y008265D01*
X011288Y008264D01*
X011302Y008260D01*
X011313Y008252D01*
X011323Y008242D01*
X011330Y008230D01*
X011334Y008217D01*
X011335Y008203D01*
X011332Y008189D01*
X011326Y008176D01*
X011318Y008166D01*
X011306Y008157D01*
X011294Y008151D01*
X011280Y008149D01*
X009944Y008061D01*
X009945Y008061D02*
X009926Y008058D01*
X009909Y008051D01*
X009893Y008042D01*
X009879Y008029D01*
X009868Y008014D01*
X009860Y007998D01*
X009855Y007980D01*
X009854Y007961D01*
X009856Y007943D01*
X009862Y007925D01*
X009871Y007909D01*
X009883Y007895D01*
X009898Y007883D01*
X009914Y007874D01*
X009932Y007869D01*
X009950Y007867D01*
X011291Y007779D01*
X011303Y007777D01*
X011314Y007771D01*
X011323Y007763D01*
X011330Y007753D01*
X011334Y007742D01*
X011335Y007730D01*
X011335Y007729D02*
X011335Y007453D01*
X012268Y007409D02*
X012268Y007067D01*
X012270Y007052D01*
X012275Y007038D01*
X012282Y007026D01*
X012293Y007015D01*
X012305Y007008D01*
X012319Y007003D01*
X012334Y007001D01*
X012348Y007003D01*
X012360Y007007D01*
X012372Y007014D01*
X012382Y007024D01*
X012389Y007036D01*
X012393Y007048D01*
X012395Y007062D01*
X012395Y007128D01*
X012397Y007145D01*
X012402Y007162D01*
X012410Y007177D01*
X012421Y007190D01*
X012434Y007201D01*
X012449Y007209D01*
X012466Y007214D01*
X012483Y007216D01*
X012494Y007216D01*
X012511Y007214D01*
X012528Y007209D01*
X012543Y007201D01*
X012556Y007190D01*
X012567Y007177D01*
X012575Y007162D01*
X012580Y007145D01*
X012582Y007128D01*
X012582Y007067D01*
X012583Y007067D02*
X012585Y007052D01*
X012590Y007038D01*
X012597Y007026D01*
X012608Y007015D01*
X012620Y007008D01*
X012634Y007003D01*
X012649Y007001D01*
X012709Y007431D02*
X012709Y007934D01*
X012707Y007956D01*
X012702Y007977D01*
X012694Y007997D01*
X012683Y008015D01*
X012669Y008032D01*
X012652Y008046D01*
X012634Y008057D01*
X012614Y008065D01*
X012593Y008070D01*
X012571Y008072D01*
X012340Y008072D01*
X011451Y008646D02*
X011451Y009225D01*
X011449Y009246D01*
X011444Y009266D01*
X011436Y009285D01*
X011426Y009303D01*
X011412Y009319D01*
X011396Y009333D01*
X011378Y009343D01*
X011359Y009351D01*
X011339Y009356D01*
X011318Y009358D01*
X011319Y009358D02*
X009734Y009440D01*
X009735Y009441D02*
X009721Y009440D01*
X009708Y009435D01*
X009697Y009427D01*
X009688Y009417D01*
X009682Y009404D01*
X009679Y009391D01*
X009680Y009377D01*
X009685Y009364D01*
X009693Y009353D01*
X009703Y009344D01*
X009716Y009338D01*
X009729Y009335D01*
X009729Y009336D02*
X010954Y009269D01*
X010978Y009267D01*
X011002Y009262D01*
X011025Y009254D01*
X011046Y009242D01*
X011066Y009227D01*
X011083Y009210D01*
X011098Y009190D01*
X011110Y009169D01*
X011118Y009146D01*
X011123Y009122D01*
X011125Y009098D01*
X011125Y008751D01*
X011126Y008751D02*
X011124Y008727D01*
X011119Y008704D01*
X011111Y008682D01*
X011100Y008661D01*
X011085Y008642D01*
X011069Y008626D01*
X011050Y008611D01*
X011029Y008600D01*
X011007Y008592D01*
X010984Y008587D01*
X010960Y008585D01*
X010932Y008585D01*
X009734Y008530D01*
X009721Y008528D01*
X009708Y008522D01*
X009697Y008513D01*
X009689Y008502D01*
X009684Y008489D01*
X009682Y008475D01*
X009684Y008461D01*
X009689Y008448D01*
X009697Y008437D01*
X009708Y008428D01*
X009721Y008422D01*
X009734Y008420D01*
X009734Y008419D02*
X011307Y008502D01*
X011330Y008504D01*
X011351Y008509D01*
X011372Y008518D01*
X011392Y008530D01*
X011409Y008544D01*
X011423Y008561D01*
X011435Y008581D01*
X011444Y008602D01*
X011449Y008623D01*
X011451Y008646D01*
X011274Y009595D02*
X009828Y009661D01*
X009812Y009661D01*
X009790Y009663D01*
X009769Y009668D01*
X009749Y009676D01*
X009731Y009687D01*
X009714Y009701D01*
X009700Y009718D01*
X009689Y009736D01*
X009681Y009756D01*
X009676Y009777D01*
X009674Y009799D01*
X009674Y010406D01*
X009705Y010428D02*
X009705Y010430D01*
X012709Y010428D01*
X012709Y009932D01*
X012707Y009910D01*
X012702Y009888D01*
X012693Y009867D01*
X012682Y009848D01*
X012667Y009831D01*
X012650Y009816D01*
X012631Y009805D01*
X012610Y009796D01*
X012588Y009791D01*
X012566Y009789D01*
X012566Y009788D02*
X012356Y009788D01*
X012268Y010428D02*
X012268Y010798D01*
X012267Y010798D02*
X012269Y010811D01*
X012273Y010824D01*
X012280Y010836D01*
X012290Y010846D01*
X012302Y010853D01*
X012315Y010858D01*
X012328Y010859D01*
X012329Y010859D02*
X012329Y010859D01*
X012344Y010857D01*
X012358Y010852D01*
X012370Y010845D01*
X012381Y010834D01*
X012388Y010822D01*
X012393Y010808D01*
X012395Y010793D01*
X012395Y010732D01*
X012397Y010715D01*
X012402Y010698D01*
X012410Y010683D01*
X012421Y010670D01*
X012434Y010659D01*
X012449Y010651D01*
X012466Y010646D01*
X012483Y010644D01*
X012494Y010644D01*
X012511Y010646D01*
X012528Y010651D01*
X012543Y010659D01*
X012556Y010670D01*
X012567Y010683D01*
X012575Y010698D01*
X012580Y010715D01*
X012582Y010732D01*
X012582Y010798D01*
X012584Y010812D01*
X012588Y010824D01*
X012595Y010836D01*
X012605Y010846D01*
X012617Y010853D01*
X012629Y010857D01*
X012643Y010859D01*
X012658Y010857D01*
X012672Y010852D01*
X012684Y010845D01*
X012695Y010834D01*
X012702Y010822D01*
X012707Y010808D01*
X012709Y010793D01*
X012709Y010423D01*
X013425Y010920D02*
X013425Y011380D01*
X013655Y011380D01*
X013732Y011304D01*
X013732Y011150D01*
X013655Y011073D01*
X013425Y011073D01*
X013578Y011073D02*
X013732Y010920D01*
X013885Y010997D02*
X013962Y010920D01*
X014116Y010920D01*
X014192Y010997D01*
X014192Y011073D01*
X014116Y011150D01*
X014039Y011150D01*
X014116Y011150D02*
X014192Y011227D01*
X014192Y011304D01*
X014116Y011380D01*
X013962Y011380D01*
X013885Y011304D01*
X013889Y011480D02*
X013735Y011480D01*
X013659Y011557D01*
X013505Y011557D02*
X013505Y011710D01*
X013428Y011787D01*
X013352Y011787D01*
X013198Y011710D01*
X013198Y011940D01*
X013505Y011940D01*
X013659Y011864D02*
X013659Y011787D01*
X013735Y011710D01*
X013889Y011710D01*
X013965Y011633D01*
X013965Y011557D01*
X013889Y011480D01*
X014272Y011480D02*
X014272Y011940D01*
X014119Y011940D02*
X014426Y011940D01*
X013965Y011864D02*
X013889Y011940D01*
X013735Y011940D01*
X013659Y011864D01*
X013505Y011557D02*
X013428Y011480D01*
X013275Y011480D01*
X013198Y011557D01*
X013045Y011710D02*
X012738Y011710D01*
X012584Y011633D02*
X012584Y011557D01*
X012508Y011480D01*
X012277Y011480D01*
X012277Y011940D01*
X012508Y011940D01*
X012584Y011864D01*
X012584Y011787D01*
X012508Y011710D01*
X012277Y011710D01*
X012508Y011710D02*
X012584Y011633D01*
X012124Y011480D02*
X012124Y011940D01*
X011970Y011787D01*
X011817Y011940D01*
X011817Y011480D01*
X011663Y011710D02*
X011357Y011710D01*
X011203Y011557D02*
X011126Y011480D01*
X010973Y011480D01*
X010896Y011557D01*
X011203Y011864D01*
X011203Y011557D01*
X010896Y011557D02*
X010896Y011864D01*
X010973Y011940D01*
X011126Y011940D01*
X011203Y011864D01*
X010743Y011940D02*
X010589Y011864D01*
X010436Y011710D01*
X010666Y011710D01*
X010743Y011633D01*
X010743Y011557D01*
X010666Y011480D01*
X010513Y011480D01*
X010436Y011557D01*
X010436Y011710D01*
X010282Y011480D02*
X009975Y011940D01*
X009822Y011940D02*
X009822Y011557D01*
X009745Y011480D01*
X009592Y011480D01*
X009515Y011557D01*
X009515Y011940D01*
X009975Y011480D02*
X010282Y011940D01*
X011158Y011160D02*
X011311Y011160D01*
X011234Y011160D02*
X011234Y010777D01*
X011158Y010700D01*
X011081Y010700D01*
X011004Y010777D01*
X011465Y010700D02*
X011772Y011007D01*
X011772Y011084D01*
X011695Y011160D01*
X011541Y011160D01*
X011465Y011084D01*
X011465Y010700D02*
X011772Y010700D01*
X011335Y010406D02*
X011335Y010130D01*
X011334Y010118D01*
X011330Y010107D01*
X011323Y010097D01*
X011314Y010089D01*
X011303Y010083D01*
X011291Y010081D01*
X009950Y009992D01*
X009950Y009993D02*
X009932Y009991D01*
X009914Y009986D01*
X009898Y009977D01*
X009883Y009965D01*
X009871Y009951D01*
X009862Y009935D01*
X009856Y009917D01*
X009854Y009899D01*
X009855Y009880D01*
X009860Y009862D01*
X009868Y009846D01*
X009879Y009831D01*
X009893Y009818D01*
X009909Y009809D01*
X009926Y009802D01*
X009945Y009799D01*
X009944Y009799D02*
X011280Y009711D01*
X011294Y009709D01*
X011306Y009703D01*
X011318Y009694D01*
X011326Y009684D01*
X011332Y009671D01*
X011335Y009657D01*
X011334Y009643D01*
X011330Y009630D01*
X011323Y009618D01*
X011313Y009608D01*
X011302Y009600D01*
X011288Y009596D01*
X011274Y009595D01*
X010629Y010450D02*
X010629Y010793D01*
X010628Y010793D02*
X010626Y010808D01*
X010621Y010822D01*
X010614Y010834D01*
X010603Y010845D01*
X010591Y010852D01*
X010577Y010857D01*
X010562Y010859D01*
X010548Y010857D01*
X010536Y010853D01*
X010524Y010846D01*
X010514Y010836D01*
X010507Y010824D01*
X010503Y010812D01*
X010501Y010798D01*
X010502Y010798D02*
X010502Y010732D01*
X010501Y010732D02*
X010499Y010715D01*
X010494Y010698D01*
X010486Y010683D01*
X010475Y010670D01*
X010462Y010659D01*
X010447Y010651D01*
X010430Y010646D01*
X010413Y010644D01*
X010402Y010644D01*
X010385Y010646D01*
X010368Y010651D01*
X010353Y010659D01*
X010340Y010670D01*
X010329Y010683D01*
X010321Y010698D01*
X010316Y010715D01*
X010314Y010732D01*
X010314Y010793D01*
X010312Y010808D01*
X010307Y010822D01*
X010300Y010834D01*
X010289Y010845D01*
X010277Y010852D01*
X010263Y010857D01*
X010248Y010859D01*
X010248Y010859D01*
X010235Y010858D01*
X010222Y010853D01*
X010210Y010846D01*
X010200Y010836D01*
X010193Y010824D01*
X010188Y010811D01*
X010187Y010798D01*
X010187Y010428D01*
X013554Y009610D02*
X013554Y009150D01*
X013554Y009303D02*
X013784Y009303D01*
X013861Y009380D01*
X013861Y009534D01*
X013784Y009610D01*
X013554Y009610D01*
X013708Y009303D02*
X013861Y009150D01*
X014015Y009380D02*
X014322Y009380D01*
X014475Y009430D02*
X014475Y009277D01*
X014551Y009200D01*
X014475Y009430D02*
X014551Y009507D01*
X014628Y009507D01*
X014935Y009200D01*
X014935Y009507D01*
X014935Y009660D02*
X014628Y009967D01*
X014551Y009967D01*
X014475Y009891D01*
X014475Y009737D01*
X014551Y009660D01*
X014245Y009610D02*
X014015Y009380D01*
X014245Y009150D02*
X014245Y009610D01*
X014935Y009660D02*
X014935Y009967D01*
X014862Y010930D02*
X014555Y010930D01*
X014862Y011237D01*
X014862Y011314D01*
X014785Y011390D01*
X014632Y011390D01*
X014555Y011314D01*
X015015Y011314D02*
X015092Y011390D01*
X015246Y011390D01*
X015322Y011314D01*
X015322Y011237D01*
X015015Y010930D01*
X015322Y010930D01*
X015428Y011650D02*
X015428Y012110D01*
X015275Y012110D02*
X015582Y012110D01*
X015735Y012110D02*
X015735Y011650D01*
X016042Y011650D01*
X016196Y011650D02*
X016503Y011650D01*
X016656Y011650D02*
X016656Y012110D01*
X016963Y011650D01*
X016963Y012110D01*
X017117Y012034D02*
X017117Y011957D01*
X017193Y011880D01*
X017347Y011880D01*
X017423Y011803D01*
X017423Y011727D01*
X017347Y011650D01*
X017193Y011650D01*
X017117Y011727D01*
X017117Y012034D02*
X017193Y012110D01*
X017347Y012110D01*
X017423Y012034D01*
X017577Y012034D02*
X017730Y011880D01*
X017730Y011650D01*
X017730Y011880D02*
X017884Y012034D01*
X017884Y012110D01*
X017577Y012110D02*
X017577Y012034D01*
X018498Y012034D02*
X018574Y012110D01*
X018728Y012110D01*
X018805Y012034D01*
X018805Y011957D01*
X018498Y011650D01*
X018805Y011650D01*
X017759Y010820D02*
X017759Y010360D01*
X017912Y010360D02*
X017605Y010360D01*
X017452Y010437D02*
X017375Y010360D01*
X017222Y010360D01*
X017145Y010437D01*
X017222Y010590D02*
X017375Y010590D01*
X017452Y010513D01*
X017452Y010437D01*
X017605Y010667D02*
X017759Y010820D01*
X017452Y010744D02*
X017375Y010820D01*
X017222Y010820D01*
X017145Y010744D01*
X017145Y010667D01*
X017222Y010590D01*
X018304Y010210D02*
X018611Y009750D01*
X018765Y009750D02*
X019072Y009750D01*
X018918Y009750D02*
X018918Y010210D01*
X018765Y010057D01*
X018611Y010210D02*
X018304Y009750D01*
X016196Y011650D02*
X016196Y012110D01*
X016503Y012110D01*
X016349Y011880D02*
X016196Y011880D01*
X016042Y012110D02*
X015735Y012110D01*
X015735Y011880D02*
X015889Y011880D01*
X015258Y013550D02*
X014951Y013550D01*
X014875Y013627D01*
X014875Y013780D01*
X014951Y013857D01*
X014951Y014010D02*
X014875Y014087D01*
X014875Y014241D01*
X014951Y014317D01*
X015028Y014317D01*
X015335Y014010D01*
X015335Y014317D01*
X015675Y014084D02*
X015675Y013777D01*
X015752Y013700D01*
X015905Y013700D01*
X015982Y013777D01*
X016135Y013930D02*
X016442Y013930D01*
X016366Y013700D02*
X016366Y014160D01*
X016135Y013930D01*
X015982Y014084D02*
X015905Y014160D01*
X015752Y014160D01*
X015675Y014084D01*
X015335Y013780D02*
X015258Y013857D01*
X015335Y013780D02*
X015335Y013627D01*
X015258Y013550D01*
X015285Y014979D02*
X015285Y015286D01*
X015285Y015133D02*
X014825Y015133D01*
X014978Y014979D01*
X014901Y015440D02*
X014825Y015516D01*
X014825Y015670D01*
X014901Y015747D01*
X015208Y015440D01*
X015285Y015516D01*
X015285Y015670D01*
X015208Y015747D01*
X014901Y015747D01*
X014901Y015440D02*
X015208Y015440D01*
X015375Y015750D02*
X015682Y016057D01*
X015682Y016134D01*
X015605Y016210D01*
X015452Y016210D01*
X015375Y016134D01*
X015375Y015750D02*
X015682Y015750D01*
X015835Y015750D02*
X016142Y016057D01*
X016142Y016134D01*
X016066Y016210D01*
X015912Y016210D01*
X015835Y016134D01*
X015835Y015750D02*
X016142Y015750D01*
X016625Y015977D02*
X016702Y015900D01*
X016855Y015900D01*
X016932Y015977D01*
X017085Y015977D02*
X017162Y015900D01*
X017316Y015900D01*
X017392Y015977D01*
X017392Y016053D01*
X017316Y016130D01*
X017239Y016130D01*
X017316Y016130D02*
X017392Y016207D01*
X017392Y016284D01*
X017316Y016360D01*
X017162Y016360D01*
X017085Y016284D01*
X016932Y016284D02*
X016855Y016360D01*
X016702Y016360D01*
X016625Y016284D01*
X016625Y015977D01*
X017615Y015857D02*
X017768Y016010D01*
X017768Y015550D01*
X017615Y015550D02*
X017922Y015550D01*
X017955Y016200D02*
X018032Y016277D01*
X018032Y016660D01*
X018185Y016507D02*
X018339Y016660D01*
X018339Y016200D01*
X018492Y016200D02*
X018185Y016200D01*
X017955Y016200D02*
X017802Y016200D01*
X017725Y016277D01*
X017725Y016660D01*
X016142Y017127D02*
X016066Y017050D01*
X015912Y017050D01*
X015835Y017127D01*
X015835Y017203D01*
X015912Y017280D01*
X016066Y017280D01*
X016142Y017203D01*
X016142Y017127D01*
X016066Y017280D02*
X016142Y017357D01*
X016142Y017434D01*
X016066Y017510D01*
X015912Y017510D01*
X015835Y017434D01*
X015835Y017357D01*
X015912Y017280D01*
X015682Y017280D02*
X015605Y017203D01*
X015375Y017203D01*
X015375Y017050D02*
X015375Y017510D01*
X015605Y017510D01*
X015682Y017434D01*
X015682Y017280D01*
X015528Y017203D02*
X015682Y017050D01*
X017078Y014160D02*
X016925Y014007D01*
X017078Y014160D02*
X017078Y013700D01*
X016925Y013700D02*
X017232Y013700D01*
X019631Y017250D02*
X019554Y017327D01*
X019554Y017634D01*
X019631Y017710D01*
X019784Y017710D01*
X019861Y017634D01*
X020015Y017557D02*
X020168Y017710D01*
X020168Y017250D01*
X020015Y017250D02*
X020322Y017250D01*
X019861Y017327D02*
X019784Y017250D01*
X019631Y017250D01*
X020402Y018000D02*
X020325Y018077D01*
X020632Y018384D01*
X020632Y018077D01*
X020555Y018000D01*
X020402Y018000D01*
X020325Y018077D02*
X020325Y018384D01*
X020402Y018460D01*
X020555Y018460D01*
X020632Y018384D01*
X020785Y018077D02*
X020862Y018077D01*
X020862Y018000D01*
X020785Y018000D01*
X020785Y018077D01*
X021016Y018000D02*
X021323Y018000D01*
X021169Y018000D02*
X021169Y018460D01*
X021016Y018307D01*
X022475Y017810D02*
X022475Y017350D01*
X022475Y017503D02*
X022705Y017503D01*
X022782Y017580D01*
X022782Y017734D01*
X022705Y017810D01*
X022475Y017810D01*
X022935Y017810D02*
X023242Y017810D01*
X023242Y017734D01*
X022935Y017427D01*
X022935Y017350D01*
X022782Y017350D02*
X022628Y017503D01*
X023235Y017067D02*
X023235Y016760D01*
X023235Y016607D02*
X023082Y016453D01*
X023082Y016530D02*
X023082Y016300D01*
X022978Y016210D02*
X022978Y015750D01*
X022825Y015750D02*
X023132Y015750D01*
X023285Y015750D02*
X023285Y016210D01*
X023235Y016300D02*
X022775Y016300D01*
X022775Y016530D01*
X022851Y016607D01*
X023005Y016607D01*
X023082Y016530D01*
X022928Y016760D02*
X022775Y016914D01*
X023235Y016914D01*
X022978Y016210D02*
X022825Y016057D01*
X023285Y015903D02*
X023592Y016210D01*
X023362Y015980D02*
X023592Y015750D01*
X024375Y014267D02*
X024375Y013960D01*
X024605Y013960D01*
X024528Y014114D01*
X024528Y014191D01*
X024605Y014267D01*
X024758Y014267D01*
X024835Y014191D01*
X024835Y014037D01*
X024758Y013960D01*
X024758Y013807D02*
X024835Y013730D01*
X024835Y013577D01*
X024758Y013500D01*
X024451Y013500D01*
X024375Y013577D01*
X024375Y013730D01*
X024451Y013807D01*
X024235Y013848D02*
X024235Y013541D01*
X024235Y013694D02*
X023775Y013694D01*
X023928Y013541D01*
X024158Y013387D02*
X024235Y013387D01*
X024235Y013310D01*
X024158Y013310D01*
X024158Y013387D01*
X024158Y013157D02*
X023851Y013157D01*
X024158Y012850D01*
X024235Y012927D01*
X024235Y013080D01*
X024158Y013157D01*
X023851Y013157D02*
X023775Y013080D01*
X023775Y012927D01*
X023851Y012850D01*
X024158Y012850D01*
X025395Y013180D02*
X025395Y013590D01*
X025532Y013454D01*
X025669Y013590D01*
X025669Y013180D01*
X025809Y013248D02*
X025878Y013180D01*
X026015Y013180D01*
X026083Y013248D01*
X026224Y013180D02*
X026497Y013180D01*
X026360Y013180D02*
X026360Y013590D01*
X026224Y013454D01*
X026083Y013522D02*
X026015Y013590D01*
X025878Y013590D01*
X025809Y013522D01*
X025809Y013248D01*
X025915Y012727D02*
X025915Y012420D01*
X025608Y012727D01*
X025531Y012727D01*
X025455Y012650D01*
X025455Y012496D01*
X025531Y012420D01*
X025455Y012266D02*
X025838Y012266D01*
X025915Y012189D01*
X025915Y012036D01*
X025838Y011959D01*
X025455Y011959D01*
X026706Y013180D02*
X026638Y013248D01*
X026706Y013180D02*
X026843Y013180D01*
X026912Y013248D01*
X026912Y013385D01*
X026843Y013454D01*
X026775Y013454D01*
X026638Y013385D01*
X026638Y013590D01*
X026912Y013590D01*
X027052Y013522D02*
X027121Y013590D01*
X027258Y013590D01*
X027326Y013522D01*
X027326Y013454D01*
X027052Y013180D01*
X027326Y013180D01*
X027467Y013248D02*
X027535Y013180D01*
X027672Y013180D01*
X027740Y013248D01*
X027740Y013385D01*
X027672Y013454D01*
X027604Y013454D01*
X027467Y013385D01*
X027467Y013590D01*
X027740Y013590D01*
X028554Y013534D02*
X028554Y013227D01*
X028631Y013150D01*
X028784Y013150D01*
X028861Y013227D01*
X029015Y013227D02*
X029091Y013150D01*
X029245Y013150D01*
X029322Y013227D01*
X029322Y013303D01*
X029245Y013380D01*
X029015Y013380D01*
X029015Y013227D01*
X029015Y013380D02*
X029168Y013534D01*
X029322Y013610D01*
X028861Y013534D02*
X028784Y013610D01*
X028631Y013610D01*
X028554Y013534D01*
X029235Y012997D02*
X029235Y012690D01*
X029235Y012843D02*
X028775Y012843D01*
X028928Y012690D01*
X029158Y012536D02*
X029235Y012536D01*
X029235Y012459D01*
X029158Y012459D01*
X029158Y012536D01*
X029158Y012306D02*
X028851Y012306D01*
X029158Y011999D01*
X029235Y012076D01*
X029235Y012229D01*
X029158Y012306D01*
X028851Y012306D02*
X028775Y012229D01*
X028775Y012076D01*
X028851Y011999D01*
X029158Y011999D01*
X029128Y011810D02*
X029128Y011350D01*
X028975Y011350D02*
X029282Y011350D01*
X028975Y011657D02*
X029128Y011810D01*
X028492Y012134D02*
X028185Y011827D01*
X028185Y011750D01*
X028032Y011827D02*
X027955Y011750D01*
X027802Y011750D01*
X027725Y011827D01*
X027725Y012134D01*
X027802Y012210D01*
X027955Y012210D01*
X028032Y012134D01*
X028185Y012210D02*
X028492Y012210D01*
X028492Y012134D01*
X028445Y010510D02*
X028292Y010510D01*
X028215Y010434D01*
X028215Y010127D01*
X028292Y010050D01*
X028445Y010050D01*
X028522Y010127D01*
X028675Y010127D02*
X028675Y010203D01*
X028752Y010280D01*
X028906Y010280D01*
X028982Y010203D01*
X028982Y010127D01*
X028906Y010050D01*
X028752Y010050D01*
X028675Y010127D01*
X028752Y010280D02*
X028675Y010357D01*
X028675Y010434D01*
X028752Y010510D01*
X028906Y010510D01*
X028982Y010434D01*
X028982Y010357D01*
X028906Y010280D01*
X028522Y010434D02*
X028445Y010510D01*
X028245Y009010D02*
X028322Y008934D01*
X028015Y008627D01*
X028092Y008550D01*
X028245Y008550D01*
X028322Y008627D01*
X028322Y008934D01*
X028245Y009010D02*
X028092Y009010D01*
X028015Y008934D01*
X028015Y008627D01*
X027886Y008460D02*
X027886Y008000D01*
X027886Y008153D02*
X028193Y008460D01*
X028475Y008550D02*
X028475Y008627D01*
X028552Y008627D01*
X028552Y008550D01*
X028475Y008550D01*
X028706Y008550D02*
X029013Y008550D01*
X028859Y008550D02*
X028859Y009010D01*
X028706Y008857D01*
X027963Y008230D02*
X028193Y008000D01*
X027733Y008077D02*
X027733Y008384D01*
X027656Y008460D01*
X027503Y008460D01*
X027426Y008384D01*
X027426Y008307D01*
X027503Y008230D01*
X027733Y008230D01*
X027733Y008077D02*
X027656Y008000D01*
X027503Y008000D01*
X027426Y008077D01*
X027273Y008077D02*
X027273Y008384D01*
X027196Y008460D01*
X027042Y008460D01*
X026966Y008384D01*
X026966Y008307D01*
X027042Y008230D01*
X027273Y008230D01*
X027273Y008077D02*
X027196Y008000D01*
X027042Y008000D01*
X026966Y008077D01*
X026812Y008077D02*
X026812Y008000D01*
X026735Y008000D01*
X026735Y008077D01*
X026812Y008077D01*
X026582Y008230D02*
X026275Y008230D01*
X026505Y008460D01*
X026505Y008000D01*
X026475Y008650D02*
X026475Y009110D01*
X026705Y009110D01*
X026782Y009034D01*
X026782Y008880D01*
X026705Y008803D01*
X026475Y008803D01*
X026628Y008803D02*
X026782Y008650D01*
X026935Y008727D02*
X027012Y008650D01*
X027166Y008650D01*
X027242Y008727D01*
X027242Y008803D01*
X027166Y008880D01*
X026935Y008880D01*
X026935Y008727D01*
X026935Y008880D02*
X027089Y009034D01*
X027242Y009110D01*
X024172Y010200D02*
X023941Y010430D01*
X023865Y010353D02*
X024172Y010660D01*
X023865Y010660D02*
X023865Y010200D01*
X023711Y010277D02*
X023634Y010200D01*
X023481Y010200D01*
X023404Y010277D01*
X023251Y010277D02*
X023174Y010200D01*
X023021Y010200D01*
X022944Y010277D01*
X022790Y010277D02*
X022790Y010200D01*
X022714Y010200D01*
X022714Y010277D01*
X022790Y010277D01*
X022560Y010430D02*
X022253Y010430D01*
X022483Y010660D01*
X022483Y010200D01*
X022944Y010507D02*
X023021Y010430D01*
X023251Y010430D01*
X023251Y010277D02*
X023251Y010584D01*
X023174Y010660D01*
X023021Y010660D01*
X022944Y010584D01*
X022944Y010507D01*
X023154Y010800D02*
X023154Y011260D01*
X023384Y011260D01*
X023461Y011184D01*
X023461Y011030D01*
X023384Y010953D01*
X023154Y010953D01*
X023308Y010953D02*
X023461Y010800D01*
X023481Y010660D02*
X023404Y010584D01*
X023404Y010507D01*
X023481Y010430D01*
X023711Y010430D01*
X023711Y010277D02*
X023711Y010584D01*
X023634Y010660D01*
X023481Y010660D01*
X023691Y010800D02*
X023615Y010877D01*
X023691Y010800D02*
X023845Y010800D01*
X023922Y010877D01*
X023922Y011030D01*
X023845Y011107D01*
X023768Y011107D01*
X023615Y011030D01*
X023615Y011260D01*
X023922Y011260D01*
X025395Y014500D02*
X025702Y014500D01*
X025855Y014500D02*
X026162Y014500D01*
X026316Y014500D02*
X026546Y014500D01*
X026623Y014577D01*
X026623Y014884D01*
X026546Y014960D01*
X026316Y014960D01*
X026316Y014500D01*
X026009Y014730D02*
X025855Y014730D01*
X025855Y014960D02*
X025855Y014500D01*
X025395Y014500D02*
X025395Y014960D01*
X025855Y014960D02*
X026162Y014960D01*
X026776Y014807D02*
X026930Y014960D01*
X026930Y014500D01*
X027083Y014500D02*
X026776Y014500D01*
X027295Y015050D02*
X027295Y015510D01*
X027525Y015510D01*
X027602Y015434D01*
X027602Y015280D01*
X027525Y015203D01*
X027295Y015203D01*
X027448Y015203D02*
X027602Y015050D01*
X027755Y015050D02*
X028062Y015357D01*
X028062Y015434D01*
X027986Y015510D01*
X027832Y015510D01*
X027755Y015434D01*
X027755Y015050D02*
X028062Y015050D01*
X028045Y014910D02*
X028045Y014450D01*
X027892Y014450D02*
X027585Y014450D01*
X027738Y014450D02*
X027738Y014910D01*
X027585Y014757D01*
X028045Y014603D02*
X028352Y014910D01*
X028122Y014680D02*
X028352Y014450D01*
X024672Y017800D02*
X024441Y018030D01*
X024365Y017953D02*
X024672Y018260D01*
X024365Y018260D02*
X024365Y017800D01*
X024211Y017877D02*
X024211Y018184D01*
X023904Y017877D01*
X023981Y017800D01*
X024134Y017800D01*
X024211Y017877D01*
X024211Y018184D02*
X024134Y018260D01*
X023981Y018260D01*
X023904Y018184D01*
X023904Y017877D01*
X023751Y017800D02*
X023444Y017800D01*
X023597Y017800D02*
X023597Y018260D01*
X023444Y018107D01*
X021146Y019600D02*
X021146Y019830D01*
X021070Y019907D01*
X020763Y019907D01*
X020686Y019830D01*
X020686Y019600D01*
X021146Y019600D01*
X021146Y020060D02*
X020839Y020367D01*
X020763Y020367D01*
X020686Y020291D01*
X020686Y020137D01*
X020763Y020060D01*
X021146Y020060D02*
X021146Y020367D01*
X021070Y020521D02*
X021146Y020598D01*
X021146Y020751D01*
X021070Y020828D01*
X020916Y020828D01*
X020839Y020751D01*
X020839Y020674D01*
X020916Y020521D01*
X020686Y020521D01*
X020686Y020828D01*
X020839Y020981D02*
X020686Y021135D01*
X021146Y021135D01*
X021146Y021288D02*
X021146Y020981D01*
X021070Y021442D02*
X020763Y021442D01*
X020686Y021518D01*
X020686Y021672D01*
X020763Y021748D01*
X021070Y021442D01*
X021146Y021518D01*
X021146Y021672D01*
X021070Y021748D01*
X020763Y021748D01*
X012207Y021672D02*
X012207Y021518D01*
X012130Y021442D01*
X011823Y021748D01*
X012130Y021748D01*
X012207Y021672D01*
X012130Y021442D02*
X011823Y021442D01*
X011747Y021518D01*
X011747Y021672D01*
X011823Y021748D01*
X012207Y021288D02*
X012207Y020981D01*
X012207Y021135D02*
X011747Y021135D01*
X011900Y020981D01*
X011977Y020828D02*
X011900Y020751D01*
X011900Y020674D01*
X011977Y020521D01*
X011747Y020521D01*
X011747Y020828D01*
X011977Y020828D02*
X012130Y020828D01*
X012207Y020751D01*
X012207Y020598D01*
X012130Y020521D01*
X012207Y020367D02*
X012207Y020060D01*
X011900Y020367D01*
X011823Y020367D01*
X011747Y020291D01*
X011747Y020137D01*
X011823Y020060D01*
X011823Y019907D02*
X011747Y019830D01*
X011747Y019600D01*
X012207Y019600D01*
X012207Y019830D01*
X012130Y019907D01*
X011823Y019907D01*
X010258Y018710D02*
X010105Y018557D01*
X010258Y018710D02*
X010258Y018250D01*
X010105Y018250D02*
X010412Y018250D01*
X009874Y018327D02*
X009874Y018710D01*
X009798Y018710D02*
X009951Y018710D01*
X009874Y018327D02*
X009798Y018250D01*
X009721Y018250D01*
X009644Y018327D01*
X019942Y007720D02*
X019865Y007644D01*
X019865Y007337D01*
X019942Y007260D01*
X020095Y007260D01*
X020172Y007337D01*
X020325Y007337D02*
X020402Y007260D01*
X020556Y007260D01*
X020632Y007337D01*
X020632Y007644D01*
X020556Y007720D01*
X020402Y007720D01*
X020325Y007644D01*
X020325Y007567D01*
X020402Y007490D01*
X020632Y007490D01*
X020416Y007140D02*
X020492Y007064D01*
X020492Y006987D01*
X020416Y006910D01*
X020262Y006910D01*
X020185Y006987D01*
X020185Y007064D01*
X020262Y007140D01*
X020416Y007140D01*
X020416Y006910D02*
X020492Y006833D01*
X020492Y006757D01*
X020416Y006680D01*
X020262Y006680D01*
X020185Y006757D01*
X020185Y006833D01*
X020262Y006910D01*
X020032Y006680D02*
X019725Y006680D01*
X019878Y006680D02*
X019878Y007140D01*
X019725Y006987D01*
X019942Y007720D02*
X020095Y007720D01*
X020172Y007644D01*
X020646Y006987D02*
X020876Y006987D01*
X020953Y006910D01*
X020953Y006757D01*
X020876Y006680D01*
X020646Y006680D01*
X020646Y006527D02*
X020646Y006987D01*
X021384Y006967D02*
X021537Y007120D01*
X021537Y006660D01*
X021384Y006660D02*
X021691Y006660D01*
X021844Y006737D02*
X021921Y006660D01*
X022074Y006660D01*
X022151Y006737D01*
X022151Y006813D01*
X022074Y006890D01*
X021921Y006890D01*
X021844Y006967D01*
X021844Y007044D01*
X021921Y007120D01*
X022074Y007120D01*
X022151Y007044D01*
X022151Y006967D01*
X022074Y006890D01*
X021921Y006890D02*
X021844Y006813D01*
X021844Y006737D01*
X021884Y007200D02*
X022191Y007200D01*
X022038Y007200D02*
X022038Y007660D01*
X021884Y007507D01*
X021731Y007584D02*
X021654Y007660D01*
X021501Y007660D01*
X021424Y007584D01*
X021424Y007277D01*
X021501Y007200D01*
X021654Y007200D01*
X021731Y007277D01*
X022345Y007277D02*
X022421Y007200D01*
X022575Y007200D01*
X022652Y007277D01*
X022652Y007584D01*
X022345Y007277D01*
X022345Y007584D01*
X022421Y007660D01*
X022575Y007660D01*
X022652Y007584D01*
X022535Y006967D02*
X022612Y006890D01*
X022612Y006737D01*
X022535Y006660D01*
X022305Y006660D01*
X022305Y006507D02*
X022305Y006967D01*
X022535Y006967D01*
X021035Y005922D02*
X021035Y005768D01*
X020958Y005692D01*
X020651Y005998D01*
X020958Y005998D01*
X021035Y005922D01*
X020958Y005692D02*
X020651Y005692D01*
X020575Y005768D01*
X020575Y005922D01*
X020651Y005998D01*
X021035Y005538D02*
X021035Y005231D01*
X021035Y005385D02*
X020575Y005385D01*
X020728Y005231D01*
X020805Y005078D02*
X020958Y005078D01*
X021035Y005001D01*
X021035Y004848D01*
X020958Y004771D01*
X020805Y004771D02*
X020728Y004924D01*
X020728Y005001D01*
X020805Y005078D01*
X020575Y005078D02*
X020575Y004771D01*
X020805Y004771D01*
X020728Y004617D02*
X020651Y004617D01*
X020575Y004541D01*
X020575Y004387D01*
X020651Y004310D01*
X020651Y004157D02*
X020575Y004080D01*
X020575Y003850D01*
X021035Y003850D01*
X021035Y004080D01*
X020958Y004157D01*
X020651Y004157D01*
X021035Y004310D02*
X020728Y004617D01*
X021035Y004617D02*
X021035Y004310D01*
X029735Y019150D02*
X029795Y019150D01*
X029855Y019210D01*
X029855Y019510D01*
X029795Y019510D02*
X029915Y019510D01*
X030043Y019450D02*
X030103Y019510D01*
X030223Y019510D01*
X030284Y019450D01*
X030284Y019390D01*
X030223Y019330D01*
X030284Y019270D01*
X030284Y019210D01*
X030223Y019150D01*
X030103Y019150D01*
X030043Y019210D01*
X030163Y019330D02*
X030223Y019330D01*
X029735Y019150D02*
X029675Y019210D01*
D14*
X021612Y009709D03*
D15*
X026284Y013744D03*
X026284Y014216D03*
D16*
X026284Y013980D03*
D17*
X028255Y015317D02*
X030505Y015317D01*
X028255Y015317D02*
X028255Y018443D01*
X030505Y018443D01*
X019119Y015455D02*
X019121Y015475D01*
X019126Y015495D01*
X019136Y015513D01*
X019148Y015530D01*
X019163Y015544D01*
X019181Y015554D01*
X019200Y015562D01*
X019220Y015566D01*
X019240Y015566D01*
X019260Y015562D01*
X019279Y015554D01*
X019297Y015544D01*
X019312Y015530D01*
X019324Y015513D01*
X019334Y015495D01*
X019339Y015475D01*
X019341Y015455D01*
X019339Y015435D01*
X019334Y015415D01*
X019324Y015397D01*
X019312Y015380D01*
X019297Y015366D01*
X019279Y015356D01*
X019260Y015348D01*
X019240Y015344D01*
X019220Y015344D01*
X019200Y015348D01*
X019181Y015356D01*
X019163Y015366D01*
X019148Y015380D01*
X019136Y015397D01*
X019126Y015415D01*
X019121Y015435D01*
X019119Y015455D01*
D18*
X014575Y018130D02*
X014575Y012230D01*
X009125Y012230D01*
X009125Y018130D01*
X014575Y018130D01*
X022518Y010005D02*
X022668Y009855D01*
X022668Y009555D01*
X022828Y009555D02*
X023053Y009555D01*
X023128Y009630D01*
X023128Y009930D01*
X023053Y010005D01*
X022828Y010005D01*
X022828Y009555D01*
X022668Y009780D02*
X022368Y009780D01*
X022368Y009855D02*
X022518Y010005D01*
X022368Y009855D02*
X022368Y009555D01*
X023288Y009630D02*
X023363Y009555D01*
X023514Y009555D01*
X023589Y009630D01*
X023589Y009780D01*
X023514Y009855D01*
X023439Y009855D01*
X023288Y009780D01*
X023288Y010005D01*
X023589Y010005D01*
X023749Y009930D02*
X023824Y010005D01*
X023974Y010005D01*
X024049Y009930D01*
X024049Y009855D01*
X023974Y009780D01*
X024049Y009705D01*
X024049Y009630D01*
X023974Y009555D01*
X023824Y009555D01*
X023749Y009630D01*
X023899Y009780D02*
X023974Y009780D01*
X024209Y009855D02*
X024359Y010005D01*
X024359Y009555D01*
X024209Y009555D02*
X024509Y009555D01*
X024670Y009630D02*
X024745Y009555D01*
X024895Y009555D01*
X024970Y009630D01*
X024970Y009780D01*
X024895Y009855D01*
X024820Y009855D01*
X024670Y009780D01*
X024670Y010005D01*
X024970Y010005D01*
X026309Y009705D02*
X026309Y009330D01*
X026384Y009255D01*
X026534Y009255D01*
X026609Y009330D01*
X026609Y009705D01*
X026770Y009630D02*
X026845Y009705D01*
X026995Y009705D01*
X027070Y009630D01*
X027070Y009555D01*
X026995Y009480D01*
X027070Y009405D01*
X027070Y009330D01*
X026995Y009255D01*
X026845Y009255D01*
X026770Y009330D01*
X026920Y009480D02*
X026995Y009480D01*
X030660Y011075D02*
X030660Y011225D01*
X030660Y011150D02*
X031035Y011150D01*
X031110Y011075D01*
X031110Y011000D01*
X031035Y010925D01*
X031110Y011385D02*
X030660Y011385D01*
X030660Y011611D01*
X030735Y011686D01*
X030885Y011686D01*
X030960Y011611D01*
X030960Y011385D01*
X030960Y011846D02*
X030885Y011921D01*
X030885Y012071D01*
X030960Y012146D01*
X031035Y012146D01*
X031110Y012071D01*
X031110Y011921D01*
X031035Y011846D01*
X030960Y011846D01*
X030885Y011921D02*
X030810Y011846D01*
X030735Y011846D01*
X030660Y011921D01*
X030660Y012071D01*
X030735Y012146D01*
X030810Y012146D01*
X030885Y012071D01*
X030446Y005075D02*
X030221Y004850D01*
X030521Y004850D01*
X030446Y004625D02*
X030446Y005075D01*
X030061Y005000D02*
X030061Y004850D01*
X029986Y004775D01*
X029760Y004775D01*
X029760Y004625D02*
X029760Y005075D01*
X029986Y005075D01*
X030061Y005000D01*
X029600Y005075D02*
X029450Y005075D01*
X029525Y005075D02*
X029525Y004700D01*
X029450Y004625D01*
X029375Y004625D01*
X029300Y004700D01*
D19*
X029340Y018595D02*
X029340Y018885D01*
X029243Y018788D01*
X029142Y018740D02*
X028997Y018740D01*
X028949Y018788D01*
X028949Y018837D01*
X028997Y018885D01*
X029094Y018885D01*
X029142Y018837D01*
X029142Y018643D01*
X029094Y018595D01*
X028997Y018595D01*
X028949Y018643D01*
X028847Y018643D02*
X028799Y018595D01*
X028702Y018595D01*
X028654Y018643D01*
X028654Y018740D02*
X028751Y018788D01*
X028799Y018788D01*
X028847Y018740D01*
X028847Y018643D01*
X028654Y018740D02*
X028654Y018885D01*
X028847Y018885D01*
X028456Y018885D02*
X028456Y018595D01*
X028359Y018595D02*
X028553Y018595D01*
X028359Y018788D02*
X028456Y018885D01*
X028258Y018837D02*
X028065Y018643D01*
X028113Y018595D01*
X028210Y018595D01*
X028258Y018643D01*
X028258Y018837D01*
X028210Y018885D01*
X028113Y018885D01*
X028065Y018837D01*
X028065Y018643D01*
X027963Y018643D02*
X027915Y018595D01*
X027818Y018595D01*
X027770Y018643D01*
X027963Y018837D01*
X027963Y018643D01*
X027770Y018643D02*
X027770Y018837D01*
X027818Y018885D01*
X027915Y018885D01*
X027963Y018837D01*
X029243Y018595D02*
X029437Y018595D01*
X029538Y018595D02*
X029731Y018788D01*
X029731Y018837D01*
X029683Y018885D01*
X029586Y018885D01*
X029538Y018837D01*
X029538Y018595D02*
X029731Y018595D01*
X029833Y018643D02*
X030026Y018837D01*
X030026Y018643D01*
X029978Y018595D01*
X029881Y018595D01*
X029833Y018643D01*
X029833Y018837D01*
X029881Y018885D01*
X029978Y018885D01*
X030026Y018837D01*
X030127Y018837D02*
X030176Y018885D01*
X030272Y018885D01*
X030321Y018837D01*
X030321Y018788D01*
X030127Y018595D01*
X030321Y018595D01*
X030422Y018643D02*
X030470Y018595D01*
X030567Y018595D01*
X030615Y018643D01*
X030615Y018740D01*
X030567Y018788D01*
X030519Y018788D01*
X030422Y018740D01*
X030422Y018885D01*
X030615Y018885D01*
D20*
X023790Y023740D03*
X023790Y023750D03*
X023790Y023760D03*
X023790Y023770D03*
X023790Y023780D03*
X023790Y023790D03*
X023790Y023800D03*
X023790Y023810D03*
X023790Y023820D03*
X023790Y023830D03*
X023790Y023840D03*
X023790Y023850D03*
X023790Y023860D03*
X023790Y023870D03*
X023790Y023880D03*
X023790Y023890D03*
X023790Y023900D03*
X023790Y023910D03*
X023790Y023920D03*
X023790Y023930D03*
X023790Y023940D03*
X023790Y023950D03*
X023790Y023960D03*
X023790Y023970D03*
X023790Y023980D03*
X023790Y023990D03*
X023790Y024000D03*
X023790Y024010D03*
X023790Y024020D03*
X023790Y024030D03*
X023790Y024040D03*
X023790Y024050D03*
X023790Y024060D03*
X023790Y024070D03*
X023790Y024080D03*
X023790Y024090D03*
X023790Y024100D03*
X023790Y024110D03*
X023790Y024120D03*
X023790Y024130D03*
X023790Y024140D03*
X023790Y024150D03*
X023790Y024160D03*
X023790Y024170D03*
X023790Y024180D03*
X023790Y024190D03*
X023790Y024200D03*
X023790Y024210D03*
X023790Y024220D03*
X023790Y024230D03*
X023790Y024240D03*
X023790Y024250D03*
X023790Y024260D03*
X023790Y024270D03*
X023790Y024280D03*
X023790Y024290D03*
X023790Y024300D03*
X023790Y024310D03*
X023790Y024320D03*
X023790Y024330D03*
X023790Y024340D03*
X023790Y024350D03*
X023790Y024360D03*
X023790Y024370D03*
X023790Y024380D03*
X023790Y024390D03*
X023790Y024400D03*
X023790Y024410D03*
X023790Y024420D03*
X023790Y024430D03*
X023790Y024440D03*
X023790Y024450D03*
X023790Y024460D03*
X023790Y024470D03*
X023790Y024480D03*
X023790Y024490D03*
X023790Y024500D03*
X023790Y024510D03*
X023790Y024520D03*
X023790Y024530D03*
X023790Y024540D03*
X023790Y024550D03*
X023790Y024560D03*
X023790Y024570D03*
X023790Y024580D03*
X023790Y024590D03*
X023790Y024600D03*
X023790Y024610D03*
X023790Y024620D03*
X023790Y024630D03*
X023790Y024640D03*
X023790Y024650D03*
X023790Y024660D03*
X023790Y024670D03*
X023790Y024680D03*
X023790Y024690D03*
X023790Y024700D03*
X023790Y024710D03*
X023790Y024720D03*
X023790Y024730D03*
X023790Y024740D03*
X023790Y024750D03*
X023790Y024760D03*
X023790Y024770D03*
X023790Y024780D03*
X023790Y024790D03*
X023790Y024800D03*
X023790Y024810D03*
X023790Y024820D03*
X023790Y024830D03*
X023790Y024840D03*
X023790Y024850D03*
X023790Y024860D03*
X023790Y024870D03*
X023790Y024880D03*
X023790Y024890D03*
X023790Y024900D03*
X023790Y024910D03*
X023790Y024920D03*
X023790Y024930D03*
X023790Y024940D03*
X023790Y024950D03*
X023790Y024960D03*
X023790Y024970D03*
X023790Y024980D03*
X023790Y024990D03*
X023790Y025000D03*
X023790Y025010D03*
X023790Y025020D03*
X023790Y025030D03*
X023790Y025040D03*
X023790Y025050D03*
X023790Y025060D03*
X023790Y025070D03*
X023790Y025080D03*
X023790Y025090D03*
X023790Y025100D03*
X023790Y025110D03*
X023790Y025120D03*
X023790Y025130D03*
X023790Y025140D03*
X023790Y025150D03*
X023790Y025160D03*
D21*
X024500Y025020D03*
X025110Y025950D03*
X026620Y025190D03*
X028150Y025020D03*
X024350Y023810D03*
D22*
X024370Y023820D03*
X025020Y024050D03*
X025420Y024100D03*
X025420Y024110D03*
X025420Y024120D03*
X025430Y024090D03*
X025840Y024050D03*
X026740Y024330D03*
X026740Y024340D03*
X026740Y024510D03*
X026740Y024520D03*
X026750Y024530D03*
X026750Y024540D03*
X026750Y024550D03*
X026760Y024560D03*
X026760Y024570D03*
X027250Y024580D03*
X027260Y024570D03*
X027270Y024550D03*
X027280Y024520D03*
X027280Y024500D03*
X027270Y024260D03*
X027700Y024050D03*
X028680Y024050D03*
X029090Y024100D03*
X029090Y024110D03*
X029090Y024120D03*
X028150Y024990D03*
X026780Y025170D03*
X024930Y024580D03*
X024930Y024570D03*
X024500Y024990D03*
X023120Y024990D03*
X023120Y024780D03*
X023120Y024770D03*
X023120Y024760D03*
X023120Y024750D03*
X023120Y024740D03*
X023120Y024730D03*
X023120Y024720D03*
X023120Y024710D03*
X023120Y024700D03*
X023120Y024690D03*
X023120Y024680D03*
X023120Y024670D03*
X023120Y024660D03*
X023120Y024650D03*
X023120Y024640D03*
X023120Y024630D03*
X023120Y024620D03*
X023120Y024610D03*
X023120Y024600D03*
X023120Y024590D03*
X023120Y024580D03*
X023120Y024570D03*
X023120Y024560D03*
X023120Y024550D03*
X023120Y024540D03*
X023120Y024530D03*
X023120Y024520D03*
X023120Y024510D03*
X023120Y024500D03*
X023120Y024490D03*
X023120Y024480D03*
X023120Y024470D03*
X023120Y024460D03*
X023120Y024450D03*
X023120Y024440D03*
X023120Y024430D03*
X023120Y024420D03*
X023120Y024410D03*
X023120Y024400D03*
X023120Y024390D03*
X023120Y024380D03*
X023120Y024370D03*
X023120Y024360D03*
X023120Y024350D03*
X023120Y024340D03*
X023120Y024330D03*
X023120Y024320D03*
X023120Y024310D03*
X023120Y024300D03*
X023120Y024290D03*
X023120Y024280D03*
X023120Y024270D03*
X023120Y024260D03*
X023120Y024250D03*
X023120Y024240D03*
X023120Y024230D03*
X023120Y024220D03*
X023120Y024210D03*
X023120Y024200D03*
X023120Y024190D03*
X023120Y024180D03*
X023120Y024170D03*
X023120Y024160D03*
X023120Y024150D03*
X023120Y024140D03*
X023120Y024130D03*
X023120Y024120D03*
X023120Y024110D03*
X023120Y024100D03*
X023120Y024090D03*
X023120Y024080D03*
X023120Y024070D03*
X023120Y024060D03*
X023120Y024050D03*
X022710Y024050D03*
X022710Y024060D03*
X022710Y024070D03*
X022710Y024080D03*
X022710Y024090D03*
X022710Y024100D03*
X022710Y024110D03*
X022710Y024120D03*
X022710Y024130D03*
X022710Y024140D03*
X022710Y024150D03*
X022710Y024160D03*
X022710Y024170D03*
X022710Y024180D03*
X022710Y024190D03*
X022710Y024200D03*
X022710Y024210D03*
X022710Y024220D03*
X022710Y024230D03*
X022710Y024240D03*
X022710Y024250D03*
X022710Y024260D03*
X022710Y024270D03*
X022710Y024280D03*
X022710Y024290D03*
X022710Y024300D03*
X022710Y024310D03*
X022710Y024320D03*
X022710Y024330D03*
X022710Y024340D03*
X022710Y024350D03*
X022710Y024360D03*
X022710Y024370D03*
X022710Y024380D03*
X022710Y024390D03*
X022710Y024400D03*
X022710Y024410D03*
X022710Y024420D03*
X022710Y024430D03*
X022710Y024440D03*
X022710Y024450D03*
X022710Y024460D03*
X022710Y024470D03*
X022710Y024480D03*
X022710Y024490D03*
X022710Y024500D03*
X022710Y024510D03*
X022240Y024480D03*
X022240Y024470D03*
X022240Y024460D03*
X022240Y024450D03*
X022240Y024440D03*
X022240Y024430D03*
X022240Y024420D03*
X022240Y024410D03*
X022240Y024400D03*
X022240Y024390D03*
X022240Y024380D03*
X022240Y024370D03*
X022240Y024360D03*
X022240Y024350D03*
X022240Y024340D03*
X022240Y024330D03*
X022240Y024320D03*
X022240Y024310D03*
X022240Y024300D03*
X022240Y024290D03*
X022240Y024280D03*
X022240Y024270D03*
X022240Y024260D03*
X022240Y024250D03*
X022240Y024240D03*
X022240Y024230D03*
X022240Y024220D03*
X022240Y024210D03*
X022240Y024200D03*
X022240Y024190D03*
X022240Y024180D03*
X022240Y024170D03*
X022240Y024160D03*
X022240Y024150D03*
X022240Y024140D03*
X022240Y024130D03*
X022240Y024120D03*
X022240Y024110D03*
X022240Y024100D03*
X022240Y024090D03*
X022240Y024080D03*
X022240Y024070D03*
X022240Y024060D03*
X022240Y024050D03*
X021770Y024050D03*
X021770Y024060D03*
X021770Y024070D03*
X021770Y024080D03*
X021770Y024090D03*
X021770Y024100D03*
X021770Y024110D03*
X021770Y024120D03*
X021770Y024130D03*
X021770Y024140D03*
X021770Y024150D03*
X021770Y024160D03*
X021770Y024170D03*
X021770Y024180D03*
X021770Y024190D03*
X021770Y024200D03*
X021770Y024210D03*
X021770Y024220D03*
X021770Y024230D03*
X021770Y024240D03*
X021770Y024250D03*
X021770Y024260D03*
X021770Y024270D03*
X021770Y024280D03*
X021770Y024290D03*
X021770Y024300D03*
X021770Y024310D03*
X021770Y024320D03*
X021770Y024330D03*
X021770Y024340D03*
X021770Y024350D03*
X021770Y024360D03*
X021770Y024370D03*
X021770Y024380D03*
X021770Y024390D03*
X021770Y024400D03*
X021770Y024410D03*
X021770Y024420D03*
X021770Y024430D03*
X021770Y024440D03*
X021770Y024450D03*
X021770Y024460D03*
X021770Y024470D03*
X021770Y024480D03*
X021770Y024490D03*
X021360Y024490D03*
X021360Y024500D03*
X021360Y024480D03*
X021360Y024470D03*
X021360Y024460D03*
X021360Y024450D03*
X021360Y024440D03*
X021360Y024430D03*
X021360Y024420D03*
X021360Y024410D03*
X021360Y024400D03*
X021360Y024390D03*
X021360Y024380D03*
X021360Y024370D03*
X021360Y024360D03*
X021360Y024350D03*
X021360Y024340D03*
X021360Y024330D03*
X021360Y024320D03*
X021360Y024310D03*
X021360Y024300D03*
X021360Y024290D03*
X021360Y024280D03*
X021360Y024270D03*
X021360Y024260D03*
X021360Y024250D03*
X021360Y024240D03*
X021360Y024230D03*
X021360Y024220D03*
X021360Y024210D03*
X021360Y024200D03*
X021360Y024190D03*
X021360Y024180D03*
X021360Y024170D03*
X021360Y024160D03*
X021360Y024150D03*
X021360Y024140D03*
X021360Y024130D03*
X021360Y024120D03*
X021360Y024110D03*
X021360Y024100D03*
X021360Y024090D03*
X021360Y024080D03*
X021360Y024070D03*
X021360Y024060D03*
X021360Y024050D03*
X020870Y024050D03*
X020870Y024060D03*
X020870Y024070D03*
X020870Y024080D03*
X020870Y024090D03*
X020870Y024100D03*
X020870Y024110D03*
X020870Y024120D03*
X020870Y024130D03*
X020870Y024140D03*
X020870Y024150D03*
X020870Y024160D03*
X020870Y024170D03*
X020870Y024180D03*
X020870Y024190D03*
X020870Y024200D03*
X020870Y024210D03*
X020870Y024220D03*
X020870Y024230D03*
X020870Y024240D03*
X020870Y024250D03*
X020870Y024260D03*
X020870Y024270D03*
X020870Y024280D03*
X020870Y024290D03*
X020870Y024300D03*
X020870Y024310D03*
X020870Y024320D03*
X020870Y024330D03*
X020870Y024340D03*
X020870Y024350D03*
X020870Y024360D03*
X020870Y024370D03*
X020870Y024380D03*
X020870Y024390D03*
X020870Y024400D03*
X020870Y024410D03*
X020870Y024420D03*
X020870Y024430D03*
X020870Y024440D03*
X020870Y024720D03*
X020870Y024730D03*
X020870Y024740D03*
X020870Y024750D03*
X020870Y024760D03*
X020870Y024770D03*
X020870Y024780D03*
X020870Y024790D03*
X020870Y024800D03*
X020870Y024810D03*
X020870Y024820D03*
X020870Y024830D03*
X020870Y024840D03*
X020870Y024850D03*
X020870Y024860D03*
X020870Y024870D03*
X020870Y024880D03*
X020870Y024890D03*
X020870Y024900D03*
X020870Y024910D03*
X020870Y024920D03*
X020870Y024930D03*
X020870Y024940D03*
X020870Y024950D03*
X020870Y024960D03*
X020870Y024970D03*
X020870Y024980D03*
X020870Y024990D03*
X020870Y025000D03*
X020870Y025010D03*
X020870Y025020D03*
X020870Y025030D03*
X020870Y025040D03*
X020870Y025050D03*
X020870Y025060D03*
X019980Y025060D03*
X019980Y025050D03*
X019980Y025040D03*
X019980Y025030D03*
X019980Y025020D03*
X019980Y025010D03*
X019980Y025000D03*
X019980Y024990D03*
X019980Y024980D03*
X019980Y024970D03*
X019980Y024960D03*
X019980Y024950D03*
X019980Y024940D03*
X019980Y024930D03*
X019980Y024920D03*
X019980Y024910D03*
X019980Y024900D03*
X019980Y024890D03*
X019980Y024880D03*
X019980Y024870D03*
X019980Y024860D03*
X019980Y024850D03*
X019980Y024840D03*
X019980Y024830D03*
X019980Y024820D03*
X019980Y024810D03*
X019980Y024800D03*
X019980Y024790D03*
X019980Y024780D03*
X019980Y024770D03*
X019980Y024760D03*
X019980Y024750D03*
X019980Y024740D03*
X019980Y024730D03*
X019980Y024720D03*
X019980Y024490D03*
X019980Y024480D03*
X019980Y024470D03*
X019980Y024460D03*
X019980Y024450D03*
X019980Y024440D03*
X019980Y024430D03*
X019980Y024420D03*
X019980Y024410D03*
X019980Y024400D03*
X019980Y024390D03*
X019980Y024380D03*
X019980Y024370D03*
X019980Y024360D03*
X019980Y024350D03*
X019980Y024340D03*
X019980Y024330D03*
X019980Y024320D03*
X019980Y024310D03*
X019980Y024300D03*
X019980Y024290D03*
X019980Y024280D03*
X019980Y024270D03*
X019980Y024260D03*
X019980Y024250D03*
X019980Y024240D03*
X019980Y024230D03*
X019980Y024220D03*
X019980Y024210D03*
X019980Y024200D03*
X019980Y024190D03*
X019980Y024180D03*
X019980Y024170D03*
X019980Y024160D03*
X019980Y024150D03*
X019980Y024140D03*
X019980Y024130D03*
X019980Y024120D03*
X019980Y024110D03*
X019980Y024100D03*
X019980Y024090D03*
X019980Y024080D03*
X019980Y024070D03*
X019980Y024060D03*
X019980Y024050D03*
D23*
X019990Y024530D03*
X020460Y024530D03*
X020460Y024540D03*
X020880Y024520D03*
X020880Y024510D03*
X021240Y024770D03*
X021350Y024550D03*
X021350Y024540D03*
X021780Y024540D03*
X021780Y024530D03*
X022240Y024520D03*
X022240Y024510D03*
X022700Y024550D03*
X023120Y024880D03*
X023120Y024960D03*
X023120Y024970D03*
X024500Y024970D03*
X024500Y024960D03*
X024500Y024950D03*
X024500Y024940D03*
X024500Y024910D03*
X024500Y024900D03*
X024500Y024890D03*
X024940Y024610D03*
X024890Y024270D03*
X024890Y024260D03*
X024890Y024250D03*
X024500Y024070D03*
X024500Y024060D03*
X024500Y024050D03*
X024380Y023830D03*
X025440Y024050D03*
X025440Y024060D03*
X025440Y024070D03*
X025410Y024290D03*
X025410Y024300D03*
X025410Y024310D03*
X025410Y024320D03*
X025410Y024330D03*
X025410Y024340D03*
X025410Y024350D03*
X025410Y024360D03*
X025400Y024540D03*
X025400Y024600D03*
X025840Y024500D03*
X025840Y024490D03*
X025840Y024480D03*
X025840Y024470D03*
X025840Y024460D03*
X025840Y024450D03*
X025840Y024440D03*
X025840Y024430D03*
X025840Y024420D03*
X025840Y024410D03*
X025840Y024400D03*
X025840Y024390D03*
X025840Y024380D03*
X025840Y024370D03*
X025840Y024360D03*
X025840Y024350D03*
X025840Y024340D03*
X025840Y024330D03*
X025840Y024320D03*
X025840Y024310D03*
X025840Y024300D03*
X025840Y024290D03*
X025840Y024280D03*
X025840Y024270D03*
X025840Y024260D03*
X025840Y024250D03*
X025840Y024240D03*
X025840Y024230D03*
X025840Y024220D03*
X025840Y024210D03*
X025840Y024200D03*
X025840Y024190D03*
X025840Y024180D03*
X025840Y024170D03*
X025840Y024160D03*
X025840Y024150D03*
X025840Y024140D03*
X025840Y024130D03*
X025840Y024120D03*
X025840Y024110D03*
X025840Y024100D03*
X025840Y024090D03*
X025840Y024080D03*
X025840Y024070D03*
X025840Y024060D03*
X026340Y024500D03*
X026340Y024510D03*
X026340Y024520D03*
X026220Y024770D03*
X026780Y024600D03*
X026790Y024610D03*
X026740Y024350D03*
X026760Y024270D03*
X026770Y024250D03*
X027250Y024230D03*
X027260Y024240D03*
X027230Y024610D03*
X028150Y024890D03*
X028150Y024950D03*
X028150Y024960D03*
X028610Y024610D03*
X028560Y024280D03*
X028560Y024270D03*
X028560Y024260D03*
X028560Y024250D03*
X028560Y024240D03*
X029070Y024270D03*
X029070Y024280D03*
X029070Y024290D03*
X029100Y024080D03*
X029110Y024070D03*
X029110Y024060D03*
X029110Y024050D03*
X029070Y024540D03*
X029070Y024600D03*
D24*
X029050Y024620D03*
X029060Y024240D03*
X028620Y024620D03*
X028570Y024300D03*
X028570Y024220D03*
X027240Y024220D03*
X026790Y024230D03*
X026810Y024620D03*
X027010Y024780D03*
X026970Y025150D03*
X026880Y025160D03*
X026330Y024550D03*
X025850Y024540D03*
X025850Y024530D03*
X025400Y024530D03*
X025390Y024620D03*
X025400Y024250D03*
X024950Y024620D03*
X024910Y024310D03*
X024900Y024220D03*
X024490Y024030D03*
X024390Y023840D03*
X022240Y024540D03*
X022130Y024760D03*
X021790Y024560D03*
X020890Y024550D03*
X020450Y024560D03*
X020000Y024550D03*
D25*
X020010Y024570D03*
X021240Y024760D03*
X022130Y024750D03*
X022590Y024760D03*
X024400Y023850D03*
X024920Y024200D03*
X025390Y024220D03*
X025390Y024520D03*
X026800Y024220D03*
X029050Y024220D03*
D26*
X029045Y024210D03*
X028585Y024200D03*
X025865Y024560D03*
X025185Y024790D03*
X024405Y023860D03*
X022245Y024560D03*
X020905Y024570D03*
D27*
X021240Y024750D03*
X020340Y024750D03*
X022130Y024740D03*
X024410Y023870D03*
X025020Y024070D03*
X024930Y024330D03*
X025380Y024210D03*
X026220Y024750D03*
X026310Y024570D03*
X026820Y024210D03*
X028600Y024330D03*
X028850Y024790D03*
D28*
X029025Y024630D03*
X029035Y024510D03*
X028645Y024630D03*
X028685Y024070D03*
X025875Y024570D03*
X025375Y024510D03*
X024415Y023880D03*
X022595Y024750D03*
D29*
X021240Y024740D03*
X024420Y023900D03*
X024420Y023890D03*
X025370Y024200D03*
X027010Y024770D03*
X029030Y024200D03*
D30*
X028615Y024340D03*
X027015Y024060D03*
X026215Y024740D03*
X024955Y024340D03*
X024425Y023920D03*
X024425Y023910D03*
X022245Y024570D03*
X022125Y024730D03*
X020345Y024740D03*
D31*
X021240Y024730D03*
X022130Y024720D03*
X022590Y024740D03*
X024430Y023950D03*
X024430Y023940D03*
X024430Y023930D03*
X025020Y024080D03*
X028690Y024080D03*
D32*
X026215Y024730D03*
X024435Y024010D03*
X024435Y024000D03*
X024435Y023990D03*
X024435Y023980D03*
X024435Y023970D03*
X024435Y023960D03*
X020345Y024730D03*
D33*
X020345Y024760D03*
X020445Y024570D03*
X020005Y024560D03*
X020895Y024560D03*
X021335Y024570D03*
X021795Y024570D03*
X022245Y024550D03*
X022685Y024570D03*
X024485Y024020D03*
X024905Y024210D03*
X024915Y024320D03*
X025015Y024060D03*
X025395Y024230D03*
X025395Y024240D03*
X025855Y024550D03*
X026215Y024760D03*
X026325Y024560D03*
X027015Y024050D03*
X027225Y024210D03*
X028575Y024210D03*
X028575Y024310D03*
X028585Y024320D03*
X028685Y024060D03*
X029055Y024230D03*
X029055Y024520D03*
D34*
X026160Y025670D03*
X026090Y025700D03*
X026040Y025720D03*
X025990Y025740D03*
X025960Y025750D03*
X025930Y025760D03*
X025910Y025770D03*
X025880Y025780D03*
X025850Y025790D03*
X025820Y025800D03*
X025790Y025810D03*
X025690Y025840D03*
X025010Y024030D03*
D35*
X025510Y025460D03*
X025540Y025450D03*
X025570Y025440D03*
X025460Y025480D03*
X025430Y025490D03*
X025400Y025500D03*
X025350Y025520D03*
X025300Y025540D03*
X025270Y025550D03*
X025220Y025570D03*
X025050Y025640D03*
X025000Y025660D03*
X024970Y025670D03*
X024950Y025680D03*
X024920Y025690D03*
X024890Y025700D03*
X024860Y025710D03*
X025540Y025880D03*
X025580Y025870D03*
X027010Y024030D03*
D36*
X027075Y025130D03*
X028155Y025070D03*
X028675Y024030D03*
X025755Y025820D03*
X025725Y025830D03*
X025655Y025850D03*
X025615Y025860D03*
X025375Y025510D03*
X025325Y025530D03*
X025245Y025560D03*
X025195Y025580D03*
X025175Y025590D03*
X025075Y025630D03*
X025025Y025650D03*
X024505Y025070D03*
D37*
X024505Y024930D03*
X024505Y024920D03*
X024905Y024300D03*
X024895Y024290D03*
X024895Y024280D03*
X024895Y024240D03*
X024895Y024230D03*
X024495Y024040D03*
X025405Y024260D03*
X025405Y024270D03*
X025405Y024280D03*
X025395Y024610D03*
X025845Y024520D03*
X025845Y024510D03*
X026335Y024530D03*
X026335Y024540D03*
X026775Y024240D03*
X027215Y024620D03*
X028155Y024900D03*
X028155Y024910D03*
X028155Y024920D03*
X028155Y024930D03*
X028155Y024940D03*
X028565Y024290D03*
X028565Y024230D03*
X029065Y024250D03*
X029065Y024260D03*
X029065Y024530D03*
X029065Y024610D03*
X023115Y024890D03*
X023115Y024900D03*
X023115Y024910D03*
X023115Y024920D03*
X023115Y024930D03*
X023115Y024940D03*
X023115Y024950D03*
X022695Y024560D03*
X022595Y024770D03*
X022245Y024530D03*
X021785Y024550D03*
X021345Y024560D03*
X020885Y024540D03*
X020885Y024530D03*
X020455Y024550D03*
X020345Y024770D03*
X019995Y024540D03*
D38*
X020345Y024790D03*
X022135Y024790D03*
X023115Y025040D03*
X025015Y024040D03*
X026215Y024790D03*
D39*
X026695Y025180D03*
X027015Y024040D03*
X028155Y025010D03*
X023115Y025020D03*
X022135Y024780D03*
D40*
X021240Y024790D03*
X024500Y025030D03*
X026550Y025200D03*
X027020Y025140D03*
X028680Y024040D03*
D41*
X029095Y024090D03*
X029075Y024300D03*
X029075Y024310D03*
X029075Y024320D03*
X029075Y024330D03*
X029075Y024340D03*
X029075Y024350D03*
X029075Y024360D03*
X029075Y024370D03*
X029075Y024550D03*
X029075Y024560D03*
X029075Y024570D03*
X029075Y024580D03*
X029075Y024590D03*
X028605Y024600D03*
X028595Y024590D03*
X028595Y024580D03*
X028595Y024570D03*
X028155Y024570D03*
X028155Y024580D03*
X028155Y024590D03*
X028155Y024600D03*
X028155Y024610D03*
X028155Y024620D03*
X028155Y024630D03*
X028155Y024640D03*
X028155Y024650D03*
X028155Y024660D03*
X028155Y024670D03*
X028155Y024680D03*
X028155Y024690D03*
X028155Y024700D03*
X028155Y024710D03*
X028155Y024720D03*
X028155Y024730D03*
X028155Y024740D03*
X028155Y024750D03*
X028155Y024760D03*
X028155Y024770D03*
X028155Y024780D03*
X028155Y024880D03*
X028155Y024970D03*
X028155Y024980D03*
X028155Y024560D03*
X028155Y024550D03*
X028155Y024540D03*
X028155Y024530D03*
X028155Y024520D03*
X028155Y024510D03*
X028155Y024500D03*
X028155Y024490D03*
X028155Y024480D03*
X028155Y024470D03*
X028155Y024460D03*
X028155Y024450D03*
X028155Y024440D03*
X028155Y024430D03*
X028155Y024420D03*
X028155Y024410D03*
X028155Y024400D03*
X028155Y024390D03*
X028155Y024380D03*
X028155Y024370D03*
X028155Y024360D03*
X028155Y024350D03*
X028155Y024340D03*
X028155Y024330D03*
X028155Y024320D03*
X028155Y024310D03*
X028155Y024300D03*
X028155Y024290D03*
X028155Y024280D03*
X028155Y024270D03*
X028155Y024260D03*
X028155Y024250D03*
X028155Y024240D03*
X028155Y024230D03*
X028155Y024220D03*
X028155Y024210D03*
X028155Y024200D03*
X028155Y024190D03*
X028155Y024180D03*
X028155Y024170D03*
X028155Y024160D03*
X028155Y024150D03*
X028155Y024140D03*
X028155Y024130D03*
X028155Y024120D03*
X028155Y024110D03*
X028155Y024100D03*
X028155Y024090D03*
X028155Y024080D03*
X028155Y024070D03*
X028155Y024060D03*
X028155Y024050D03*
X027705Y024060D03*
X027705Y024070D03*
X027705Y024080D03*
X027705Y024090D03*
X027705Y024100D03*
X027705Y024110D03*
X027705Y024120D03*
X027705Y024130D03*
X027705Y024140D03*
X027705Y024150D03*
X027705Y024160D03*
X027705Y024170D03*
X027705Y024180D03*
X027705Y024190D03*
X027705Y024200D03*
X027705Y024210D03*
X027705Y024220D03*
X027705Y024230D03*
X027705Y024240D03*
X027705Y024250D03*
X027705Y024260D03*
X027705Y024270D03*
X027705Y024280D03*
X027705Y024290D03*
X027705Y024300D03*
X027705Y024310D03*
X027705Y024320D03*
X027705Y024330D03*
X027705Y024340D03*
X027705Y024350D03*
X027705Y024360D03*
X027705Y024370D03*
X027705Y024380D03*
X027705Y024390D03*
X027705Y024400D03*
X027705Y024410D03*
X027705Y024420D03*
X027705Y024430D03*
X027705Y024440D03*
X027705Y024450D03*
X027705Y024460D03*
X027705Y024470D03*
X027705Y024480D03*
X027705Y024490D03*
X027705Y024500D03*
X027705Y024510D03*
X027705Y024520D03*
X027705Y024530D03*
X027705Y024540D03*
X027705Y024550D03*
X027705Y024560D03*
X027705Y024570D03*
X027705Y024580D03*
X027705Y024590D03*
X027705Y024600D03*
X027705Y024610D03*
X027705Y024620D03*
X027705Y024630D03*
X027705Y024640D03*
X027705Y024650D03*
X027705Y024660D03*
X027705Y024670D03*
X027705Y024680D03*
X027705Y024690D03*
X027705Y024700D03*
X027705Y024710D03*
X027705Y024720D03*
X027705Y024730D03*
X027705Y024740D03*
X027705Y024750D03*
X027705Y024760D03*
X027705Y024770D03*
X027705Y024780D03*
X027705Y024790D03*
X027705Y024800D03*
X027705Y024810D03*
X027705Y024820D03*
X027705Y024830D03*
X027705Y024840D03*
X027705Y024850D03*
X027705Y024860D03*
X027705Y024870D03*
X027705Y024880D03*
X027705Y024890D03*
X027705Y024900D03*
X027705Y024910D03*
X027705Y024920D03*
X027705Y024930D03*
X027705Y024940D03*
X027705Y024950D03*
X027705Y024960D03*
X027705Y024970D03*
X027705Y024980D03*
X027705Y024990D03*
X027705Y025000D03*
X027705Y025010D03*
X027705Y025020D03*
X027705Y025030D03*
X027705Y025040D03*
X027705Y025050D03*
X027245Y024590D03*
X027235Y024600D03*
X027265Y024250D03*
X026765Y024260D03*
X026755Y024280D03*
X026755Y024290D03*
X026745Y024300D03*
X026745Y024310D03*
X026745Y024320D03*
X026745Y024500D03*
X026765Y024580D03*
X026775Y024590D03*
X026345Y024490D03*
X026345Y024480D03*
X026345Y024470D03*
X026345Y024460D03*
X026345Y024450D03*
X026345Y024440D03*
X026345Y024430D03*
X026345Y024420D03*
X026345Y024410D03*
X026345Y024400D03*
X026345Y024390D03*
X026345Y024380D03*
X026345Y024370D03*
X026345Y024360D03*
X026345Y024350D03*
X026345Y024340D03*
X026345Y024330D03*
X026345Y024320D03*
X026345Y024310D03*
X026345Y024300D03*
X026345Y024290D03*
X026345Y024280D03*
X026345Y024270D03*
X026345Y024260D03*
X026345Y024250D03*
X026345Y024240D03*
X026345Y024230D03*
X026345Y024220D03*
X026345Y024210D03*
X026345Y024200D03*
X026345Y024190D03*
X026345Y024180D03*
X026345Y024170D03*
X026345Y024160D03*
X026345Y024150D03*
X026345Y024140D03*
X026345Y024130D03*
X026345Y024120D03*
X026345Y024110D03*
X026345Y024100D03*
X026345Y024090D03*
X026345Y024080D03*
X026345Y024070D03*
X026345Y024060D03*
X026345Y024050D03*
X025435Y024080D03*
X025405Y024550D03*
X025405Y024560D03*
X025405Y024570D03*
X025405Y024580D03*
X025405Y024590D03*
X024935Y024590D03*
X024935Y024600D03*
X024505Y024600D03*
X024505Y024610D03*
X024505Y024620D03*
X024505Y024630D03*
X024505Y024640D03*
X024505Y024650D03*
X024505Y024660D03*
X024505Y024670D03*
X024505Y024680D03*
X024505Y024690D03*
X024505Y024700D03*
X024505Y024710D03*
X024505Y024720D03*
X024505Y024730D03*
X024505Y024740D03*
X024505Y024750D03*
X024505Y024760D03*
X024505Y024770D03*
X024505Y024780D03*
X024505Y024880D03*
X024505Y024980D03*
X024505Y024590D03*
X024505Y024580D03*
X024505Y024570D03*
X024505Y024560D03*
X024505Y024550D03*
X024505Y024540D03*
X024505Y024530D03*
X024505Y024520D03*
X024505Y024510D03*
X024505Y024500D03*
X024505Y024490D03*
X024505Y024480D03*
X024505Y024470D03*
X024505Y024460D03*
X024505Y024450D03*
X024505Y024440D03*
X024505Y024430D03*
X024505Y024420D03*
X024505Y024410D03*
X024505Y024400D03*
X024505Y024390D03*
X024505Y024380D03*
X024505Y024370D03*
X024505Y024360D03*
X024505Y024350D03*
X024505Y024340D03*
X024505Y024330D03*
X024505Y024320D03*
X024505Y024310D03*
X024505Y024300D03*
X024505Y024290D03*
X024505Y024280D03*
X024505Y024270D03*
X024505Y024260D03*
X024505Y024250D03*
X024505Y024240D03*
X024505Y024230D03*
X024505Y024220D03*
X024505Y024210D03*
X024505Y024200D03*
X024505Y024190D03*
X024505Y024180D03*
X024505Y024170D03*
X024505Y024160D03*
X024505Y024150D03*
X024505Y024140D03*
X024505Y024130D03*
X024505Y024120D03*
X024505Y024110D03*
X024505Y024100D03*
X024505Y024090D03*
X024505Y024080D03*
X023115Y024980D03*
X022705Y024540D03*
X022705Y024530D03*
X022705Y024520D03*
X022245Y024500D03*
X022245Y024490D03*
X022135Y024770D03*
X021775Y024520D03*
X021775Y024510D03*
X021775Y024500D03*
X021355Y024510D03*
X021355Y024520D03*
X021355Y024530D03*
X020875Y024500D03*
X020875Y024490D03*
X020875Y024480D03*
X020875Y024470D03*
X020875Y024460D03*
X020875Y024450D03*
X020465Y024450D03*
X020465Y024460D03*
X020465Y024470D03*
X020465Y024480D03*
X020465Y024490D03*
X020465Y024500D03*
X020465Y024510D03*
X020465Y024520D03*
X020465Y024440D03*
X020465Y024430D03*
X020465Y024420D03*
X020465Y024410D03*
X020465Y024400D03*
X020465Y024390D03*
X020465Y024380D03*
X020465Y024370D03*
X020465Y024360D03*
X020465Y024350D03*
X020465Y024340D03*
X020465Y024330D03*
X020465Y024320D03*
X020465Y024310D03*
X020465Y024300D03*
X020465Y024290D03*
X020465Y024280D03*
X020465Y024270D03*
X020465Y024260D03*
X020465Y024250D03*
X020465Y024240D03*
X020465Y024230D03*
X020465Y024220D03*
X020465Y024210D03*
X020465Y024200D03*
X020465Y024190D03*
X020465Y024180D03*
X020465Y024170D03*
X020465Y024160D03*
X020465Y024150D03*
X020465Y024140D03*
X020465Y024130D03*
X020465Y024120D03*
X020465Y024110D03*
X020465Y024100D03*
X020465Y024090D03*
X020465Y024080D03*
X020465Y024070D03*
X020465Y024060D03*
X020465Y024050D03*
X019985Y024500D03*
X019985Y024510D03*
X019985Y024520D03*
D42*
X022125Y024700D03*
X022585Y024720D03*
X024975Y024350D03*
X025345Y024500D03*
X026215Y024720D03*
X027015Y024070D03*
X028645Y024350D03*
X029005Y024500D03*
D43*
X028680Y024370D03*
X027020Y024080D03*
X026210Y024690D03*
D44*
X027010Y024760D03*
X028690Y024090D03*
X025020Y024090D03*
X022590Y024730D03*
X022130Y024710D03*
X021240Y024720D03*
X020340Y024720D03*
D45*
X025305Y024490D03*
X027015Y024090D03*
X028965Y024490D03*
D46*
X028685Y024100D03*
X026215Y024710D03*
X025025Y024100D03*
X022585Y024710D03*
D47*
X025180Y024760D03*
X027010Y024720D03*
X027020Y024100D03*
X028850Y024760D03*
D48*
X028665Y024360D03*
X028695Y024110D03*
X025025Y024110D03*
X022585Y024700D03*
D49*
X025180Y024750D03*
X025270Y024480D03*
X027020Y024110D03*
D50*
X027005Y024740D03*
X028695Y024120D03*
X025025Y024120D03*
D51*
X025180Y024740D03*
X027010Y024700D03*
X027020Y024120D03*
D52*
X026085Y024590D03*
X026085Y024600D03*
X026085Y024610D03*
X026085Y024620D03*
X025165Y024370D03*
X025165Y024140D03*
X025165Y024130D03*
X028825Y024140D03*
X028825Y024150D03*
D53*
X028910Y024470D03*
X027010Y024690D03*
X027020Y024130D03*
D54*
X026080Y024630D03*
X026080Y024640D03*
X026080Y024650D03*
X025170Y024380D03*
X028830Y024130D03*
D55*
X028895Y024460D03*
X028845Y024720D03*
X027015Y024140D03*
X025175Y024720D03*
D56*
X025160Y024160D03*
X025160Y024150D03*
X026090Y024580D03*
X028820Y024190D03*
X028820Y024180D03*
X028820Y024170D03*
X028820Y024160D03*
D57*
X028845Y024710D03*
X027005Y024660D03*
X027015Y024150D03*
X025175Y024710D03*
D58*
X027010Y024650D03*
X027020Y024160D03*
X028880Y024450D03*
X028840Y024700D03*
D59*
X025155Y024190D03*
X025155Y024180D03*
X025155Y024170D03*
D60*
X025170Y024690D03*
X027010Y024640D03*
X027020Y024170D03*
X028870Y024440D03*
X028840Y024690D03*
D61*
X027015Y024180D03*
X025205Y024440D03*
X025175Y024680D03*
D62*
X025175Y024660D03*
X025195Y024430D03*
X027015Y024190D03*
X028855Y024420D03*
X028835Y024660D03*
X021095Y024710D03*
X020205Y024700D03*
D63*
X020210Y024690D03*
X020210Y024680D03*
X021100Y024690D03*
X021100Y024700D03*
X025170Y024650D03*
X025170Y024640D03*
X025190Y024420D03*
X027020Y024200D03*
X028840Y024650D03*
D64*
X028595Y024560D03*
X028155Y025000D03*
X027275Y024540D03*
X027275Y024530D03*
X027285Y024510D03*
X027265Y024560D03*
X027275Y024270D03*
X026215Y024780D03*
X025825Y024780D03*
X025825Y024770D03*
X025825Y024760D03*
X025825Y024750D03*
X025825Y024740D03*
X025825Y024730D03*
X025825Y024720D03*
X025825Y024710D03*
X025825Y024700D03*
X025825Y024690D03*
X024925Y024560D03*
X024505Y025000D03*
X023115Y025000D03*
X022595Y024780D03*
X021765Y024780D03*
X021765Y024770D03*
X021765Y024760D03*
X021765Y024750D03*
X021765Y024740D03*
X021765Y024730D03*
X021765Y024720D03*
X021765Y024710D03*
X021765Y024700D03*
X020345Y024780D03*
D65*
X025000Y024360D03*
X026210Y024700D03*
X027010Y024750D03*
D66*
X027015Y024430D03*
X027015Y024420D03*
X027015Y024410D03*
X027015Y024400D03*
X027015Y024390D03*
X027015Y024380D03*
X027015Y024370D03*
X027015Y024360D03*
D67*
X026075Y024660D03*
X026075Y024670D03*
X025175Y024400D03*
X025175Y024390D03*
X028835Y024390D03*
X028835Y024380D03*
X021115Y024580D03*
X021115Y024590D03*
X021115Y024600D03*
X021115Y024610D03*
X021115Y024620D03*
X021115Y024630D03*
X020225Y024590D03*
X020225Y024580D03*
D68*
X020220Y024600D03*
X020220Y024610D03*
X020220Y024620D03*
X020220Y024630D03*
X020220Y024640D03*
X021110Y024640D03*
X021110Y024650D03*
X021110Y024660D03*
X025170Y024630D03*
X026070Y024680D03*
X028840Y024400D03*
D69*
X028845Y024410D03*
X028835Y024640D03*
X025185Y024410D03*
X021105Y024670D03*
X021105Y024680D03*
X020215Y024670D03*
X020215Y024660D03*
X020215Y024650D03*
D70*
X020200Y024710D03*
X025170Y024670D03*
X027010Y024630D03*
X028840Y024670D03*
X028840Y024680D03*
X028860Y024430D03*
D71*
X027010Y024440D03*
X027010Y024450D03*
X027010Y024460D03*
X027010Y024470D03*
D72*
X025215Y024450D03*
X025175Y024700D03*
D73*
X025230Y024460D03*
X027010Y024670D03*
D74*
X028845Y024730D03*
X025245Y024470D03*
X025175Y024730D03*
D75*
X027015Y024480D03*
D76*
X027005Y024710D03*
X028845Y024750D03*
X028935Y024480D03*
D77*
X027010Y024490D03*
D78*
X022240Y024580D03*
X022240Y024590D03*
X022240Y024600D03*
X022240Y024610D03*
X022240Y024620D03*
X022240Y024630D03*
D79*
X022235Y024640D03*
X022235Y024650D03*
X022235Y024660D03*
D80*
X022230Y024670D03*
X022230Y024680D03*
D81*
X027010Y024680D03*
D82*
X022225Y024690D03*
D83*
X027010Y024730D03*
D84*
X028845Y024740D03*
D85*
X028850Y024770D03*
X025180Y024770D03*
D86*
X024500Y025010D03*
X023120Y025010D03*
X021240Y024780D03*
X027010Y024790D03*
D87*
X028850Y024780D03*
X025180Y024780D03*
D88*
X025185Y024800D03*
X023115Y025030D03*
X022595Y024790D03*
X028155Y025030D03*
X028855Y024800D03*
D89*
X028150Y025060D03*
X026040Y025300D03*
X026000Y025310D03*
X024660Y025770D03*
X024620Y025780D03*
X024500Y025060D03*
X022600Y024800D03*
X021240Y024800D03*
X020350Y024800D03*
D90*
X022135Y024800D03*
X024695Y025760D03*
X025345Y025920D03*
X025855Y025350D03*
X025925Y025330D03*
X025965Y025320D03*
X026215Y024800D03*
D91*
X026220Y025260D03*
X026170Y025270D03*
X027010Y024800D03*
X024530Y025800D03*
D92*
X024500Y025040D03*
X026490Y025210D03*
X028150Y025040D03*
D93*
X026370Y025230D03*
X025210Y025940D03*
X024500Y025050D03*
X023120Y025050D03*
D94*
X026265Y025250D03*
X026315Y025240D03*
X028155Y025050D03*
D95*
X026125Y025280D03*
X026085Y025290D03*
X025285Y025930D03*
X025065Y025960D03*
X024575Y025790D03*
X023115Y025060D03*
D96*
X023115Y025070D03*
X025485Y025470D03*
X025595Y025430D03*
X025625Y025420D03*
X025655Y025410D03*
X025495Y025890D03*
D97*
X025405Y025810D03*
X025405Y025800D03*
X025405Y025790D03*
X025405Y025780D03*
X025405Y025770D03*
X025405Y025760D03*
X025405Y025750D03*
X025405Y025740D03*
X025405Y025730D03*
X025405Y025720D03*
X025405Y025710D03*
X025405Y025700D03*
X025405Y025690D03*
X025405Y025680D03*
X025405Y025670D03*
X025405Y025660D03*
X025405Y025650D03*
X025405Y025640D03*
X025405Y025630D03*
X025005Y025970D03*
X026095Y025590D03*
X026095Y025580D03*
X026095Y025570D03*
X026095Y025560D03*
X026095Y025550D03*
X026095Y025540D03*
X026095Y025530D03*
X026095Y025520D03*
X026095Y025510D03*
X026095Y025500D03*
X026095Y025490D03*
X026095Y025480D03*
X026095Y025470D03*
X026095Y025460D03*
X026095Y025450D03*
X026095Y025440D03*
X026095Y025430D03*
X026095Y025420D03*
X026095Y025410D03*
X026775Y025370D03*
X026775Y025360D03*
X026775Y025350D03*
X026775Y025340D03*
X026775Y025330D03*
X026775Y025320D03*
X026775Y025310D03*
X026775Y025300D03*
X026775Y025290D03*
X026775Y025280D03*
X026775Y025270D03*
X026775Y025260D03*
X026775Y025250D03*
X026775Y025240D03*
X026775Y025230D03*
X026775Y025220D03*
X026775Y025210D03*
X026775Y025200D03*
X026775Y025190D03*
D98*
X026425Y025220D03*
X024475Y025810D03*
D99*
X024730Y025750D03*
X024770Y025740D03*
X024800Y025730D03*
X024830Y025720D03*
X025400Y025910D03*
X025450Y025900D03*
X025790Y025370D03*
X025820Y025360D03*
X025890Y025340D03*
D100*
X026245Y025380D03*
D101*
X026225Y025390D03*
D102*
X026210Y025400D03*
D103*
X026490Y025510D03*
X026510Y025500D03*
X026530Y025490D03*
X026550Y025480D03*
X026570Y025470D03*
X026600Y025450D03*
X026620Y025440D03*
X026670Y025410D03*
D104*
X026655Y025420D03*
X026635Y025430D03*
X026585Y025460D03*
D105*
X026475Y025520D03*
X026455Y025530D03*
X026435Y025540D03*
X026415Y025550D03*
X026395Y025560D03*
X026375Y025570D03*
X026355Y025580D03*
X026335Y025590D03*
X026315Y025600D03*
X026295Y025610D03*
X026275Y025620D03*
X026255Y025630D03*
X026225Y025640D03*
X026205Y025650D03*
X026185Y025660D03*
X026135Y025680D03*
X026115Y025690D03*
X026065Y025710D03*
X026015Y025730D03*
D106*
X025605Y025600D03*
D107*
X025595Y025610D03*
D108*
X025580Y025620D03*
X024890Y025820D03*
X024890Y025840D03*
D109*
X024885Y025830D03*
D110*
X010400Y013522D02*
X010250Y013522D01*
X010325Y013522D02*
X010325Y013422D01*
X010400Y013422D02*
X010250Y013422D01*
X010250Y013374D02*
X010250Y013274D01*
X010250Y013324D02*
X010400Y013324D01*
X010325Y013227D02*
X010350Y013202D01*
X010350Y013127D01*
X010400Y013127D02*
X010250Y013127D01*
X010250Y013202D01*
X010275Y013227D01*
X010325Y013227D01*
X010375Y013080D02*
X010400Y013055D01*
X010400Y013005D01*
X010375Y012980D01*
X010275Y012980D01*
X010250Y013005D01*
X010250Y013055D01*
X010275Y013080D01*
X010250Y012932D02*
X010400Y012932D01*
X010250Y012832D01*
X010400Y012832D01*
X010375Y012785D02*
X010400Y012760D01*
X010400Y012685D01*
X010250Y012685D01*
X010250Y012760D01*
X010275Y012785D01*
X010300Y012785D01*
X010325Y012760D01*
X010325Y012685D01*
X010325Y012760D02*
X010350Y012785D01*
X010375Y012785D01*
M02*
