G75*
%MOIN*%
%OFA0B0*%
%FSLAX25Y25*%
%IPPOS*%
%LPD*%
%AMOC8*
5,1,8,0,0,1.08239X$1,22.5*
%
%ADD10R,0.03200X0.03400*%
%ADD11R,0.03100X0.03500*%
%ADD12R,0.02756X0.02756*%
%ADD13R,0.03606X0.06106*%
%ADD14R,0.03937X0.18898*%
%ADD15R,0.12206X0.07506*%
%ADD16R,0.06106X0.03606*%
%ADD17R,0.06496X0.04094*%
%ADD18R,0.05118X0.08268*%
%ADD19R,0.05118X0.03543*%
%ADD20R,0.05606X0.03606*%
%ADD21R,0.04331X0.01772*%
%ADD22R,0.02606X0.02606*%
%ADD23R,0.09055X0.10630*%
%ADD24R,0.05512X0.01969*%
%ADD25R,0.09894X0.13394*%
%ADD26R,0.04094X0.06496*%
%ADD27R,0.07087X0.02362*%
%ADD28R,0.04134X0.02362*%
%ADD29R,0.03937X0.03937*%
%ADD30R,0.04331X0.03937*%
%ADD31R,0.00591X0.03543*%
%ADD32R,0.18898X0.03937*%
%ADD33R,0.07506X0.12206*%
%ADD34R,0.08268X0.05118*%
%ADD35R,0.03543X0.05118*%
%ADD36R,0.01772X0.04331*%
%ADD37R,0.02362X0.07087*%
%ADD38R,0.02362X0.04134*%
%ADD39R,0.03937X0.04331*%
%ADD40R,0.03606X0.05606*%
%ADD41R,0.01969X0.05512*%
%ADD42R,0.13394X0.09894*%
%ADD43R,0.13386X0.09449*%
%ADD44R,0.02323X0.03504*%
%ADD45R,0.04724X0.02756*%
%ADD46R,0.11417X0.07874*%
%ADD47R,0.09449X0.13386*%
%ADD48R,0.03543X0.00591*%
%ADD49R,0.23106X0.06606*%
%ADD50R,0.06606X0.23106*%
%ADD51R,0.01969X0.03150*%
%ADD52R,0.07106X0.03606*%
%ADD53C,0.06417*%
%ADD54R,0.08858X0.07087*%
%ADD55R,0.05512X0.12992*%
%ADD56R,0.02756X0.04724*%
%ADD57R,0.07874X0.11417*%
%ADD58R,0.05118X0.22047*%
%ADD59R,0.00984X0.06693*%
%ADD60R,0.01417X0.06693*%
D10*
X0218362Y0959762D03*
X0224700Y0989900D03*
X0254700Y0989900D03*
X0248487Y0959762D03*
X0278113Y0959762D03*
X0284700Y0989900D03*
X0314700Y0989900D03*
X0308300Y0959700D03*
X0338363Y0959762D03*
X0344700Y0989900D03*
X0368300Y0959700D03*
X0374700Y0989900D03*
X0398300Y0959700D03*
X0404700Y0989900D03*
X0434700Y0989900D03*
X0464700Y0989900D03*
X0458362Y0959762D03*
X0488487Y0959762D03*
X0494700Y0989900D03*
X0488300Y1019700D03*
X0458300Y1019700D03*
X0428300Y1019700D03*
X0434700Y1049900D03*
X0404700Y1049900D03*
X0374700Y1049900D03*
X0344700Y1049900D03*
X0338300Y1079700D03*
X0308300Y1079700D03*
X0278300Y1079700D03*
X0248300Y1079700D03*
X0254700Y1049900D03*
X0224700Y1049900D03*
X0218300Y1079700D03*
X0224700Y1109900D03*
X0254700Y1109900D03*
X0284700Y1109900D03*
X0314700Y1109900D03*
X0308300Y1139700D03*
X0278300Y1139700D03*
X0248300Y1139700D03*
X0254700Y1169900D03*
X0224700Y1169900D03*
X0218362Y1199763D03*
X0224700Y1229900D03*
X0254700Y1229900D03*
X0248487Y1199763D03*
X0278113Y1199763D03*
X0284700Y1229900D03*
X0314700Y1229900D03*
X0308300Y1199700D03*
X0338363Y1199763D03*
X0344700Y1229900D03*
X0368300Y1199700D03*
X0374700Y1229900D03*
X0398300Y1199700D03*
X0404700Y1229900D03*
X0434700Y1229900D03*
X0464700Y1229900D03*
X0494700Y1229900D03*
X0488487Y1199763D03*
X0518112Y1199763D03*
X0524700Y1229900D03*
X0548300Y1199700D03*
X0554700Y1229900D03*
X0578363Y1199763D03*
X0584700Y1229900D03*
X0614700Y1229900D03*
X0608300Y1199700D03*
X0638300Y1199700D03*
X0644700Y1229900D03*
X0674700Y1229900D03*
X0668300Y1259700D03*
X0638300Y1259700D03*
X0608300Y1259700D03*
X0614700Y1289900D03*
X0584700Y1289900D03*
X0554700Y1289900D03*
X0524700Y1289900D03*
X0518300Y1319700D03*
X0488300Y1319700D03*
X0458300Y1319700D03*
X0428300Y1319700D03*
X0434700Y1289900D03*
X0404700Y1289900D03*
X0374700Y1289900D03*
X0344700Y1289900D03*
X0338300Y1319700D03*
X0308300Y1319700D03*
X0278300Y1319700D03*
X0248300Y1319700D03*
X0254700Y1289900D03*
X0224700Y1289900D03*
X0218300Y1319700D03*
X0224700Y1349900D03*
X0254700Y1349900D03*
X0284700Y1349900D03*
X0314700Y1349900D03*
X0308300Y1379700D03*
X0278300Y1379700D03*
X0248300Y1379700D03*
X0254700Y1409900D03*
X0224700Y1409900D03*
X0218300Y1379700D03*
X0284700Y1409900D03*
X0314700Y1409900D03*
X0338300Y1379700D03*
X0368300Y1379700D03*
X0398300Y1379700D03*
X0404700Y1349900D03*
X0374700Y1349900D03*
X0344700Y1349900D03*
X0368300Y1319700D03*
X0398300Y1319700D03*
X0434700Y1349900D03*
X0464700Y1349900D03*
X0494700Y1349900D03*
X0488300Y1379700D03*
X0458300Y1379700D03*
X0428300Y1379700D03*
X0434700Y1409900D03*
X0404700Y1409900D03*
X0374700Y1409900D03*
X0344700Y1409900D03*
X0464700Y1409900D03*
X0494700Y1409900D03*
X0518300Y1379700D03*
X0548300Y1379700D03*
X0578300Y1379700D03*
X0584700Y1349900D03*
X0554700Y1349900D03*
X0524700Y1349900D03*
X0548300Y1319700D03*
X0578300Y1319700D03*
X0608300Y1319700D03*
X0638300Y1319700D03*
X0668300Y1319700D03*
X0674700Y1289900D03*
X0644700Y1289900D03*
X0644700Y1349900D03*
X0614700Y1349900D03*
X0608300Y1379700D03*
X0638300Y1379700D03*
X0668300Y1379700D03*
X0674700Y1349900D03*
X0674700Y1409900D03*
X0644700Y1409900D03*
X0614700Y1409900D03*
X0584700Y1409900D03*
X0554700Y1409900D03*
X0524700Y1409900D03*
X0494700Y1289900D03*
X0464700Y1289900D03*
X0458300Y1259700D03*
X0428300Y1259700D03*
X0398300Y1259700D03*
X0368300Y1259700D03*
X0338300Y1259700D03*
X0308300Y1259700D03*
X0278300Y1259700D03*
X0248300Y1259700D03*
X0284700Y1289900D03*
X0314700Y1289900D03*
X0218300Y1259700D03*
X0284700Y1169900D03*
X0314700Y1169900D03*
X0338300Y1139700D03*
X0368300Y1139700D03*
X0398300Y1139700D03*
X0404700Y1109900D03*
X0374700Y1109900D03*
X0344700Y1109900D03*
X0368300Y1079700D03*
X0398300Y1079700D03*
X0428300Y1079700D03*
X0458300Y1079700D03*
X0488300Y1079700D03*
X0518300Y1079700D03*
X0548300Y1079700D03*
X0578300Y1079700D03*
X0584700Y1049900D03*
X0554700Y1049900D03*
X0524700Y1049900D03*
X0518300Y1019700D03*
X0548300Y1019700D03*
X0578300Y1019700D03*
X0584700Y0989900D03*
X0578363Y0959762D03*
X0554700Y0989900D03*
X0548300Y0959700D03*
X0524700Y0989900D03*
X0518112Y0959762D03*
X0494700Y1049900D03*
X0464700Y1049900D03*
X0464700Y1109900D03*
X0434700Y1109900D03*
X0428300Y1139700D03*
X0458300Y1139700D03*
X0488300Y1139700D03*
X0518300Y1139700D03*
X0548300Y1139700D03*
X0578300Y1139700D03*
X0584700Y1109900D03*
X0554700Y1109900D03*
X0524700Y1109900D03*
X0494700Y1109900D03*
X0494700Y1169900D03*
X0524700Y1169900D03*
X0554700Y1169900D03*
X0584700Y1169900D03*
X0614700Y1169900D03*
X0644700Y1169900D03*
X0674700Y1169900D03*
X0668300Y1139700D03*
X0638300Y1139700D03*
X0608300Y1139700D03*
X0614700Y1109900D03*
X0644700Y1109900D03*
X0674700Y1109900D03*
X0668300Y1079700D03*
X0638300Y1079700D03*
X0608300Y1079700D03*
X0614700Y1049900D03*
X0644700Y1049900D03*
X0674700Y1049900D03*
X0668300Y1019700D03*
X0638300Y1019700D03*
X0608300Y1019700D03*
X0614700Y0989900D03*
X0608300Y0959700D03*
X0638300Y0959700D03*
X0644700Y0989900D03*
X0674700Y0989900D03*
X0578300Y1259700D03*
X0548300Y1259700D03*
X0518300Y1259700D03*
X0488300Y1259700D03*
X0404700Y1169900D03*
X0374700Y1169900D03*
X0344700Y1169900D03*
X0314700Y1049900D03*
X0284700Y1049900D03*
X0278300Y1019700D03*
X0248300Y1019700D03*
X0218300Y1019700D03*
X0308300Y1019700D03*
X0338300Y1019700D03*
X0368300Y1019700D03*
X0398300Y1019700D03*
X0218300Y1139700D03*
D11*
X0224650Y1139650D03*
X0254650Y1139650D03*
X0284650Y1139650D03*
X0314650Y1139650D03*
X0308350Y1109950D03*
X0278350Y1109950D03*
X0248350Y1109950D03*
X0254650Y1079650D03*
X0224650Y1079650D03*
X0218350Y1049950D03*
X0224650Y1019650D03*
X0254650Y1019650D03*
X0284650Y1019650D03*
X0314650Y1019650D03*
X0308350Y0989950D03*
X0314650Y0959650D03*
X0284463Y0959712D03*
X0278350Y0989950D03*
X0248350Y0989950D03*
X0254837Y0959712D03*
X0224712Y0959712D03*
X0218350Y0989950D03*
X0248350Y1049950D03*
X0278350Y1049950D03*
X0308350Y1049950D03*
X0338350Y1049950D03*
X0368350Y1049950D03*
X0398350Y1049950D03*
X0404650Y1079650D03*
X0374650Y1079650D03*
X0344650Y1079650D03*
X0338350Y1109950D03*
X0368350Y1109950D03*
X0398350Y1109950D03*
X0404650Y1139650D03*
X0374650Y1139650D03*
X0344650Y1139650D03*
X0338350Y1169950D03*
X0308350Y1169950D03*
X0278350Y1169950D03*
X0248350Y1169950D03*
X0254837Y1199713D03*
X0284463Y1199713D03*
X0314650Y1199650D03*
X0308350Y1229950D03*
X0314650Y1259650D03*
X0284650Y1259650D03*
X0278350Y1229950D03*
X0248350Y1229950D03*
X0254650Y1259650D03*
X0224650Y1259650D03*
X0218350Y1229950D03*
X0224712Y1199713D03*
X0218350Y1169950D03*
X0218350Y1109950D03*
X0284650Y1079650D03*
X0314650Y1079650D03*
X0344650Y1019650D03*
X0374650Y1019650D03*
X0404650Y1019650D03*
X0434650Y1019650D03*
X0464650Y1019650D03*
X0494650Y1019650D03*
X0488350Y0989950D03*
X0494837Y0959712D03*
X0464712Y0959712D03*
X0458350Y0989950D03*
X0428350Y0989950D03*
X0404650Y0959650D03*
X0398350Y0989950D03*
X0374650Y0959650D03*
X0368350Y0989950D03*
X0344713Y0959712D03*
X0338350Y0989950D03*
X0428350Y1049950D03*
X0458350Y1049950D03*
X0488350Y1049950D03*
X0518350Y1049950D03*
X0548350Y1049950D03*
X0578350Y1049950D03*
X0584650Y1079650D03*
X0554650Y1079650D03*
X0524650Y1079650D03*
X0518350Y1109950D03*
X0488350Y1109950D03*
X0458350Y1109950D03*
X0428350Y1109950D03*
X0434650Y1139650D03*
X0464650Y1139650D03*
X0494650Y1139650D03*
X0488350Y1169950D03*
X0518350Y1169950D03*
X0548350Y1169950D03*
X0578350Y1169950D03*
X0584713Y1199713D03*
X0614650Y1199650D03*
X0644650Y1199650D03*
X0638350Y1169950D03*
X0608350Y1169950D03*
X0614650Y1139650D03*
X0584650Y1139650D03*
X0554650Y1139650D03*
X0524650Y1139650D03*
X0548350Y1109950D03*
X0578350Y1109950D03*
X0608350Y1109950D03*
X0638350Y1109950D03*
X0668350Y1109950D03*
X0674650Y1139650D03*
X0644650Y1139650D03*
X0668350Y1169950D03*
X0668350Y1229950D03*
X0674650Y1259650D03*
X0644650Y1259650D03*
X0638350Y1229950D03*
X0608350Y1229950D03*
X0614650Y1259650D03*
X0584650Y1259650D03*
X0578350Y1229950D03*
X0554650Y1259650D03*
X0548350Y1229950D03*
X0524650Y1259650D03*
X0518350Y1229950D03*
X0488350Y1229950D03*
X0494650Y1259650D03*
X0464650Y1259650D03*
X0458350Y1229950D03*
X0428350Y1229950D03*
X0434650Y1259650D03*
X0404650Y1259650D03*
X0398350Y1229950D03*
X0374650Y1259650D03*
X0368350Y1229950D03*
X0344650Y1259650D03*
X0338350Y1229950D03*
X0344713Y1199713D03*
X0374650Y1199650D03*
X0404650Y1199650D03*
X0398350Y1169950D03*
X0368350Y1169950D03*
X0434650Y1079650D03*
X0464650Y1079650D03*
X0494650Y1079650D03*
X0524650Y1019650D03*
X0554650Y1019650D03*
X0584650Y1019650D03*
X0614650Y1019650D03*
X0644650Y1019650D03*
X0674650Y1019650D03*
X0668350Y0989950D03*
X0638350Y0989950D03*
X0644650Y0959650D03*
X0614650Y0959650D03*
X0608350Y0989950D03*
X0584713Y0959712D03*
X0578350Y0989950D03*
X0554650Y0959650D03*
X0548350Y0989950D03*
X0524463Y0959712D03*
X0518350Y0989950D03*
X0608350Y1049950D03*
X0638350Y1049950D03*
X0668350Y1049950D03*
X0674650Y1079650D03*
X0644650Y1079650D03*
X0614650Y1079650D03*
X0554650Y1199650D03*
X0524463Y1199713D03*
X0494837Y1199713D03*
X0488350Y1289950D03*
X0458350Y1289950D03*
X0428350Y1289950D03*
X0434650Y1319650D03*
X0404650Y1319650D03*
X0374650Y1319650D03*
X0344650Y1319650D03*
X0338350Y1289950D03*
X0308350Y1289950D03*
X0278350Y1289950D03*
X0248350Y1289950D03*
X0254650Y1319650D03*
X0224650Y1319650D03*
X0218350Y1289950D03*
X0218350Y1349950D03*
X0224650Y1379650D03*
X0254650Y1379650D03*
X0284650Y1379650D03*
X0314650Y1379650D03*
X0308350Y1349950D03*
X0278350Y1349950D03*
X0248350Y1349950D03*
X0284650Y1319650D03*
X0314650Y1319650D03*
X0338350Y1349950D03*
X0368350Y1349950D03*
X0398350Y1349950D03*
X0404650Y1379650D03*
X0374650Y1379650D03*
X0344650Y1379650D03*
X0338350Y1409950D03*
X0308350Y1409950D03*
X0278350Y1409950D03*
X0248350Y1409950D03*
X0218350Y1409950D03*
X0368350Y1409950D03*
X0398350Y1409950D03*
X0428350Y1409950D03*
X0458350Y1409950D03*
X0488350Y1409950D03*
X0518350Y1409950D03*
X0548350Y1409950D03*
X0578350Y1409950D03*
X0584650Y1379650D03*
X0554650Y1379650D03*
X0524650Y1379650D03*
X0518350Y1349950D03*
X0488350Y1349950D03*
X0458350Y1349950D03*
X0428350Y1349950D03*
X0434650Y1379650D03*
X0464650Y1379650D03*
X0494650Y1379650D03*
X0494650Y1319650D03*
X0464650Y1319650D03*
X0518350Y1289950D03*
X0548350Y1289950D03*
X0578350Y1289950D03*
X0584650Y1319650D03*
X0554650Y1319650D03*
X0524650Y1319650D03*
X0548350Y1349950D03*
X0578350Y1349950D03*
X0608350Y1349950D03*
X0638350Y1349950D03*
X0668350Y1349950D03*
X0674650Y1379650D03*
X0644650Y1379650D03*
X0614650Y1379650D03*
X0608350Y1409950D03*
X0638350Y1409950D03*
X0668350Y1409950D03*
X0674650Y1319650D03*
X0644650Y1319650D03*
X0614650Y1319650D03*
X0608350Y1289950D03*
X0638350Y1289950D03*
X0668350Y1289950D03*
X0398350Y1289950D03*
X0368350Y1289950D03*
D12*
G36*
X0435675Y1202027D02*
X0433727Y1200079D01*
X0431779Y1202027D01*
X0433727Y1203975D01*
X0435675Y1202027D01*
G37*
G36*
X0431221Y1197573D02*
X0429273Y1195625D01*
X0427325Y1197573D01*
X0429273Y1199521D01*
X0431221Y1197573D01*
G37*
G36*
X0429273Y1173975D02*
X0431221Y1172027D01*
X0429273Y1170079D01*
X0427325Y1172027D01*
X0429273Y1173975D01*
G37*
G36*
X0433727Y1169521D02*
X0435675Y1167573D01*
X0433727Y1165625D01*
X0431779Y1167573D01*
X0433727Y1169521D01*
G37*
G36*
X0457325Y1167573D02*
X0459273Y1169521D01*
X0461221Y1167573D01*
X0459273Y1165625D01*
X0457325Y1167573D01*
G37*
G36*
X0461779Y1172027D02*
X0463727Y1173975D01*
X0465675Y1172027D01*
X0463727Y1170079D01*
X0461779Y1172027D01*
G37*
G36*
X0463790Y1195687D02*
X0461842Y1197635D01*
X0463790Y1199583D01*
X0465738Y1197635D01*
X0463790Y1195687D01*
G37*
G36*
X0459335Y1200142D02*
X0457387Y1202090D01*
X0459335Y1204038D01*
X0461283Y1202090D01*
X0459335Y1200142D01*
G37*
G36*
X0671221Y1197573D02*
X0669273Y1195625D01*
X0667325Y1197573D01*
X0669273Y1199521D01*
X0671221Y1197573D01*
G37*
G36*
X0675675Y1202027D02*
X0673727Y1200079D01*
X0671779Y1202027D01*
X0673727Y1203975D01*
X0675675Y1202027D01*
G37*
G36*
X0675675Y0962027D02*
X0673727Y0960079D01*
X0671779Y0962027D01*
X0673727Y0963975D01*
X0675675Y0962027D01*
G37*
G36*
X0671221Y0957573D02*
X0669273Y0955625D01*
X0667325Y0957573D01*
X0669273Y0959521D01*
X0671221Y0957573D01*
G37*
G36*
X0435675Y0962027D02*
X0433727Y0960079D01*
X0431779Y0962027D01*
X0433727Y0963975D01*
X0435675Y0962027D01*
G37*
G36*
X0431221Y0957573D02*
X0429273Y0955625D01*
X0427325Y0957573D01*
X0429273Y0959521D01*
X0431221Y0957573D01*
G37*
D13*
X0462725Y1128838D03*
X0474725Y1128838D03*
X0470037Y1245688D03*
X0458037Y1245688D03*
X0462912Y1304638D03*
X0450912Y1304638D03*
X0452787Y1367213D03*
X0464787Y1367213D03*
X0458575Y1437362D03*
X0446575Y1437362D03*
X0436600Y1435000D03*
X0431200Y1444400D03*
X0424600Y1435000D03*
X0419200Y1444400D03*
X0474600Y1447000D03*
X0474600Y1458500D03*
X0486600Y1458500D03*
X0486600Y1447000D03*
X0559100Y1473700D03*
X0571100Y1473700D03*
X0251700Y1502900D03*
X0239700Y1502900D03*
X0131700Y1353200D03*
X0119700Y1353200D03*
X0117500Y1306200D03*
X0129500Y1306200D03*
X0183175Y1268763D03*
X0183187Y1259013D03*
X0182912Y1249238D03*
X0194912Y1249238D03*
X0195187Y1259013D03*
X0195175Y1268763D03*
X0194837Y1235688D03*
X0182837Y1235688D03*
X0129600Y1234200D03*
X0117600Y1234200D03*
X0119800Y1123500D03*
X0131800Y1123500D03*
X0127800Y1068000D03*
X0115800Y1068000D03*
X0123200Y0992700D03*
X0135200Y0992700D03*
X0188837Y1048387D03*
X0188712Y1058038D03*
X0188587Y1067613D03*
X0188575Y1077663D03*
X0200575Y1077663D03*
X0200587Y1067613D03*
X0200712Y1058038D03*
X0200837Y1048387D03*
D14*
X0107906Y1044300D03*
X0096094Y1044300D03*
X0096094Y1018300D03*
X0107906Y1018300D03*
X0107906Y1080300D03*
X0096094Y1080300D03*
X0096094Y1105800D03*
X0107906Y1105800D03*
X0107406Y1149800D03*
X0095594Y1149800D03*
X0095594Y1171300D03*
X0107406Y1171300D03*
X0106906Y1262800D03*
X0095094Y1262800D03*
X0095594Y1288300D03*
X0107406Y1288300D03*
X0107406Y1316800D03*
X0095594Y1316800D03*
X0095594Y1339800D03*
X0107406Y1339800D03*
X0106906Y1369300D03*
X0095094Y1369300D03*
X0095594Y1391800D03*
X0107406Y1391800D03*
D15*
X0105300Y0952900D03*
X0105300Y0983700D03*
X0113800Y1191900D03*
X0113800Y1222700D03*
D16*
X0160300Y1205000D03*
X0160300Y1193000D03*
X0175400Y1196500D03*
X0175400Y1208500D03*
X0161300Y0965300D03*
X0149400Y0965200D03*
X0149400Y0953200D03*
X0161300Y0953300D03*
X0464837Y1058588D03*
X0475987Y1058763D03*
X0475987Y1070763D03*
X0464837Y1070588D03*
X0487212Y1118613D03*
X0487212Y1130613D03*
X0524400Y1467700D03*
X0524400Y1479700D03*
X0625600Y1499500D03*
X0625600Y1511500D03*
X0372700Y1516200D03*
X0372700Y1504200D03*
X0315400Y1506000D03*
X0315400Y1494000D03*
D17*
X0316500Y1514394D03*
X0316500Y1526206D03*
X0245400Y1523306D03*
X0245400Y1511494D03*
X0187600Y1436506D03*
X0187600Y1424694D03*
X0165700Y1359506D03*
X0165700Y1347694D03*
X0135300Y1207106D03*
X0135300Y1195294D03*
X0128100Y0965606D03*
X0128100Y0953794D03*
X0479200Y1465494D03*
X0479200Y1477306D03*
X0533900Y1474806D03*
X0533900Y1462994D03*
X0572000Y1520394D03*
X0572000Y1532206D03*
X0625800Y1528806D03*
X0625800Y1516994D03*
D18*
X0136700Y1218363D03*
X0125700Y0974863D03*
D19*
X0125700Y0985099D03*
X0136700Y1228599D03*
D20*
X0145000Y1202500D03*
X0145000Y1195500D03*
X0166500Y1015000D03*
X0166500Y1008000D03*
X0137100Y0963300D03*
X0137100Y0956300D03*
X0160700Y1387600D03*
X0160700Y1394600D03*
X0184500Y1398600D03*
X0184500Y1405600D03*
X0346800Y1450400D03*
X0346800Y1457400D03*
X0489000Y1470600D03*
X0489000Y1477600D03*
X0559100Y1450200D03*
X0559100Y1443200D03*
X0587600Y1443700D03*
X0587600Y1450700D03*
D21*
X0153118Y1313540D03*
X0153118Y1306060D03*
X0142882Y1306060D03*
X0142882Y1309800D03*
X0142882Y1313540D03*
X0128918Y1361360D03*
X0128918Y1368840D03*
X0118682Y1368840D03*
X0118682Y1365100D03*
X0118682Y1361360D03*
X0117382Y1250040D03*
X0117382Y1246300D03*
X0117382Y1242560D03*
X0127618Y1242560D03*
X0127618Y1250040D03*
X0122682Y1139840D03*
X0122682Y1136100D03*
X0122682Y1132360D03*
X0132918Y1132360D03*
X0132918Y1139840D03*
X0141382Y1073540D03*
X0141382Y1069800D03*
X0141382Y1066060D03*
X0151618Y1066060D03*
X0151618Y1073540D03*
X0130118Y1008540D03*
X0130118Y1001060D03*
X0119882Y1001060D03*
X0119882Y1004800D03*
X0119882Y1008540D03*
D22*
X0122000Y1014800D03*
X0128000Y1014800D03*
X0185500Y1036400D03*
X0191500Y1036400D03*
X0158400Y1079600D03*
X0152400Y1079600D03*
X0181500Y1110300D03*
X0181500Y1116300D03*
X0178100Y1142400D03*
X0172100Y1142400D03*
X0137900Y1141000D03*
X0137900Y1147000D03*
X0130500Y1255800D03*
X0124500Y1255800D03*
X0159000Y1259400D03*
X0159000Y1265400D03*
X0158900Y1269800D03*
X0158900Y1275800D03*
X0159000Y1318300D03*
X0153000Y1318300D03*
X0127500Y1373800D03*
X0121500Y1373800D03*
X0114300Y1456100D03*
X0114300Y1462100D03*
X0115000Y1476300D03*
X0115000Y1482300D03*
X0121900Y1503700D03*
X0121900Y1509700D03*
X0195900Y1417200D03*
X0201900Y1417200D03*
X0272500Y1502800D03*
X0272500Y1508800D03*
X0330700Y1489100D03*
X0336700Y1489100D03*
X0337000Y1465800D03*
X0331000Y1465800D03*
X0340500Y1457300D03*
X0340500Y1451300D03*
X0396900Y1499800D03*
X0396900Y1505800D03*
X0527900Y1489700D03*
X0533900Y1489700D03*
X0576900Y1477100D03*
X0582900Y1477100D03*
X0573200Y1451000D03*
X0567400Y1451000D03*
X0567400Y1445000D03*
X0573200Y1445000D03*
X0646500Y1497200D03*
X0646500Y1503200D03*
D23*
X0230441Y1501099D03*
X0230441Y1525115D03*
X0185559Y1525115D03*
X0185559Y1501099D03*
D24*
X0166327Y1227500D03*
X0166327Y1222500D03*
X0166327Y1217500D03*
X0166327Y1212500D03*
X0144673Y1212500D03*
X0144673Y1217500D03*
X0144673Y1222500D03*
X0144673Y1227500D03*
X0138673Y0987000D03*
X0138673Y0982000D03*
X0138673Y0977000D03*
X0138673Y0972000D03*
X0160327Y0972000D03*
X0160327Y0977000D03*
X0160327Y0982000D03*
X0160327Y0987000D03*
X0494673Y1444600D03*
X0494673Y1449600D03*
X0494673Y1454600D03*
X0494673Y1459600D03*
X0516327Y1459600D03*
X0516327Y1454600D03*
X0516327Y1449600D03*
X0516327Y1444600D03*
D25*
X0505500Y1452100D03*
X0155500Y1220000D03*
X0149500Y0979500D03*
D26*
X0185094Y0998200D03*
X0196906Y0998200D03*
X0129806Y1056100D03*
X0117994Y1056100D03*
X0119894Y1113100D03*
X0131706Y1113100D03*
X0136994Y1184100D03*
X0148806Y1184100D03*
X0110806Y1232100D03*
X0098994Y1232100D03*
X0118094Y1296800D03*
X0129906Y1296800D03*
X0370694Y1467500D03*
X0382506Y1467500D03*
X0427994Y1467500D03*
X0439806Y1467500D03*
X0665494Y1468300D03*
X0677306Y1468300D03*
D27*
X0143760Y1398800D03*
X0143760Y1393800D03*
X0143760Y1388800D03*
X0143760Y1383800D03*
X0143260Y1339800D03*
X0143260Y1334800D03*
X0143260Y1329800D03*
X0143260Y1324800D03*
X0142760Y1284300D03*
X0142760Y1279300D03*
X0142760Y1274300D03*
X0142760Y1269300D03*
X0143260Y1171800D03*
X0143260Y1166800D03*
X0143260Y1161800D03*
X0143260Y1156800D03*
X0142760Y1099800D03*
X0142760Y1094800D03*
X0142760Y1089800D03*
X0142760Y1084800D03*
X0142760Y1044300D03*
X0142760Y1039300D03*
X0142760Y1034300D03*
X0142760Y1029300D03*
D28*
X0121106Y1029300D03*
X0121106Y1034300D03*
X0121106Y1039300D03*
X0121106Y1044300D03*
X0121106Y1084800D03*
X0121106Y1089800D03*
X0121106Y1094800D03*
X0121106Y1099800D03*
X0121606Y1156800D03*
X0121606Y1161800D03*
X0121606Y1166800D03*
X0121606Y1171800D03*
X0121106Y1269300D03*
X0121106Y1274300D03*
X0121106Y1279300D03*
X0121106Y1284300D03*
X0121606Y1324800D03*
X0121606Y1329800D03*
X0121606Y1334800D03*
X0121606Y1339800D03*
X0122106Y1383800D03*
X0122106Y1388800D03*
X0122106Y1393800D03*
X0122106Y1398800D03*
D29*
X0129882Y1396300D03*
X0136969Y1396300D03*
X0136469Y1337300D03*
X0129382Y1337300D03*
X0128882Y1281800D03*
X0135969Y1281800D03*
X0136469Y1169300D03*
X0129382Y1169300D03*
X0128882Y1097300D03*
X0135969Y1097300D03*
X0135969Y1041800D03*
X0128882Y1041800D03*
X0297500Y1493831D03*
X0297500Y1500918D03*
X0359000Y1499918D03*
X0359000Y1492831D03*
X0424500Y1494831D03*
X0424500Y1501918D03*
X0560000Y1500418D03*
X0560000Y1493331D03*
X0605500Y1492831D03*
X0605500Y1499918D03*
X0671000Y1499918D03*
X0671000Y1492831D03*
D30*
X0136772Y1386300D03*
X0130079Y1386300D03*
X0129579Y1327300D03*
X0136272Y1327300D03*
X0135772Y1271800D03*
X0129079Y1271800D03*
X0129579Y1159300D03*
X0136272Y1159300D03*
X0135772Y1087300D03*
X0129079Y1087300D03*
X0129079Y1031800D03*
X0135772Y1031800D03*
D31*
X0168063Y1105481D03*
X0170031Y1105481D03*
X0172000Y1105481D03*
X0173969Y1105481D03*
X0175937Y1105481D03*
X0175937Y1122119D03*
X0173969Y1122119D03*
X0172000Y1122119D03*
X0170031Y1122119D03*
X0168063Y1122119D03*
X0169000Y1257981D03*
X0170969Y1257981D03*
X0172937Y1257981D03*
X0167031Y1257981D03*
X0165063Y1257981D03*
X0165063Y1274619D03*
X0167031Y1274619D03*
X0169000Y1274619D03*
X0170969Y1274619D03*
X0172937Y1274619D03*
D32*
X0278500Y1522894D03*
X0278500Y1534706D03*
X0301500Y1534706D03*
X0301500Y1522894D03*
X0343000Y1522894D03*
X0343000Y1534706D03*
X0365000Y1534706D03*
X0365000Y1522894D03*
X0400500Y1522894D03*
X0400500Y1534706D03*
X0424000Y1534706D03*
X0424000Y1522894D03*
X0534000Y1523394D03*
X0534000Y1535206D03*
X0556500Y1535206D03*
X0556500Y1523394D03*
X0589500Y1522894D03*
X0589500Y1534706D03*
X0611000Y1534706D03*
X0611000Y1522894D03*
X0650800Y1522894D03*
X0650800Y1534706D03*
X0673500Y1534706D03*
X0673500Y1522894D03*
D33*
X0514700Y1517900D03*
X0483900Y1517900D03*
X0473900Y1518000D03*
X0443100Y1518000D03*
D34*
X0456563Y1496600D03*
X0507063Y1469100D03*
X0150537Y1510800D03*
D35*
X0140301Y1510800D03*
X0466799Y1496600D03*
X0517299Y1469100D03*
D36*
X0526260Y1496182D03*
X0533740Y1496182D03*
X0533740Y1506418D03*
X0530000Y1506418D03*
X0526260Y1506418D03*
X0575360Y1495318D03*
X0579100Y1495318D03*
X0582840Y1495318D03*
X0582840Y1485082D03*
X0575360Y1485082D03*
X0634360Y1496882D03*
X0641840Y1496882D03*
X0641840Y1507118D03*
X0638100Y1507118D03*
X0634360Y1507118D03*
X0391740Y1509118D03*
X0388000Y1509118D03*
X0384260Y1509118D03*
X0384260Y1498882D03*
X0391740Y1498882D03*
X0330240Y1494682D03*
X0322760Y1494682D03*
X0322760Y1504918D03*
X0326500Y1504918D03*
X0330240Y1504918D03*
X0264240Y1502182D03*
X0256760Y1502182D03*
X0256760Y1512418D03*
X0260500Y1512418D03*
X0264240Y1512418D03*
D37*
X0285000Y1487040D03*
X0290000Y1487040D03*
X0295000Y1487040D03*
X0300000Y1487040D03*
X0346500Y1486040D03*
X0351500Y1486040D03*
X0356500Y1486040D03*
X0361500Y1486040D03*
X0412000Y1488040D03*
X0417000Y1488040D03*
X0422000Y1488040D03*
X0427000Y1488040D03*
X0547500Y1486540D03*
X0552500Y1486540D03*
X0557500Y1486540D03*
X0562500Y1486540D03*
X0593000Y1486040D03*
X0598000Y1486040D03*
X0603000Y1486040D03*
X0608000Y1486040D03*
X0658500Y1486040D03*
X0663500Y1486040D03*
X0668500Y1486040D03*
X0673500Y1486040D03*
D38*
X0673500Y1507694D03*
X0668500Y1507694D03*
X0663500Y1507694D03*
X0658500Y1507694D03*
X0608000Y1507694D03*
X0603000Y1507694D03*
X0598000Y1507694D03*
X0593000Y1507694D03*
X0562500Y1508194D03*
X0557500Y1508194D03*
X0552500Y1508194D03*
X0547500Y1508194D03*
X0427000Y1509694D03*
X0422000Y1509694D03*
X0417000Y1509694D03*
X0412000Y1509694D03*
X0361500Y1507694D03*
X0356500Y1507694D03*
X0351500Y1507694D03*
X0346500Y1507694D03*
X0300000Y1508694D03*
X0295000Y1508694D03*
X0290000Y1508694D03*
X0285000Y1508694D03*
D39*
X0287500Y1500721D03*
X0287500Y1494028D03*
X0349000Y1493028D03*
X0349000Y1499721D03*
X0414500Y1501721D03*
X0414500Y1495028D03*
X0550000Y1493528D03*
X0550000Y1500221D03*
X0595500Y1499721D03*
X0595500Y1493028D03*
X0661000Y1493028D03*
X0661000Y1499721D03*
D40*
X0441200Y1458300D03*
X0434200Y1458300D03*
X0320400Y1439800D03*
X0313400Y1439800D03*
X0196700Y1478200D03*
X0189700Y1478200D03*
X0181000Y1478500D03*
X0174000Y1478500D03*
X0182200Y1468500D03*
X0189200Y1468500D03*
X0186200Y1299400D03*
X0179200Y1299400D03*
X0164700Y1284400D03*
X0157700Y1284400D03*
X0171600Y1135600D03*
X0178600Y1135600D03*
D41*
X0179800Y1029027D03*
X0184800Y1029027D03*
X0189800Y1029027D03*
X0174800Y1029027D03*
X0174800Y1007373D03*
X0179800Y1007373D03*
X0184800Y1007373D03*
X0189800Y1007373D03*
X0448200Y1465473D03*
X0453200Y1465473D03*
X0458200Y1465473D03*
X0463200Y1465473D03*
X0463200Y1487127D03*
X0458200Y1487127D03*
X0453200Y1487127D03*
X0448200Y1487127D03*
D42*
X0455700Y1476300D03*
D43*
X0607605Y1456600D03*
X0633195Y1456600D03*
X0262795Y1455800D03*
X0237205Y1455800D03*
D44*
X0128940Y1476182D03*
X0125200Y1476182D03*
X0121460Y1476182D03*
X0121460Y1486379D03*
X0125200Y1486379D03*
X0128940Y1486379D03*
X0127460Y1501621D03*
X0131200Y1501621D03*
X0134940Y1501621D03*
X0134940Y1511818D03*
X0127460Y1511818D03*
D45*
X0182282Y1388821D03*
X0182282Y1383900D03*
X0182282Y1378979D03*
D46*
X0171455Y1368939D03*
X0171455Y1398861D03*
D47*
X0171200Y1177595D03*
X0171200Y1152005D03*
D48*
X0313681Y1453363D03*
X0313681Y1455331D03*
X0313681Y1457300D03*
X0313681Y1459269D03*
X0313681Y1461237D03*
X0330319Y1461237D03*
X0330319Y1459269D03*
X0330319Y1457300D03*
X0330319Y1455331D03*
X0330319Y1453363D03*
X0557481Y1456863D03*
X0557481Y1458831D03*
X0557481Y1460800D03*
X0557481Y1462769D03*
X0557481Y1464737D03*
X0574119Y1464737D03*
X0574119Y1462769D03*
X0574119Y1460800D03*
X0574119Y1458831D03*
X0574119Y1456863D03*
D49*
X0654200Y1456300D03*
X0671800Y1446300D03*
X0654200Y1436300D03*
D50*
X0195000Y0963500D03*
X0185000Y0981100D03*
X0175000Y0963500D03*
D51*
X0194860Y1422572D03*
X0198600Y1422572D03*
X0202340Y1422572D03*
X0202340Y1431628D03*
X0194860Y1431628D03*
D52*
X0173000Y1429300D03*
X0159000Y1419300D03*
X0173000Y1409300D03*
X0159000Y1439300D03*
X0173000Y1449300D03*
X0159000Y1459300D03*
X0173000Y1469300D03*
X0159000Y1479300D03*
X0173000Y1489300D03*
X0159000Y1499300D03*
X0173000Y1509300D03*
X0159000Y1519300D03*
X0173000Y1529300D03*
X0159000Y1539300D03*
X0113000Y1529300D03*
X0099000Y1539300D03*
X0099000Y1519300D03*
X0113000Y1509300D03*
X0099000Y1499300D03*
X0113000Y1489300D03*
X0099000Y1479300D03*
X0113000Y1469300D03*
X0099000Y1459300D03*
X0113000Y1449300D03*
X0099000Y1439300D03*
X0113000Y1429300D03*
X0099000Y1419300D03*
X0113000Y1409300D03*
D53*
X0136000Y1528800D03*
D54*
X0126650Y1518564D03*
X0145350Y1518564D03*
X0145350Y1539036D03*
X0126650Y1539036D03*
D55*
X0124976Y1528800D03*
X0147024Y1528800D03*
D56*
X0196118Y1445179D03*
X0201039Y1445179D03*
X0205961Y1445179D03*
X0210882Y1445179D03*
D57*
X0220921Y1456006D03*
X0186079Y1456006D03*
D58*
X0147911Y1458201D03*
X0140037Y1458201D03*
X0132163Y1458201D03*
X0124289Y1420799D03*
X0140037Y1420799D03*
X0147911Y1420799D03*
D59*
X0233646Y1404800D03*
X0239354Y1404800D03*
X0239354Y1394800D03*
X0233646Y1394800D03*
X0233646Y1384800D03*
X0239354Y1384800D03*
X0239354Y1344800D03*
X0233646Y1344800D03*
X0233646Y1334800D03*
X0239354Y1334800D03*
X0239354Y1324800D03*
X0233646Y1324800D03*
X0233646Y1284800D03*
X0239354Y1284800D03*
X0239354Y1274800D03*
X0233646Y1274800D03*
X0233646Y1264800D03*
X0239354Y1264800D03*
X0239354Y1224800D03*
X0233646Y1224800D03*
X0233646Y1214800D03*
X0239354Y1214800D03*
X0239354Y1204800D03*
X0233646Y1204800D03*
X0233646Y1164800D03*
X0239354Y1164800D03*
X0239354Y1154800D03*
X0233646Y1154800D03*
X0233646Y1144800D03*
X0239354Y1144800D03*
X0239354Y1104800D03*
X0233646Y1104800D03*
X0233646Y1094800D03*
X0239354Y1094800D03*
X0239354Y1084800D03*
X0233646Y1084800D03*
X0233646Y1044800D03*
X0239354Y1044800D03*
X0239354Y1034800D03*
X0233646Y1034800D03*
X0233646Y1024800D03*
X0239354Y1024800D03*
X0239354Y0984800D03*
X0233646Y0984800D03*
X0233646Y0974800D03*
X0239354Y0974800D03*
X0239354Y0964800D03*
X0233646Y0964800D03*
X0293646Y0964800D03*
X0299354Y0964800D03*
X0299354Y0974800D03*
X0293646Y0974800D03*
X0293646Y0984800D03*
X0299354Y0984800D03*
X0299354Y1024800D03*
X0293646Y1024800D03*
X0293646Y1034800D03*
X0299354Y1034800D03*
X0299354Y1044800D03*
X0293646Y1044800D03*
X0293646Y1084800D03*
X0299354Y1084800D03*
X0299354Y1094800D03*
X0293646Y1094800D03*
X0293646Y1104800D03*
X0299354Y1104800D03*
X0299354Y1144800D03*
X0293646Y1144800D03*
X0293646Y1154800D03*
X0299354Y1154800D03*
X0299354Y1164800D03*
X0293646Y1164800D03*
X0293646Y1204800D03*
X0299354Y1204800D03*
X0299354Y1214800D03*
X0293646Y1214800D03*
X0293646Y1224800D03*
X0299354Y1224800D03*
X0299354Y1264800D03*
X0293646Y1264800D03*
X0293646Y1274800D03*
X0299354Y1274800D03*
X0299354Y1284800D03*
X0293646Y1284800D03*
X0293646Y1324800D03*
X0299354Y1324800D03*
X0299354Y1334800D03*
X0293646Y1334800D03*
X0293646Y1344800D03*
X0299354Y1344800D03*
X0299354Y1384800D03*
X0293646Y1384800D03*
X0293646Y1394800D03*
X0299354Y1394800D03*
X0299354Y1404800D03*
X0293646Y1404800D03*
X0353646Y1404800D03*
X0359354Y1404800D03*
X0359354Y1394800D03*
X0353646Y1394800D03*
X0353646Y1384800D03*
X0359354Y1384800D03*
X0359354Y1344800D03*
X0353646Y1344800D03*
X0353646Y1334800D03*
X0359354Y1334800D03*
X0359354Y1324800D03*
X0353646Y1324800D03*
X0353646Y1284800D03*
X0359354Y1284800D03*
X0359354Y1274800D03*
X0353646Y1274800D03*
X0353646Y1264800D03*
X0359354Y1264800D03*
X0359354Y1224800D03*
X0353646Y1224800D03*
X0353646Y1214800D03*
X0359354Y1214800D03*
X0359354Y1204800D03*
X0353646Y1204800D03*
X0353646Y1164800D03*
X0359354Y1164800D03*
X0359354Y1154800D03*
X0353646Y1154800D03*
X0353646Y1144800D03*
X0359354Y1144800D03*
X0359354Y1104800D03*
X0353646Y1104800D03*
X0353646Y1094800D03*
X0359354Y1094800D03*
X0359354Y1084800D03*
X0353646Y1084800D03*
X0353646Y1044800D03*
X0359354Y1044800D03*
X0359354Y1034800D03*
X0353646Y1034800D03*
X0353646Y1024800D03*
X0359354Y1024800D03*
X0359354Y0984800D03*
X0353646Y0984800D03*
X0353646Y0974800D03*
X0359354Y0974800D03*
X0359354Y0964800D03*
X0353646Y0964800D03*
X0413646Y0964800D03*
X0419354Y0964800D03*
X0419354Y0974800D03*
X0413646Y0974800D03*
X0413646Y0984800D03*
X0419354Y0984800D03*
X0419354Y1024800D03*
X0413646Y1024800D03*
X0413646Y1034800D03*
X0419354Y1034800D03*
X0419354Y1044800D03*
X0413646Y1044800D03*
X0413646Y1084800D03*
X0419354Y1084800D03*
X0419354Y1094800D03*
X0413646Y1094800D03*
X0413646Y1104800D03*
X0419354Y1104800D03*
X0419354Y1144800D03*
X0413646Y1144800D03*
X0413646Y1154800D03*
X0419354Y1154800D03*
X0419354Y1164800D03*
X0413646Y1164800D03*
X0413646Y1204800D03*
X0419354Y1204800D03*
X0419354Y1214800D03*
X0413646Y1214800D03*
X0413646Y1224800D03*
X0419354Y1224800D03*
X0419354Y1264800D03*
X0413646Y1264800D03*
X0413646Y1274800D03*
X0419354Y1274800D03*
X0419354Y1284800D03*
X0413646Y1284800D03*
X0413646Y1324800D03*
X0419354Y1324800D03*
X0419354Y1334800D03*
X0413646Y1334800D03*
X0413646Y1344800D03*
X0419354Y1344800D03*
X0419354Y1384800D03*
X0413646Y1384800D03*
X0413646Y1394800D03*
X0419354Y1394800D03*
X0419354Y1404800D03*
X0413646Y1404800D03*
X0473646Y1404800D03*
X0479354Y1404800D03*
X0479354Y1394800D03*
X0473646Y1394800D03*
X0473646Y1384800D03*
X0479354Y1384800D03*
X0479354Y1344800D03*
X0473646Y1344800D03*
X0473646Y1334800D03*
X0479354Y1334800D03*
X0479354Y1324800D03*
X0473646Y1324800D03*
X0473646Y1284800D03*
X0479354Y1284800D03*
X0479354Y1274800D03*
X0473646Y1274800D03*
X0473646Y1264800D03*
X0479354Y1264800D03*
X0479354Y1224800D03*
X0473646Y1224800D03*
X0473646Y1214800D03*
X0479354Y1214800D03*
X0479354Y1204800D03*
X0473646Y1204800D03*
X0473646Y1164800D03*
X0479354Y1164800D03*
X0479354Y1154800D03*
X0473646Y1154800D03*
X0473646Y1144800D03*
X0479354Y1144800D03*
X0479354Y1104800D03*
X0473646Y1104800D03*
X0473646Y1094800D03*
X0479354Y1094800D03*
X0479354Y1084800D03*
X0473646Y1084800D03*
X0473646Y1044800D03*
X0479354Y1044800D03*
X0479354Y1034800D03*
X0473646Y1034800D03*
X0473646Y1024800D03*
X0479354Y1024800D03*
X0479354Y0984800D03*
X0473646Y0984800D03*
X0473646Y0974800D03*
X0479354Y0974800D03*
X0479354Y0964800D03*
X0473646Y0964800D03*
X0533646Y0964800D03*
X0539354Y0964800D03*
X0539354Y0974800D03*
X0533646Y0974800D03*
X0533646Y0984800D03*
X0539354Y0984800D03*
X0539354Y1024800D03*
X0533646Y1024800D03*
X0533646Y1034800D03*
X0539354Y1034800D03*
X0539354Y1044800D03*
X0533646Y1044800D03*
X0533646Y1084800D03*
X0539354Y1084800D03*
X0539354Y1094800D03*
X0533646Y1094800D03*
X0533646Y1104800D03*
X0539354Y1104800D03*
X0539354Y1144800D03*
X0533646Y1144800D03*
X0533646Y1154800D03*
X0539354Y1154800D03*
X0539354Y1164800D03*
X0533646Y1164800D03*
X0533646Y1204800D03*
X0539354Y1204800D03*
X0539354Y1214800D03*
X0533646Y1214800D03*
X0533646Y1224800D03*
X0539354Y1224800D03*
X0539354Y1264800D03*
X0533646Y1264800D03*
X0533646Y1274800D03*
X0539354Y1274800D03*
X0539354Y1284800D03*
X0533646Y1284800D03*
X0533646Y1324800D03*
X0539354Y1324800D03*
X0539354Y1334800D03*
X0533646Y1334800D03*
X0533646Y1344800D03*
X0539354Y1344800D03*
X0539354Y1384800D03*
X0533646Y1384800D03*
X0533646Y1394800D03*
X0539354Y1394800D03*
X0539354Y1404800D03*
X0533646Y1404800D03*
X0593646Y1404800D03*
X0599354Y1404800D03*
X0599354Y1394800D03*
X0593646Y1394800D03*
X0593646Y1384800D03*
X0599354Y1384800D03*
X0599354Y1344800D03*
X0593646Y1344800D03*
X0593646Y1334800D03*
X0599354Y1334800D03*
X0599354Y1324800D03*
X0593646Y1324800D03*
X0593646Y1284800D03*
X0599354Y1284800D03*
X0599354Y1274800D03*
X0593646Y1274800D03*
X0593646Y1264800D03*
X0599354Y1264800D03*
X0599354Y1224800D03*
X0593646Y1224800D03*
X0593646Y1214800D03*
X0599354Y1214800D03*
X0599354Y1204800D03*
X0593646Y1204800D03*
X0593646Y1164800D03*
X0599354Y1164800D03*
X0599354Y1154800D03*
X0593646Y1154800D03*
X0593646Y1144800D03*
X0599354Y1144800D03*
X0599354Y1104800D03*
X0593646Y1104800D03*
X0593646Y1094800D03*
X0599354Y1094800D03*
X0599354Y1084800D03*
X0593646Y1084800D03*
X0593646Y1044800D03*
X0599354Y1044800D03*
X0599354Y1034800D03*
X0593646Y1034800D03*
X0593646Y1024800D03*
X0599354Y1024800D03*
X0599354Y0984800D03*
X0593646Y0984800D03*
X0593646Y0974800D03*
X0599354Y0974800D03*
X0599354Y0964800D03*
X0593646Y0964800D03*
X0653646Y0964800D03*
X0659354Y0964800D03*
X0659354Y0974800D03*
X0653646Y0974800D03*
X0653646Y0984800D03*
X0659354Y0984800D03*
X0659354Y1024800D03*
X0653646Y1024800D03*
X0653646Y1034800D03*
X0659354Y1034800D03*
X0659354Y1044800D03*
X0653646Y1044800D03*
X0653646Y1084800D03*
X0659354Y1084800D03*
X0659354Y1094800D03*
X0653646Y1094800D03*
X0653646Y1104800D03*
X0659354Y1104800D03*
X0659354Y1144800D03*
X0653646Y1144800D03*
X0653646Y1154800D03*
X0659354Y1154800D03*
X0659354Y1164800D03*
X0653646Y1164800D03*
X0653646Y1204800D03*
X0659354Y1204800D03*
X0659354Y1214800D03*
X0653646Y1214800D03*
X0653646Y1224800D03*
X0659354Y1224800D03*
X0659354Y1264800D03*
X0653646Y1264800D03*
X0653646Y1274800D03*
X0659354Y1274800D03*
X0659354Y1284800D03*
X0653646Y1284800D03*
X0653646Y1324800D03*
X0659354Y1324800D03*
X0659354Y1334800D03*
X0653646Y1334800D03*
X0653646Y1344800D03*
X0659354Y1344800D03*
X0659354Y1384800D03*
X0653646Y1384800D03*
X0653646Y1394800D03*
X0659354Y1394800D03*
X0659354Y1404800D03*
X0653646Y1404800D03*
D60*
X0656500Y1404800D03*
X0656500Y1394800D03*
X0656500Y1384800D03*
X0656500Y1344800D03*
X0656500Y1334800D03*
X0656500Y1324800D03*
X0656500Y1284800D03*
X0656500Y1274800D03*
X0656500Y1264800D03*
X0656500Y1224800D03*
X0656500Y1214800D03*
X0656500Y1204800D03*
X0656500Y1164800D03*
X0656500Y1154800D03*
X0656500Y1144800D03*
X0656500Y1104800D03*
X0656500Y1094800D03*
X0656500Y1084800D03*
X0656500Y1044800D03*
X0656500Y1034800D03*
X0656500Y1024800D03*
X0656500Y0984800D03*
X0656500Y0974800D03*
X0656500Y0964800D03*
X0596500Y0964800D03*
X0596500Y0974800D03*
X0596500Y0984800D03*
X0596500Y1024800D03*
X0596500Y1034800D03*
X0596500Y1044800D03*
X0596500Y1084800D03*
X0596500Y1094800D03*
X0596500Y1104800D03*
X0596500Y1144800D03*
X0596500Y1154800D03*
X0596500Y1164800D03*
X0596500Y1204800D03*
X0596500Y1214800D03*
X0596500Y1224800D03*
X0596500Y1264800D03*
X0596500Y1274800D03*
X0596500Y1284800D03*
X0596500Y1324800D03*
X0596500Y1334800D03*
X0596500Y1344800D03*
X0596500Y1384800D03*
X0596500Y1394800D03*
X0596500Y1404800D03*
X0536500Y1404800D03*
X0536500Y1394800D03*
X0536500Y1384800D03*
X0536500Y1344800D03*
X0536500Y1334800D03*
X0536500Y1324800D03*
X0536500Y1284800D03*
X0536500Y1274800D03*
X0536500Y1264800D03*
X0536500Y1224800D03*
X0536500Y1214800D03*
X0536500Y1204800D03*
X0536500Y1164800D03*
X0536500Y1154800D03*
X0536500Y1144800D03*
X0536500Y1104800D03*
X0536500Y1094800D03*
X0536500Y1084800D03*
X0536500Y1044800D03*
X0536500Y1034800D03*
X0536500Y1024800D03*
X0536500Y0984800D03*
X0536500Y0974800D03*
X0536500Y0964800D03*
X0476500Y0964800D03*
X0476500Y0974800D03*
X0476500Y0984800D03*
X0476500Y1024800D03*
X0476500Y1034800D03*
X0476500Y1044800D03*
X0476500Y1084800D03*
X0476500Y1094800D03*
X0476500Y1104800D03*
X0476500Y1144800D03*
X0476500Y1154800D03*
X0476500Y1164800D03*
X0476500Y1204800D03*
X0476500Y1214800D03*
X0476500Y1224800D03*
X0476500Y1264800D03*
X0476500Y1274800D03*
X0476500Y1284800D03*
X0476500Y1324800D03*
X0476500Y1334800D03*
X0476500Y1344800D03*
X0476500Y1384800D03*
X0476500Y1394800D03*
X0476500Y1404800D03*
X0416500Y1404800D03*
X0416500Y1394800D03*
X0416500Y1384800D03*
X0416500Y1344800D03*
X0416500Y1334800D03*
X0416500Y1324800D03*
X0416500Y1284800D03*
X0416500Y1274800D03*
X0416500Y1264800D03*
X0416500Y1224800D03*
X0416500Y1214800D03*
X0416500Y1204800D03*
X0416500Y1164800D03*
X0416500Y1154800D03*
X0416500Y1144800D03*
X0416500Y1104800D03*
X0416500Y1094800D03*
X0416500Y1084800D03*
X0416500Y1044800D03*
X0416500Y1034800D03*
X0416500Y1024800D03*
X0416500Y0984800D03*
X0416500Y0974800D03*
X0416500Y0964800D03*
X0356500Y0964800D03*
X0356500Y0974800D03*
X0356500Y0984800D03*
X0356500Y1024800D03*
X0356500Y1034800D03*
X0356500Y1044800D03*
X0356500Y1084800D03*
X0356500Y1094800D03*
X0356500Y1104800D03*
X0356500Y1144800D03*
X0356500Y1154800D03*
X0356500Y1164800D03*
X0356500Y1204800D03*
X0356500Y1214800D03*
X0356500Y1224800D03*
X0356500Y1264800D03*
X0356500Y1274800D03*
X0356500Y1284800D03*
X0356500Y1324800D03*
X0356500Y1334800D03*
X0356500Y1344800D03*
X0356500Y1384800D03*
X0356500Y1394800D03*
X0356500Y1404800D03*
X0296500Y1404800D03*
X0296500Y1394800D03*
X0296500Y1384800D03*
X0296500Y1344800D03*
X0296500Y1334800D03*
X0296500Y1324800D03*
X0296500Y1284800D03*
X0296500Y1274800D03*
X0296500Y1264800D03*
X0296500Y1224800D03*
X0296500Y1214800D03*
X0296500Y1204800D03*
X0296500Y1164800D03*
X0296500Y1154800D03*
X0296500Y1144800D03*
X0296500Y1104800D03*
X0296500Y1094800D03*
X0296500Y1084800D03*
X0296500Y1044800D03*
X0296500Y1034800D03*
X0296500Y1024800D03*
X0296500Y0984800D03*
X0296500Y0974800D03*
X0296500Y0964800D03*
X0236500Y0964800D03*
X0236500Y0974800D03*
X0236500Y0984800D03*
X0236500Y1024800D03*
X0236500Y1034800D03*
X0236500Y1044800D03*
X0236500Y1084800D03*
X0236500Y1094800D03*
X0236500Y1104800D03*
X0236500Y1144800D03*
X0236500Y1154800D03*
X0236500Y1164800D03*
X0236500Y1204800D03*
X0236500Y1214800D03*
X0236500Y1224800D03*
X0236500Y1264800D03*
X0236500Y1274800D03*
X0236500Y1284800D03*
X0236500Y1324800D03*
X0236500Y1334800D03*
X0236500Y1344800D03*
X0236500Y1384800D03*
X0236500Y1394800D03*
X0236500Y1404800D03*
M02*
