%
M48
M72
T01C0.01500
T02C0.01700
T03C0.01800
T04C0.02362
T05C0.02500
T06C0.06299
T07C0.07087
T08C0.12500
T09C0.23600
%
T01
X143500Y959000
X167300Y969100
X169100Y994300
X169100Y998400
X192500Y1013800
X168100Y1036900
X164500Y1034100
X159600Y1038000
X155700Y1036700
X158700Y1062500
X156400Y1065900
X172300Y1064100
X172800Y1058300
X179100Y1059000
X187500Y1092300
X187600Y1130000
X181600Y1130000
X177500Y1129900
X173500Y1129800
X165500Y1128400
X159000Y1128400
X206400Y1154900
X214800Y1154600
X211800Y1166500
X199000Y1182600
X194000Y1182100
X166700Y1197300
X151100Y1193400
X144500Y1207800
X157500Y1237800
X169800Y1237600
X173700Y1237000
X188500Y1241800
X194500Y1241800
X213500Y1269500
X189400Y1309600
X184200Y1308200
X180200Y1308200
X176700Y1311600
X170600Y1302700
X162300Y1308800
X164900Y1311900
X158600Y1306400
X150500Y1324800
X150500Y1329800
X150500Y1334800
X150500Y1339800
X169200Y1334900
X182000Y1362300
X199000Y1395300
X181000Y1436300
X175800Y1437800
X179500Y1445700
X173700Y1454700
X171800Y1463700
X164600Y1470600
X165700Y1477300
X162900Y1483900
X155900Y1474100
X128600Y1491200
X124100Y1491200
X119700Y1490800
X118900Y1499800
X123100Y1499800
X132000Y1506800
X138700Y1501500
X158000Y1508300
X164500Y1527800
X164500Y1532900
X141500Y1532800
X141500Y1524800
X115500Y1513900
X106100Y1486500
X109800Y1480300
X111100Y1476300
X106700Y1469800
X104000Y1466800
X89800Y1465900
X89800Y1470300
X89800Y1474700
X97200Y1451000
X100500Y1451000
X122700Y1471800
X138600Y1444400
X129150Y1440150
X144200Y1435500
X148000Y1437300
X158600Y1432100
X158600Y1428100
X165800Y1440900
X203000Y1478300
X230000Y1442300
X227000Y1438300
X220600Y1437200
X277700Y1467100
X282000Y1463500
X285000Y1480300
X289000Y1480300
X295500Y1480300
X299500Y1480300
X312900Y1466400
X309900Y1463800
X316400Y1464200
X322000Y1469300
X319000Y1471800
X341100Y1465300
X349300Y1466600
X351400Y1463100
X357000Y1479300
X362000Y1479300
X388000Y1497800
X388600Y1461500
X418900Y1437400
X436400Y1446600
X441186Y1436005
X453300Y1460100
X428000Y1481300
X424000Y1481300
X479500Y1482800
X497500Y1474300
X500500Y1462800
X505500Y1462800
X510000Y1462800
X522000Y1459300
X510100Y1442300
X505500Y1442300
X528900Y1432300
X543500Y1437800
X549500Y1444700
X548800Y1448600
X538500Y1450300
X551100Y1461800
X551500Y1470300
X547000Y1470300
X547500Y1479300
X551500Y1479300
X557500Y1479800
X562500Y1479800
X575000Y1500800
X575500Y1511800
X572000Y1515300
X581000Y1517800
X595000Y1516300
X603500Y1516300
X620000Y1497300
X608000Y1479300
X603000Y1479300
X598000Y1479300
X593000Y1479300
X602700Y1468600
X604500Y1464800
X597800Y1455200
X601700Y1448700
X597000Y1442800
X595500Y1434800
X589000Y1434800
X579500Y1451800
X579500Y1460800
X578600Y1465800
X578500Y1471300
X623500Y1453300
X629000Y1446300
X635000Y1446300
X631000Y1430300
X641900Y1384200
X646800Y1384000
X668100Y1384000
X671500Y1384100
X668200Y1389400
X665800Y1395900
X654100Y1353300
X650900Y1353300
X667500Y1338800
X672900Y1337500
X665600Y1285000
X665100Y1277600
X666700Y1270600
X668400Y1264900
X672400Y1265000
X649500Y1258200
X653800Y1238500
X651600Y1233700
X649100Y1231400
X666800Y1215900
X672300Y1223600
X666800Y1164700
X668200Y1149400
X668100Y1144000
X671500Y1144100
X646800Y1144000
X641900Y1144200
X650500Y1113800
X653500Y1113800
X658600Y1115100
X666500Y1085900
X666500Y1043000
X666100Y1029500
X668400Y1024900
X672400Y1025000
X648900Y1018600
X658800Y996400
X651600Y993700
X649100Y991400
X672200Y969400
X432300Y983600
X426800Y975900
X411600Y993700
X409100Y991400
X413800Y998500
X408900Y1018600
X426700Y1030600
X428400Y1024900
X432400Y1025000
X425100Y1037600
X425600Y1045000
X427500Y1098800
X432500Y1103800
X414200Y1112000
X411100Y1112000
X413400Y1116400
X406800Y1144000
X401900Y1144200
X425800Y1155900
X428200Y1149400
X428100Y1144000
X431500Y1144100
X429500Y1161800
X426800Y1215900
X432300Y1223600
X413800Y1238500
X411600Y1233700
X409100Y1231400
X408900Y1258600
X426700Y1270600
X428400Y1264900
X432400Y1265000
X425100Y1277600
X425600Y1285000
X427500Y1338800
X432500Y1343800
X413500Y1353800
X410500Y1353800
X413500Y1360800
X406800Y1384000
X401900Y1384200
X425800Y1395900
X428200Y1389400
X428100Y1384000
X431500Y1384100
X429500Y1401800
X469500Y1445600
X525000Y1511300
X528500Y1513800
X537500Y1508300
X521000Y1521800
X637000Y1521300
X658500Y1479300
X663500Y1479300
X668500Y1479300
X674000Y1479300
X326000Y1446800
X316100Y1445300
X253500Y1517300
X321000Y1537300
X327500Y1537300
X154900Y1391200
X150500Y1388800
X150500Y1384800
X150500Y1393800
X150500Y1398800
X119300Y1408800
X118900Y1412900
X134000Y1367800
X137500Y1309000
X150000Y1284300
X150000Y1279800
X149500Y1273300
X149500Y1269300
X155000Y1262300
X169000Y1263900
X163600Y1278800
X178500Y1279800
X114000Y1261300
X110500Y1250300
X104000Y1249800
X216738Y1059040
X210500Y1044800
X213100Y1038200
X208100Y1036200
T02
X218350Y1053737
X224650Y1053737
X224650Y1075863
X218350Y1075863
X218350Y1113737
X224650Y1113737
X236500Y1112800
X241000Y1112800
X248350Y1113737
X254650Y1113737
X254650Y1135863
X248350Y1135863
X236500Y1136800
X232000Y1136800
X224650Y1135863
X218350Y1135863
X224650Y1173737
X224712Y1195925
X218413Y1195925
X232000Y1196800
X236500Y1196800
X248538Y1195925
X254837Y1195925
X254650Y1173737
X248350Y1173737
X278350Y1173737
X284650Y1173737
X284462Y1195925
X278163Y1195925
X292000Y1196800
X296500Y1196800
X308350Y1195863
X314650Y1195863
X314650Y1173737
X308350Y1173737
X338350Y1173737
X344650Y1173737
X344712Y1195925
X338413Y1195925
X352000Y1196800
X356500Y1196800
X368350Y1195863
X374650Y1195863
X374650Y1173737
X368350Y1173737
X398350Y1173737
X404650Y1173737
X404650Y1195863
X398350Y1195863
X398350Y1233737
X404650Y1233737
X404650Y1255863
X398350Y1255863
X374650Y1255863
X368350Y1255863
X356500Y1256800
X352000Y1256800
X344650Y1255863
X338350Y1255863
X338350Y1233737
X344650Y1233737
X368350Y1233737
X374650Y1233737
X374650Y1293737
X368350Y1293737
X344650Y1293737
X338350Y1293737
X338350Y1315863
X344650Y1315863
X368350Y1315863
X374650Y1315863
X398350Y1315863
X404650Y1315863
X404650Y1293737
X398350Y1293737
X428350Y1293737
X434650Y1293737
X434650Y1315863
X428350Y1315863
X458350Y1315863
X464650Y1315863
X464650Y1293737
X458350Y1293737
X488350Y1293737
X494650Y1293737
X494650Y1315863
X488350Y1315863
X518350Y1315863
X524650Y1315863
X532000Y1316800
X536500Y1316800
X548350Y1315863
X554650Y1315863
X578350Y1315863
X584650Y1315863
X584650Y1293737
X578350Y1293737
X554650Y1293737
X548350Y1293737
X524650Y1293737
X518350Y1293737
X518350Y1255863
X524650Y1255863
X532000Y1256800
X536500Y1256800
X548350Y1255863
X554650Y1255863
X554650Y1233737
X548350Y1233737
X524650Y1233737
X518350Y1233737
X488350Y1233737
X488350Y1255863
X494650Y1255863
X476500Y1256800
X472000Y1256800
X464650Y1255863
X458350Y1255863
X458350Y1233737
X464650Y1233737
X434650Y1233737
X428350Y1233737
X428350Y1255863
X434650Y1255863
X472000Y1196800
X476500Y1196800
X488538Y1195925
X494837Y1195925
X494650Y1173737
X488350Y1173737
X518350Y1173737
X524650Y1173737
X524462Y1195925
X518163Y1195925
X532000Y1196800
X536500Y1196800
X548350Y1195863
X554650Y1195863
X554650Y1173737
X548350Y1173737
X578350Y1173737
X584650Y1173737
X584712Y1195925
X578413Y1195925
X592000Y1196800
X596500Y1196800
X608350Y1195863
X614650Y1195863
X614650Y1173737
X608350Y1173737
X638350Y1173737
X644650Y1173737
X644650Y1195863
X638350Y1195863
X668350Y1173737
X674650Y1173737
X674650Y1135863
X668350Y1135863
X668350Y1113737
X674650Y1113737
X644650Y1113737
X638350Y1113737
X638350Y1135863
X644650Y1135863
X614650Y1135863
X608350Y1135863
X596500Y1136800
X592000Y1136800
X584650Y1135863
X578350Y1135863
X554650Y1135863
X548350Y1135863
X536500Y1136800
X532000Y1136800
X524650Y1135863
X518350Y1135863
X518350Y1113737
X524650Y1113737
X548350Y1113737
X554650Y1113737
X578350Y1113737
X584650Y1113737
X596500Y1112800
X601000Y1112800
X608350Y1113737
X614650Y1113737
X614650Y1075863
X608350Y1075863
X608350Y1053737
X614650Y1053737
X638350Y1053737
X644650Y1053737
X644650Y1075863
X638350Y1075863
X668350Y1075863
X674650Y1075863
X674650Y1053737
X668350Y1053737
X668350Y1015863
X674650Y1015863
X674650Y993737
X668350Y993737
X644650Y993737
X638350Y993737
X638350Y1015863
X644650Y1015863
X614650Y1015863
X608350Y1015863
X596500Y1016800
X592000Y1016800
X584650Y1015863
X578350Y1015863
X578350Y993737
X584650Y993737
X608350Y993737
X614650Y993737
X614650Y955863
X608350Y955863
X596500Y956800
X592000Y956800
X584712Y955925
X578413Y955925
X554650Y955863
X548350Y955863
X536500Y956800
X532000Y956800
X524462Y955925
X518163Y955925
X494837Y955925
X488538Y955925
X476500Y956800
X472000Y956800
X464712Y955925
X458413Y955925
X458350Y993737
X464650Y993737
X464650Y1015863
X458350Y1015863
X472000Y1016800
X476500Y1016800
X488350Y1015863
X494650Y1015863
X494650Y993737
X488350Y993737
X518350Y993737
X524650Y993737
X524650Y1015863
X518350Y1015863
X532000Y1016800
X536500Y1016800
X548350Y1015863
X554650Y1015863
X554650Y993737
X548350Y993737
X548350Y1053737
X554650Y1053737
X578350Y1053737
X584650Y1053737
X584650Y1075863
X578350Y1075863
X554650Y1075863
X548350Y1075863
X536500Y1076800
X532000Y1076800
X524650Y1075863
X518350Y1075863
X518350Y1053737
X524650Y1053737
X494650Y1053737
X488350Y1053737
X488350Y1075863
X494650Y1075863
X464650Y1075863
X458350Y1075863
X458350Y1053737
X464650Y1053737
X434650Y1053737
X428350Y1053737
X428350Y1075863
X434650Y1075863
X404650Y1075863
X398350Y1075863
X374650Y1075863
X368350Y1075863
X344650Y1075863
X338350Y1075863
X338350Y1053737
X344650Y1053737
X368350Y1053737
X374650Y1053737
X398350Y1053737
X404650Y1053737
X404650Y1015863
X398350Y1015863
X398350Y993737
X404650Y993737
X428350Y993737
X434650Y993737
X434650Y1015863
X428350Y1015863
X374650Y1015863
X368350Y1015863
X356500Y1016800
X352000Y1016800
X344650Y1015863
X338350Y1015863
X338350Y993737
X344650Y993737
X368350Y993737
X374650Y993737
X374650Y955863
X368350Y955863
X356500Y956800
X352000Y956800
X344712Y955925
X338413Y955925
X314650Y955863
X308350Y955863
X296500Y956800
X292000Y956800
X284462Y955925
X278163Y955925
X254837Y955925
X248538Y955925
X236500Y956800
X232000Y956800
X224712Y955925
X218413Y955925
X218350Y993737
X224650Y993737
X224650Y1015863
X218350Y1015863
X232000Y1016800
X236500Y1016800
X248350Y1015863
X254650Y1015863
X254650Y993737
X248350Y993737
X278350Y993737
X284650Y993737
X284650Y1015863
X278350Y1015863
X292000Y1016800
X296500Y1016800
X308350Y1015863
X314650Y1015863
X314650Y993737
X308350Y993737
X308350Y1053737
X314650Y1053737
X314650Y1075863
X308350Y1075863
X296500Y1076800
X292000Y1076800
X284650Y1075863
X278350Y1075863
X278350Y1053737
X284650Y1053737
X254650Y1053737
X248350Y1053737
X248350Y1075863
X254650Y1075863
X278350Y1113737
X284650Y1113737
X284650Y1135863
X278350Y1135863
X292000Y1136800
X296500Y1136800
X308350Y1135863
X314650Y1135863
X314650Y1113737
X308350Y1113737
X338350Y1113737
X344650Y1113737
X356500Y1112800
X361000Y1112800
X368350Y1113737
X374650Y1113737
X398350Y1113737
X404650Y1113737
X404650Y1135863
X398350Y1135863
X374650Y1135863
X368350Y1135863
X356500Y1136800
X352000Y1136800
X344650Y1135863
X338350Y1135863
X314650Y1233737
X308350Y1233737
X308350Y1255863
X314650Y1255863
X296500Y1256800
X292000Y1256800
X284650Y1255863
X278350Y1255863
X278350Y1233737
X284650Y1233737
X254650Y1233737
X248350Y1233737
X248350Y1255863
X254650Y1255863
X236500Y1256800
X232000Y1256800
X224650Y1255863
X218350Y1255863
X218350Y1233737
X224650Y1233737
X188000Y1229300
X160500Y1230300
X156500Y1230300
X159000Y1209800
X153500Y1209800
X144500Y1176300
X139500Y1176300
X134500Y1176300
X129500Y1176300
X124500Y1176300
X119500Y1176300
X112500Y1166800
X119500Y1152300
X124500Y1152300
X129500Y1152300
X134500Y1152300
X139500Y1152300
X144500Y1152300
X116500Y1146800
X112500Y1141300
X113500Y1131800
X119000Y1104300
X124000Y1104300
X129000Y1104300
X134000Y1104300
X139000Y1104300
X144000Y1104300
X144000Y1080300
X139000Y1080300
X134000Y1080300
X129000Y1080300
X124000Y1080300
X119000Y1080300
X113000Y1086800
X113000Y1094800
X126094Y1062106
X136300Y1063500
X134000Y1048800
X129000Y1048800
X124000Y1048800
X119000Y1048800
X113500Y1037800
X113500Y1028300
X119000Y1024800
X124000Y1024800
X129000Y1024800
X134000Y1024800
X139000Y1024800
X144000Y1024800
X144000Y1048800
X139000Y1048800
X113500Y1008300
X113500Y1001300
X147000Y989300
X151000Y989300
X152500Y969800
X146500Y969800
X202600Y1180800
X144000Y1264800
X139000Y1264800
X134000Y1264800
X129000Y1264800
X124000Y1264800
X119000Y1264800
X120500Y1257800
X113500Y1254800
X112000Y1269800
X112200Y1279300
X119000Y1288800
X124000Y1288800
X129000Y1288800
X134000Y1288800
X139000Y1288800
X144000Y1288800
X144500Y1320300
X139500Y1320300
X134500Y1320300
X129500Y1320300
X124500Y1320300
X119500Y1320300
X112500Y1320300
X112500Y1334800
X119500Y1344300
X124500Y1344300
X129500Y1344300
X134500Y1344300
X139500Y1344300
X144500Y1344300
X113200Y1353100
X111800Y1366500
X120000Y1379300
X125000Y1379300
X130000Y1379300
X135000Y1379300
X140000Y1379300
X145000Y1379300
X145000Y1403300
X140000Y1403300
X135000Y1403300
X130000Y1403300
X125000Y1403300
X120000Y1403300
X112200Y1392500
X115500Y1383800
X113000Y1303400
X113500Y1238900
X218350Y1293737
X224650Y1293737
X224650Y1315863
X218350Y1315863
X218350Y1353737
X224650Y1353737
X236500Y1352800
X241000Y1352800
X248350Y1353737
X254650Y1353737
X254650Y1375863
X248350Y1375863
X236500Y1376800
X232000Y1376800
X224650Y1375863
X218350Y1375863
X224650Y1413737
X248350Y1413737
X254650Y1413737
X278350Y1413737
X284650Y1413737
X308350Y1413737
X314650Y1413737
X313400Y1429900
X310100Y1432600
X338350Y1413737
X344650Y1413737
X368350Y1413737
X374650Y1413737
X398350Y1413737
X404650Y1413737
X408400Y1424300
X428350Y1413737
X434650Y1413737
X458350Y1413737
X464650Y1413737
X488350Y1413737
X494650Y1413737
X518350Y1413737
X524650Y1413737
X548350Y1413737
X554650Y1413737
X578350Y1413737
X584650Y1413737
X608350Y1413737
X614650Y1413737
X638350Y1413737
X644650Y1413737
X668350Y1413737
X674650Y1413737
X674650Y1375863
X668350Y1375863
X668350Y1353737
X674650Y1353737
X644650Y1353737
X638350Y1353737
X638350Y1375863
X644650Y1375863
X614650Y1375863
X608350Y1375863
X596500Y1376800
X592000Y1376800
X584650Y1375863
X578350Y1375863
X554650Y1375863
X548350Y1375863
X536500Y1376800
X532000Y1376800
X524650Y1375863
X518350Y1375863
X518350Y1353737
X524650Y1353737
X548350Y1353737
X554650Y1353737
X578350Y1353737
X584650Y1353737
X596500Y1352800
X601000Y1352800
X608350Y1353737
X614650Y1353737
X614650Y1315863
X608350Y1315863
X608350Y1293737
X614650Y1293737
X638350Y1293737
X644650Y1293737
X644650Y1315863
X638350Y1315863
X668350Y1315863
X674650Y1315863
X674650Y1293737
X668350Y1293737
X668350Y1255863
X674650Y1255863
X674650Y1233737
X668350Y1233737
X644650Y1233737
X638350Y1233737
X638350Y1255863
X644650Y1255863
X614650Y1255863
X608350Y1255863
X596500Y1256800
X592000Y1256800
X584650Y1255863
X578350Y1255863
X578350Y1233737
X584650Y1233737
X608350Y1233737
X614650Y1233737
X488350Y1135863
X476500Y1136800
X472000Y1136800
X464650Y1135863
X458350Y1135863
X458350Y1113737
X464650Y1113737
X476500Y1112800
X481000Y1112800
X488350Y1113737
X494650Y1113737
X434650Y1113737
X428350Y1113737
X428350Y1135863
X434650Y1135863
X314650Y1293737
X308350Y1293737
X308350Y1315863
X314650Y1315863
X296500Y1316800
X292000Y1316800
X284650Y1315863
X278350Y1315863
X278350Y1293737
X284650Y1293737
X254650Y1293737
X248350Y1293737
X248350Y1315863
X254650Y1315863
X278350Y1353737
X284650Y1353737
X284650Y1375863
X278350Y1375863
X292000Y1376800
X296500Y1376800
X308350Y1375863
X314650Y1375863
X314650Y1353737
X308350Y1353737
X338350Y1353737
X344650Y1353737
X356500Y1352800
X361000Y1352800
X368350Y1353737
X374650Y1353737
X398350Y1353737
X404650Y1353737
X404650Y1375863
X398350Y1375863
X374650Y1375863
X368350Y1375863
X356500Y1376800
X352000Y1376800
X344650Y1375863
X338350Y1375863
X342000Y1484800
X342000Y1489800
X342000Y1494800
X342000Y1499800
X342000Y1504800
X342000Y1509800
X350000Y1517300
X357500Y1517300
X366000Y1509800
X366000Y1504800
X366000Y1499800
X366000Y1494800
X366000Y1489800
X366000Y1484800
X380500Y1496400
X385300Y1516800
X392500Y1517800
X405500Y1516800
X407500Y1511800
X407500Y1506800
X407500Y1501800
X407500Y1496800
X407500Y1491800
X407500Y1486800
X422000Y1516800
X431500Y1511800
X431500Y1506800
X431500Y1501800
X431500Y1496800
X431500Y1491800
X431500Y1486800
X492700Y1439600
X494650Y1375863
X488350Y1375863
X476500Y1376800
X472000Y1376800
X464650Y1375863
X458350Y1375863
X458350Y1353737
X464650Y1353737
X476500Y1352800
X481000Y1352800
X488350Y1353737
X494650Y1353737
X434650Y1353737
X428350Y1353737
X428350Y1375863
X434650Y1375863
X543000Y1485300
X543000Y1490300
X543000Y1495300
X543000Y1500300
X543000Y1505300
X543000Y1510300
X537000Y1513800
X555000Y1518300
X567000Y1510300
X567000Y1505300
X567000Y1500300
X567000Y1495300
X567000Y1490300
X567000Y1485300
X588500Y1484800
X588500Y1489800
X588500Y1494800
X588500Y1499800
X588500Y1504800
X588500Y1509800
X612500Y1509800
X612500Y1504800
X612500Y1499800
X612500Y1494800
X612500Y1489800
X612500Y1484800
X632800Y1513500
X654000Y1509800
X654000Y1504800
X654000Y1499800
X654000Y1494800
X654000Y1489800
X654000Y1484800
X678000Y1484800
X678000Y1489800
X678000Y1494800
X678000Y1499800
X678000Y1504800
X678000Y1509800
X667300Y1517300
X658700Y1517400
X328000Y1522800
X304500Y1510800
X304500Y1505800
X304500Y1500800
X304500Y1495800
X304500Y1490800
X304500Y1485800
X324600Y1486800
X296000Y1516600
X287500Y1515300
X280500Y1510800
X280500Y1505800
X280500Y1500800
X280500Y1495800
X280500Y1490800
X280500Y1485800
X264000Y1517300
X398350Y955863
X404650Y955863
X638350Y955863
X644650Y955863
T03
X652000Y957000
X656500Y957000
X661000Y957000
X601000Y956800
X601000Y992800
X596500Y992800
X592000Y992800
X601000Y1016800
X601000Y1052800
X596500Y1052800
X592000Y1052800
X592000Y1076800
X596500Y1076800
X601000Y1076800
X592000Y1112800
X601000Y1136800
X601000Y1172800
X596500Y1172800
X592000Y1172800
X601000Y1196800
X601000Y1232800
X596500Y1232800
X592000Y1232800
X601000Y1256800
X601000Y1292800
X596500Y1292800
X592000Y1292800
X592000Y1316800
X596500Y1316800
X601000Y1316800
X592000Y1352800
X601000Y1376800
X601000Y1412800
X596500Y1412800
X592000Y1412800
X541000Y1412800
X536500Y1412800
X532000Y1412800
X541000Y1376800
X541000Y1352800
X536500Y1352800
X532000Y1352800
X541000Y1316800
X541000Y1292800
X536500Y1292800
X532000Y1292800
X541000Y1256800
X541000Y1232800
X536500Y1232800
X532000Y1232800
X541000Y1196800
X541000Y1172800
X536500Y1172800
X532000Y1172800
X541000Y1136800
X541000Y1112800
X536500Y1112800
X532000Y1112800
X541000Y1076800
X541000Y1052800
X536500Y1052800
X532000Y1052800
X541000Y1016800
X541000Y992800
X536500Y992800
X532000Y992800
X541000Y956800
X481000Y956800
X481000Y992800
X476500Y992800
X472000Y992800
X481000Y1016800
X481000Y1052800
X476500Y1052800
X472000Y1052800
X472000Y1076800
X476500Y1076800
X481000Y1076800
X472000Y1112800
X481000Y1136800
X481000Y1172800
X476500Y1172800
X472000Y1172800
X481000Y1196800
X481000Y1232800
X476500Y1232800
X472000Y1232800
X481000Y1256800
X481000Y1292800
X476500Y1292800
X472000Y1292800
X472000Y1316800
X476500Y1316800
X481000Y1316800
X472000Y1352800
X481000Y1376800
X481000Y1412800
X476500Y1412800
X472000Y1412800
X421000Y1412600
X416500Y1412600
X412000Y1412600
X361000Y1412800
X356500Y1412800
X352000Y1412800
X361000Y1376800
X352000Y1352800
X352000Y1316800
X356500Y1316800
X361000Y1316800
X361000Y1292800
X356500Y1292800
X352000Y1292800
X361000Y1256800
X361000Y1232800
X356500Y1232800
X352000Y1232800
X361000Y1196800
X361000Y1172800
X356500Y1172800
X352000Y1172800
X361000Y1136800
X352000Y1112800
X352000Y1076800
X356500Y1076800
X361000Y1076800
X361000Y1052800
X356500Y1052800
X352000Y1052800
X361000Y1016800
X361000Y992800
X356500Y992800
X352000Y992800
X361000Y956800
X412000Y957000
X416500Y957000
X421000Y957000
X421000Y1052600
X416500Y1052600
X412000Y1052600
X412000Y1077000
X416500Y1077000
X421000Y1077000
X421000Y1172600
X416500Y1172600
X412000Y1172600
X412000Y1197000
X416500Y1197000
X421000Y1197000
X421000Y1292600
X416500Y1292600
X412000Y1292600
X412000Y1317000
X416500Y1317000
X421000Y1317000
X301000Y1316800
X301000Y1292800
X296500Y1292800
X292000Y1292800
X301000Y1256800
X301000Y1232800
X296500Y1232800
X292000Y1232800
X301000Y1196800
X301000Y1172800
X296500Y1172800
X292000Y1172800
X301000Y1136800
X301000Y1112800
X296500Y1112800
X292000Y1112800
X301000Y1076800
X301000Y1052800
X296500Y1052800
X292000Y1052800
X301000Y1016800
X301000Y992800
X296500Y992800
X292000Y992800
X301000Y956800
X241000Y956800
X241000Y992800
X236500Y992800
X232000Y992800
X241000Y1016800
X241000Y1052800
X236500Y1052800
X232000Y1052800
X232000Y1076800
X236500Y1076800
X241000Y1076800
X232000Y1112800
X241000Y1136800
X241000Y1172800
X236500Y1172800
X232000Y1172800
X241000Y1196800
X241000Y1232800
X236500Y1232800
X232000Y1232800
X241000Y1256800
X241000Y1292800
X236500Y1292800
X232000Y1292800
X232000Y1316800
X236500Y1316800
X241000Y1316800
X232000Y1352800
X241000Y1376800
X241000Y1412800
X236500Y1412800
X232000Y1412800
X292000Y1412800
X296500Y1412800
X301000Y1412800
X301000Y1376800
X301000Y1352800
X296500Y1352800
X292000Y1352800
X652000Y1317000
X656500Y1317000
X661000Y1317000
X661000Y1292600
X656500Y1292600
X652000Y1292600
X652000Y1197000
X656500Y1197000
X661000Y1197000
X661000Y1172600
X656500Y1172600
X652000Y1172600
X652000Y1077000
X656500Y1077000
X661000Y1077000
X661000Y1052600
X656500Y1052600
X652000Y1052600
X652000Y1412600
X656500Y1412600
X661000Y1412600
T04
X121600Y953300
X334400Y1446900
T05
X329100Y1423900
X319000Y1419100
X307700Y1425200
X278300Y1456300
X273200Y1456300
X271300Y1439800
X267100Y1439900
X263000Y1439800
X274300Y1431700
X271400Y1428000
X271700Y1422700
X271300Y1378100
X261300Y1377800
X262000Y1352000
X271100Y1352000
X269000Y1308800
X269000Y1301300
X271500Y1258100
X261500Y1257700
X261500Y1231500
X270100Y1231100
X262000Y1197800
X258800Y1180700
X253900Y1180700
X207100Y1199300
X213000Y1210200
X213100Y1215800
X213000Y1221600
X207000Y1212300
X199100Y1227600
X182900Y1196900
X192900Y1177600
X151600Y1171800
X151800Y1167100
X151800Y1161800
X152000Y1156900
X153800Y1197100
X128000Y1205300
X100000Y1190300
X158500Y1093800
X166700Y1093900
X150400Y1088500
X150300Y1084200
X150900Y1044200
X150900Y1039800
X151100Y1033300
X151200Y1028500
X169100Y989900
X166900Y978300
X167700Y953800
X143200Y953300
X121500Y959300
X203100Y1010400
X216500Y998800
X212611Y977699
X207800Y973000
X207200Y949600
X252900Y998900
X260000Y1018300
X265500Y1018300
X265500Y1058300
X265500Y1064800
X333000Y1127800
X384000Y1167900
X390500Y1167900
X390500Y1195300
X384000Y1194800
X426100Y1193600
X438400Y1205900
X450000Y1205500
X454700Y1210500
X454300Y1214800
X454600Y1220600
X461000Y1225300
X451500Y1247300
X467200Y1267400
X466200Y1274800
X467800Y1304400
X457000Y1310800
X445000Y1305800
X465900Y1358400
X452500Y1377300
X460500Y1387800
X460500Y1394800
X454000Y1422800
X458000Y1427800
X450000Y1428300
X443400Y1424000
X428500Y1457600
X422500Y1467300
X411700Y1479000
X441500Y1474700
X467700Y1475900
X467800Y1471400
X467700Y1481400
X503000Y1424300
X512900Y1426300
X530500Y1451300
X541000Y1423300
X565500Y1424800
X570500Y1419800
X635000Y1424300
X644000Y1424800
X667000Y1423800
X570500Y1319800
X565500Y1321800
X560500Y1319800
X507500Y1288300
X500000Y1288300
X499300Y1228800
X472200Y1189900
X466500Y1187900
X465150Y1178450
X471300Y1178800
X457500Y1161800
X457200Y1156900
X456400Y1150600
X440800Y1166400
X426500Y1168000
X434500Y1126300
X447500Y1111800
X459100Y1099100
X459000Y1094300
X459100Y1089700
X445000Y1039300
X500500Y1051300
X500500Y1017300
X454500Y981200
X454200Y974700
X448000Y976800
X454100Y967100
X437500Y964800
X433000Y954600
X392100Y1082700
X386500Y1082300
X208900Y1284200
X189100Y1291800
X189000Y1321700
X212500Y1336900
X192500Y1366800
X203000Y1387300
X212500Y1384800
X212500Y1395300
X212500Y1404800
X213000Y1415300
X218000Y1418300
X217000Y1474400
X221800Y1474400
X211600Y1474400
X213500Y1490700
X208800Y1490700
X204200Y1490700
X196500Y1523700
X196300Y1528700
X196200Y1533800
X105500Y1533100
X101000Y1532200
X100800Y1527400
X91000Y1433300
X91000Y1427300
X90900Y1414800
X346100Y1477600
X350400Y1477500
X359300Y1469500
X367700Y1429700
X386500Y1408800
X393000Y1408300
X488500Y1359300
X664500Y1190800
X677000Y1198800
X679500Y962500
X668000Y952800
T06
X208000Y1525115
T07
X208000Y1507398
T08
X266500Y1484800
X266500Y1364800
X266500Y1244800
X266500Y1124800
X266500Y1004800
X146500Y1004800
X146500Y1124800
X146500Y1244800
X146500Y1364800
X146500Y1484800
X386500Y1484800
X386500Y1364800
X386500Y1244800
X386500Y1124800
X386500Y1004800
X506500Y1004800
X506500Y1124800
X506500Y1244800
X506500Y1364800
X506500Y1484800
X626500Y1484800
X626500Y1364800
X626500Y1244800
X626500Y1124800
X626500Y1004800
T09
X446500Y1185800
M30
