G75*
%MOIN*%
%OFA0B0*%
%FSLAX25Y25*%
%IPPOS*%
%LPD*%
%AMOC8*
5,1,8,0,0,1.08239X$1,22.5*
%
%ADD10R,0.03200X0.03400*%
%ADD11R,0.03100X0.03500*%
%ADD12R,0.02756X0.02756*%
%ADD13R,0.03606X0.06106*%
%ADD14R,0.03937X0.18898*%
%ADD15R,0.12206X0.07506*%
%ADD16R,0.06106X0.03606*%
%ADD17R,0.06496X0.04094*%
%ADD18R,0.05118X0.08268*%
%ADD19R,0.05118X0.03543*%
%ADD20R,0.05606X0.03606*%
%ADD21R,0.04331X0.01772*%
%ADD22R,0.02606X0.02606*%
%ADD23R,0.09055X0.10630*%
%ADD24R,0.05512X0.01969*%
%ADD25R,0.09894X0.13394*%
%ADD26R,0.04094X0.06496*%
%ADD27R,0.05906X0.07874*%
%ADD28R,0.09843X0.07874*%
%ADD29R,0.05906X0.03543*%
%ADD30R,0.09843X0.03543*%
%ADD31R,0.07087X0.02362*%
%ADD32R,0.04134X0.02362*%
%ADD33R,0.03937X0.03937*%
%ADD34R,0.04331X0.03937*%
%ADD35R,0.00591X0.03543*%
%ADD36R,0.18898X0.03937*%
%ADD37R,0.07506X0.12206*%
%ADD38R,0.08268X0.05118*%
%ADD39R,0.03543X0.05118*%
%ADD40R,0.01772X0.04331*%
%ADD41R,0.02362X0.07087*%
%ADD42R,0.02362X0.04134*%
%ADD43R,0.03937X0.04331*%
%ADD44R,0.03606X0.05606*%
%ADD45R,0.01969X0.05512*%
%ADD46R,0.13394X0.09894*%
%ADD47R,0.13386X0.09449*%
%ADD48R,0.02323X0.03504*%
%ADD49R,0.06693X0.02362*%
%ADD50R,0.08268X0.05906*%
%ADD51R,0.09449X0.13386*%
%ADD52R,0.03543X0.00591*%
%ADD53R,0.05106X0.08506*%
%ADD54R,0.06614X0.16102*%
%ADD55R,0.07106X0.03606*%
%ADD56R,0.23106X0.06606*%
%ADD57R,0.06606X0.23106*%
%ADD58R,0.01969X0.03150*%
D10*
X0215862Y0066463D03*
X0245987Y0066463D03*
X0275613Y0066463D03*
X0305800Y0066400D03*
X0335863Y0066463D03*
X0365800Y0066400D03*
X0395800Y0066400D03*
X0402200Y0096600D03*
X0372200Y0096600D03*
X0342200Y0096600D03*
X0312200Y0096600D03*
X0282200Y0096600D03*
X0252200Y0096600D03*
X0222200Y0096600D03*
X0215800Y0126400D03*
X0245800Y0126400D03*
X0275800Y0126400D03*
X0305800Y0126400D03*
X0335800Y0126400D03*
X0365800Y0126400D03*
X0395800Y0126400D03*
X0425800Y0126400D03*
X0455800Y0126400D03*
X0485800Y0126400D03*
X0515800Y0126400D03*
X0545800Y0126400D03*
X0575800Y0126400D03*
X0605800Y0126400D03*
X0635800Y0126400D03*
X0665800Y0126400D03*
X0672200Y0096600D03*
X0642200Y0096600D03*
X0612200Y0096600D03*
X0582200Y0096600D03*
X0552200Y0096600D03*
X0522200Y0096600D03*
X0492200Y0096600D03*
X0462200Y0096600D03*
X0432200Y0096600D03*
X0455862Y0066463D03*
X0485987Y0066463D03*
X0515612Y0066463D03*
X0545800Y0066400D03*
X0575863Y0066463D03*
X0605800Y0066400D03*
X0635800Y0066400D03*
X0642200Y0156600D03*
X0612200Y0156600D03*
X0582200Y0156600D03*
X0552200Y0156600D03*
X0522200Y0156600D03*
X0492200Y0156600D03*
X0462200Y0156600D03*
X0432200Y0156600D03*
X0402200Y0156600D03*
X0372200Y0156600D03*
X0342200Y0156600D03*
X0312200Y0156600D03*
X0282200Y0156600D03*
X0252200Y0156600D03*
X0222200Y0156600D03*
X0215800Y0186400D03*
X0245800Y0186400D03*
X0275800Y0186400D03*
X0305800Y0186400D03*
X0335800Y0186400D03*
X0365800Y0186400D03*
X0395800Y0186400D03*
X0425800Y0186400D03*
X0455800Y0186400D03*
X0485800Y0186400D03*
X0515800Y0186400D03*
X0545800Y0186400D03*
X0575800Y0186400D03*
X0605800Y0186400D03*
X0635800Y0186400D03*
X0665800Y0186400D03*
X0672200Y0156600D03*
X0672200Y0216600D03*
X0642200Y0216600D03*
X0612200Y0216600D03*
X0582200Y0216600D03*
X0552200Y0216600D03*
X0522200Y0216600D03*
X0492200Y0216600D03*
X0462200Y0216600D03*
X0432200Y0216600D03*
X0402200Y0216600D03*
X0372200Y0216600D03*
X0342200Y0216600D03*
X0312200Y0216600D03*
X0282200Y0216600D03*
X0252200Y0216600D03*
X0222200Y0216600D03*
X0215800Y0246400D03*
X0245800Y0246400D03*
X0275800Y0246400D03*
X0305800Y0246400D03*
X0335800Y0246400D03*
X0365800Y0246400D03*
X0395800Y0246400D03*
X0425800Y0246400D03*
X0455800Y0246400D03*
X0485800Y0246400D03*
X0515800Y0246400D03*
X0545800Y0246400D03*
X0575800Y0246400D03*
X0605800Y0246400D03*
X0635800Y0246400D03*
X0665800Y0246400D03*
X0672200Y0276600D03*
X0642200Y0276600D03*
X0612200Y0276600D03*
X0582200Y0276600D03*
X0552200Y0276600D03*
X0522200Y0276600D03*
X0492200Y0276600D03*
X0485987Y0306463D03*
X0515612Y0306463D03*
X0545800Y0306400D03*
X0575863Y0306463D03*
X0605800Y0306400D03*
X0635800Y0306400D03*
X0642200Y0336600D03*
X0612200Y0336600D03*
X0582200Y0336600D03*
X0552200Y0336600D03*
X0522200Y0336600D03*
X0492200Y0336600D03*
X0462200Y0336600D03*
X0432200Y0336600D03*
X0402200Y0336600D03*
X0372200Y0336600D03*
X0342200Y0336600D03*
X0312200Y0336600D03*
X0282200Y0336600D03*
X0252200Y0336600D03*
X0222200Y0336600D03*
X0215862Y0306463D03*
X0245987Y0306463D03*
X0275613Y0306463D03*
X0305800Y0306400D03*
X0335863Y0306463D03*
X0365800Y0306400D03*
X0395800Y0306400D03*
X0402200Y0276600D03*
X0372200Y0276600D03*
X0342200Y0276600D03*
X0312200Y0276600D03*
X0282200Y0276600D03*
X0252200Y0276600D03*
X0222200Y0276600D03*
X0215800Y0366400D03*
X0245800Y0366400D03*
X0275800Y0366400D03*
X0305800Y0366400D03*
X0335800Y0366400D03*
X0365800Y0366400D03*
X0395800Y0366400D03*
X0425800Y0366400D03*
X0455800Y0366400D03*
X0485800Y0366400D03*
X0515800Y0366400D03*
X0545800Y0366400D03*
X0575800Y0366400D03*
X0605800Y0366400D03*
X0635800Y0366400D03*
X0665800Y0366400D03*
X0672200Y0396600D03*
X0642200Y0396600D03*
X0612200Y0396600D03*
X0582200Y0396600D03*
X0552200Y0396600D03*
X0522200Y0396600D03*
X0492200Y0396600D03*
X0462200Y0396600D03*
X0432200Y0396600D03*
X0402200Y0396600D03*
X0372200Y0396600D03*
X0342200Y0396600D03*
X0312200Y0396600D03*
X0282200Y0396600D03*
X0252200Y0396600D03*
X0222200Y0396600D03*
X0215800Y0426400D03*
X0245800Y0426400D03*
X0275800Y0426400D03*
X0305800Y0426400D03*
X0335800Y0426400D03*
X0365800Y0426400D03*
X0395800Y0426400D03*
X0425800Y0426400D03*
X0455800Y0426400D03*
X0485800Y0426400D03*
X0515800Y0426400D03*
X0545800Y0426400D03*
X0575800Y0426400D03*
X0605800Y0426400D03*
X0635800Y0426400D03*
X0665800Y0426400D03*
X0672200Y0456600D03*
X0642200Y0456600D03*
X0612200Y0456600D03*
X0582200Y0456600D03*
X0552200Y0456600D03*
X0522200Y0456600D03*
X0492200Y0456600D03*
X0462200Y0456600D03*
X0432200Y0456600D03*
X0402200Y0456600D03*
X0372200Y0456600D03*
X0342200Y0456600D03*
X0312200Y0456600D03*
X0282200Y0456600D03*
X0252200Y0456600D03*
X0222200Y0456600D03*
X0215800Y0486400D03*
X0245800Y0486400D03*
X0275800Y0486400D03*
X0305800Y0486400D03*
X0335800Y0486400D03*
X0365800Y0486400D03*
X0395800Y0486400D03*
X0425800Y0486400D03*
X0455800Y0486400D03*
X0485800Y0486400D03*
X0515800Y0486400D03*
X0545800Y0486400D03*
X0575800Y0486400D03*
X0605800Y0486400D03*
X0635800Y0486400D03*
X0665800Y0486400D03*
X0672200Y0516600D03*
X0642200Y0516600D03*
X0612200Y0516600D03*
X0582200Y0516600D03*
X0552200Y0516600D03*
X0522200Y0516600D03*
X0492200Y0516600D03*
X0462200Y0516600D03*
X0432200Y0516600D03*
X0402200Y0516600D03*
X0372200Y0516600D03*
X0342200Y0516600D03*
X0312200Y0516600D03*
X0282200Y0516600D03*
X0252200Y0516600D03*
X0222200Y0516600D03*
X0672200Y0336600D03*
D11*
X0665850Y0336650D03*
X0635850Y0336650D03*
X0605850Y0336650D03*
X0575850Y0336650D03*
X0545850Y0336650D03*
X0515850Y0336650D03*
X0485850Y0336650D03*
X0455850Y0336650D03*
X0425850Y0336650D03*
X0395850Y0336650D03*
X0365850Y0336650D03*
X0335850Y0336650D03*
X0305850Y0336650D03*
X0275850Y0336650D03*
X0245850Y0336650D03*
X0215850Y0336650D03*
X0222212Y0306413D03*
X0252337Y0306413D03*
X0281963Y0306413D03*
X0312150Y0306350D03*
X0342213Y0306413D03*
X0372150Y0306350D03*
X0402150Y0306350D03*
X0395850Y0276650D03*
X0365850Y0276650D03*
X0335850Y0276650D03*
X0305850Y0276650D03*
X0275850Y0276650D03*
X0245850Y0276650D03*
X0215850Y0276650D03*
X0222150Y0246350D03*
X0252150Y0246350D03*
X0282150Y0246350D03*
X0312150Y0246350D03*
X0342150Y0246350D03*
X0372150Y0246350D03*
X0402150Y0246350D03*
X0432150Y0246350D03*
X0462150Y0246350D03*
X0492150Y0246350D03*
X0522150Y0246350D03*
X0552150Y0246350D03*
X0582150Y0246350D03*
X0612150Y0246350D03*
X0642150Y0246350D03*
X0672150Y0246350D03*
X0665850Y0276650D03*
X0635850Y0276650D03*
X0605850Y0276650D03*
X0575850Y0276650D03*
X0545850Y0276650D03*
X0515850Y0276650D03*
X0485850Y0276650D03*
X0492337Y0306413D03*
X0521962Y0306413D03*
X0552150Y0306350D03*
X0582213Y0306413D03*
X0612150Y0306350D03*
X0642150Y0306350D03*
X0642150Y0366350D03*
X0612150Y0366350D03*
X0582150Y0366350D03*
X0552150Y0366350D03*
X0522150Y0366350D03*
X0492150Y0366350D03*
X0462150Y0366350D03*
X0432150Y0366350D03*
X0402150Y0366350D03*
X0372150Y0366350D03*
X0342150Y0366350D03*
X0312150Y0366350D03*
X0282150Y0366350D03*
X0252150Y0366350D03*
X0222150Y0366350D03*
X0215850Y0396650D03*
X0245850Y0396650D03*
X0275850Y0396650D03*
X0305850Y0396650D03*
X0335850Y0396650D03*
X0365850Y0396650D03*
X0395850Y0396650D03*
X0425850Y0396650D03*
X0455850Y0396650D03*
X0485850Y0396650D03*
X0515850Y0396650D03*
X0545850Y0396650D03*
X0575850Y0396650D03*
X0605850Y0396650D03*
X0635850Y0396650D03*
X0665850Y0396650D03*
X0672150Y0426350D03*
X0642150Y0426350D03*
X0612150Y0426350D03*
X0582150Y0426350D03*
X0552150Y0426350D03*
X0522150Y0426350D03*
X0492150Y0426350D03*
X0462150Y0426350D03*
X0432150Y0426350D03*
X0402150Y0426350D03*
X0372150Y0426350D03*
X0342150Y0426350D03*
X0312150Y0426350D03*
X0282150Y0426350D03*
X0252150Y0426350D03*
X0222150Y0426350D03*
X0215850Y0456650D03*
X0245850Y0456650D03*
X0275850Y0456650D03*
X0305850Y0456650D03*
X0335850Y0456650D03*
X0365850Y0456650D03*
X0395850Y0456650D03*
X0425850Y0456650D03*
X0455850Y0456650D03*
X0485850Y0456650D03*
X0515850Y0456650D03*
X0545850Y0456650D03*
X0575850Y0456650D03*
X0605850Y0456650D03*
X0635850Y0456650D03*
X0665850Y0456650D03*
X0672150Y0486350D03*
X0642150Y0486350D03*
X0612150Y0486350D03*
X0582150Y0486350D03*
X0552150Y0486350D03*
X0522150Y0486350D03*
X0492150Y0486350D03*
X0462150Y0486350D03*
X0432150Y0486350D03*
X0402150Y0486350D03*
X0372150Y0486350D03*
X0342150Y0486350D03*
X0312150Y0486350D03*
X0282150Y0486350D03*
X0252150Y0486350D03*
X0222150Y0486350D03*
X0215850Y0516650D03*
X0245850Y0516650D03*
X0275850Y0516650D03*
X0305850Y0516650D03*
X0335850Y0516650D03*
X0365850Y0516650D03*
X0395850Y0516650D03*
X0425850Y0516650D03*
X0455850Y0516650D03*
X0485850Y0516650D03*
X0515850Y0516650D03*
X0545850Y0516650D03*
X0575850Y0516650D03*
X0605850Y0516650D03*
X0635850Y0516650D03*
X0665850Y0516650D03*
X0672150Y0366350D03*
X0665850Y0216650D03*
X0635850Y0216650D03*
X0605850Y0216650D03*
X0575850Y0216650D03*
X0545850Y0216650D03*
X0515850Y0216650D03*
X0485850Y0216650D03*
X0455850Y0216650D03*
X0425850Y0216650D03*
X0395850Y0216650D03*
X0365850Y0216650D03*
X0335850Y0216650D03*
X0305850Y0216650D03*
X0275850Y0216650D03*
X0245850Y0216650D03*
X0215850Y0216650D03*
X0222150Y0186350D03*
X0252150Y0186350D03*
X0282150Y0186350D03*
X0312150Y0186350D03*
X0342150Y0186350D03*
X0372150Y0186350D03*
X0402150Y0186350D03*
X0432150Y0186350D03*
X0462150Y0186350D03*
X0492150Y0186350D03*
X0522150Y0186350D03*
X0552150Y0186350D03*
X0582150Y0186350D03*
X0612150Y0186350D03*
X0642150Y0186350D03*
X0672150Y0186350D03*
X0665850Y0156650D03*
X0635850Y0156650D03*
X0605850Y0156650D03*
X0575850Y0156650D03*
X0545850Y0156650D03*
X0515850Y0156650D03*
X0485850Y0156650D03*
X0455850Y0156650D03*
X0425850Y0156650D03*
X0395850Y0156650D03*
X0365850Y0156650D03*
X0335850Y0156650D03*
X0305850Y0156650D03*
X0275850Y0156650D03*
X0245850Y0156650D03*
X0215850Y0156650D03*
X0222150Y0126350D03*
X0252150Y0126350D03*
X0282150Y0126350D03*
X0312150Y0126350D03*
X0342150Y0126350D03*
X0372150Y0126350D03*
X0402150Y0126350D03*
X0432150Y0126350D03*
X0462150Y0126350D03*
X0492150Y0126350D03*
X0522150Y0126350D03*
X0552150Y0126350D03*
X0582150Y0126350D03*
X0612150Y0126350D03*
X0642150Y0126350D03*
X0672150Y0126350D03*
X0665850Y0096650D03*
X0635850Y0096650D03*
X0605850Y0096650D03*
X0575850Y0096650D03*
X0545850Y0096650D03*
X0515850Y0096650D03*
X0485850Y0096650D03*
X0455850Y0096650D03*
X0425850Y0096650D03*
X0395850Y0096650D03*
X0365850Y0096650D03*
X0335850Y0096650D03*
X0305850Y0096650D03*
X0275850Y0096650D03*
X0245850Y0096650D03*
X0215850Y0096650D03*
X0222212Y0066413D03*
X0252337Y0066413D03*
X0281963Y0066413D03*
X0312150Y0066350D03*
X0342213Y0066413D03*
X0372150Y0066350D03*
X0402150Y0066350D03*
X0462212Y0066413D03*
X0492337Y0066413D03*
X0521962Y0066413D03*
X0552150Y0066350D03*
X0582213Y0066413D03*
X0612150Y0066350D03*
X0642150Y0066350D03*
D12*
G36*
X0668721Y0064273D02*
X0666773Y0062325D01*
X0664825Y0064273D01*
X0666773Y0066221D01*
X0668721Y0064273D01*
G37*
G36*
X0673175Y0068727D02*
X0671227Y0066779D01*
X0669279Y0068727D01*
X0671227Y0070675D01*
X0673175Y0068727D01*
G37*
G36*
X0459279Y0278727D02*
X0461227Y0280675D01*
X0463175Y0278727D01*
X0461227Y0276779D01*
X0459279Y0278727D01*
G37*
G36*
X0454825Y0274273D02*
X0456773Y0276221D01*
X0458721Y0274273D01*
X0456773Y0272325D01*
X0454825Y0274273D01*
G37*
G36*
X0431227Y0276221D02*
X0433175Y0274273D01*
X0431227Y0272325D01*
X0429279Y0274273D01*
X0431227Y0276221D01*
G37*
G36*
X0426773Y0280675D02*
X0428721Y0278727D01*
X0426773Y0276779D01*
X0424825Y0278727D01*
X0426773Y0280675D01*
G37*
G36*
X0428721Y0304273D02*
X0426773Y0302325D01*
X0424825Y0304273D01*
X0426773Y0306221D01*
X0428721Y0304273D01*
G37*
G36*
X0433175Y0308727D02*
X0431227Y0306779D01*
X0429279Y0308727D01*
X0431227Y0310675D01*
X0433175Y0308727D01*
G37*
G36*
X0456835Y0306842D02*
X0454887Y0308790D01*
X0456835Y0310738D01*
X0458783Y0308790D01*
X0456835Y0306842D01*
G37*
G36*
X0461290Y0302387D02*
X0459342Y0304335D01*
X0461290Y0306283D01*
X0463238Y0304335D01*
X0461290Y0302387D01*
G37*
G36*
X0668721Y0304273D02*
X0666773Y0302325D01*
X0664825Y0304273D01*
X0666773Y0306221D01*
X0668721Y0304273D01*
G37*
G36*
X0673175Y0308727D02*
X0671227Y0306779D01*
X0669279Y0308727D01*
X0671227Y0310675D01*
X0673175Y0308727D01*
G37*
G36*
X0433175Y0068727D02*
X0431227Y0066779D01*
X0429279Y0068727D01*
X0431227Y0070675D01*
X0433175Y0068727D01*
G37*
G36*
X0428721Y0064273D02*
X0426773Y0062325D01*
X0424825Y0064273D01*
X0426773Y0066221D01*
X0428721Y0064273D01*
G37*
D13*
X0448287Y0227412D03*
X0448075Y0236062D03*
X0460075Y0236062D03*
X0460287Y0227412D03*
X0462537Y0354887D03*
X0450537Y0354887D03*
X0448412Y0410337D03*
X0460412Y0410337D03*
X0462287Y0475412D03*
X0450287Y0475412D03*
X0448075Y0540563D03*
X0460075Y0540563D03*
X0472100Y0553700D03*
X0472100Y0565200D03*
X0484100Y0565200D03*
X0484100Y0553700D03*
X0434100Y0543000D03*
X0429600Y0553200D03*
X0422100Y0543000D03*
X0417600Y0553200D03*
X0556600Y0580400D03*
X0568600Y0580400D03*
X0249200Y0609600D03*
X0237200Y0609600D03*
X0129200Y0459900D03*
X0117200Y0459900D03*
X0115000Y0412900D03*
X0127000Y0412900D03*
X0176075Y0378562D03*
X0175787Y0369412D03*
X0175912Y0359837D03*
X0187912Y0359837D03*
X0187787Y0369412D03*
X0188075Y0378562D03*
X0188037Y0342388D03*
X0176037Y0342388D03*
X0127100Y0340900D03*
X0115100Y0340900D03*
X0117300Y0230200D03*
X0129300Y0230200D03*
X0125300Y0174700D03*
X0113300Y0174700D03*
X0183575Y0147863D03*
X0183587Y0138513D03*
X0183612Y0128937D03*
X0183737Y0119787D03*
X0195737Y0119787D03*
X0195612Y0128937D03*
X0195587Y0138513D03*
X0195575Y0147863D03*
X0132700Y0099400D03*
X0120700Y0099400D03*
D14*
X0105406Y0125000D03*
X0093594Y0125000D03*
X0093594Y0151000D03*
X0105406Y0151000D03*
X0105406Y0187000D03*
X0093594Y0187000D03*
X0093594Y0212500D03*
X0105406Y0212500D03*
X0104906Y0256500D03*
X0093094Y0256500D03*
X0093094Y0278000D03*
X0104906Y0278000D03*
X0104406Y0369500D03*
X0092594Y0369500D03*
X0093094Y0395000D03*
X0104906Y0395000D03*
X0104906Y0423500D03*
X0093094Y0423500D03*
X0093094Y0446500D03*
X0104906Y0446500D03*
X0104406Y0476000D03*
X0092594Y0476000D03*
X0093094Y0498500D03*
X0104906Y0498500D03*
D15*
X0102800Y0059600D03*
X0102800Y0090400D03*
X0111300Y0298600D03*
X0111300Y0329400D03*
D16*
X0155800Y0311600D03*
X0155800Y0299600D03*
X0169300Y0299600D03*
X0169300Y0311600D03*
X0157500Y0071400D03*
X0148500Y0071500D03*
X0148500Y0059500D03*
X0157500Y0059400D03*
X0462337Y0165088D03*
X0473387Y0164963D03*
X0473387Y0176962D03*
X0462337Y0177087D03*
X0521900Y0574400D03*
X0521900Y0586400D03*
X0623100Y0606200D03*
X0623100Y0618200D03*
X0370200Y0622900D03*
X0370200Y0610900D03*
X0312900Y0612700D03*
X0312900Y0600700D03*
D17*
X0314000Y0621094D03*
X0314000Y0632906D03*
X0242900Y0630006D03*
X0242900Y0618194D03*
X0161200Y0472906D03*
X0161200Y0461094D03*
X0132800Y0313806D03*
X0132800Y0301994D03*
X0191400Y0106606D03*
X0191400Y0094794D03*
X0126800Y0071806D03*
X0126800Y0059994D03*
X0476700Y0572194D03*
X0476700Y0584006D03*
X0531400Y0581506D03*
X0531400Y0569694D03*
X0569500Y0627094D03*
X0569500Y0638906D03*
X0623300Y0635506D03*
X0623300Y0623694D03*
D18*
X0134200Y0325063D03*
X0123200Y0080563D03*
D19*
X0123200Y0090799D03*
X0134200Y0335299D03*
D20*
X0142500Y0309200D03*
X0142500Y0302200D03*
X0165600Y0119400D03*
X0165600Y0112400D03*
X0135500Y0069300D03*
X0135500Y0062300D03*
X0157000Y0494500D03*
X0157000Y0501500D03*
X0182500Y0504500D03*
X0182500Y0511500D03*
X0486500Y0577300D03*
X0486500Y0584300D03*
X0557000Y0558400D03*
X0557000Y0551400D03*
D21*
X0154118Y0420240D03*
X0154118Y0412760D03*
X0143882Y0412760D03*
X0143882Y0416500D03*
X0143882Y0420240D03*
X0126418Y0468060D03*
X0126418Y0475540D03*
X0116182Y0475540D03*
X0116182Y0471800D03*
X0116182Y0468060D03*
X0114882Y0356740D03*
X0114882Y0353000D03*
X0114882Y0349260D03*
X0125118Y0349260D03*
X0125118Y0356740D03*
X0120182Y0246540D03*
X0120182Y0242800D03*
X0120182Y0239060D03*
X0130418Y0239060D03*
X0130418Y0246540D03*
X0138882Y0180240D03*
X0138882Y0176500D03*
X0138882Y0172760D03*
X0149118Y0172760D03*
X0149118Y0180240D03*
X0127618Y0115240D03*
X0127618Y0107760D03*
X0117382Y0107760D03*
X0117382Y0111500D03*
X0117382Y0115240D03*
D22*
X0119500Y0121500D03*
X0125500Y0121500D03*
X0149900Y0186300D03*
X0155900Y0186300D03*
X0179000Y0217000D03*
X0179000Y0223000D03*
X0174500Y0244000D03*
X0168500Y0244000D03*
X0135400Y0247700D03*
X0135400Y0253700D03*
X0128000Y0362500D03*
X0122000Y0362500D03*
X0156500Y0366100D03*
X0156500Y0372100D03*
X0156400Y0376500D03*
X0156400Y0382500D03*
X0158400Y0426800D03*
X0152400Y0426800D03*
X0125000Y0480500D03*
X0119000Y0480500D03*
X0187000Y0530000D03*
X0193000Y0530000D03*
X0127000Y0541500D03*
X0121000Y0541500D03*
X0270000Y0609500D03*
X0270000Y0615500D03*
X0333800Y0609100D03*
X0333800Y0603100D03*
X0334500Y0572500D03*
X0328500Y0572500D03*
X0338000Y0564000D03*
X0338000Y0558000D03*
X0394400Y0606500D03*
X0394400Y0612500D03*
X0525400Y0596400D03*
X0531400Y0596400D03*
X0574400Y0583800D03*
X0580400Y0583800D03*
X0570700Y0557700D03*
X0564900Y0557700D03*
X0564900Y0551700D03*
X0570700Y0551700D03*
X0644000Y0603900D03*
X0644000Y0609900D03*
D23*
X0227941Y0607899D03*
X0227941Y0631915D03*
X0183059Y0631915D03*
X0183059Y0607899D03*
D24*
X0163827Y0334200D03*
X0163827Y0329200D03*
X0163827Y0324200D03*
X0163827Y0319200D03*
X0142173Y0319200D03*
X0142173Y0324200D03*
X0142173Y0329200D03*
X0142173Y0334200D03*
X0136173Y0093700D03*
X0136173Y0088700D03*
X0136173Y0083700D03*
X0136173Y0078700D03*
X0157827Y0078700D03*
X0157827Y0083700D03*
X0157827Y0088700D03*
X0157827Y0093700D03*
X0492173Y0551300D03*
X0492173Y0556300D03*
X0492173Y0561300D03*
X0492173Y0566300D03*
X0513827Y0566300D03*
X0513827Y0561300D03*
X0513827Y0556300D03*
X0513827Y0551300D03*
D25*
X0503000Y0558800D03*
X0153000Y0326700D03*
X0147000Y0086200D03*
D26*
X0130906Y0162500D03*
X0119094Y0162500D03*
X0117394Y0219800D03*
X0129206Y0219800D03*
X0134494Y0290800D03*
X0146306Y0290800D03*
X0108306Y0338800D03*
X0096494Y0338800D03*
X0115594Y0403500D03*
X0127406Y0403500D03*
X0368194Y0574200D03*
X0380006Y0574200D03*
X0425494Y0574200D03*
X0437306Y0574200D03*
X0662994Y0575000D03*
X0674806Y0575000D03*
D27*
X0645732Y0508783D03*
X0645732Y0494217D03*
X0662268Y0448783D03*
X0662268Y0434217D03*
X0645732Y0388783D03*
X0645732Y0374217D03*
X0662268Y0328783D03*
X0662268Y0314217D03*
X0645732Y0268783D03*
X0645732Y0254217D03*
X0662268Y0208783D03*
X0662268Y0194217D03*
X0645732Y0148783D03*
X0645732Y0134217D03*
X0662268Y0088783D03*
X0662268Y0074217D03*
X0602268Y0074217D03*
X0602268Y0088783D03*
X0585732Y0134217D03*
X0585732Y0148783D03*
X0602268Y0194217D03*
X0602268Y0208783D03*
X0585732Y0254217D03*
X0585732Y0268783D03*
X0602268Y0314217D03*
X0602268Y0328783D03*
X0585732Y0374217D03*
X0585732Y0388783D03*
X0602268Y0434217D03*
X0602268Y0448783D03*
X0585732Y0494217D03*
X0585732Y0508783D03*
X0525732Y0508783D03*
X0525732Y0494217D03*
X0542268Y0448783D03*
X0542268Y0434217D03*
X0525732Y0388783D03*
X0525732Y0374217D03*
X0542268Y0328783D03*
X0542268Y0314217D03*
X0525732Y0268783D03*
X0525732Y0254217D03*
X0542268Y0208783D03*
X0542268Y0194217D03*
X0525732Y0148783D03*
X0525732Y0134217D03*
X0542268Y0088783D03*
X0542268Y0074217D03*
X0482268Y0074217D03*
X0482268Y0088783D03*
X0465732Y0134217D03*
X0465732Y0148783D03*
X0482268Y0194217D03*
X0482268Y0208783D03*
X0465732Y0254217D03*
X0465732Y0268783D03*
X0482268Y0314217D03*
X0482268Y0328783D03*
X0465732Y0374217D03*
X0465732Y0388783D03*
X0482268Y0434217D03*
X0482268Y0448783D03*
X0465732Y0494217D03*
X0465732Y0508783D03*
X0405732Y0508783D03*
X0405732Y0494217D03*
X0422268Y0448783D03*
X0422268Y0434217D03*
X0405732Y0388783D03*
X0405732Y0374217D03*
X0422268Y0328783D03*
X0422268Y0314217D03*
X0405732Y0268783D03*
X0405732Y0254217D03*
X0422268Y0208783D03*
X0422268Y0194217D03*
X0405732Y0148783D03*
X0405732Y0134217D03*
X0422268Y0088783D03*
X0422268Y0074217D03*
X0362268Y0074217D03*
X0362268Y0088783D03*
X0345732Y0134217D03*
X0345732Y0148783D03*
X0362268Y0194217D03*
X0362268Y0208783D03*
X0345732Y0254217D03*
X0345732Y0268783D03*
X0362268Y0314217D03*
X0362268Y0328783D03*
X0345732Y0374217D03*
X0345732Y0388783D03*
X0362268Y0434217D03*
X0362268Y0448783D03*
X0345732Y0494217D03*
X0345732Y0508783D03*
X0285732Y0508783D03*
X0285732Y0494217D03*
X0302268Y0448783D03*
X0302268Y0434217D03*
X0285732Y0388783D03*
X0285732Y0374217D03*
X0302268Y0328783D03*
X0302268Y0314217D03*
X0285732Y0268783D03*
X0285732Y0254217D03*
X0302268Y0208783D03*
X0302268Y0194217D03*
X0285732Y0148783D03*
X0285732Y0134217D03*
X0302268Y0088783D03*
X0302268Y0074217D03*
X0242268Y0074217D03*
X0242268Y0088783D03*
X0225732Y0134217D03*
X0225732Y0148783D03*
X0242268Y0194217D03*
X0242268Y0208783D03*
X0225732Y0254217D03*
X0225732Y0268783D03*
X0242268Y0314217D03*
X0242268Y0328783D03*
X0225732Y0374217D03*
X0225732Y0388783D03*
X0242268Y0434217D03*
X0242268Y0448783D03*
X0225732Y0494217D03*
X0225732Y0508783D03*
D28*
X0240299Y0508783D03*
X0240299Y0494217D03*
X0227701Y0448783D03*
X0227701Y0434217D03*
X0240299Y0388783D03*
X0240299Y0374217D03*
X0227701Y0328783D03*
X0227701Y0314217D03*
X0240299Y0268783D03*
X0240299Y0254217D03*
X0227701Y0208783D03*
X0227701Y0194217D03*
X0240299Y0148783D03*
X0240299Y0134217D03*
X0227701Y0088783D03*
X0227701Y0074217D03*
X0287701Y0074217D03*
X0287701Y0088783D03*
X0300299Y0134217D03*
X0300299Y0148783D03*
X0287701Y0194217D03*
X0287701Y0208783D03*
X0300299Y0254217D03*
X0300299Y0268783D03*
X0287701Y0314217D03*
X0287701Y0328783D03*
X0300299Y0374217D03*
X0300299Y0388783D03*
X0287701Y0434217D03*
X0287701Y0448783D03*
X0300299Y0494217D03*
X0300299Y0508783D03*
X0360299Y0508783D03*
X0360299Y0494217D03*
X0347701Y0448783D03*
X0347701Y0434217D03*
X0360299Y0388783D03*
X0360299Y0374217D03*
X0347701Y0328783D03*
X0347701Y0314217D03*
X0360299Y0268783D03*
X0360299Y0254217D03*
X0347701Y0208783D03*
X0347701Y0194217D03*
X0360299Y0148783D03*
X0360299Y0134217D03*
X0347701Y0088783D03*
X0347701Y0074217D03*
X0407701Y0074217D03*
X0407701Y0088783D03*
X0420299Y0134217D03*
X0420299Y0148783D03*
X0407701Y0194217D03*
X0407701Y0208783D03*
X0420299Y0254217D03*
X0420299Y0268783D03*
X0407701Y0314217D03*
X0407701Y0328783D03*
X0420299Y0374217D03*
X0420299Y0388783D03*
X0407701Y0434217D03*
X0407701Y0448783D03*
X0420299Y0494217D03*
X0420299Y0508783D03*
X0480299Y0508783D03*
X0480299Y0494217D03*
X0467701Y0448783D03*
X0467701Y0434217D03*
X0480299Y0388783D03*
X0480299Y0374217D03*
X0467701Y0328783D03*
X0467701Y0314217D03*
X0480299Y0268783D03*
X0480299Y0254217D03*
X0467701Y0208783D03*
X0467701Y0194217D03*
X0480299Y0148783D03*
X0480299Y0134217D03*
X0467701Y0088783D03*
X0467701Y0074217D03*
X0527701Y0074217D03*
X0527701Y0088783D03*
X0540299Y0134217D03*
X0540299Y0148783D03*
X0527701Y0194217D03*
X0527701Y0208783D03*
X0540299Y0254217D03*
X0540299Y0268783D03*
X0527701Y0314217D03*
X0527701Y0328783D03*
X0540299Y0374217D03*
X0540299Y0388783D03*
X0527701Y0434217D03*
X0527701Y0448783D03*
X0540299Y0494217D03*
X0540299Y0508783D03*
X0600299Y0508783D03*
X0600299Y0494217D03*
X0587701Y0448783D03*
X0587701Y0434217D03*
X0600299Y0388783D03*
X0600299Y0374217D03*
X0587701Y0328783D03*
X0587701Y0314217D03*
X0600299Y0268783D03*
X0600299Y0254217D03*
X0587701Y0208783D03*
X0587701Y0194217D03*
X0600299Y0148783D03*
X0600299Y0134217D03*
X0587701Y0088783D03*
X0587701Y0074217D03*
X0647701Y0074217D03*
X0647701Y0088783D03*
X0660299Y0134217D03*
X0660299Y0148783D03*
X0647701Y0194217D03*
X0647701Y0208783D03*
X0660299Y0254217D03*
X0660299Y0268783D03*
X0647701Y0314217D03*
X0647701Y0328783D03*
X0660299Y0374217D03*
X0660299Y0388783D03*
X0647701Y0434217D03*
X0647701Y0448783D03*
X0660299Y0494217D03*
X0660299Y0508783D03*
D29*
X0645732Y0501500D03*
X0585732Y0501500D03*
X0525732Y0501500D03*
X0465732Y0501500D03*
X0405732Y0501500D03*
X0345732Y0501500D03*
X0285732Y0501500D03*
X0225732Y0501500D03*
X0242268Y0441500D03*
X0302268Y0441500D03*
X0362268Y0441500D03*
X0422268Y0441500D03*
X0482268Y0441500D03*
X0542268Y0441500D03*
X0602268Y0441500D03*
X0662268Y0441500D03*
X0645732Y0381500D03*
X0585732Y0381500D03*
X0525732Y0381500D03*
X0465732Y0381500D03*
X0405732Y0381500D03*
X0345732Y0381500D03*
X0285732Y0381500D03*
X0225732Y0381500D03*
X0242268Y0321500D03*
X0302268Y0321500D03*
X0362268Y0321500D03*
X0422268Y0321500D03*
X0482268Y0321500D03*
X0542268Y0321500D03*
X0602268Y0321500D03*
X0662268Y0321500D03*
X0645732Y0261500D03*
X0585732Y0261500D03*
X0525732Y0261500D03*
X0465732Y0261500D03*
X0405732Y0261500D03*
X0345732Y0261500D03*
X0285732Y0261500D03*
X0225732Y0261500D03*
X0242268Y0201500D03*
X0302268Y0201500D03*
X0362268Y0201500D03*
X0422268Y0201500D03*
X0482268Y0201500D03*
X0542268Y0201500D03*
X0602268Y0201500D03*
X0662268Y0201500D03*
X0645732Y0141500D03*
X0585732Y0141500D03*
X0525732Y0141500D03*
X0465732Y0141500D03*
X0405732Y0141500D03*
X0345732Y0141500D03*
X0285732Y0141500D03*
X0225732Y0141500D03*
X0242268Y0081500D03*
X0302268Y0081500D03*
X0362268Y0081500D03*
X0422268Y0081500D03*
X0482268Y0081500D03*
X0542268Y0081500D03*
X0602268Y0081500D03*
X0662268Y0081500D03*
D30*
X0647701Y0081500D03*
X0587701Y0081500D03*
X0527701Y0081500D03*
X0467701Y0081500D03*
X0407701Y0081500D03*
X0347701Y0081500D03*
X0287701Y0081500D03*
X0227701Y0081500D03*
X0240299Y0141500D03*
X0300299Y0141500D03*
X0360299Y0141500D03*
X0420299Y0141500D03*
X0480299Y0141500D03*
X0540299Y0141500D03*
X0600299Y0141500D03*
X0660299Y0141500D03*
X0647701Y0201500D03*
X0587701Y0201500D03*
X0527701Y0201500D03*
X0467701Y0201500D03*
X0407701Y0201500D03*
X0347701Y0201500D03*
X0287701Y0201500D03*
X0227701Y0201500D03*
X0240299Y0261500D03*
X0300299Y0261500D03*
X0360299Y0261500D03*
X0420299Y0261500D03*
X0480299Y0261500D03*
X0540299Y0261500D03*
X0600299Y0261500D03*
X0660299Y0261500D03*
X0647701Y0321500D03*
X0587701Y0321500D03*
X0527701Y0321500D03*
X0467701Y0321500D03*
X0407701Y0321500D03*
X0347701Y0321500D03*
X0287701Y0321500D03*
X0227701Y0321500D03*
X0240299Y0381500D03*
X0300299Y0381500D03*
X0360299Y0381500D03*
X0420299Y0381500D03*
X0480299Y0381500D03*
X0540299Y0381500D03*
X0600299Y0381500D03*
X0660299Y0381500D03*
X0647701Y0441500D03*
X0587701Y0441500D03*
X0527701Y0441500D03*
X0467701Y0441500D03*
X0407701Y0441500D03*
X0347701Y0441500D03*
X0287701Y0441500D03*
X0227701Y0441500D03*
X0240299Y0501500D03*
X0300299Y0501500D03*
X0360299Y0501500D03*
X0420299Y0501500D03*
X0480299Y0501500D03*
X0540299Y0501500D03*
X0600299Y0501500D03*
X0660299Y0501500D03*
D31*
X0141260Y0500500D03*
X0141260Y0505500D03*
X0141260Y0495500D03*
X0141260Y0490500D03*
X0140760Y0446500D03*
X0140760Y0441500D03*
X0140760Y0436500D03*
X0140760Y0431500D03*
X0140260Y0391000D03*
X0140260Y0386000D03*
X0140260Y0381000D03*
X0140260Y0376000D03*
X0140760Y0278500D03*
X0140760Y0273500D03*
X0140760Y0268500D03*
X0140760Y0263500D03*
X0140260Y0206500D03*
X0140260Y0201500D03*
X0140260Y0196500D03*
X0140260Y0191500D03*
X0140260Y0151000D03*
X0140260Y0146000D03*
X0140260Y0141000D03*
X0140260Y0136000D03*
D32*
X0118606Y0136000D03*
X0118606Y0141000D03*
X0118606Y0146000D03*
X0118606Y0151000D03*
X0118606Y0191500D03*
X0118606Y0196500D03*
X0118606Y0201500D03*
X0118606Y0206500D03*
X0119106Y0263500D03*
X0119106Y0268500D03*
X0119106Y0273500D03*
X0119106Y0278500D03*
X0118606Y0376000D03*
X0118606Y0381000D03*
X0118606Y0386000D03*
X0118606Y0391000D03*
X0119106Y0431500D03*
X0119106Y0436500D03*
X0119106Y0441500D03*
X0119106Y0446500D03*
X0119606Y0490500D03*
X0119606Y0495500D03*
X0119606Y0500500D03*
X0119606Y0505500D03*
D33*
X0127382Y0503000D03*
X0134469Y0503000D03*
X0133969Y0444000D03*
X0126882Y0444000D03*
X0126382Y0388500D03*
X0133469Y0388500D03*
X0133969Y0276000D03*
X0126882Y0276000D03*
X0126382Y0204000D03*
X0133469Y0204000D03*
X0133469Y0148500D03*
X0126382Y0148500D03*
X0295000Y0600531D03*
X0295000Y0607618D03*
X0356500Y0606618D03*
X0356500Y0599531D03*
X0422000Y0601531D03*
X0422000Y0608618D03*
X0557500Y0607118D03*
X0557500Y0600031D03*
X0603000Y0599531D03*
X0603000Y0606618D03*
X0668500Y0606618D03*
X0668500Y0599531D03*
D34*
X0134272Y0493000D03*
X0127579Y0493000D03*
X0127079Y0434000D03*
X0133772Y0434000D03*
X0133272Y0378500D03*
X0126579Y0378500D03*
X0127079Y0266000D03*
X0133772Y0266000D03*
X0133272Y0194000D03*
X0126579Y0194000D03*
X0126579Y0138500D03*
X0133272Y0138500D03*
D35*
X0165563Y0212181D03*
X0167531Y0212181D03*
X0169500Y0212181D03*
X0171469Y0212181D03*
X0173437Y0212181D03*
X0173437Y0228819D03*
X0171469Y0228819D03*
X0169500Y0228819D03*
X0167531Y0228819D03*
X0165563Y0228819D03*
X0166500Y0364681D03*
X0168469Y0364681D03*
X0170437Y0364681D03*
X0164531Y0364681D03*
X0162563Y0364681D03*
X0162563Y0381319D03*
X0164531Y0381319D03*
X0166500Y0381319D03*
X0168469Y0381319D03*
X0170437Y0381319D03*
D36*
X0276000Y0629594D03*
X0276000Y0641406D03*
X0299000Y0641406D03*
X0299000Y0629594D03*
X0340500Y0629594D03*
X0340500Y0641406D03*
X0362500Y0641406D03*
X0362500Y0629594D03*
X0398000Y0629594D03*
X0398000Y0641406D03*
X0421500Y0641406D03*
X0421500Y0629594D03*
X0531500Y0630094D03*
X0531500Y0641906D03*
X0554000Y0641906D03*
X0554000Y0630094D03*
X0587000Y0629594D03*
X0587000Y0641406D03*
X0608500Y0641406D03*
X0608500Y0629594D03*
X0649300Y0629594D03*
X0649300Y0641406D03*
X0672000Y0641406D03*
X0672000Y0629594D03*
D37*
X0511900Y0620200D03*
X0481100Y0620200D03*
X0471400Y0624700D03*
X0440600Y0624700D03*
D38*
X0454063Y0603300D03*
X0504563Y0575800D03*
D39*
X0514799Y0575800D03*
X0464299Y0603300D03*
D40*
X0523760Y0602882D03*
X0531240Y0602882D03*
X0531240Y0613118D03*
X0527500Y0613118D03*
X0523760Y0613118D03*
X0572860Y0602018D03*
X0576600Y0602018D03*
X0580340Y0602018D03*
X0580340Y0591782D03*
X0572860Y0591782D03*
X0631860Y0603582D03*
X0639340Y0603582D03*
X0639340Y0613818D03*
X0635600Y0613818D03*
X0631860Y0613818D03*
X0389240Y0615818D03*
X0385500Y0615818D03*
X0381760Y0615818D03*
X0381760Y0605582D03*
X0389240Y0605582D03*
X0327740Y0601382D03*
X0320260Y0601382D03*
X0320260Y0611618D03*
X0324000Y0611618D03*
X0327740Y0611618D03*
X0261740Y0608882D03*
X0254260Y0608882D03*
X0254260Y0619118D03*
X0258000Y0619118D03*
X0261740Y0619118D03*
D41*
X0282500Y0593740D03*
X0287500Y0593740D03*
X0292500Y0593740D03*
X0297500Y0593740D03*
X0344000Y0592740D03*
X0349000Y0592740D03*
X0354000Y0592740D03*
X0359000Y0592740D03*
X0409500Y0594740D03*
X0414500Y0594740D03*
X0419500Y0594740D03*
X0424500Y0594740D03*
X0545000Y0593240D03*
X0550000Y0593240D03*
X0555000Y0593240D03*
X0560000Y0593240D03*
X0590500Y0592740D03*
X0595500Y0592740D03*
X0600500Y0592740D03*
X0605500Y0592740D03*
X0656000Y0592740D03*
X0661000Y0592740D03*
X0666000Y0592740D03*
X0671000Y0592740D03*
D42*
X0671000Y0614394D03*
X0666000Y0614394D03*
X0661000Y0614394D03*
X0656000Y0614394D03*
X0605500Y0614394D03*
X0600500Y0614394D03*
X0595500Y0614394D03*
X0590500Y0614394D03*
X0560000Y0614894D03*
X0555000Y0614894D03*
X0550000Y0614894D03*
X0545000Y0614894D03*
X0424500Y0616394D03*
X0419500Y0616394D03*
X0414500Y0616394D03*
X0409500Y0616394D03*
X0359000Y0614394D03*
X0354000Y0614394D03*
X0349000Y0614394D03*
X0344000Y0614394D03*
X0297500Y0615394D03*
X0292500Y0615394D03*
X0287500Y0615394D03*
X0282500Y0615394D03*
D43*
X0285000Y0607421D03*
X0285000Y0600728D03*
X0346500Y0599728D03*
X0346500Y0606421D03*
X0412000Y0608421D03*
X0412000Y0601728D03*
X0547500Y0600228D03*
X0547500Y0606921D03*
X0593000Y0606421D03*
X0593000Y0599728D03*
X0658500Y0599728D03*
X0658500Y0606421D03*
D44*
X0438700Y0565000D03*
X0431700Y0565000D03*
X0314500Y0551000D03*
X0307500Y0551000D03*
X0183400Y0409500D03*
X0176400Y0409500D03*
D45*
X0445700Y0572173D03*
X0450700Y0572173D03*
X0455700Y0572173D03*
X0460700Y0572173D03*
X0460700Y0593827D03*
X0455700Y0593827D03*
X0450700Y0593827D03*
X0445700Y0593827D03*
D46*
X0453200Y0583000D03*
D47*
X0605105Y0563300D03*
X0630695Y0563300D03*
X0260295Y0562500D03*
X0234705Y0562500D03*
D48*
X0130840Y0559579D03*
X0127100Y0559579D03*
X0123360Y0559579D03*
X0123360Y0549382D03*
X0127100Y0549382D03*
X0130840Y0549382D03*
D49*
X0183031Y0496000D03*
X0183031Y0491079D03*
X0183031Y0486157D03*
D50*
X0170039Y0477142D03*
X0170039Y0504858D03*
D51*
X0168000Y0280295D03*
X0168000Y0254705D03*
D52*
X0311181Y0560063D03*
X0311181Y0562031D03*
X0311181Y0564000D03*
X0311181Y0565969D03*
X0311181Y0567937D03*
X0327819Y0567937D03*
X0327819Y0565969D03*
X0327819Y0564000D03*
X0327819Y0562031D03*
X0327819Y0560063D03*
X0555181Y0562563D03*
X0555181Y0564531D03*
X0555181Y0566500D03*
X0555181Y0568469D03*
X0555181Y0570437D03*
X0571819Y0570437D03*
X0571819Y0568469D03*
X0571819Y0566500D03*
X0571819Y0564531D03*
X0571819Y0562563D03*
D53*
X0210000Y0556650D03*
X0190000Y0556650D03*
X0200000Y0579350D03*
D54*
X0143500Y0593311D03*
X0133500Y0593311D03*
X0123500Y0593311D03*
D55*
X0110500Y0596000D03*
X0096500Y0606000D03*
X0110500Y0616000D03*
X0096500Y0626000D03*
X0110500Y0636000D03*
X0096500Y0646000D03*
X0096500Y0586000D03*
X0110500Y0576000D03*
X0096500Y0566000D03*
X0110500Y0556000D03*
X0096500Y0546000D03*
X0110500Y0536000D03*
X0096500Y0526000D03*
X0110500Y0516000D03*
X0156500Y0526000D03*
X0170500Y0516000D03*
X0170500Y0536000D03*
X0156500Y0546000D03*
X0170500Y0556000D03*
X0156500Y0566000D03*
X0170500Y0576000D03*
X0156500Y0586000D03*
X0170500Y0596000D03*
X0156500Y0606000D03*
X0170500Y0616000D03*
X0156500Y0626000D03*
X0170500Y0636000D03*
X0156500Y0646000D03*
D56*
X0652800Y0563000D03*
X0670250Y0553000D03*
X0652750Y0543000D03*
D57*
X0182500Y0087750D03*
X0172500Y0070300D03*
X0192500Y0070250D03*
D58*
X0194240Y0536472D03*
X0190500Y0536472D03*
X0186760Y0536472D03*
X0186760Y0545528D03*
X0194240Y0545528D03*
M02*
