%
M48
M72
T01C0.01500
T02C0.01700
T03C0.02362
T04C0.02500
T05C0.03200
T06C0.04700
T07C0.05200
T08C0.06299
T09C0.07087
T10C0.12500
T11C0.23600
%
T01
X129500Y78500
X141200Y68500
X164000Y78500
X170000Y89000
X169000Y101500
X172500Y104500
X182700Y110200
X185500Y104000
X186500Y73500
X185500Y69500
X169200Y135200
X172300Y138200
X171900Y142400
X167000Y142000
X148000Y140000
X148000Y136000
X147500Y146500
X147500Y151000
X168500Y171000
X176500Y174500
X182500Y175000
X212938Y171340
X147500Y191500
X147500Y196500
X147500Y201500
X147500Y206500
X156500Y234000
X163000Y234000
X171000Y236500
X174000Y239500
X178000Y239500
X188800Y262700
X188800Y267500
X193500Y273500
X191000Y276000
X182500Y276000
X178500Y276000
X192500Y289500
X162000Y304000
X144000Y297000
X142000Y314500
X170500Y343500
X166000Y344500
X155000Y344500
X152500Y369000
X147000Y376000
X147000Y380000
X147500Y386500
X147500Y391000
X160500Y386500
X176000Y385000
X180000Y394000
X180000Y398000
X167500Y406500
X158000Y416500
X161500Y419500
X162000Y423500
X177000Y421500
X178400Y415600
X182500Y415500
X186500Y415000
X190000Y430000
X166000Y439000
X161500Y439000
X148000Y436500
X148000Y441500
X148000Y446500
X148000Y431500
X180500Y470000
X190100Y469500
X189000Y488500
X196500Y502000
X171000Y547500
X160500Y550500
X142000Y547000
X136000Y554500
X121000Y535500
X118500Y528500
X119000Y524000
X117000Y516500
X148000Y505500
X148000Y500500
X148000Y495500
X148000Y491500
X131500Y474500
X150500Y529000
X182000Y550000
X219500Y548500
X211000Y597500
X202000Y597500
X191500Y597500
X142000Y579000
X137500Y579000
X117500Y592500
X111500Y581000
X106000Y581000
X98500Y573500
X105000Y561000
X111000Y545500
X102500Y593500
X111500Y605000
X134000Y604500
X145500Y625500
X145500Y646000
X251000Y624000
X282500Y587000
X286500Y587000
X293000Y587000
X297000Y587000
X310500Y579700
X316500Y578500
X319500Y576000
X322600Y581500
X313000Y573000
X309100Y573400
X304800Y561700
X301800Y556000
X317000Y561500
X341500Y569500
X344000Y586000
X349000Y586000
X354500Y586000
X359500Y586000
X386700Y569500
X400500Y576500
X400500Y580500
X400500Y584500
X407000Y587500
X414000Y588000
X421500Y588000
X425500Y588000
X451000Y566500
X467000Y552300
X442986Y545705
X428500Y559000
X417000Y546500
X385500Y604500
X325000Y644000
X318500Y644000
X274600Y575000
X279300Y571400
X471000Y414500
X496500Y336000
X496500Y249000
X532000Y514000
X522000Y539000
X540000Y544000
X548500Y552000
X548500Y557500
X549000Y567500
X549000Y577000
X544500Y577000
X545000Y586000
X549000Y586000
X555000Y586500
X560000Y586500
X576000Y578000
X575500Y573000
X577000Y566500
X577000Y558500
X586500Y541500
X593000Y541500
X594500Y549500
X599200Y555400
X595300Y561900
X602000Y571500
X600200Y575300
X600500Y586000
X595500Y586000
X590500Y586000
X605500Y586000
X617500Y604000
X601000Y623000
X592500Y623000
X578500Y624500
X573000Y618500
X569500Y622000
X572500Y607500
X535000Y615000
X526000Y620500
X522500Y618000
X518500Y628500
X477000Y589500
X495000Y581000
X498000Y569500
X503000Y569500
X507500Y569500
X519500Y566000
X528500Y559500
X532000Y563000
X536000Y557000
X616000Y536500
X622000Y536500
X628500Y537000
X626500Y553000
X632500Y553000
X621000Y560000
X656000Y586000
X661000Y586000
X666000Y586000
X671500Y586000
X634500Y628000
X187500Y384500
X166500Y370500
X111500Y368000
X108000Y357000
X101500Y356500
X147500Y278500
X147500Y273500
X147500Y268500
X147500Y263500
T02
X142000Y259000
X137000Y259000
X132000Y259000
X127000Y259000
X122000Y259000
X117000Y259000
X114000Y253500
X110000Y248000
X111000Y238500
X116500Y211000
X121500Y211000
X126500Y211000
X131500Y211000
X136500Y211000
X141500Y211000
X141500Y187000
X136500Y187000
X131500Y187000
X126500Y187000
X121500Y187000
X116500Y187000
X110500Y193500
X110500Y201500
X133700Y172000
X119194Y168506
X121500Y155500
X116500Y155500
X126500Y155500
X131500Y155500
X136500Y155500
X141500Y155500
X141500Y131500
X136500Y131500
X131500Y131500
X126500Y131500
X121500Y131500
X116500Y131500
X111000Y135000
X111000Y144500
X111000Y115000
X111000Y108000
X144500Y96000
X148500Y96000
X150000Y76500
X144000Y76500
X215913Y62625
X222212Y62625
X246038Y62625
X252337Y62625
X275663Y62625
X281962Y62625
X305850Y62563
X312150Y62563
X335913Y62625
X342212Y62625
X365850Y62563
X372150Y62563
X395850Y62563
X402150Y62563
X402150Y100437
X395850Y100437
X395850Y122563
X402150Y122563
X425850Y122563
X432150Y122563
X432150Y100437
X425850Y100437
X455850Y100437
X462150Y100437
X462150Y122563
X455850Y122563
X485850Y122563
X492150Y122563
X492150Y100437
X485850Y100437
X515850Y100437
X522150Y100437
X522150Y122563
X515850Y122563
X545850Y122563
X552150Y122563
X552150Y100437
X545850Y100437
X575850Y100437
X582150Y100437
X582150Y122563
X575850Y122563
X605850Y122563
X612150Y122563
X612150Y100437
X605850Y100437
X635850Y100437
X642150Y100437
X642150Y122563
X635850Y122563
X665850Y122563
X672150Y122563
X672150Y100437
X665850Y100437
X642150Y62563
X635850Y62563
X612150Y62563
X605850Y62563
X582212Y62625
X575913Y62625
X552150Y62563
X545850Y62563
X521962Y62625
X515663Y62625
X492337Y62625
X486038Y62625
X462212Y62625
X455913Y62625
X372150Y100437
X365850Y100437
X365850Y122563
X372150Y122563
X342150Y122563
X335850Y122563
X335850Y100437
X342150Y100437
X312150Y100437
X305850Y100437
X305850Y122563
X312150Y122563
X282150Y122563
X275850Y122563
X275850Y100437
X282150Y100437
X252150Y100437
X245850Y100437
X245850Y122563
X252150Y122563
X222150Y122563
X215850Y122563
X215850Y100437
X222150Y100437
X222150Y160437
X215850Y160437
X215850Y182563
X222150Y182563
X245850Y182563
X252150Y182563
X252150Y160437
X245850Y160437
X275850Y160437
X282150Y160437
X282150Y182563
X275850Y182563
X305850Y182563
X312150Y182563
X312150Y160437
X305850Y160437
X335850Y160437
X342150Y160437
X342150Y182563
X335850Y182563
X365850Y182563
X372150Y182563
X372150Y160437
X365850Y160437
X395850Y160437
X402150Y160437
X402150Y182563
X395850Y182563
X425850Y182563
X432150Y182563
X432150Y160437
X425850Y160437
X455850Y160437
X462150Y160437
X462150Y182563
X455850Y182563
X485850Y182563
X492150Y182563
X492150Y160437
X485850Y160437
X515850Y160437
X522150Y160437
X522150Y182563
X515850Y182563
X545850Y182563
X552150Y182563
X552150Y160437
X545850Y160437
X575850Y160437
X582150Y160437
X582150Y182563
X575850Y182563
X605850Y182563
X612150Y182563
X612150Y160437
X605850Y160437
X635850Y160437
X642150Y160437
X642150Y182563
X635850Y182563
X665850Y182563
X672150Y182563
X672150Y160437
X665850Y160437
X665850Y220437
X672150Y220437
X672150Y242563
X665850Y242563
X642150Y242563
X635850Y242563
X635850Y220437
X642150Y220437
X612150Y220437
X605850Y220437
X605850Y242563
X612150Y242563
X582150Y242563
X575850Y242563
X575850Y220437
X582150Y220437
X552150Y220437
X545850Y220437
X545850Y242563
X552150Y242563
X522150Y242563
X515850Y242563
X515850Y220437
X522150Y220437
X492150Y220437
X485850Y220437
X485850Y242563
X462150Y242563
X455850Y242563
X455850Y220437
X462150Y220437
X432150Y220437
X425850Y220437
X425850Y242563
X432150Y242563
X402150Y242563
X395850Y242563
X395850Y220437
X402150Y220437
X372150Y220437
X365850Y220437
X365850Y242563
X372150Y242563
X342150Y242563
X335850Y242563
X335850Y220437
X342150Y220437
X312150Y220437
X305850Y220437
X305850Y242563
X312150Y242563
X282150Y242563
X275850Y242563
X275850Y220437
X282150Y220437
X252150Y220437
X245850Y220437
X245850Y242563
X252150Y242563
X222150Y242563
X215850Y242563
X215850Y220437
X222150Y220437
X222150Y280437
X245850Y280437
X252150Y280437
X275850Y280437
X282150Y280437
X305850Y280437
X312150Y280437
X335850Y280437
X342150Y280437
X365850Y280437
X372150Y280437
X395850Y280437
X402150Y280437
X402150Y302563
X395850Y302563
X372150Y302563
X365850Y302563
X342212Y302625
X335913Y302625
X312150Y302563
X305850Y302563
X281962Y302625
X275663Y302625
X252337Y302625
X246038Y302625
X222212Y302625
X215913Y302625
X198500Y289500
X156500Y316500
X151000Y316500
X154000Y337000
X158000Y337000
X182000Y336000
X198500Y331500
X215850Y340437
X222150Y340437
X222150Y362563
X215850Y362563
X245850Y362563
X252150Y362563
X252150Y340437
X245850Y340437
X275850Y340437
X282150Y340437
X282150Y362563
X275850Y362563
X305850Y362563
X312150Y362563
X312150Y340437
X305850Y340437
X335850Y340437
X342150Y340437
X342150Y362563
X335850Y362563
X365850Y362563
X372150Y362563
X372150Y340437
X365850Y340437
X395850Y340437
X402150Y340437
X402150Y362563
X395850Y362563
X425850Y362563
X432150Y362563
X432150Y340437
X425850Y340437
X455850Y340437
X462150Y340437
X462150Y362563
X455850Y362563
X485850Y362563
X492150Y362563
X485850Y340437
X515850Y340437
X522150Y340437
X522150Y362563
X515850Y362563
X545850Y362563
X552150Y362563
X552150Y340437
X545850Y340437
X575850Y340437
X582150Y340437
X582150Y362563
X575850Y362563
X605850Y362563
X612150Y362563
X612150Y340437
X605850Y340437
X635850Y340437
X642150Y340437
X642150Y362563
X635850Y362563
X665850Y362563
X672150Y362563
X672150Y340437
X665850Y340437
X642150Y302563
X635850Y302563
X612150Y302563
X605850Y302563
X582212Y302625
X575913Y302625
X552150Y302563
X545850Y302563
X521962Y302625
X515663Y302625
X492337Y302625
X486038Y302625
X485850Y280437
X492150Y280437
X515850Y280437
X522150Y280437
X545850Y280437
X552150Y280437
X575850Y280437
X582150Y280437
X605850Y280437
X612150Y280437
X635850Y280437
X642150Y280437
X665850Y280437
X672150Y280437
X672150Y400437
X665850Y400437
X642150Y400437
X635850Y400437
X612150Y400437
X605850Y400437
X582150Y400437
X575850Y400437
X552150Y400437
X545850Y400437
X522150Y400437
X515850Y400437
X492150Y400437
X485850Y400437
X462150Y400437
X455850Y400437
X432150Y400437
X425850Y400437
X402150Y400437
X395850Y400437
X372150Y400437
X365850Y400437
X366500Y412000
X371000Y412000
X372150Y422563
X365850Y422563
X342150Y422563
X335850Y422563
X335500Y412000
X339500Y412000
X342150Y400437
X335850Y400437
X312150Y400437
X305850Y400437
X282150Y400437
X275850Y400437
X252150Y400437
X245850Y400437
X222150Y400437
X215850Y400437
X215850Y422563
X222150Y422563
X245850Y422563
X252150Y422563
X275850Y422563
X282150Y422563
X305850Y422563
X312150Y422563
X312150Y460437
X305850Y460437
X305850Y482563
X312150Y482563
X335850Y482563
X342150Y482563
X342150Y460437
X335850Y460437
X365850Y460437
X372150Y460437
X372150Y482563
X365850Y482563
X395850Y482563
X402150Y482563
X402150Y460437
X395850Y460437
X425850Y460437
X432150Y460437
X432150Y482563
X425850Y482563
X455850Y482563
X462150Y482563
X462150Y460437
X455850Y460437
X485850Y460437
X492150Y460437
X492150Y482563
X485850Y482563
X515850Y482563
X522150Y482563
X522150Y460437
X515850Y460437
X545850Y460437
X552150Y460437
X552150Y482563
X545850Y482563
X575850Y482563
X582150Y482563
X582150Y460437
X575850Y460437
X605850Y460437
X612150Y460437
X612150Y482563
X605850Y482563
X635850Y482563
X642150Y482563
X642150Y460437
X635850Y460437
X665850Y460437
X672150Y460437
X672150Y482563
X665850Y482563
X665850Y520437
X672150Y520437
X642150Y520437
X635850Y520437
X612150Y520437
X605850Y520437
X582150Y520437
X575850Y520437
X552150Y520437
X545850Y520437
X553000Y537100
X522150Y520437
X515850Y520437
X492150Y520437
X485850Y520437
X462150Y520437
X455850Y520437
X432150Y520437
X425850Y520437
X402150Y520437
X395850Y520437
X374500Y535000
X372150Y520437
X365850Y520437
X354500Y539500
X360500Y543000
X342150Y520437
X335850Y520437
X312150Y520437
X305850Y520437
X309300Y542700
X315000Y542700
X282150Y520437
X275850Y520437
X252150Y520437
X245850Y520437
X222150Y520437
X203500Y548500
X183400Y555000
X142500Y510000
X137500Y510000
X132500Y510000
X127500Y510000
X122500Y510000
X117500Y510000
X113000Y500500
X113000Y490500
X117500Y486000
X122500Y486000
X127500Y486000
X132500Y486000
X137500Y486000
X142500Y486000
X109500Y476000
X110500Y460000
X117000Y451000
X122000Y451000
X127000Y451000
X132000Y451000
X137000Y451000
X142000Y451000
X142000Y427000
X137000Y427000
X132000Y427000
X127000Y427000
X122000Y427000
X117000Y427000
X110000Y427000
X110000Y441500
X135500Y417000
X136500Y395500
X131500Y395500
X126500Y395500
X121500Y395500
X116500Y395500
X109700Y386000
X109500Y376500
X116500Y371500
X121500Y371500
X126500Y371500
X131500Y371500
X136500Y371500
X141500Y371500
X118000Y364500
X111000Y361500
X111000Y345600
X125500Y319000
X127000Y283000
X132000Y283000
X137000Y283000
X142000Y283000
X122000Y283000
X117000Y283000
X110000Y273500
X141500Y395500
X110500Y410100
X215850Y460437
X222150Y460437
X222150Y482563
X215850Y482563
X245850Y482563
X252150Y482563
X252150Y460437
X245850Y460437
X275850Y460437
X282150Y460437
X282150Y482563
X275850Y482563
X395850Y422563
X402150Y422563
X425850Y422563
X432150Y422563
X455850Y422563
X462150Y422563
X485850Y422563
X492150Y422563
X515850Y422563
X522150Y422563
X545850Y422563
X552150Y422563
X575850Y422563
X582150Y422563
X605850Y422563
X612150Y422563
X635850Y422563
X642150Y422563
X665850Y422563
X672150Y422563
X491500Y547000
X464500Y581000
X429000Y593500
X429000Y598500
X429000Y603500
X429000Y608500
X429000Y613500
X429000Y618500
X419500Y623500
X405000Y618500
X405000Y613500
X405000Y608500
X405000Y603500
X405000Y598500
X405000Y593500
X378000Y603100
X363500Y601500
X363500Y596500
X363500Y591500
X363500Y606500
X363500Y611500
X363500Y616500
X355000Y624000
X347500Y624000
X339500Y616500
X339500Y611500
X339500Y606500
X339500Y601500
X339500Y596500
X339500Y591500
X324000Y593500
X302000Y592500
X302000Y597500
X302000Y602500
X302000Y607500
X302000Y612500
X302000Y617500
X293500Y623300
X285000Y622000
X278000Y617500
X278000Y612500
X278000Y607500
X278000Y602500
X278000Y597500
X278000Y592500
X261500Y624000
X325500Y629500
X328500Y621500
X382800Y623500
X390000Y624500
X403000Y623500
X534500Y620500
X540500Y617000
X540500Y612000
X540500Y607000
X540500Y602000
X540500Y597000
X540500Y592000
X564500Y592000
X564500Y597000
X564500Y602000
X564500Y607000
X564500Y612000
X564500Y617000
X552500Y625000
X586000Y616500
X586000Y611500
X586000Y606500
X586000Y601500
X586000Y596500
X586000Y591500
X610000Y591500
X610000Y596500
X610000Y601500
X610000Y606500
X610000Y611500
X610000Y616500
X630300Y620200
X651500Y616500
X651500Y611500
X651500Y606500
X651500Y601500
X651500Y596500
X651500Y591500
X675500Y591500
X675500Y596500
X675500Y601500
X675500Y606500
X675500Y611500
X675500Y616500
X664800Y624000
X656200Y624100
T03
X107000Y71500
X120500Y60000
X375000Y286000
X383000Y286000
X300500Y414500
X293500Y414500
X287000Y530500
X279500Y531000
X333000Y527500
X338000Y527500
X453500Y533000
T04
X453000Y526000
X453000Y508500
X458000Y508500
X458000Y501500
X453000Y501500
X453000Y494500
X458000Y494500
X468500Y477000
X462000Y465500
X458000Y448500
X453000Y448500
X453000Y441500
X458000Y441500
X458000Y434500
X453000Y434500
X452500Y417500
X466500Y412500
X473500Y398000
X480000Y397500
X490000Y388500
X495000Y388500
X495000Y381500
X490000Y381500
X490000Y374500
X495000Y374500
X513000Y374500
X518000Y374500
X518000Y381500
X513000Y381500
X513000Y388500
X518000Y388500
X550000Y388500
X555000Y388500
X555000Y381500
X550000Y381500
X550000Y374500
X555000Y374500
X573000Y374500
X578000Y374500
X578000Y381500
X573000Y381500
X573000Y388500
X578000Y388500
X585000Y408000
X578500Y412500
X586000Y417000
X592500Y412500
X601000Y416500
X601000Y408000
X610000Y388500
X615000Y388500
X615000Y381500
X610000Y381500
X610000Y374500
X615000Y374500
X633000Y374500
X638000Y374500
X638000Y381500
X633000Y381500
X633000Y388500
X638000Y388500
X648000Y365500
X654500Y365000
X660500Y365000
X670000Y374500
X675000Y374500
X675000Y381500
X670000Y381500
X670000Y388500
X675000Y388500
X675000Y434500
X670000Y434500
X670000Y441500
X675000Y441500
X675000Y448500
X670000Y448500
X661000Y457500
X655000Y456500
X648000Y456500
X638000Y448500
X633000Y448500
X633000Y441500
X638000Y441500
X638000Y434500
X633000Y434500
X615000Y434500
X610000Y434500
X610000Y441500
X615000Y441500
X615000Y448500
X610000Y448500
X578000Y448500
X573000Y448500
X573000Y441500
X578000Y441500
X578000Y434500
X573000Y434500
X555000Y434500
X550000Y434500
X550000Y441500
X555000Y441500
X555000Y448500
X550000Y448500
X545000Y467000
X545000Y475500
X523500Y475500
X523000Y467000
X518000Y448500
X513000Y448500
X513000Y441500
X518000Y441500
X518000Y434500
X513000Y434500
X495000Y434500
X490000Y434500
X490000Y441500
X495000Y441500
X495000Y448500
X490000Y448500
X486000Y469000
X490000Y494500
X495000Y494500
X495000Y501500
X490000Y501500
X490000Y508500
X495000Y508500
X479500Y516500
X472000Y516000
X435000Y508500
X430000Y508500
X430000Y501500
X435000Y501500
X435000Y494500
X430000Y494500
X420500Y486500
X414500Y486500
X408000Y486000
X398000Y494500
X393000Y494500
X393000Y501500
X398000Y501500
X398000Y508500
X393000Y508500
X375000Y508500
X370000Y508500
X370000Y501500
X375000Y501500
X375000Y494500
X370000Y494500
X366000Y475500
X366500Y468000
X370000Y448500
X375000Y448500
X375000Y441500
X370000Y441500
X370000Y434500
X375000Y434500
X393000Y434500
X398000Y434500
X398000Y441500
X393000Y441500
X393000Y448500
X398000Y448500
X408000Y457000
X414500Y457000
X430000Y448500
X435000Y448500
X435000Y441500
X430000Y441500
X430000Y434500
X435000Y434500
X435000Y388500
X430000Y388500
X430000Y381500
X435000Y381500
X435000Y374500
X430000Y374500
X421000Y365000
X415000Y365500
X408500Y364500
X398000Y374500
X393000Y374500
X393000Y381500
X398000Y381500
X398000Y388500
X393000Y388500
X375000Y388500
X370000Y388500
X370000Y381500
X375000Y381500
X375000Y374500
X370000Y374500
X366500Y355000
X366500Y347000
X370000Y328500
X375000Y328500
X375000Y321500
X370000Y321500
X370000Y314500
X375000Y314500
X393000Y314500
X398000Y314500
X398000Y321500
X393000Y321500
X393000Y328500
X398000Y328500
X408500Y337500
X415000Y337000
X421000Y337000
X430000Y328500
X435000Y328500
X435000Y321500
X430000Y321500
X430000Y314500
X435000Y314500
X437600Y309800
X449000Y310400
X453000Y314500
X458000Y314500
X458000Y321500
X453000Y321500
X453000Y328500
X458000Y328500
X454600Y303400
X458000Y300000
X466500Y303000
X462150Y283650
X451300Y276500
X453000Y268500
X458000Y268500
X458000Y261500
X453000Y261500
X453000Y254500
X458000Y254500
X467000Y246500
X472500Y231500
X465500Y225500
X477500Y216000
X490000Y208500
X495000Y208500
X495000Y201500
X490000Y201500
X490000Y194500
X495000Y194500
X513000Y194500
X518000Y194500
X518000Y201500
X513000Y201500
X513000Y208500
X518000Y208500
X550000Y208500
X555000Y208500
X555000Y201500
X550000Y201500
X550000Y194500
X555000Y194500
X573000Y194500
X578000Y194500
X578000Y201500
X573000Y201500
X573000Y208500
X578000Y208500
X595500Y215000
X610000Y208500
X615000Y208500
X615000Y201500
X610000Y201500
X610000Y194500
X615000Y194500
X633000Y194500
X638000Y194500
X638000Y201500
X633000Y201500
X633000Y208500
X638000Y208500
X648500Y216500
X655000Y216500
X661000Y216000
X670000Y208500
X675000Y208500
X675000Y201500
X670000Y201500
X670000Y194500
X675000Y194500
X675000Y148500
X670000Y148500
X670000Y141500
X675000Y141500
X675000Y134500
X670000Y134500
X660500Y125500
X654500Y125500
X648000Y125500
X638000Y134500
X633000Y134500
X633000Y141500
X638000Y141500
X638000Y148500
X633000Y148500
X615000Y148500
X610000Y148500
X610000Y141500
X615000Y141500
X615000Y134500
X610000Y134500
X578000Y134500
X573000Y134500
X573000Y141500
X578000Y141500
X578000Y148500
X573000Y148500
X555000Y148500
X550000Y148500
X550000Y141500
X555000Y141500
X555000Y134500
X550000Y134500
X518000Y134500
X513000Y134500
X513000Y141500
X518000Y141500
X518000Y148500
X513000Y148500
X495000Y148500
X490000Y148500
X490000Y141500
X495000Y141500
X495000Y134500
X490000Y134500
X487000Y118000
X483500Y110500
X470500Y105000
X469000Y117500
X464000Y117500
X458000Y134500
X453000Y134500
X453000Y141500
X458000Y141500
X458000Y148500
X453000Y148500
X469000Y157000
X477500Y156500
X480500Y171000
X477500Y187000
X458000Y194500
X453000Y194500
X453000Y201500
X458000Y201500
X458000Y208500
X453000Y208500
X435000Y208500
X430000Y208500
X430000Y201500
X435000Y201500
X435000Y194500
X430000Y194500
X420500Y216000
X414500Y216500
X408000Y216500
X398000Y208500
X393000Y208500
X393000Y201500
X398000Y201500
X398000Y194500
X393000Y194500
X375000Y194500
X370000Y194500
X370000Y201500
X375000Y201500
X375000Y208500
X370000Y208500
X338000Y208500
X333000Y208500
X333000Y201500
X338000Y201500
X338000Y194500
X333000Y194500
X315000Y194500
X310000Y194500
X310000Y201500
X315000Y201500
X315000Y208500
X310000Y208500
X278000Y208500
X273000Y208500
X273000Y201500
X278000Y201500
X278000Y194500
X273000Y194500
X255000Y194500
X250000Y194500
X250000Y201500
X255000Y201500
X255000Y208500
X250000Y208500
X246000Y229000
X246000Y234500
X227500Y236500
X222600Y225600
X209500Y215500
X213000Y208500
X218000Y208500
X218000Y201500
X213000Y201500
X213000Y194500
X218000Y194500
X222000Y177000
X220000Y166500
X218000Y148500
X213000Y148500
X213000Y141500
X218000Y141500
X218000Y134500
X213000Y134500
X200000Y114000
X213500Y109000
X219500Y105000
X234500Y110500
X239000Y105000
X245500Y113000
X239500Y116500
X250000Y134500
X255000Y134500
X255000Y141500
X250000Y141500
X250000Y148500
X255000Y148500
X245500Y166500
X246000Y171500
X245500Y177000
X252000Y171500
X273000Y148500
X278000Y148500
X278000Y141500
X273000Y141500
X273000Y134500
X278000Y134500
X310000Y134500
X315000Y134500
X315000Y141500
X310000Y141500
X310000Y148500
X315000Y148500
X333000Y148500
X338000Y148500
X338000Y141500
X333000Y141500
X333000Y134500
X338000Y134500
X370000Y134500
X375000Y134500
X375000Y141500
X370000Y141500
X370000Y148500
X375000Y148500
X393000Y148500
X398000Y148500
X398000Y141500
X393000Y141500
X393000Y134500
X398000Y134500
X408500Y126000
X416000Y125500
X430000Y134500
X435000Y134500
X435000Y141500
X430000Y141500
X430000Y148500
X435000Y148500
X455500Y167500
X416000Y97000
X408500Y97000
X398000Y88500
X393000Y88500
X393000Y81500
X398000Y81500
X398000Y74500
X393000Y74500
X375000Y74500
X370000Y74500
X370000Y81500
X375000Y81500
X375000Y88500
X370000Y88500
X338000Y88500
X333000Y88500
X333000Y81500
X338000Y81500
X338000Y74500
X333000Y74500
X315000Y74500
X310000Y74500
X310000Y81500
X315000Y81500
X315000Y88500
X310000Y88500
X296000Y95000
X278000Y88500
X273000Y88500
X273000Y81500
X278000Y81500
X278000Y74500
X273000Y74500
X255000Y74500
X250000Y74500
X250000Y81500
X255000Y81500
X255000Y88500
X250000Y88500
X239500Y62500
X241500Y56000
X233500Y56000
X218000Y74500
X213000Y74500
X213000Y81500
X218000Y81500
X218000Y88500
X213000Y88500
X203500Y55500
X166000Y62500
X142100Y60000
X120500Y66000
X165000Y87500
X178500Y192500
X178500Y197000
X187000Y202500
X156000Y200500
X192500Y232900
X213000Y254500
X218000Y254500
X218000Y261500
X213000Y261500
X213000Y268500
X218000Y268500
X226000Y286000
X245500Y286000
X247500Y296000
X240500Y306000
X250000Y314500
X255000Y314500
X255000Y321500
X250000Y321500
X250000Y328500
X255000Y328500
X273000Y328500
X278000Y328500
X278000Y321500
X273000Y321500
X273000Y314500
X278000Y314500
X296000Y307500
X310000Y314500
X315000Y314500
X315000Y321500
X310000Y321500
X310000Y328500
X315000Y328500
X333000Y328500
X338000Y328500
X338000Y321500
X333000Y321500
X333000Y314500
X338000Y314500
X342000Y289500
X338000Y268500
X333000Y268500
X333000Y261500
X338000Y261500
X338000Y254500
X333000Y254500
X315000Y254500
X310000Y254500
X310000Y261500
X315000Y261500
X315000Y268500
X310000Y268500
X278000Y268500
X273000Y268500
X273000Y261500
X278000Y261500
X278000Y254500
X273000Y254500
X255000Y254500
X250000Y254500
X250000Y261500
X255000Y261500
X255000Y268500
X250000Y268500
X218000Y314500
X213000Y314500
X213000Y321500
X218000Y321500
X218000Y328500
X213000Y328500
X218000Y347500
X202500Y345500
X179500Y349000
X179500Y353500
X213000Y374500
X218000Y374500
X218000Y381500
X213000Y381500
X213000Y388500
X218000Y388500
X211200Y400500
X221500Y406000
X212000Y411000
X221200Y417000
X209300Y430200
X213000Y434500
X218000Y434500
X218000Y441500
X213000Y441500
X213000Y448500
X218000Y448500
X222000Y466100
X227500Y477000
X243400Y474500
X246000Y469000
X250000Y448500
X255000Y448500
X255000Y441500
X250000Y441500
X250000Y434500
X255000Y434500
X248200Y417100
X249500Y412000
X245500Y406000
X250000Y388500
X255000Y388500
X255000Y381500
X250000Y381500
X250000Y374500
X255000Y374500
X273000Y374500
X278000Y374500
X278000Y381500
X273000Y381500
X273000Y388500
X278000Y388500
X292000Y367000
X310000Y374500
X315000Y374500
X315000Y381500
X310000Y381500
X310000Y388500
X315000Y388500
X333000Y388500
X338000Y388500
X338000Y381500
X333000Y381500
X333000Y374500
X338000Y374500
X342000Y355000
X342000Y347000
X342000Y406500
X342000Y417000
X338000Y434500
X333000Y434500
X333000Y441500
X338000Y441500
X338000Y448500
X333000Y448500
X315000Y448500
X310000Y448500
X310000Y441500
X315000Y441500
X315000Y434500
X310000Y434500
X296000Y428000
X278000Y434500
X273000Y434500
X273000Y441500
X278000Y441500
X278000Y448500
X273000Y448500
X296000Y455000
X292000Y488000
X278000Y494500
X273000Y494500
X273000Y501500
X278000Y501500
X278000Y508500
X273000Y508500
X292000Y515500
X310000Y508500
X315000Y508500
X315000Y501500
X310000Y501500
X310000Y494500
X315000Y494500
X333000Y494500
X338000Y494500
X338000Y501500
X333000Y501500
X333000Y508500
X338000Y508500
X371500Y528000
X377000Y528000
X382000Y528000
X426500Y565000
X420000Y574000
X441000Y593000
X465000Y589000
X533000Y527500
X538500Y534000
X565000Y527500
X573000Y508500
X578000Y508500
X578000Y501500
X573000Y501500
X573000Y494500
X578000Y494500
X555000Y494500
X550000Y494500
X550000Y501500
X555000Y501500
X555000Y508500
X550000Y508500
X518000Y508500
X513000Y508500
X513000Y501500
X518000Y501500
X518000Y494500
X513000Y494500
X610000Y494500
X615000Y494500
X615000Y501500
X610000Y501500
X610000Y508500
X615000Y508500
X633000Y508500
X638000Y508500
X638000Y501500
X633000Y501500
X633000Y494500
X638000Y494500
X648000Y486500
X655000Y486500
X661000Y486500
X670000Y494500
X675000Y494500
X675000Y501500
X670000Y501500
X670000Y508500
X675000Y508500
X649000Y533000
X644000Y533000
X639000Y533000
X670000Y535000
X675000Y535000
X679500Y535000
X604500Y356500
X605000Y348000
X610000Y328500
X615000Y328500
X615000Y321500
X610000Y321500
X610000Y314500
X615000Y314500
X595500Y307000
X595500Y291500
X592400Y274800
X578000Y268500
X573000Y268500
X573000Y261500
X578000Y261500
X578000Y254500
X573000Y254500
X555000Y254500
X550000Y254500
X550000Y261500
X555000Y261500
X555000Y268500
X550000Y268500
X518000Y268500
X513000Y268500
X513000Y261500
X518000Y261500
X518000Y254500
X513000Y254500
X495000Y254500
X490000Y254500
X490000Y261500
X495000Y261500
X495000Y268500
X490000Y268500
X478000Y276500
X478000Y281500
X490000Y314500
X495000Y314500
X495000Y321500
X490000Y321500
X490000Y328500
X495000Y328500
X513000Y328500
X518000Y328500
X518000Y321500
X513000Y321500
X513000Y314500
X518000Y314500
X550000Y314500
X555000Y314500
X555000Y321500
X550000Y321500
X550000Y328500
X555000Y328500
X573000Y328500
X578000Y328500
X578000Y321500
X573000Y321500
X573000Y314500
X578000Y314500
X582500Y348000
X583000Y356500
X633000Y328500
X638000Y328500
X638000Y321500
X633000Y321500
X633000Y314500
X638000Y314500
X658500Y302500
X670000Y314500
X675000Y314500
X675000Y321500
X670000Y321500
X670000Y328500
X675000Y328500
X660500Y337000
X654500Y337000
X648000Y337500
X674500Y305500
X675000Y268500
X670000Y268500
X670000Y261500
X675000Y261500
X675000Y254500
X670000Y254500
X661000Y246000
X655000Y245500
X648500Y246000
X638000Y254500
X633000Y254500
X633000Y261500
X638000Y261500
X638000Y268500
X633000Y268500
X615000Y268500
X610000Y268500
X610000Y261500
X615000Y261500
X615000Y254500
X610000Y254500
X468500Y354000
X458000Y374500
X453000Y374500
X453000Y381500
X458000Y381500
X458000Y388500
X453000Y388500
X365500Y406500
X366000Y417000
X342000Y467500
X342000Y475500
X301500Y536500
X272500Y550000
X266000Y550000
X260000Y550000
X270500Y566000
X275500Y566000
X243500Y538000
X235300Y538000
X232000Y538000
X226500Y538000
X234500Y526500
X234500Y522000
X240500Y517000
X228000Y517000
X218000Y508500
X213000Y508500
X213000Y501500
X218000Y501500
X218000Y494500
X213000Y494500
X204500Y482500
X190000Y474000
X210500Y522000
X215500Y525000
X250000Y508500
X255000Y508500
X255000Y501500
X250000Y501500
X250000Y494500
X255000Y494500
X217000Y581000
X212000Y581000
X207000Y581000
X197000Y643000
X191000Y643000
X185000Y643000
X128600Y644200
X122200Y644200
X116000Y644400
X88500Y540000
X88500Y534000
X95000Y534000
X236500Y356500
X245500Y355000
X245300Y347400
X191500Y319500
X180400Y304100
X191500Y299000
X192800Y282500
X149000Y301000
X125500Y312000
X97500Y297000
X296000Y172000
X370000Y254500
X375000Y254500
X375000Y261500
X370000Y261500
X370000Y268500
X375000Y268500
X393000Y268500
X398000Y268500
X398000Y261500
X393000Y261500
X393000Y254500
X398000Y254500
X408000Y246500
X414500Y246500
X420500Y246500
X430000Y254500
X435000Y254500
X435000Y261500
X430000Y261500
X430000Y268500
X435000Y268500
X438300Y273100
X420000Y279000
X418500Y302500
X397000Y236500
X400500Y233000
X430000Y88500
X435000Y88500
X435000Y81500
X430000Y81500
X430000Y74500
X435000Y74500
X436000Y67000
X418500Y62500
X453000Y74500
X458000Y74500
X458000Y81500
X453000Y81500
X453000Y88500
X458000Y88500
X477000Y66500
X490000Y74500
X495000Y74500
X495000Y81500
X490000Y81500
X490000Y88500
X495000Y88500
X513000Y88500
X518000Y88500
X518000Y81500
X513000Y81500
X513000Y74500
X518000Y74500
X550000Y74500
X555000Y74500
X555000Y81500
X550000Y81500
X550000Y88500
X555000Y88500
X573000Y88500
X578000Y88500
X578000Y81500
X573000Y81500
X573000Y74500
X578000Y74500
X610000Y74500
X615000Y74500
X615000Y81500
X610000Y81500
X610000Y88500
X615000Y88500
X633000Y88500
X638000Y88500
X638000Y81500
X633000Y81500
X633000Y74500
X638000Y74500
X658500Y62500
X670000Y74500
X675000Y74500
X677000Y69200
X675000Y81500
X670000Y81500
X670000Y88500
X675000Y88500
X660500Y98000
X654500Y97500
X648000Y97500
X477000Y56000
T05
X172000Y581500
T06
X163500Y521000
X103500Y521000
X103500Y641000
X163500Y641000
T07
X184000Y568000
X216000Y568000
T08
X205500Y631915
T09
X205500Y614198
T10
X264000Y591500
X384000Y591500
X504000Y591500
X624000Y591500
X624000Y471500
X504000Y471500
X384000Y471500
X264000Y471500
X144000Y471500
X144000Y351500
X264000Y351500
X384000Y351500
X504000Y351500
X624000Y351500
X624000Y231500
X504000Y231500
X384000Y231500
X264000Y231500
X144000Y231500
X144000Y111500
X264000Y111500
X384000Y111500
X504000Y111500
X624000Y111500
T11
X444000Y291500
M30
