G75*
%MOIN*%
%OFA0B0*%
%FSLAX25Y25*%
%IPPOS*%
%LPD*%
%AMOC8*
5,1,8,0,0,1.08239X$1,22.5*
%
%ADD10C,0.00400*%
%ADD11C,0.00300*%
D10*
X0006116Y0005300D02*
X0006800Y0005984D01*
X0006800Y0006668D01*
X0006116Y0007352D01*
X0002696Y0007352D01*
X0002696Y0006668D02*
X0002696Y0008036D01*
X0003380Y0009444D02*
X0002696Y0010127D01*
X0002696Y0011495D01*
X0003380Y0012179D01*
X0006116Y0009444D01*
X0006800Y0010127D01*
X0006800Y0011495D01*
X0006116Y0012179D01*
X0003380Y0012179D01*
X0003380Y0013587D02*
X0002696Y0014271D01*
X0002696Y0015639D01*
X0003380Y0016323D01*
X0006116Y0013587D01*
X0006800Y0014271D01*
X0006800Y0015639D01*
X0006116Y0016323D01*
X0003380Y0016323D01*
X0003380Y0017731D02*
X0002696Y0018415D01*
X0002696Y0019782D01*
X0003380Y0020466D01*
X0004064Y0020466D01*
X0006800Y0017731D01*
X0006800Y0020466D01*
X0006116Y0021874D02*
X0004748Y0021874D01*
X0004748Y0023926D01*
X0005432Y0024610D01*
X0006116Y0024610D01*
X0006800Y0023926D01*
X0006800Y0022558D01*
X0006116Y0021874D01*
X0004748Y0021874D02*
X0003380Y0023242D01*
X0002696Y0024610D01*
X0003380Y0026018D02*
X0002696Y0026702D01*
X0002696Y0028069D01*
X0003380Y0028753D01*
X0006116Y0026018D01*
X0006800Y0026702D01*
X0006800Y0028069D01*
X0006116Y0028753D01*
X0003380Y0028753D01*
X0003380Y0030161D02*
X0004064Y0030161D01*
X0004748Y0030845D01*
X0004748Y0032213D01*
X0005432Y0032897D01*
X0006116Y0032897D01*
X0006800Y0032213D01*
X0006800Y0030845D01*
X0006116Y0030161D01*
X0005432Y0030161D01*
X0004748Y0030845D01*
X0003380Y0030161D02*
X0002696Y0030845D01*
X0002696Y0032213D01*
X0003380Y0032897D01*
X0004064Y0032897D01*
X0004748Y0032213D01*
X0003380Y0034305D02*
X0006116Y0034305D01*
X0006800Y0034989D01*
X0006800Y0036357D01*
X0006116Y0037040D01*
X0003380Y0037040D02*
X0002696Y0036357D01*
X0002696Y0034989D01*
X0003380Y0034305D01*
X0003380Y0026018D02*
X0006116Y0026018D01*
X0006116Y0013587D02*
X0003380Y0013587D01*
X0003380Y0009444D02*
X0006116Y0009444D01*
X0105596Y0009869D02*
X0106363Y0009102D01*
X0107898Y0009102D01*
X0108665Y0008335D01*
X0108665Y0007567D01*
X0107898Y0006800D01*
X0106363Y0006800D01*
X0105596Y0007567D01*
X0105600Y0007369D02*
X0106367Y0006602D01*
X0107902Y0006602D01*
X0108669Y0005835D01*
X0108669Y0005067D01*
X0107902Y0004300D01*
X0106367Y0004300D01*
X0105600Y0005067D01*
X0105600Y0007369D02*
X0105600Y0008137D01*
X0106367Y0008904D01*
X0107902Y0008904D01*
X0108669Y0008137D01*
X0105596Y0009869D02*
X0105596Y0010637D01*
X0106363Y0011404D01*
X0107898Y0011404D01*
X0108665Y0010637D01*
D11*
X0097085Y0006236D02*
X0096468Y0006853D01*
X0094616Y0006853D01*
X0094616Y0003150D01*
X0096468Y0003150D01*
X0097085Y0003767D01*
X0097085Y0006236D01*
X0093402Y0006853D02*
X0093402Y0003150D01*
X0090933Y0006853D01*
X0090933Y0003150D01*
X0089719Y0003767D02*
X0089102Y0003150D01*
X0087867Y0003150D01*
X0087250Y0003767D01*
X0087250Y0006236D01*
X0087867Y0006853D01*
X0089102Y0006853D01*
X0089719Y0006236D01*
X0089719Y0005002D02*
X0088484Y0005002D01*
X0089719Y0005002D02*
X0089719Y0003767D01*
X0078585Y0003767D02*
X0078585Y0006853D01*
X0076116Y0006853D02*
X0076116Y0003767D01*
X0076733Y0003150D01*
X0077968Y0003150D01*
X0078585Y0003767D01*
X0074902Y0003150D02*
X0072433Y0003150D01*
X0072433Y0006853D01*
X0071219Y0006236D02*
X0070602Y0006853D01*
X0068750Y0006853D01*
X0068750Y0003150D01*
X0070602Y0003150D01*
X0071219Y0003767D01*
X0071219Y0004384D01*
X0070602Y0005002D01*
X0068750Y0005002D01*
X0070602Y0005002D02*
X0071219Y0005619D01*
X0071219Y0006236D01*
X0059585Y0006853D02*
X0059585Y0003150D01*
X0057116Y0006853D01*
X0057116Y0003150D01*
X0055902Y0003150D02*
X0054668Y0004384D01*
X0055285Y0004384D02*
X0055902Y0005002D01*
X0055902Y0006236D01*
X0055285Y0006853D01*
X0053433Y0006853D01*
X0053433Y0003150D01*
X0052219Y0003767D02*
X0051602Y0003150D01*
X0050367Y0003150D01*
X0049750Y0003767D01*
X0049750Y0006236D01*
X0050367Y0006853D01*
X0051602Y0006853D01*
X0052219Y0006236D01*
X0052219Y0005002D02*
X0050984Y0005002D01*
X0052219Y0005002D02*
X0052219Y0003767D01*
X0053433Y0004384D02*
X0055285Y0004384D01*
X0040085Y0003767D02*
X0040085Y0006236D01*
X0039468Y0006853D01*
X0037616Y0006853D01*
X0037616Y0003150D01*
X0039468Y0003150D01*
X0040085Y0003767D01*
X0036402Y0003150D02*
X0033933Y0003150D01*
X0033933Y0006853D01*
X0036402Y0006853D01*
X0032719Y0006236D02*
X0032719Y0005002D01*
X0032102Y0004384D01*
X0030250Y0004384D01*
X0031484Y0004384D02*
X0032719Y0003150D01*
X0030250Y0003150D02*
X0030250Y0006853D01*
X0032102Y0006853D01*
X0032719Y0006236D01*
X0033933Y0005002D02*
X0035168Y0005002D01*
X0024050Y0007550D02*
X0021581Y0010019D01*
X0020964Y0010019D01*
X0020347Y0009402D01*
X0020347Y0008167D01*
X0020964Y0007550D01*
X0024050Y0007550D02*
X0024050Y0010019D01*
X0023433Y0011233D02*
X0020964Y0011233D01*
X0020347Y0011850D01*
X0020347Y0013085D01*
X0020964Y0013702D01*
X0023433Y0011233D01*
X0024050Y0011850D01*
X0024050Y0013085D01*
X0023433Y0013702D01*
X0020964Y0013702D01*
X0020964Y0014916D02*
X0020347Y0015533D01*
X0020347Y0016768D01*
X0020964Y0017385D01*
X0021581Y0017385D01*
X0024050Y0014916D01*
X0024050Y0017385D01*
X0023433Y0018599D02*
X0020964Y0018599D01*
X0020347Y0019217D01*
X0020347Y0020451D01*
X0020964Y0021068D01*
X0023433Y0018599D01*
X0024050Y0019217D01*
X0024050Y0020451D01*
X0023433Y0021068D01*
X0020964Y0021068D01*
X0020964Y0022283D02*
X0020347Y0022900D01*
X0020347Y0024134D01*
X0020964Y0024751D01*
X0023433Y0022283D01*
X0024050Y0022900D01*
X0024050Y0024134D01*
X0023433Y0024751D01*
X0020964Y0024751D01*
X0021581Y0025966D02*
X0020347Y0027200D01*
X0024050Y0027200D01*
X0024050Y0025966D02*
X0024050Y0028434D01*
X0023433Y0029649D02*
X0020964Y0029649D01*
X0020347Y0030266D01*
X0020347Y0031500D01*
X0020964Y0032118D01*
X0023433Y0029649D01*
X0024050Y0030266D01*
X0024050Y0031500D01*
X0023433Y0032118D01*
X0020964Y0032118D01*
X0021581Y0033332D02*
X0020347Y0034566D01*
X0024050Y0034566D01*
X0024050Y0033332D02*
X0024050Y0035801D01*
X0023433Y0022283D02*
X0020964Y0022283D01*
X0121347Y0022466D02*
X0121347Y0024934D01*
X0121347Y0023700D02*
X0125050Y0023700D01*
X0124433Y0021251D02*
X0121347Y0021251D01*
X0124433Y0021251D02*
X0125050Y0020634D01*
X0125050Y0019400D01*
X0124433Y0018783D01*
X0121347Y0018783D01*
X0121964Y0017568D02*
X0121347Y0016951D01*
X0121347Y0015717D01*
X0121964Y0015099D01*
X0124433Y0015099D01*
X0125050Y0015717D01*
X0125050Y0016951D01*
X0124433Y0017568D01*
X0121964Y0017568D01*
X0121964Y0010202D02*
X0121347Y0009585D01*
X0121347Y0008350D01*
X0121964Y0007733D01*
X0124433Y0007733D01*
X0125050Y0008350D01*
X0125050Y0009585D01*
X0124433Y0010202D01*
X0121964Y0010202D01*
X0121347Y0006519D02*
X0121347Y0004050D01*
X0121347Y0005284D02*
X0125050Y0005284D01*
X0124433Y0026149D02*
X0125050Y0026766D01*
X0125050Y0028000D01*
X0124433Y0028618D01*
X0123816Y0028618D01*
X0123198Y0028000D01*
X0123198Y0026766D01*
X0122581Y0026149D01*
X0121964Y0026149D01*
X0121347Y0026766D01*
X0121347Y0028000D01*
X0121964Y0028618D01*
X0121347Y0029832D02*
X0121347Y0031066D01*
X0121347Y0030449D02*
X0125050Y0030449D01*
X0125050Y0029832D02*
X0125050Y0031066D01*
X0125050Y0032287D02*
X0121347Y0032287D01*
X0121347Y0034139D01*
X0121964Y0034756D01*
X0124433Y0034756D01*
X0125050Y0034139D01*
X0125050Y0032287D01*
X0125050Y0035971D02*
X0121347Y0035971D01*
X0121347Y0038439D01*
X0123198Y0037205D02*
X0123198Y0035971D01*
X0125050Y0035971D02*
X0125050Y0038439D01*
M02*
